%TF.GenerationSoftware,KiCad,Pcbnew,(5.1.9)-1*%
%TF.CreationDate,2021-01-17T12:11:35+11:00*%
%TF.ProjectId,SIMMCON,53494d4d-434f-44e2-9e6b-696361645f70,rev?*%
%TF.SameCoordinates,Original*%
%TF.FileFunction,Copper,L2,Bot*%
%TF.FilePolarity,Positive*%
%FSLAX46Y46*%
G04 Gerber Fmt 4.6, Leading zero omitted, Abs format (unit mm)*
G04 Created by KiCad (PCBNEW (5.1.9)-1) date 2021-01-17 12:11:35*
%MOMM*%
%LPD*%
G01*
G04 APERTURE LIST*
%TA.AperFunction,ComponentPad*%
%ADD10R,1.700000X1.700000*%
%TD*%
%TA.AperFunction,ComponentPad*%
%ADD11O,1.700000X1.700000*%
%TD*%
%TA.AperFunction,ComponentPad*%
%ADD12C,3.048000*%
%TD*%
%TA.AperFunction,ComponentPad*%
%ADD13R,1.143000X1.143000*%
%TD*%
%TA.AperFunction,ComponentPad*%
%ADD14C,1.143000*%
%TD*%
%TA.AperFunction,ComponentPad*%
%ADD15R,1.350000X1.350000*%
%TD*%
%TA.AperFunction,ComponentPad*%
%ADD16O,1.350000X1.350000*%
%TD*%
%TA.AperFunction,Conductor*%
%ADD17C,0.254000*%
%TD*%
%TA.AperFunction,Conductor*%
%ADD18C,0.100000*%
%TD*%
G04 APERTURE END LIST*
D10*
%TO.P,JP2,1*%
%TO.N,GND*%
X100711000Y-132842000D03*
D11*
%TO.P,JP2,2*%
%TO.N,PD2*%
X103251000Y-132842000D03*
%TO.P,JP2,3*%
%TO.N,VCC*%
X105791000Y-132842000D03*
%TD*%
D10*
%TO.P,JP1,1*%
%TO.N,GND*%
X100584000Y-136652000D03*
D11*
%TO.P,JP1,2*%
%TO.N,PD1*%
X103124000Y-136652000D03*
%TO.P,JP1,3*%
%TO.N,VCC*%
X105664000Y-136652000D03*
%TD*%
D12*
%TO.P,SIMM72,*%
%TO.N,*%
X99060000Y-110490000D03*
X43180000Y-110490000D03*
X154940000Y-110490000D03*
D13*
%TO.P,SIMM72,1*%
%TO.N,GND*%
X146685000Y-111760000D03*
D14*
%TO.P,SIMM72,2*%
%TO.N,D0*%
X145415000Y-109220000D03*
%TO.P,SIMM72,3*%
X144145000Y-111760000D03*
%TO.P,SIMM72,4*%
%TO.N,D1*%
X142875000Y-109220000D03*
%TO.P,SIMM72,5*%
X141605000Y-111760000D03*
%TO.P,SIMM72,6*%
%TO.N,D2*%
X140335000Y-109220000D03*
%TO.P,SIMM72,7*%
X139065000Y-111760000D03*
%TO.P,SIMM72,8*%
%TO.N,D3*%
X137795000Y-109220000D03*
%TO.P,SIMM72,9*%
X136525000Y-111760000D03*
%TO.P,SIMM72,10*%
%TO.N,VCC*%
X135255000Y-109220000D03*
%TO.P,SIMM72,11*%
%TO.N,N/C*%
X133985000Y-111760000D03*
%TO.P,SIMM72,12*%
%TO.N,AB0*%
X132715000Y-109220000D03*
%TO.P,SIMM72,13*%
%TO.N,AB1*%
X131445000Y-111760000D03*
%TO.P,SIMM72,14*%
%TO.N,AB2*%
X130175000Y-109220000D03*
%TO.P,SIMM72,15*%
%TO.N,AB3*%
X128905000Y-111760000D03*
%TO.P,SIMM72,16*%
%TO.N,AB4*%
X127635000Y-109220000D03*
%TO.P,SIMM72,17*%
%TO.N,AB5*%
X126365000Y-111760000D03*
%TO.P,SIMM72,18*%
%TO.N,AB6*%
X125095000Y-109220000D03*
%TO.P,SIMM72,19*%
%TO.N,AB10*%
X123825000Y-111760000D03*
%TO.P,SIMM72,20*%
%TO.N,D4*%
X122555000Y-109220000D03*
%TO.P,SIMM72,21*%
X121285000Y-111760000D03*
%TO.P,SIMM72,22*%
%TO.N,D5*%
X120015000Y-109220000D03*
%TO.P,SIMM72,23*%
X118745000Y-111760000D03*
%TO.P,SIMM72,24*%
%TO.N,D6*%
X117475000Y-109220000D03*
%TO.P,SIMM72,25*%
X116205000Y-111760000D03*
%TO.P,SIMM72,26*%
%TO.N,D7*%
X114935000Y-109220000D03*
%TO.P,SIMM72,27*%
X113665000Y-111760000D03*
%TO.P,SIMM72,28*%
%TO.N,AB7*%
X112395000Y-109220000D03*
%TO.P,SIMM72,29*%
%TO.N,AB11*%
X111125000Y-111760000D03*
%TO.P,SIMM72,30*%
%TO.N,VCC*%
X109855000Y-109220000D03*
%TO.P,SIMM72,31*%
%TO.N,AB8*%
X108585000Y-111760000D03*
%TO.P,SIMM72,32*%
%TO.N,AB9*%
X107315000Y-109220000D03*
%TO.P,SIMM72,33*%
%TO.N,BRAS1*%
X106045000Y-111760000D03*
%TO.P,SIMM72,34*%
%TO.N,BRAS0*%
X104775000Y-109220000D03*
%TO.P,SIMM72,35*%
%TO.N,N/C*%
X103505000Y-111760000D03*
%TO.P,SIMM72,36*%
X102235000Y-109220000D03*
%TO.P,SIMM72,37*%
X95885000Y-111760000D03*
%TO.P,SIMM72,38*%
X94615000Y-109220000D03*
%TO.P,SIMM72,39*%
%TO.N,GND*%
X93345000Y-111760000D03*
%TO.P,SIMM72,40*%
%TO.N,BCAS0*%
X92075000Y-109220000D03*
%TO.P,SIMM72,41*%
X90805000Y-111760000D03*
%TO.P,SIMM72,42*%
%TO.N,BCAS2*%
X89535000Y-109220000D03*
%TO.P,SIMM72,43*%
X88265000Y-111760000D03*
%TO.P,SIMM72,44*%
%TO.N,BRAS0*%
X86995000Y-109220000D03*
%TO.P,SIMM72,45*%
%TO.N,BRAS1*%
X85725000Y-111760000D03*
%TO.P,SIMM72,46*%
%TO.N,N/C*%
X84455000Y-109220000D03*
%TO.P,SIMM72,47*%
%TO.N,Net-(R1-Pad1)*%
X83185000Y-111760000D03*
%TO.P,SIMM72,48*%
%TO.N,N/C*%
X81915000Y-109220000D03*
%TO.P,SIMM72,49*%
%TO.N,D8*%
X80645000Y-111760000D03*
%TO.P,SIMM72,50*%
X79375000Y-109220000D03*
%TO.P,SIMM72,51*%
%TO.N,D9*%
X78105000Y-111760000D03*
%TO.P,SIMM72,52*%
X76835000Y-109220000D03*
%TO.P,SIMM72,53*%
%TO.N,D10*%
X75565000Y-111760000D03*
%TO.P,SIMM72,54*%
X74295000Y-109220000D03*
%TO.P,SIMM72,55*%
%TO.N,D11*%
X73025000Y-111760000D03*
%TO.P,SIMM72,56*%
X71755000Y-109220000D03*
%TO.P,SIMM72,57*%
%TO.N,D12*%
X70485000Y-111760000D03*
%TO.P,SIMM72,58*%
X69215000Y-109220000D03*
%TO.P,SIMM72,59*%
%TO.N,VCC*%
X67945000Y-111760000D03*
%TO.P,SIMM72,60*%
%TO.N,D13*%
X66675000Y-109220000D03*
%TO.P,SIMM72,61*%
X65405000Y-111760000D03*
%TO.P,SIMM72,62*%
%TO.N,D14*%
X64135000Y-109220000D03*
%TO.P,SIMM72,63*%
X62865000Y-111760000D03*
%TO.P,SIMM72,64*%
%TO.N,D15*%
X61595000Y-109220000D03*
%TO.P,SIMM72,65*%
X60325000Y-111760000D03*
%TO.P,SIMM72,66*%
%TO.N,N/C*%
X59055000Y-109220000D03*
%TO.P,SIMM72,67*%
%TO.N,Net-(SIMM72-Pad67)*%
X57785000Y-111760000D03*
%TO.P,SIMM72,68*%
%TO.N,Net-(SIMM72-Pad68)*%
X56515000Y-109220000D03*
%TO.P,SIMM72,69*%
%TO.N,N/C*%
X55245000Y-111760000D03*
%TO.P,SIMM72,70*%
X53975000Y-109220000D03*
%TO.P,SIMM72,71*%
X52705000Y-111760000D03*
%TO.P,SIMM72,72*%
%TO.N,GND*%
X51435000Y-109220000D03*
%TD*%
D15*
%TO.P,J1,1*%
%TO.N,VCC*%
X131191000Y-100330000D03*
D16*
%TO.P,J1,2*%
X131191000Y-98330000D03*
%TO.P,J1,3*%
%TO.N,A4*%
X133191000Y-100330000D03*
%TO.P,J1,4*%
%TO.N,A9*%
X133191000Y-98330000D03*
%TO.P,J1,5*%
%TO.N,A6*%
X135191000Y-100330000D03*
%TO.P,J1,6*%
%TO.N,A5*%
X135191000Y-98330000D03*
%TO.P,J1,7*%
%TO.N,A8*%
X137191000Y-100330000D03*
%TO.P,J1,8*%
%TO.N,A7*%
X137191000Y-98330000D03*
%TO.P,J1,9*%
%TO.N,GND*%
X139191000Y-100330000D03*
%TO.P,J1,10*%
X139191000Y-98330000D03*
%TO.P,J1,11*%
X141191000Y-100330000D03*
%TO.P,J1,12*%
X141191000Y-98330000D03*
%TO.P,J1,13*%
%TO.N,CAS*%
X143191000Y-100330000D03*
%TO.P,J1,14*%
%TO.N,BASEM1*%
X143191000Y-98330000D03*
%TO.P,J1,15*%
%TO.N,GND*%
X145191000Y-100330000D03*
%TO.P,J1,16*%
X145191000Y-98330000D03*
%TO.P,J1,17*%
%TO.N,D9*%
X147191000Y-100330000D03*
%TO.P,J1,18*%
%TO.N,D8*%
X147191000Y-98330000D03*
%TO.P,J1,19*%
%TO.N,D11*%
X149191000Y-100330000D03*
%TO.P,J1,20*%
%TO.N,D10*%
X149191000Y-98330000D03*
%TO.P,J1,21*%
%TO.N,D13*%
X151191000Y-100330000D03*
%TO.P,J1,22*%
%TO.N,D12*%
X151191000Y-98330000D03*
%TO.P,J1,23*%
%TO.N,D15*%
X153191000Y-100330000D03*
%TO.P,J1,24*%
%TO.N,D14*%
X153191000Y-98330000D03*
%TO.P,J1,25*%
%TO.N,VCC*%
X155191000Y-100330000D03*
%TO.P,J1,26*%
X155191000Y-98330000D03*
%TD*%
D15*
%TO.P,J2,1*%
%TO.N,BASEM0*%
X131191000Y-136842000D03*
D16*
%TO.P,J2,2*%
%TO.N,VCC*%
X131191000Y-134842000D03*
%TO.P,J2,3*%
%TO.N,A3*%
X133191000Y-136842000D03*
%TO.P,J2,4*%
%TO.N,A10*%
X133191000Y-134842000D03*
%TO.P,J2,5*%
%TO.N,A1*%
X135191000Y-136842000D03*
%TO.P,J2,6*%
%TO.N,A2*%
X135191000Y-134842000D03*
%TO.P,J2,7*%
%TO.N,A11*%
X137191000Y-136842000D03*
%TO.P,J2,8*%
%TO.N,A0*%
X137191000Y-134842000D03*
%TO.P,J2,9*%
%TO.N,GND*%
X139191000Y-136842000D03*
%TO.P,J2,10*%
X139191000Y-134842000D03*
%TO.P,J2,11*%
%TO.N,WE*%
X141191000Y-136842000D03*
%TO.P,J2,12*%
%TO.N,RAS*%
X141191000Y-134842000D03*
%TO.P,J2,13*%
%TO.N,GND*%
X143191000Y-136842000D03*
%TO.P,J2,14*%
X143191000Y-134842000D03*
%TO.P,J2,15*%
%TO.N,D6*%
X145191000Y-136842000D03*
%TO.P,J2,16*%
%TO.N,D7*%
X145191000Y-134842000D03*
%TO.P,J2,17*%
%TO.N,D4*%
X147191000Y-136842000D03*
%TO.P,J2,18*%
%TO.N,D5*%
X147191000Y-134842000D03*
%TO.P,J2,19*%
%TO.N,D2*%
X149191000Y-136842000D03*
%TO.P,J2,20*%
%TO.N,D3*%
X149191000Y-134842000D03*
%TO.P,J2,21*%
%TO.N,D0*%
X151191000Y-136842000D03*
%TO.P,J2,22*%
%TO.N,D1*%
X151191000Y-134842000D03*
%TO.P,J2,23*%
%TO.N,VCC*%
X153191000Y-136842000D03*
%TO.P,J2,24*%
X153191000Y-134842000D03*
%TD*%
D17*
%TO.N,GND*%
X158090001Y-139040000D02*
X40030000Y-139040000D01*
X40030000Y-137502000D01*
X99095928Y-137502000D01*
X99108188Y-137626482D01*
X99144498Y-137746180D01*
X99203463Y-137856494D01*
X99282815Y-137953185D01*
X99379506Y-138032537D01*
X99489820Y-138091502D01*
X99609518Y-138127812D01*
X99734000Y-138140072D01*
X100298250Y-138137000D01*
X100457000Y-137978250D01*
X100457000Y-136779000D01*
X99257750Y-136779000D01*
X99099000Y-136937750D01*
X99095928Y-137502000D01*
X40030000Y-137502000D01*
X40030000Y-135802000D01*
X99095928Y-135802000D01*
X99099000Y-136366250D01*
X99257750Y-136525000D01*
X100457000Y-136525000D01*
X100457000Y-135325750D01*
X100711000Y-135325750D01*
X100711000Y-136525000D01*
X100731000Y-136525000D01*
X100731000Y-136779000D01*
X100711000Y-136779000D01*
X100711000Y-137978250D01*
X100869750Y-138137000D01*
X101434000Y-138140072D01*
X101558482Y-138127812D01*
X101678180Y-138091502D01*
X101788494Y-138032537D01*
X101885185Y-137953185D01*
X101964537Y-137856494D01*
X102023502Y-137746180D01*
X102045513Y-137673620D01*
X102177368Y-137805475D01*
X102420589Y-137967990D01*
X102690842Y-138079932D01*
X102977740Y-138137000D01*
X103270260Y-138137000D01*
X103557158Y-138079932D01*
X103827411Y-137967990D01*
X104070632Y-137805475D01*
X104277475Y-137598632D01*
X104394000Y-137424240D01*
X104510525Y-137598632D01*
X104717368Y-137805475D01*
X104960589Y-137967990D01*
X105230842Y-138079932D01*
X105517740Y-138137000D01*
X105810260Y-138137000D01*
X106097158Y-138079932D01*
X106367411Y-137967990D01*
X106610632Y-137805475D01*
X106817475Y-137598632D01*
X106979990Y-137355411D01*
X107091932Y-137085158D01*
X107149000Y-136798260D01*
X107149000Y-136505740D01*
X107091932Y-136218842D01*
X107070459Y-136167000D01*
X129877928Y-136167000D01*
X129877928Y-137517000D01*
X129890188Y-137641482D01*
X129926498Y-137761180D01*
X129985463Y-137871494D01*
X130064815Y-137968185D01*
X130161506Y-138047537D01*
X130271820Y-138106502D01*
X130391518Y-138142812D01*
X130516000Y-138155072D01*
X131866000Y-138155072D01*
X131990482Y-138142812D01*
X132110180Y-138106502D01*
X132220494Y-138047537D01*
X132317185Y-137968185D01*
X132388487Y-137881303D01*
X132570482Y-138002907D01*
X132808887Y-138101658D01*
X133061976Y-138152000D01*
X133320024Y-138152000D01*
X133573113Y-138101658D01*
X133811518Y-138002907D01*
X134026077Y-137859544D01*
X134191000Y-137694621D01*
X134355923Y-137859544D01*
X134570482Y-138002907D01*
X134808887Y-138101658D01*
X135061976Y-138152000D01*
X135320024Y-138152000D01*
X135573113Y-138101658D01*
X135811518Y-138002907D01*
X136026077Y-137859544D01*
X136191000Y-137694621D01*
X136355923Y-137859544D01*
X136570482Y-138002907D01*
X136808887Y-138101658D01*
X137061976Y-138152000D01*
X137320024Y-138152000D01*
X137573113Y-138101658D01*
X137811518Y-138002907D01*
X138026077Y-137859544D01*
X138197681Y-137687940D01*
X138319773Y-137820303D01*
X138527371Y-137971473D01*
X138760472Y-138079238D01*
X138861600Y-138109910D01*
X139064000Y-137986224D01*
X139064000Y-136969000D01*
X139044000Y-136969000D01*
X139044000Y-136715000D01*
X139064000Y-136715000D01*
X139064000Y-134969000D01*
X139044000Y-134969000D01*
X139044000Y-134715000D01*
X139064000Y-134715000D01*
X139064000Y-133697776D01*
X139318000Y-133697776D01*
X139318000Y-134715000D01*
X139338000Y-134715000D01*
X139338000Y-134969000D01*
X139318000Y-134969000D01*
X139318000Y-136715000D01*
X139338000Y-136715000D01*
X139338000Y-136969000D01*
X139318000Y-136969000D01*
X139318000Y-137986224D01*
X139520400Y-138109910D01*
X139621528Y-138079238D01*
X139854629Y-137971473D01*
X140062227Y-137820303D01*
X140184319Y-137687940D01*
X140355923Y-137859544D01*
X140570482Y-138002907D01*
X140808887Y-138101658D01*
X141061976Y-138152000D01*
X141320024Y-138152000D01*
X141573113Y-138101658D01*
X141811518Y-138002907D01*
X142026077Y-137859544D01*
X142197681Y-137687940D01*
X142319773Y-137820303D01*
X142527371Y-137971473D01*
X142760472Y-138079238D01*
X142861600Y-138109910D01*
X143064000Y-137986224D01*
X143064000Y-136969000D01*
X143044000Y-136969000D01*
X143044000Y-136715000D01*
X143064000Y-136715000D01*
X143064000Y-134969000D01*
X143044000Y-134969000D01*
X143044000Y-134715000D01*
X143064000Y-134715000D01*
X143064000Y-133697776D01*
X143318000Y-133697776D01*
X143318000Y-134715000D01*
X143338000Y-134715000D01*
X143338000Y-134969000D01*
X143318000Y-134969000D01*
X143318000Y-136715000D01*
X143338000Y-136715000D01*
X143338000Y-136969000D01*
X143318000Y-136969000D01*
X143318000Y-137986224D01*
X143520400Y-138109910D01*
X143621528Y-138079238D01*
X143854629Y-137971473D01*
X144062227Y-137820303D01*
X144184319Y-137687940D01*
X144355923Y-137859544D01*
X144570482Y-138002907D01*
X144808887Y-138101658D01*
X145061976Y-138152000D01*
X145320024Y-138152000D01*
X145573113Y-138101658D01*
X145811518Y-138002907D01*
X146026077Y-137859544D01*
X146191000Y-137694621D01*
X146355923Y-137859544D01*
X146570482Y-138002907D01*
X146808887Y-138101658D01*
X147061976Y-138152000D01*
X147320024Y-138152000D01*
X147573113Y-138101658D01*
X147811518Y-138002907D01*
X148026077Y-137859544D01*
X148191000Y-137694621D01*
X148355923Y-137859544D01*
X148570482Y-138002907D01*
X148808887Y-138101658D01*
X149061976Y-138152000D01*
X149320024Y-138152000D01*
X149573113Y-138101658D01*
X149811518Y-138002907D01*
X150026077Y-137859544D01*
X150191000Y-137694621D01*
X150355923Y-137859544D01*
X150570482Y-138002907D01*
X150808887Y-138101658D01*
X151061976Y-138152000D01*
X151320024Y-138152000D01*
X151573113Y-138101658D01*
X151811518Y-138002907D01*
X152026077Y-137859544D01*
X152191000Y-137694621D01*
X152355923Y-137859544D01*
X152570482Y-138002907D01*
X152808887Y-138101658D01*
X153061976Y-138152000D01*
X153320024Y-138152000D01*
X153573113Y-138101658D01*
X153811518Y-138002907D01*
X154026077Y-137859544D01*
X154208544Y-137677077D01*
X154351907Y-137462518D01*
X154450658Y-137224113D01*
X154501000Y-136971024D01*
X154501000Y-136712976D01*
X154450658Y-136459887D01*
X154351907Y-136221482D01*
X154208544Y-136006923D01*
X154043621Y-135842000D01*
X154208544Y-135677077D01*
X154351907Y-135462518D01*
X154450658Y-135224113D01*
X154501000Y-134971024D01*
X154501000Y-134712976D01*
X154450658Y-134459887D01*
X154351907Y-134221482D01*
X154208544Y-134006923D01*
X154026077Y-133824456D01*
X153811518Y-133681093D01*
X153573113Y-133582342D01*
X153320024Y-133532000D01*
X153061976Y-133532000D01*
X152808887Y-133582342D01*
X152570482Y-133681093D01*
X152355923Y-133824456D01*
X152191000Y-133989379D01*
X152026077Y-133824456D01*
X151811518Y-133681093D01*
X151573113Y-133582342D01*
X151320024Y-133532000D01*
X151061976Y-133532000D01*
X150808887Y-133582342D01*
X150570482Y-133681093D01*
X150355923Y-133824456D01*
X150191000Y-133989379D01*
X150026077Y-133824456D01*
X149811518Y-133681093D01*
X149573113Y-133582342D01*
X149320024Y-133532000D01*
X149061976Y-133532000D01*
X148808887Y-133582342D01*
X148570482Y-133681093D01*
X148355923Y-133824456D01*
X148191000Y-133989379D01*
X148026077Y-133824456D01*
X147811518Y-133681093D01*
X147573113Y-133582342D01*
X147320024Y-133532000D01*
X147061976Y-133532000D01*
X146808887Y-133582342D01*
X146570482Y-133681093D01*
X146355923Y-133824456D01*
X146191000Y-133989379D01*
X146026077Y-133824456D01*
X145811518Y-133681093D01*
X145573113Y-133582342D01*
X145320024Y-133532000D01*
X145061976Y-133532000D01*
X144808887Y-133582342D01*
X144570482Y-133681093D01*
X144355923Y-133824456D01*
X144184319Y-133996060D01*
X144062227Y-133863697D01*
X143854629Y-133712527D01*
X143621528Y-133604762D01*
X143520400Y-133574090D01*
X143318000Y-133697776D01*
X143064000Y-133697776D01*
X142861600Y-133574090D01*
X142760472Y-133604762D01*
X142527371Y-133712527D01*
X142319773Y-133863697D01*
X142197681Y-133996060D01*
X142026077Y-133824456D01*
X141811518Y-133681093D01*
X141573113Y-133582342D01*
X141320024Y-133532000D01*
X141061976Y-133532000D01*
X140808887Y-133582342D01*
X140570482Y-133681093D01*
X140355923Y-133824456D01*
X140184319Y-133996060D01*
X140062227Y-133863697D01*
X139854629Y-133712527D01*
X139621528Y-133604762D01*
X139520400Y-133574090D01*
X139318000Y-133697776D01*
X139064000Y-133697776D01*
X138861600Y-133574090D01*
X138760472Y-133604762D01*
X138527371Y-133712527D01*
X138319773Y-133863697D01*
X138197681Y-133996060D01*
X138026077Y-133824456D01*
X137811518Y-133681093D01*
X137573113Y-133582342D01*
X137320024Y-133532000D01*
X137061976Y-133532000D01*
X136808887Y-133582342D01*
X136570482Y-133681093D01*
X136355923Y-133824456D01*
X136191000Y-133989379D01*
X136026077Y-133824456D01*
X135811518Y-133681093D01*
X135573113Y-133582342D01*
X135320024Y-133532000D01*
X135061976Y-133532000D01*
X134808887Y-133582342D01*
X134570482Y-133681093D01*
X134355923Y-133824456D01*
X134191000Y-133989379D01*
X134026077Y-133824456D01*
X133811518Y-133681093D01*
X133573113Y-133582342D01*
X133320024Y-133532000D01*
X133061976Y-133532000D01*
X132808887Y-133582342D01*
X132570482Y-133681093D01*
X132355923Y-133824456D01*
X132191000Y-133989379D01*
X132026077Y-133824456D01*
X131811518Y-133681093D01*
X131573113Y-133582342D01*
X131320024Y-133532000D01*
X131061976Y-133532000D01*
X130808887Y-133582342D01*
X130570482Y-133681093D01*
X130355923Y-133824456D01*
X130173456Y-134006923D01*
X130030093Y-134221482D01*
X129931342Y-134459887D01*
X129881000Y-134712976D01*
X129881000Y-134971024D01*
X129931342Y-135224113D01*
X130030093Y-135462518D01*
X130151697Y-135644513D01*
X130064815Y-135715815D01*
X129985463Y-135812506D01*
X129926498Y-135922820D01*
X129890188Y-136042518D01*
X129877928Y-136167000D01*
X107070459Y-136167000D01*
X106979990Y-135948589D01*
X106817475Y-135705368D01*
X106610632Y-135498525D01*
X106367411Y-135336010D01*
X106097158Y-135224068D01*
X105810260Y-135167000D01*
X105517740Y-135167000D01*
X105230842Y-135224068D01*
X104960589Y-135336010D01*
X104717368Y-135498525D01*
X104510525Y-135705368D01*
X104394000Y-135879760D01*
X104277475Y-135705368D01*
X104070632Y-135498525D01*
X103827411Y-135336010D01*
X103557158Y-135224068D01*
X103270260Y-135167000D01*
X102977740Y-135167000D01*
X102690842Y-135224068D01*
X102420589Y-135336010D01*
X102177368Y-135498525D01*
X102045513Y-135630380D01*
X102023502Y-135557820D01*
X101964537Y-135447506D01*
X101885185Y-135350815D01*
X101788494Y-135271463D01*
X101678180Y-135212498D01*
X101558482Y-135176188D01*
X101434000Y-135163928D01*
X100869750Y-135167000D01*
X100711000Y-135325750D01*
X100457000Y-135325750D01*
X100298250Y-135167000D01*
X99734000Y-135163928D01*
X99609518Y-135176188D01*
X99489820Y-135212498D01*
X99379506Y-135271463D01*
X99282815Y-135350815D01*
X99203463Y-135447506D01*
X99144498Y-135557820D01*
X99108188Y-135677518D01*
X99095928Y-135802000D01*
X40030000Y-135802000D01*
X40030000Y-133692000D01*
X99222928Y-133692000D01*
X99235188Y-133816482D01*
X99271498Y-133936180D01*
X99330463Y-134046494D01*
X99409815Y-134143185D01*
X99506506Y-134222537D01*
X99616820Y-134281502D01*
X99736518Y-134317812D01*
X99861000Y-134330072D01*
X100425250Y-134327000D01*
X100584000Y-134168250D01*
X100584000Y-132969000D01*
X99384750Y-132969000D01*
X99226000Y-133127750D01*
X99222928Y-133692000D01*
X40030000Y-133692000D01*
X40030000Y-131992000D01*
X99222928Y-131992000D01*
X99226000Y-132556250D01*
X99384750Y-132715000D01*
X100584000Y-132715000D01*
X100584000Y-131515750D01*
X100838000Y-131515750D01*
X100838000Y-132715000D01*
X100858000Y-132715000D01*
X100858000Y-132969000D01*
X100838000Y-132969000D01*
X100838000Y-134168250D01*
X100996750Y-134327000D01*
X101561000Y-134330072D01*
X101685482Y-134317812D01*
X101805180Y-134281502D01*
X101915494Y-134222537D01*
X102012185Y-134143185D01*
X102091537Y-134046494D01*
X102150502Y-133936180D01*
X102172513Y-133863620D01*
X102304368Y-133995475D01*
X102547589Y-134157990D01*
X102817842Y-134269932D01*
X103104740Y-134327000D01*
X103397260Y-134327000D01*
X103684158Y-134269932D01*
X103954411Y-134157990D01*
X104197632Y-133995475D01*
X104404475Y-133788632D01*
X104521000Y-133614240D01*
X104637525Y-133788632D01*
X104844368Y-133995475D01*
X105087589Y-134157990D01*
X105357842Y-134269932D01*
X105644740Y-134327000D01*
X105937260Y-134327000D01*
X106224158Y-134269932D01*
X106494411Y-134157990D01*
X106737632Y-133995475D01*
X106944475Y-133788632D01*
X107106990Y-133545411D01*
X107218932Y-133275158D01*
X107276000Y-132988260D01*
X107276000Y-132695740D01*
X107218932Y-132408842D01*
X107106990Y-132138589D01*
X106944475Y-131895368D01*
X106737632Y-131688525D01*
X106494411Y-131526010D01*
X106224158Y-131414068D01*
X105937260Y-131357000D01*
X105644740Y-131357000D01*
X105357842Y-131414068D01*
X105087589Y-131526010D01*
X104844368Y-131688525D01*
X104637525Y-131895368D01*
X104521000Y-132069760D01*
X104404475Y-131895368D01*
X104197632Y-131688525D01*
X103954411Y-131526010D01*
X103684158Y-131414068D01*
X103397260Y-131357000D01*
X103104740Y-131357000D01*
X102817842Y-131414068D01*
X102547589Y-131526010D01*
X102304368Y-131688525D01*
X102172513Y-131820380D01*
X102150502Y-131747820D01*
X102091537Y-131637506D01*
X102012185Y-131540815D01*
X101915494Y-131461463D01*
X101805180Y-131402498D01*
X101685482Y-131366188D01*
X101561000Y-131353928D01*
X100996750Y-131357000D01*
X100838000Y-131515750D01*
X100584000Y-131515750D01*
X100425250Y-131357000D01*
X99861000Y-131353928D01*
X99736518Y-131366188D01*
X99616820Y-131402498D01*
X99506506Y-131461463D01*
X99409815Y-131540815D01*
X99330463Y-131637506D01*
X99271498Y-131747820D01*
X99235188Y-131867518D01*
X99222928Y-131992000D01*
X40030000Y-131992000D01*
X40030000Y-110277357D01*
X41021000Y-110277357D01*
X41021000Y-110702643D01*
X41103970Y-111119757D01*
X41266719Y-111512670D01*
X41502996Y-111866282D01*
X41803718Y-112167004D01*
X42157330Y-112403281D01*
X42550243Y-112566030D01*
X42967357Y-112649000D01*
X43392643Y-112649000D01*
X43809757Y-112566030D01*
X44202670Y-112403281D01*
X44556282Y-112167004D01*
X44857004Y-111866282D01*
X45007419Y-111641170D01*
X51498500Y-111641170D01*
X51498500Y-111878830D01*
X51544865Y-112111923D01*
X51635813Y-112331492D01*
X51767850Y-112529099D01*
X51935901Y-112697150D01*
X52133508Y-112829187D01*
X52353077Y-112920135D01*
X52586170Y-112966500D01*
X52823830Y-112966500D01*
X53056923Y-112920135D01*
X53276492Y-112829187D01*
X53474099Y-112697150D01*
X53642150Y-112529099D01*
X53774187Y-112331492D01*
X53865135Y-112111923D01*
X53911500Y-111878830D01*
X53911500Y-111641170D01*
X54038500Y-111641170D01*
X54038500Y-111878830D01*
X54084865Y-112111923D01*
X54175813Y-112331492D01*
X54307850Y-112529099D01*
X54475901Y-112697150D01*
X54673508Y-112829187D01*
X54893077Y-112920135D01*
X55126170Y-112966500D01*
X55363830Y-112966500D01*
X55596923Y-112920135D01*
X55816492Y-112829187D01*
X56014099Y-112697150D01*
X56182150Y-112529099D01*
X56314187Y-112331492D01*
X56405135Y-112111923D01*
X56451500Y-111878830D01*
X56451500Y-111641170D01*
X56578500Y-111641170D01*
X56578500Y-111878830D01*
X56624865Y-112111923D01*
X56715813Y-112331492D01*
X56847850Y-112529099D01*
X57015901Y-112697150D01*
X57213508Y-112829187D01*
X57433077Y-112920135D01*
X57666170Y-112966500D01*
X57903830Y-112966500D01*
X58136923Y-112920135D01*
X58356492Y-112829187D01*
X58554099Y-112697150D01*
X58722150Y-112529099D01*
X58854187Y-112331492D01*
X58945135Y-112111923D01*
X58991500Y-111878830D01*
X58991500Y-111641170D01*
X59118500Y-111641170D01*
X59118500Y-111878830D01*
X59164865Y-112111923D01*
X59255813Y-112331492D01*
X59387850Y-112529099D01*
X59555901Y-112697150D01*
X59753508Y-112829187D01*
X59973077Y-112920135D01*
X60206170Y-112966500D01*
X60443830Y-112966500D01*
X60676923Y-112920135D01*
X60896492Y-112829187D01*
X61094099Y-112697150D01*
X61262150Y-112529099D01*
X61394187Y-112331492D01*
X61485135Y-112111923D01*
X61531500Y-111878830D01*
X61531500Y-111641170D01*
X61658500Y-111641170D01*
X61658500Y-111878830D01*
X61704865Y-112111923D01*
X61795813Y-112331492D01*
X61927850Y-112529099D01*
X62095901Y-112697150D01*
X62293508Y-112829187D01*
X62513077Y-112920135D01*
X62746170Y-112966500D01*
X62983830Y-112966500D01*
X63216923Y-112920135D01*
X63436492Y-112829187D01*
X63634099Y-112697150D01*
X63802150Y-112529099D01*
X63934187Y-112331492D01*
X64025135Y-112111923D01*
X64071500Y-111878830D01*
X64071500Y-111641170D01*
X64198500Y-111641170D01*
X64198500Y-111878830D01*
X64244865Y-112111923D01*
X64335813Y-112331492D01*
X64467850Y-112529099D01*
X64635901Y-112697150D01*
X64833508Y-112829187D01*
X65053077Y-112920135D01*
X65286170Y-112966500D01*
X65523830Y-112966500D01*
X65756923Y-112920135D01*
X65976492Y-112829187D01*
X66174099Y-112697150D01*
X66342150Y-112529099D01*
X66474187Y-112331492D01*
X66565135Y-112111923D01*
X66611500Y-111878830D01*
X66611500Y-111641170D01*
X66738500Y-111641170D01*
X66738500Y-111878830D01*
X66784865Y-112111923D01*
X66875813Y-112331492D01*
X67007850Y-112529099D01*
X67175901Y-112697150D01*
X67373508Y-112829187D01*
X67593077Y-112920135D01*
X67826170Y-112966500D01*
X68063830Y-112966500D01*
X68296923Y-112920135D01*
X68516492Y-112829187D01*
X68714099Y-112697150D01*
X68882150Y-112529099D01*
X69014187Y-112331492D01*
X69105135Y-112111923D01*
X69151500Y-111878830D01*
X69151500Y-111641170D01*
X69278500Y-111641170D01*
X69278500Y-111878830D01*
X69324865Y-112111923D01*
X69415813Y-112331492D01*
X69547850Y-112529099D01*
X69715901Y-112697150D01*
X69913508Y-112829187D01*
X70133077Y-112920135D01*
X70366170Y-112966500D01*
X70603830Y-112966500D01*
X70836923Y-112920135D01*
X71056492Y-112829187D01*
X71254099Y-112697150D01*
X71422150Y-112529099D01*
X71554187Y-112331492D01*
X71645135Y-112111923D01*
X71691500Y-111878830D01*
X71691500Y-111641170D01*
X71818500Y-111641170D01*
X71818500Y-111878830D01*
X71864865Y-112111923D01*
X71955813Y-112331492D01*
X72087850Y-112529099D01*
X72255901Y-112697150D01*
X72453508Y-112829187D01*
X72673077Y-112920135D01*
X72906170Y-112966500D01*
X73143830Y-112966500D01*
X73376923Y-112920135D01*
X73596492Y-112829187D01*
X73794099Y-112697150D01*
X73962150Y-112529099D01*
X74094187Y-112331492D01*
X74185135Y-112111923D01*
X74231500Y-111878830D01*
X74231500Y-111641170D01*
X74358500Y-111641170D01*
X74358500Y-111878830D01*
X74404865Y-112111923D01*
X74495813Y-112331492D01*
X74627850Y-112529099D01*
X74795901Y-112697150D01*
X74993508Y-112829187D01*
X75213077Y-112920135D01*
X75446170Y-112966500D01*
X75683830Y-112966500D01*
X75916923Y-112920135D01*
X76136492Y-112829187D01*
X76334099Y-112697150D01*
X76502150Y-112529099D01*
X76634187Y-112331492D01*
X76725135Y-112111923D01*
X76771500Y-111878830D01*
X76771500Y-111641170D01*
X76898500Y-111641170D01*
X76898500Y-111878830D01*
X76944865Y-112111923D01*
X77035813Y-112331492D01*
X77167850Y-112529099D01*
X77335901Y-112697150D01*
X77533508Y-112829187D01*
X77753077Y-112920135D01*
X77986170Y-112966500D01*
X78223830Y-112966500D01*
X78456923Y-112920135D01*
X78676492Y-112829187D01*
X78874099Y-112697150D01*
X79042150Y-112529099D01*
X79174187Y-112331492D01*
X79265135Y-112111923D01*
X79311500Y-111878830D01*
X79311500Y-111641170D01*
X79438500Y-111641170D01*
X79438500Y-111878830D01*
X79484865Y-112111923D01*
X79575813Y-112331492D01*
X79707850Y-112529099D01*
X79875901Y-112697150D01*
X80073508Y-112829187D01*
X80293077Y-112920135D01*
X80526170Y-112966500D01*
X80763830Y-112966500D01*
X80996923Y-112920135D01*
X81216492Y-112829187D01*
X81414099Y-112697150D01*
X81582150Y-112529099D01*
X81714187Y-112331492D01*
X81805135Y-112111923D01*
X81851500Y-111878830D01*
X81851500Y-111641170D01*
X81978500Y-111641170D01*
X81978500Y-111878830D01*
X82024865Y-112111923D01*
X82115813Y-112331492D01*
X82247850Y-112529099D01*
X82415901Y-112697150D01*
X82613508Y-112829187D01*
X82833077Y-112920135D01*
X83066170Y-112966500D01*
X83303830Y-112966500D01*
X83536923Y-112920135D01*
X83756492Y-112829187D01*
X83954099Y-112697150D01*
X84122150Y-112529099D01*
X84254187Y-112331492D01*
X84345135Y-112111923D01*
X84391500Y-111878830D01*
X84391500Y-111641170D01*
X84518500Y-111641170D01*
X84518500Y-111878830D01*
X84564865Y-112111923D01*
X84655813Y-112331492D01*
X84787850Y-112529099D01*
X84955901Y-112697150D01*
X85153508Y-112829187D01*
X85373077Y-112920135D01*
X85606170Y-112966500D01*
X85843830Y-112966500D01*
X86076923Y-112920135D01*
X86296492Y-112829187D01*
X86494099Y-112697150D01*
X86662150Y-112529099D01*
X86794187Y-112331492D01*
X86885135Y-112111923D01*
X86931500Y-111878830D01*
X86931500Y-111641170D01*
X87058500Y-111641170D01*
X87058500Y-111878830D01*
X87104865Y-112111923D01*
X87195813Y-112331492D01*
X87327850Y-112529099D01*
X87495901Y-112697150D01*
X87693508Y-112829187D01*
X87913077Y-112920135D01*
X88146170Y-112966500D01*
X88383830Y-112966500D01*
X88616923Y-112920135D01*
X88836492Y-112829187D01*
X89034099Y-112697150D01*
X89202150Y-112529099D01*
X89334187Y-112331492D01*
X89425135Y-112111923D01*
X89471500Y-111878830D01*
X89471500Y-111641170D01*
X89598500Y-111641170D01*
X89598500Y-111878830D01*
X89644865Y-112111923D01*
X89735813Y-112331492D01*
X89867850Y-112529099D01*
X90035901Y-112697150D01*
X90233508Y-112829187D01*
X90453077Y-112920135D01*
X90686170Y-112966500D01*
X90923830Y-112966500D01*
X91156923Y-112920135D01*
X91376492Y-112829187D01*
X91574099Y-112697150D01*
X91681879Y-112589370D01*
X92695235Y-112589370D01*
X92739071Y-112810054D01*
X92955569Y-112908088D01*
X93187033Y-112962002D01*
X93424567Y-112969723D01*
X93659043Y-112930956D01*
X93881451Y-112847189D01*
X93950929Y-112810054D01*
X93994765Y-112589370D01*
X93345000Y-111939605D01*
X92695235Y-112589370D01*
X91681879Y-112589370D01*
X91742150Y-112529099D01*
X91874187Y-112331492D01*
X91965135Y-112111923D01*
X92011500Y-111878830D01*
X92011500Y-111839567D01*
X92135277Y-111839567D01*
X92174044Y-112074043D01*
X92257811Y-112296451D01*
X92294946Y-112365929D01*
X92515630Y-112409765D01*
X93165395Y-111760000D01*
X93524605Y-111760000D01*
X94174370Y-112409765D01*
X94395054Y-112365929D01*
X94493088Y-112149431D01*
X94547002Y-111917967D01*
X94554723Y-111680433D01*
X94548232Y-111641170D01*
X94678500Y-111641170D01*
X94678500Y-111878830D01*
X94724865Y-112111923D01*
X94815813Y-112331492D01*
X94947850Y-112529099D01*
X95115901Y-112697150D01*
X95313508Y-112829187D01*
X95533077Y-112920135D01*
X95766170Y-112966500D01*
X96003830Y-112966500D01*
X96236923Y-112920135D01*
X96456492Y-112829187D01*
X96654099Y-112697150D01*
X96822150Y-112529099D01*
X96954187Y-112331492D01*
X97045135Y-112111923D01*
X97091500Y-111878830D01*
X97091500Y-111641170D01*
X97045135Y-111408077D01*
X96954187Y-111188508D01*
X96822150Y-110990901D01*
X96654099Y-110822850D01*
X96456492Y-110690813D01*
X96236923Y-110599865D01*
X96003830Y-110553500D01*
X95766170Y-110553500D01*
X95533077Y-110599865D01*
X95313508Y-110690813D01*
X95115901Y-110822850D01*
X94947850Y-110990901D01*
X94815813Y-111188508D01*
X94724865Y-111408077D01*
X94678500Y-111641170D01*
X94548232Y-111641170D01*
X94515956Y-111445957D01*
X94432189Y-111223549D01*
X94395054Y-111154071D01*
X94174370Y-111110235D01*
X93524605Y-111760000D01*
X93165395Y-111760000D01*
X92515630Y-111110235D01*
X92294946Y-111154071D01*
X92196912Y-111370569D01*
X92142998Y-111602033D01*
X92135277Y-111839567D01*
X92011500Y-111839567D01*
X92011500Y-111641170D01*
X91965135Y-111408077D01*
X91874187Y-111188508D01*
X91742150Y-110990901D01*
X91681879Y-110930630D01*
X92695235Y-110930630D01*
X93345000Y-111580395D01*
X93994765Y-110930630D01*
X93950929Y-110709946D01*
X93734431Y-110611912D01*
X93502967Y-110557998D01*
X93265433Y-110550277D01*
X93030957Y-110589044D01*
X92808549Y-110672811D01*
X92739071Y-110709946D01*
X92695235Y-110930630D01*
X91681879Y-110930630D01*
X91574099Y-110822850D01*
X91376492Y-110690813D01*
X91156923Y-110599865D01*
X90923830Y-110553500D01*
X90686170Y-110553500D01*
X90453077Y-110599865D01*
X90233508Y-110690813D01*
X90035901Y-110822850D01*
X89867850Y-110990901D01*
X89735813Y-111188508D01*
X89644865Y-111408077D01*
X89598500Y-111641170D01*
X89471500Y-111641170D01*
X89425135Y-111408077D01*
X89334187Y-111188508D01*
X89202150Y-110990901D01*
X89034099Y-110822850D01*
X88836492Y-110690813D01*
X88616923Y-110599865D01*
X88383830Y-110553500D01*
X88146170Y-110553500D01*
X87913077Y-110599865D01*
X87693508Y-110690813D01*
X87495901Y-110822850D01*
X87327850Y-110990901D01*
X87195813Y-111188508D01*
X87104865Y-111408077D01*
X87058500Y-111641170D01*
X86931500Y-111641170D01*
X86885135Y-111408077D01*
X86794187Y-111188508D01*
X86662150Y-110990901D01*
X86494099Y-110822850D01*
X86296492Y-110690813D01*
X86076923Y-110599865D01*
X85843830Y-110553500D01*
X85606170Y-110553500D01*
X85373077Y-110599865D01*
X85153508Y-110690813D01*
X84955901Y-110822850D01*
X84787850Y-110990901D01*
X84655813Y-111188508D01*
X84564865Y-111408077D01*
X84518500Y-111641170D01*
X84391500Y-111641170D01*
X84345135Y-111408077D01*
X84254187Y-111188508D01*
X84122150Y-110990901D01*
X83954099Y-110822850D01*
X83756492Y-110690813D01*
X83536923Y-110599865D01*
X83303830Y-110553500D01*
X83066170Y-110553500D01*
X82833077Y-110599865D01*
X82613508Y-110690813D01*
X82415901Y-110822850D01*
X82247850Y-110990901D01*
X82115813Y-111188508D01*
X82024865Y-111408077D01*
X81978500Y-111641170D01*
X81851500Y-111641170D01*
X81805135Y-111408077D01*
X81714187Y-111188508D01*
X81582150Y-110990901D01*
X81414099Y-110822850D01*
X81216492Y-110690813D01*
X80996923Y-110599865D01*
X80763830Y-110553500D01*
X80526170Y-110553500D01*
X80293077Y-110599865D01*
X80073508Y-110690813D01*
X79875901Y-110822850D01*
X79707850Y-110990901D01*
X79575813Y-111188508D01*
X79484865Y-111408077D01*
X79438500Y-111641170D01*
X79311500Y-111641170D01*
X79265135Y-111408077D01*
X79174187Y-111188508D01*
X79042150Y-110990901D01*
X78874099Y-110822850D01*
X78676492Y-110690813D01*
X78456923Y-110599865D01*
X78223830Y-110553500D01*
X77986170Y-110553500D01*
X77753077Y-110599865D01*
X77533508Y-110690813D01*
X77335901Y-110822850D01*
X77167850Y-110990901D01*
X77035813Y-111188508D01*
X76944865Y-111408077D01*
X76898500Y-111641170D01*
X76771500Y-111641170D01*
X76725135Y-111408077D01*
X76634187Y-111188508D01*
X76502150Y-110990901D01*
X76334099Y-110822850D01*
X76136492Y-110690813D01*
X75916923Y-110599865D01*
X75683830Y-110553500D01*
X75446170Y-110553500D01*
X75213077Y-110599865D01*
X74993508Y-110690813D01*
X74795901Y-110822850D01*
X74627850Y-110990901D01*
X74495813Y-111188508D01*
X74404865Y-111408077D01*
X74358500Y-111641170D01*
X74231500Y-111641170D01*
X74185135Y-111408077D01*
X74094187Y-111188508D01*
X73962150Y-110990901D01*
X73794099Y-110822850D01*
X73596492Y-110690813D01*
X73376923Y-110599865D01*
X73143830Y-110553500D01*
X72906170Y-110553500D01*
X72673077Y-110599865D01*
X72453508Y-110690813D01*
X72255901Y-110822850D01*
X72087850Y-110990901D01*
X71955813Y-111188508D01*
X71864865Y-111408077D01*
X71818500Y-111641170D01*
X71691500Y-111641170D01*
X71645135Y-111408077D01*
X71554187Y-111188508D01*
X71422150Y-110990901D01*
X71254099Y-110822850D01*
X71056492Y-110690813D01*
X70836923Y-110599865D01*
X70603830Y-110553500D01*
X70366170Y-110553500D01*
X70133077Y-110599865D01*
X69913508Y-110690813D01*
X69715901Y-110822850D01*
X69547850Y-110990901D01*
X69415813Y-111188508D01*
X69324865Y-111408077D01*
X69278500Y-111641170D01*
X69151500Y-111641170D01*
X69105135Y-111408077D01*
X69014187Y-111188508D01*
X68882150Y-110990901D01*
X68714099Y-110822850D01*
X68516492Y-110690813D01*
X68296923Y-110599865D01*
X68063830Y-110553500D01*
X67826170Y-110553500D01*
X67593077Y-110599865D01*
X67373508Y-110690813D01*
X67175901Y-110822850D01*
X67007850Y-110990901D01*
X66875813Y-111188508D01*
X66784865Y-111408077D01*
X66738500Y-111641170D01*
X66611500Y-111641170D01*
X66565135Y-111408077D01*
X66474187Y-111188508D01*
X66342150Y-110990901D01*
X66174099Y-110822850D01*
X65976492Y-110690813D01*
X65756923Y-110599865D01*
X65523830Y-110553500D01*
X65286170Y-110553500D01*
X65053077Y-110599865D01*
X64833508Y-110690813D01*
X64635901Y-110822850D01*
X64467850Y-110990901D01*
X64335813Y-111188508D01*
X64244865Y-111408077D01*
X64198500Y-111641170D01*
X64071500Y-111641170D01*
X64025135Y-111408077D01*
X63934187Y-111188508D01*
X63802150Y-110990901D01*
X63634099Y-110822850D01*
X63436492Y-110690813D01*
X63216923Y-110599865D01*
X62983830Y-110553500D01*
X62746170Y-110553500D01*
X62513077Y-110599865D01*
X62293508Y-110690813D01*
X62095901Y-110822850D01*
X61927850Y-110990901D01*
X61795813Y-111188508D01*
X61704865Y-111408077D01*
X61658500Y-111641170D01*
X61531500Y-111641170D01*
X61485135Y-111408077D01*
X61394187Y-111188508D01*
X61262150Y-110990901D01*
X61094099Y-110822850D01*
X60896492Y-110690813D01*
X60676923Y-110599865D01*
X60443830Y-110553500D01*
X60206170Y-110553500D01*
X59973077Y-110599865D01*
X59753508Y-110690813D01*
X59555901Y-110822850D01*
X59387850Y-110990901D01*
X59255813Y-111188508D01*
X59164865Y-111408077D01*
X59118500Y-111641170D01*
X58991500Y-111641170D01*
X58945135Y-111408077D01*
X58854187Y-111188508D01*
X58722150Y-110990901D01*
X58554099Y-110822850D01*
X58356492Y-110690813D01*
X58136923Y-110599865D01*
X57903830Y-110553500D01*
X57666170Y-110553500D01*
X57433077Y-110599865D01*
X57213508Y-110690813D01*
X57015901Y-110822850D01*
X56847850Y-110990901D01*
X56715813Y-111188508D01*
X56624865Y-111408077D01*
X56578500Y-111641170D01*
X56451500Y-111641170D01*
X56405135Y-111408077D01*
X56314187Y-111188508D01*
X56182150Y-110990901D01*
X56014099Y-110822850D01*
X55816492Y-110690813D01*
X55596923Y-110599865D01*
X55363830Y-110553500D01*
X55126170Y-110553500D01*
X54893077Y-110599865D01*
X54673508Y-110690813D01*
X54475901Y-110822850D01*
X54307850Y-110990901D01*
X54175813Y-111188508D01*
X54084865Y-111408077D01*
X54038500Y-111641170D01*
X53911500Y-111641170D01*
X53865135Y-111408077D01*
X53774187Y-111188508D01*
X53642150Y-110990901D01*
X53474099Y-110822850D01*
X53276492Y-110690813D01*
X53056923Y-110599865D01*
X52823830Y-110553500D01*
X52586170Y-110553500D01*
X52353077Y-110599865D01*
X52133508Y-110690813D01*
X51935901Y-110822850D01*
X51767850Y-110990901D01*
X51635813Y-111188508D01*
X51544865Y-111408077D01*
X51498500Y-111641170D01*
X45007419Y-111641170D01*
X45093281Y-111512670D01*
X45256030Y-111119757D01*
X45339000Y-110702643D01*
X45339000Y-110277357D01*
X45293651Y-110049370D01*
X50785235Y-110049370D01*
X50829071Y-110270054D01*
X51045569Y-110368088D01*
X51277033Y-110422002D01*
X51514567Y-110429723D01*
X51749043Y-110390956D01*
X51971451Y-110307189D01*
X52040929Y-110270054D01*
X52084765Y-110049370D01*
X51435000Y-109399605D01*
X50785235Y-110049370D01*
X45293651Y-110049370D01*
X45256030Y-109860243D01*
X45093281Y-109467330D01*
X44981185Y-109299567D01*
X50225277Y-109299567D01*
X50264044Y-109534043D01*
X50347811Y-109756451D01*
X50384946Y-109825929D01*
X50605630Y-109869765D01*
X51255395Y-109220000D01*
X51614605Y-109220000D01*
X52264370Y-109869765D01*
X52485054Y-109825929D01*
X52583088Y-109609431D01*
X52637002Y-109377967D01*
X52644723Y-109140433D01*
X52638232Y-109101170D01*
X52768500Y-109101170D01*
X52768500Y-109338830D01*
X52814865Y-109571923D01*
X52905813Y-109791492D01*
X53037850Y-109989099D01*
X53205901Y-110157150D01*
X53403508Y-110289187D01*
X53623077Y-110380135D01*
X53856170Y-110426500D01*
X54093830Y-110426500D01*
X54326923Y-110380135D01*
X54546492Y-110289187D01*
X54744099Y-110157150D01*
X54912150Y-109989099D01*
X55044187Y-109791492D01*
X55135135Y-109571923D01*
X55181500Y-109338830D01*
X55181500Y-109101170D01*
X55308500Y-109101170D01*
X55308500Y-109338830D01*
X55354865Y-109571923D01*
X55445813Y-109791492D01*
X55577850Y-109989099D01*
X55745901Y-110157150D01*
X55943508Y-110289187D01*
X56163077Y-110380135D01*
X56396170Y-110426500D01*
X56633830Y-110426500D01*
X56866923Y-110380135D01*
X57086492Y-110289187D01*
X57284099Y-110157150D01*
X57452150Y-109989099D01*
X57584187Y-109791492D01*
X57675135Y-109571923D01*
X57721500Y-109338830D01*
X57721500Y-109101170D01*
X57848500Y-109101170D01*
X57848500Y-109338830D01*
X57894865Y-109571923D01*
X57985813Y-109791492D01*
X58117850Y-109989099D01*
X58285901Y-110157150D01*
X58483508Y-110289187D01*
X58703077Y-110380135D01*
X58936170Y-110426500D01*
X59173830Y-110426500D01*
X59406923Y-110380135D01*
X59626492Y-110289187D01*
X59824099Y-110157150D01*
X59992150Y-109989099D01*
X60124187Y-109791492D01*
X60215135Y-109571923D01*
X60261500Y-109338830D01*
X60261500Y-109101170D01*
X60388500Y-109101170D01*
X60388500Y-109338830D01*
X60434865Y-109571923D01*
X60525813Y-109791492D01*
X60657850Y-109989099D01*
X60825901Y-110157150D01*
X61023508Y-110289187D01*
X61243077Y-110380135D01*
X61476170Y-110426500D01*
X61713830Y-110426500D01*
X61946923Y-110380135D01*
X62166492Y-110289187D01*
X62364099Y-110157150D01*
X62532150Y-109989099D01*
X62664187Y-109791492D01*
X62755135Y-109571923D01*
X62801500Y-109338830D01*
X62801500Y-109101170D01*
X62928500Y-109101170D01*
X62928500Y-109338830D01*
X62974865Y-109571923D01*
X63065813Y-109791492D01*
X63197850Y-109989099D01*
X63365901Y-110157150D01*
X63563508Y-110289187D01*
X63783077Y-110380135D01*
X64016170Y-110426500D01*
X64253830Y-110426500D01*
X64486923Y-110380135D01*
X64706492Y-110289187D01*
X64904099Y-110157150D01*
X65072150Y-109989099D01*
X65204187Y-109791492D01*
X65295135Y-109571923D01*
X65341500Y-109338830D01*
X65341500Y-109101170D01*
X65468500Y-109101170D01*
X65468500Y-109338830D01*
X65514865Y-109571923D01*
X65605813Y-109791492D01*
X65737850Y-109989099D01*
X65905901Y-110157150D01*
X66103508Y-110289187D01*
X66323077Y-110380135D01*
X66556170Y-110426500D01*
X66793830Y-110426500D01*
X67026923Y-110380135D01*
X67246492Y-110289187D01*
X67444099Y-110157150D01*
X67612150Y-109989099D01*
X67744187Y-109791492D01*
X67835135Y-109571923D01*
X67881500Y-109338830D01*
X67881500Y-109101170D01*
X68008500Y-109101170D01*
X68008500Y-109338830D01*
X68054865Y-109571923D01*
X68145813Y-109791492D01*
X68277850Y-109989099D01*
X68445901Y-110157150D01*
X68643508Y-110289187D01*
X68863077Y-110380135D01*
X69096170Y-110426500D01*
X69333830Y-110426500D01*
X69566923Y-110380135D01*
X69786492Y-110289187D01*
X69984099Y-110157150D01*
X70152150Y-109989099D01*
X70284187Y-109791492D01*
X70375135Y-109571923D01*
X70421500Y-109338830D01*
X70421500Y-109101170D01*
X70548500Y-109101170D01*
X70548500Y-109338830D01*
X70594865Y-109571923D01*
X70685813Y-109791492D01*
X70817850Y-109989099D01*
X70985901Y-110157150D01*
X71183508Y-110289187D01*
X71403077Y-110380135D01*
X71636170Y-110426500D01*
X71873830Y-110426500D01*
X72106923Y-110380135D01*
X72326492Y-110289187D01*
X72524099Y-110157150D01*
X72692150Y-109989099D01*
X72824187Y-109791492D01*
X72915135Y-109571923D01*
X72961500Y-109338830D01*
X72961500Y-109101170D01*
X73088500Y-109101170D01*
X73088500Y-109338830D01*
X73134865Y-109571923D01*
X73225813Y-109791492D01*
X73357850Y-109989099D01*
X73525901Y-110157150D01*
X73723508Y-110289187D01*
X73943077Y-110380135D01*
X74176170Y-110426500D01*
X74413830Y-110426500D01*
X74646923Y-110380135D01*
X74866492Y-110289187D01*
X75064099Y-110157150D01*
X75232150Y-109989099D01*
X75364187Y-109791492D01*
X75455135Y-109571923D01*
X75501500Y-109338830D01*
X75501500Y-109101170D01*
X75628500Y-109101170D01*
X75628500Y-109338830D01*
X75674865Y-109571923D01*
X75765813Y-109791492D01*
X75897850Y-109989099D01*
X76065901Y-110157150D01*
X76263508Y-110289187D01*
X76483077Y-110380135D01*
X76716170Y-110426500D01*
X76953830Y-110426500D01*
X77186923Y-110380135D01*
X77406492Y-110289187D01*
X77604099Y-110157150D01*
X77772150Y-109989099D01*
X77904187Y-109791492D01*
X77995135Y-109571923D01*
X78041500Y-109338830D01*
X78041500Y-109101170D01*
X78168500Y-109101170D01*
X78168500Y-109338830D01*
X78214865Y-109571923D01*
X78305813Y-109791492D01*
X78437850Y-109989099D01*
X78605901Y-110157150D01*
X78803508Y-110289187D01*
X79023077Y-110380135D01*
X79256170Y-110426500D01*
X79493830Y-110426500D01*
X79726923Y-110380135D01*
X79946492Y-110289187D01*
X80144099Y-110157150D01*
X80312150Y-109989099D01*
X80444187Y-109791492D01*
X80535135Y-109571923D01*
X80581500Y-109338830D01*
X80581500Y-109101170D01*
X80708500Y-109101170D01*
X80708500Y-109338830D01*
X80754865Y-109571923D01*
X80845813Y-109791492D01*
X80977850Y-109989099D01*
X81145901Y-110157150D01*
X81343508Y-110289187D01*
X81563077Y-110380135D01*
X81796170Y-110426500D01*
X82033830Y-110426500D01*
X82266923Y-110380135D01*
X82486492Y-110289187D01*
X82684099Y-110157150D01*
X82852150Y-109989099D01*
X82984187Y-109791492D01*
X83075135Y-109571923D01*
X83121500Y-109338830D01*
X83121500Y-109101170D01*
X83248500Y-109101170D01*
X83248500Y-109338830D01*
X83294865Y-109571923D01*
X83385813Y-109791492D01*
X83517850Y-109989099D01*
X83685901Y-110157150D01*
X83883508Y-110289187D01*
X84103077Y-110380135D01*
X84336170Y-110426500D01*
X84573830Y-110426500D01*
X84806923Y-110380135D01*
X85026492Y-110289187D01*
X85224099Y-110157150D01*
X85392150Y-109989099D01*
X85524187Y-109791492D01*
X85615135Y-109571923D01*
X85661500Y-109338830D01*
X85661500Y-109101170D01*
X85788500Y-109101170D01*
X85788500Y-109338830D01*
X85834865Y-109571923D01*
X85925813Y-109791492D01*
X86057850Y-109989099D01*
X86225901Y-110157150D01*
X86423508Y-110289187D01*
X86643077Y-110380135D01*
X86876170Y-110426500D01*
X87113830Y-110426500D01*
X87346923Y-110380135D01*
X87566492Y-110289187D01*
X87764099Y-110157150D01*
X87932150Y-109989099D01*
X88064187Y-109791492D01*
X88155135Y-109571923D01*
X88201500Y-109338830D01*
X88201500Y-109101170D01*
X88328500Y-109101170D01*
X88328500Y-109338830D01*
X88374865Y-109571923D01*
X88465813Y-109791492D01*
X88597850Y-109989099D01*
X88765901Y-110157150D01*
X88963508Y-110289187D01*
X89183077Y-110380135D01*
X89416170Y-110426500D01*
X89653830Y-110426500D01*
X89886923Y-110380135D01*
X90106492Y-110289187D01*
X90304099Y-110157150D01*
X90472150Y-109989099D01*
X90604187Y-109791492D01*
X90695135Y-109571923D01*
X90741500Y-109338830D01*
X90741500Y-109101170D01*
X90868500Y-109101170D01*
X90868500Y-109338830D01*
X90914865Y-109571923D01*
X91005813Y-109791492D01*
X91137850Y-109989099D01*
X91305901Y-110157150D01*
X91503508Y-110289187D01*
X91723077Y-110380135D01*
X91956170Y-110426500D01*
X92193830Y-110426500D01*
X92426923Y-110380135D01*
X92646492Y-110289187D01*
X92844099Y-110157150D01*
X93012150Y-109989099D01*
X93144187Y-109791492D01*
X93235135Y-109571923D01*
X93281500Y-109338830D01*
X93281500Y-109101170D01*
X93408500Y-109101170D01*
X93408500Y-109338830D01*
X93454865Y-109571923D01*
X93545813Y-109791492D01*
X93677850Y-109989099D01*
X93845901Y-110157150D01*
X94043508Y-110289187D01*
X94263077Y-110380135D01*
X94496170Y-110426500D01*
X94733830Y-110426500D01*
X94966923Y-110380135D01*
X95186492Y-110289187D01*
X95204196Y-110277357D01*
X96901000Y-110277357D01*
X96901000Y-110702643D01*
X96983970Y-111119757D01*
X97146719Y-111512670D01*
X97382996Y-111866282D01*
X97683718Y-112167004D01*
X98037330Y-112403281D01*
X98430243Y-112566030D01*
X98847357Y-112649000D01*
X99272643Y-112649000D01*
X99689757Y-112566030D01*
X100082670Y-112403281D01*
X100436282Y-112167004D01*
X100737004Y-111866282D01*
X100887419Y-111641170D01*
X102298500Y-111641170D01*
X102298500Y-111878830D01*
X102344865Y-112111923D01*
X102435813Y-112331492D01*
X102567850Y-112529099D01*
X102735901Y-112697150D01*
X102933508Y-112829187D01*
X103153077Y-112920135D01*
X103386170Y-112966500D01*
X103623830Y-112966500D01*
X103856923Y-112920135D01*
X104076492Y-112829187D01*
X104274099Y-112697150D01*
X104442150Y-112529099D01*
X104574187Y-112331492D01*
X104665135Y-112111923D01*
X104711500Y-111878830D01*
X104711500Y-111641170D01*
X104838500Y-111641170D01*
X104838500Y-111878830D01*
X104884865Y-112111923D01*
X104975813Y-112331492D01*
X105107850Y-112529099D01*
X105275901Y-112697150D01*
X105473508Y-112829187D01*
X105693077Y-112920135D01*
X105926170Y-112966500D01*
X106163830Y-112966500D01*
X106396923Y-112920135D01*
X106616492Y-112829187D01*
X106814099Y-112697150D01*
X106982150Y-112529099D01*
X107114187Y-112331492D01*
X107205135Y-112111923D01*
X107251500Y-111878830D01*
X107251500Y-111641170D01*
X107378500Y-111641170D01*
X107378500Y-111878830D01*
X107424865Y-112111923D01*
X107515813Y-112331492D01*
X107647850Y-112529099D01*
X107815901Y-112697150D01*
X108013508Y-112829187D01*
X108233077Y-112920135D01*
X108466170Y-112966500D01*
X108703830Y-112966500D01*
X108936923Y-112920135D01*
X109156492Y-112829187D01*
X109354099Y-112697150D01*
X109522150Y-112529099D01*
X109654187Y-112331492D01*
X109745135Y-112111923D01*
X109791500Y-111878830D01*
X109791500Y-111641170D01*
X109918500Y-111641170D01*
X109918500Y-111878830D01*
X109964865Y-112111923D01*
X110055813Y-112331492D01*
X110187850Y-112529099D01*
X110355901Y-112697150D01*
X110553508Y-112829187D01*
X110773077Y-112920135D01*
X111006170Y-112966500D01*
X111243830Y-112966500D01*
X111476923Y-112920135D01*
X111696492Y-112829187D01*
X111894099Y-112697150D01*
X112062150Y-112529099D01*
X112194187Y-112331492D01*
X112285135Y-112111923D01*
X112331500Y-111878830D01*
X112331500Y-111641170D01*
X112458500Y-111641170D01*
X112458500Y-111878830D01*
X112504865Y-112111923D01*
X112595813Y-112331492D01*
X112727850Y-112529099D01*
X112895901Y-112697150D01*
X113093508Y-112829187D01*
X113313077Y-112920135D01*
X113546170Y-112966500D01*
X113783830Y-112966500D01*
X114016923Y-112920135D01*
X114236492Y-112829187D01*
X114434099Y-112697150D01*
X114602150Y-112529099D01*
X114734187Y-112331492D01*
X114825135Y-112111923D01*
X114871500Y-111878830D01*
X114871500Y-111641170D01*
X114998500Y-111641170D01*
X114998500Y-111878830D01*
X115044865Y-112111923D01*
X115135813Y-112331492D01*
X115267850Y-112529099D01*
X115435901Y-112697150D01*
X115633508Y-112829187D01*
X115853077Y-112920135D01*
X116086170Y-112966500D01*
X116323830Y-112966500D01*
X116556923Y-112920135D01*
X116776492Y-112829187D01*
X116974099Y-112697150D01*
X117142150Y-112529099D01*
X117274187Y-112331492D01*
X117365135Y-112111923D01*
X117411500Y-111878830D01*
X117411500Y-111641170D01*
X117538500Y-111641170D01*
X117538500Y-111878830D01*
X117584865Y-112111923D01*
X117675813Y-112331492D01*
X117807850Y-112529099D01*
X117975901Y-112697150D01*
X118173508Y-112829187D01*
X118393077Y-112920135D01*
X118626170Y-112966500D01*
X118863830Y-112966500D01*
X119096923Y-112920135D01*
X119316492Y-112829187D01*
X119514099Y-112697150D01*
X119682150Y-112529099D01*
X119814187Y-112331492D01*
X119905135Y-112111923D01*
X119951500Y-111878830D01*
X119951500Y-111641170D01*
X120078500Y-111641170D01*
X120078500Y-111878830D01*
X120124865Y-112111923D01*
X120215813Y-112331492D01*
X120347850Y-112529099D01*
X120515901Y-112697150D01*
X120713508Y-112829187D01*
X120933077Y-112920135D01*
X121166170Y-112966500D01*
X121403830Y-112966500D01*
X121636923Y-112920135D01*
X121856492Y-112829187D01*
X122054099Y-112697150D01*
X122222150Y-112529099D01*
X122354187Y-112331492D01*
X122445135Y-112111923D01*
X122491500Y-111878830D01*
X122491500Y-111641170D01*
X122618500Y-111641170D01*
X122618500Y-111878830D01*
X122664865Y-112111923D01*
X122755813Y-112331492D01*
X122887850Y-112529099D01*
X123055901Y-112697150D01*
X123253508Y-112829187D01*
X123473077Y-112920135D01*
X123706170Y-112966500D01*
X123943830Y-112966500D01*
X124176923Y-112920135D01*
X124396492Y-112829187D01*
X124594099Y-112697150D01*
X124762150Y-112529099D01*
X124894187Y-112331492D01*
X124985135Y-112111923D01*
X125031500Y-111878830D01*
X125031500Y-111641170D01*
X125158500Y-111641170D01*
X125158500Y-111878830D01*
X125204865Y-112111923D01*
X125295813Y-112331492D01*
X125427850Y-112529099D01*
X125595901Y-112697150D01*
X125793508Y-112829187D01*
X126013077Y-112920135D01*
X126246170Y-112966500D01*
X126483830Y-112966500D01*
X126716923Y-112920135D01*
X126936492Y-112829187D01*
X127134099Y-112697150D01*
X127302150Y-112529099D01*
X127434187Y-112331492D01*
X127525135Y-112111923D01*
X127571500Y-111878830D01*
X127571500Y-111641170D01*
X127698500Y-111641170D01*
X127698500Y-111878830D01*
X127744865Y-112111923D01*
X127835813Y-112331492D01*
X127967850Y-112529099D01*
X128135901Y-112697150D01*
X128333508Y-112829187D01*
X128553077Y-112920135D01*
X128786170Y-112966500D01*
X129023830Y-112966500D01*
X129256923Y-112920135D01*
X129476492Y-112829187D01*
X129674099Y-112697150D01*
X129842150Y-112529099D01*
X129974187Y-112331492D01*
X130065135Y-112111923D01*
X130111500Y-111878830D01*
X130111500Y-111641170D01*
X130238500Y-111641170D01*
X130238500Y-111878830D01*
X130284865Y-112111923D01*
X130375813Y-112331492D01*
X130507850Y-112529099D01*
X130675901Y-112697150D01*
X130873508Y-112829187D01*
X131093077Y-112920135D01*
X131326170Y-112966500D01*
X131563830Y-112966500D01*
X131796923Y-112920135D01*
X132016492Y-112829187D01*
X132214099Y-112697150D01*
X132382150Y-112529099D01*
X132514187Y-112331492D01*
X132605135Y-112111923D01*
X132651500Y-111878830D01*
X132651500Y-111641170D01*
X132778500Y-111641170D01*
X132778500Y-111878830D01*
X132824865Y-112111923D01*
X132915813Y-112331492D01*
X133047850Y-112529099D01*
X133215901Y-112697150D01*
X133413508Y-112829187D01*
X133633077Y-112920135D01*
X133866170Y-112966500D01*
X134103830Y-112966500D01*
X134336923Y-112920135D01*
X134556492Y-112829187D01*
X134754099Y-112697150D01*
X134922150Y-112529099D01*
X135054187Y-112331492D01*
X135145135Y-112111923D01*
X135191500Y-111878830D01*
X135191500Y-111641170D01*
X135318500Y-111641170D01*
X135318500Y-111878830D01*
X135364865Y-112111923D01*
X135455813Y-112331492D01*
X135587850Y-112529099D01*
X135755901Y-112697150D01*
X135953508Y-112829187D01*
X136173077Y-112920135D01*
X136406170Y-112966500D01*
X136643830Y-112966500D01*
X136876923Y-112920135D01*
X137096492Y-112829187D01*
X137294099Y-112697150D01*
X137462150Y-112529099D01*
X137594187Y-112331492D01*
X137685135Y-112111923D01*
X137731500Y-111878830D01*
X137731500Y-111641170D01*
X137858500Y-111641170D01*
X137858500Y-111878830D01*
X137904865Y-112111923D01*
X137995813Y-112331492D01*
X138127850Y-112529099D01*
X138295901Y-112697150D01*
X138493508Y-112829187D01*
X138713077Y-112920135D01*
X138946170Y-112966500D01*
X139183830Y-112966500D01*
X139416923Y-112920135D01*
X139636492Y-112829187D01*
X139834099Y-112697150D01*
X140002150Y-112529099D01*
X140134187Y-112331492D01*
X140225135Y-112111923D01*
X140271500Y-111878830D01*
X140271500Y-111641170D01*
X140398500Y-111641170D01*
X140398500Y-111878830D01*
X140444865Y-112111923D01*
X140535813Y-112331492D01*
X140667850Y-112529099D01*
X140835901Y-112697150D01*
X141033508Y-112829187D01*
X141253077Y-112920135D01*
X141486170Y-112966500D01*
X141723830Y-112966500D01*
X141956923Y-112920135D01*
X142176492Y-112829187D01*
X142374099Y-112697150D01*
X142542150Y-112529099D01*
X142674187Y-112331492D01*
X142765135Y-112111923D01*
X142811500Y-111878830D01*
X142811500Y-111641170D01*
X142938500Y-111641170D01*
X142938500Y-111878830D01*
X142984865Y-112111923D01*
X143075813Y-112331492D01*
X143207850Y-112529099D01*
X143375901Y-112697150D01*
X143573508Y-112829187D01*
X143793077Y-112920135D01*
X144026170Y-112966500D01*
X144263830Y-112966500D01*
X144496923Y-112920135D01*
X144716492Y-112829187D01*
X144914099Y-112697150D01*
X145082150Y-112529099D01*
X145214181Y-112331500D01*
X145475428Y-112331500D01*
X145487688Y-112455982D01*
X145523998Y-112575680D01*
X145582963Y-112685994D01*
X145662315Y-112782685D01*
X145759006Y-112862037D01*
X145869320Y-112921002D01*
X145989018Y-112957312D01*
X146113500Y-112969572D01*
X146399250Y-112966500D01*
X146558000Y-112807750D01*
X146558000Y-111887000D01*
X146812000Y-111887000D01*
X146812000Y-112807750D01*
X146970750Y-112966500D01*
X147256500Y-112969572D01*
X147380982Y-112957312D01*
X147500680Y-112921002D01*
X147610994Y-112862037D01*
X147707685Y-112782685D01*
X147787037Y-112685994D01*
X147846002Y-112575680D01*
X147882312Y-112455982D01*
X147894572Y-112331500D01*
X147891500Y-112045750D01*
X147732750Y-111887000D01*
X146812000Y-111887000D01*
X146558000Y-111887000D01*
X145637250Y-111887000D01*
X145478500Y-112045750D01*
X145475428Y-112331500D01*
X145214181Y-112331500D01*
X145214187Y-112331492D01*
X145305135Y-112111923D01*
X145351500Y-111878830D01*
X145351500Y-111641170D01*
X145305135Y-111408077D01*
X145214187Y-111188508D01*
X145214182Y-111188500D01*
X145475428Y-111188500D01*
X145478500Y-111474250D01*
X145637250Y-111633000D01*
X146558000Y-111633000D01*
X146558000Y-110712250D01*
X146812000Y-110712250D01*
X146812000Y-111633000D01*
X147732750Y-111633000D01*
X147891500Y-111474250D01*
X147894572Y-111188500D01*
X147882312Y-111064018D01*
X147846002Y-110944320D01*
X147787037Y-110834006D01*
X147707685Y-110737315D01*
X147610994Y-110657963D01*
X147500680Y-110598998D01*
X147380982Y-110562688D01*
X147256500Y-110550428D01*
X146970750Y-110553500D01*
X146812000Y-110712250D01*
X146558000Y-110712250D01*
X146399250Y-110553500D01*
X146113500Y-110550428D01*
X145989018Y-110562688D01*
X145869320Y-110598998D01*
X145759006Y-110657963D01*
X145662315Y-110737315D01*
X145582963Y-110834006D01*
X145523998Y-110944320D01*
X145487688Y-111064018D01*
X145475428Y-111188500D01*
X145214182Y-111188500D01*
X145082150Y-110990901D01*
X144914099Y-110822850D01*
X144716492Y-110690813D01*
X144496923Y-110599865D01*
X144263830Y-110553500D01*
X144026170Y-110553500D01*
X143793077Y-110599865D01*
X143573508Y-110690813D01*
X143375901Y-110822850D01*
X143207850Y-110990901D01*
X143075813Y-111188508D01*
X142984865Y-111408077D01*
X142938500Y-111641170D01*
X142811500Y-111641170D01*
X142765135Y-111408077D01*
X142674187Y-111188508D01*
X142542150Y-110990901D01*
X142374099Y-110822850D01*
X142176492Y-110690813D01*
X141956923Y-110599865D01*
X141723830Y-110553500D01*
X141486170Y-110553500D01*
X141253077Y-110599865D01*
X141033508Y-110690813D01*
X140835901Y-110822850D01*
X140667850Y-110990901D01*
X140535813Y-111188508D01*
X140444865Y-111408077D01*
X140398500Y-111641170D01*
X140271500Y-111641170D01*
X140225135Y-111408077D01*
X140134187Y-111188508D01*
X140002150Y-110990901D01*
X139834099Y-110822850D01*
X139636492Y-110690813D01*
X139416923Y-110599865D01*
X139183830Y-110553500D01*
X138946170Y-110553500D01*
X138713077Y-110599865D01*
X138493508Y-110690813D01*
X138295901Y-110822850D01*
X138127850Y-110990901D01*
X137995813Y-111188508D01*
X137904865Y-111408077D01*
X137858500Y-111641170D01*
X137731500Y-111641170D01*
X137685135Y-111408077D01*
X137594187Y-111188508D01*
X137462150Y-110990901D01*
X137294099Y-110822850D01*
X137096492Y-110690813D01*
X136876923Y-110599865D01*
X136643830Y-110553500D01*
X136406170Y-110553500D01*
X136173077Y-110599865D01*
X135953508Y-110690813D01*
X135755901Y-110822850D01*
X135587850Y-110990901D01*
X135455813Y-111188508D01*
X135364865Y-111408077D01*
X135318500Y-111641170D01*
X135191500Y-111641170D01*
X135145135Y-111408077D01*
X135054187Y-111188508D01*
X134922150Y-110990901D01*
X134754099Y-110822850D01*
X134556492Y-110690813D01*
X134336923Y-110599865D01*
X134103830Y-110553500D01*
X133866170Y-110553500D01*
X133633077Y-110599865D01*
X133413508Y-110690813D01*
X133215901Y-110822850D01*
X133047850Y-110990901D01*
X132915813Y-111188508D01*
X132824865Y-111408077D01*
X132778500Y-111641170D01*
X132651500Y-111641170D01*
X132605135Y-111408077D01*
X132514187Y-111188508D01*
X132382150Y-110990901D01*
X132214099Y-110822850D01*
X132016492Y-110690813D01*
X131796923Y-110599865D01*
X131563830Y-110553500D01*
X131326170Y-110553500D01*
X131093077Y-110599865D01*
X130873508Y-110690813D01*
X130675901Y-110822850D01*
X130507850Y-110990901D01*
X130375813Y-111188508D01*
X130284865Y-111408077D01*
X130238500Y-111641170D01*
X130111500Y-111641170D01*
X130065135Y-111408077D01*
X129974187Y-111188508D01*
X129842150Y-110990901D01*
X129674099Y-110822850D01*
X129476492Y-110690813D01*
X129256923Y-110599865D01*
X129023830Y-110553500D01*
X128786170Y-110553500D01*
X128553077Y-110599865D01*
X128333508Y-110690813D01*
X128135901Y-110822850D01*
X127967850Y-110990901D01*
X127835813Y-111188508D01*
X127744865Y-111408077D01*
X127698500Y-111641170D01*
X127571500Y-111641170D01*
X127525135Y-111408077D01*
X127434187Y-111188508D01*
X127302150Y-110990901D01*
X127134099Y-110822850D01*
X126936492Y-110690813D01*
X126716923Y-110599865D01*
X126483830Y-110553500D01*
X126246170Y-110553500D01*
X126013077Y-110599865D01*
X125793508Y-110690813D01*
X125595901Y-110822850D01*
X125427850Y-110990901D01*
X125295813Y-111188508D01*
X125204865Y-111408077D01*
X125158500Y-111641170D01*
X125031500Y-111641170D01*
X124985135Y-111408077D01*
X124894187Y-111188508D01*
X124762150Y-110990901D01*
X124594099Y-110822850D01*
X124396492Y-110690813D01*
X124176923Y-110599865D01*
X123943830Y-110553500D01*
X123706170Y-110553500D01*
X123473077Y-110599865D01*
X123253508Y-110690813D01*
X123055901Y-110822850D01*
X122887850Y-110990901D01*
X122755813Y-111188508D01*
X122664865Y-111408077D01*
X122618500Y-111641170D01*
X122491500Y-111641170D01*
X122445135Y-111408077D01*
X122354187Y-111188508D01*
X122222150Y-110990901D01*
X122054099Y-110822850D01*
X121856492Y-110690813D01*
X121636923Y-110599865D01*
X121403830Y-110553500D01*
X121166170Y-110553500D01*
X120933077Y-110599865D01*
X120713508Y-110690813D01*
X120515901Y-110822850D01*
X120347850Y-110990901D01*
X120215813Y-111188508D01*
X120124865Y-111408077D01*
X120078500Y-111641170D01*
X119951500Y-111641170D01*
X119905135Y-111408077D01*
X119814187Y-111188508D01*
X119682150Y-110990901D01*
X119514099Y-110822850D01*
X119316492Y-110690813D01*
X119096923Y-110599865D01*
X118863830Y-110553500D01*
X118626170Y-110553500D01*
X118393077Y-110599865D01*
X118173508Y-110690813D01*
X117975901Y-110822850D01*
X117807850Y-110990901D01*
X117675813Y-111188508D01*
X117584865Y-111408077D01*
X117538500Y-111641170D01*
X117411500Y-111641170D01*
X117365135Y-111408077D01*
X117274187Y-111188508D01*
X117142150Y-110990901D01*
X116974099Y-110822850D01*
X116776492Y-110690813D01*
X116556923Y-110599865D01*
X116323830Y-110553500D01*
X116086170Y-110553500D01*
X115853077Y-110599865D01*
X115633508Y-110690813D01*
X115435901Y-110822850D01*
X115267850Y-110990901D01*
X115135813Y-111188508D01*
X115044865Y-111408077D01*
X114998500Y-111641170D01*
X114871500Y-111641170D01*
X114825135Y-111408077D01*
X114734187Y-111188508D01*
X114602150Y-110990901D01*
X114434099Y-110822850D01*
X114236492Y-110690813D01*
X114016923Y-110599865D01*
X113783830Y-110553500D01*
X113546170Y-110553500D01*
X113313077Y-110599865D01*
X113093508Y-110690813D01*
X112895901Y-110822850D01*
X112727850Y-110990901D01*
X112595813Y-111188508D01*
X112504865Y-111408077D01*
X112458500Y-111641170D01*
X112331500Y-111641170D01*
X112285135Y-111408077D01*
X112194187Y-111188508D01*
X112062150Y-110990901D01*
X111894099Y-110822850D01*
X111696492Y-110690813D01*
X111476923Y-110599865D01*
X111243830Y-110553500D01*
X111006170Y-110553500D01*
X110773077Y-110599865D01*
X110553508Y-110690813D01*
X110355901Y-110822850D01*
X110187850Y-110990901D01*
X110055813Y-111188508D01*
X109964865Y-111408077D01*
X109918500Y-111641170D01*
X109791500Y-111641170D01*
X109745135Y-111408077D01*
X109654187Y-111188508D01*
X109522150Y-110990901D01*
X109354099Y-110822850D01*
X109156492Y-110690813D01*
X108936923Y-110599865D01*
X108703830Y-110553500D01*
X108466170Y-110553500D01*
X108233077Y-110599865D01*
X108013508Y-110690813D01*
X107815901Y-110822850D01*
X107647850Y-110990901D01*
X107515813Y-111188508D01*
X107424865Y-111408077D01*
X107378500Y-111641170D01*
X107251500Y-111641170D01*
X107205135Y-111408077D01*
X107114187Y-111188508D01*
X106982150Y-110990901D01*
X106814099Y-110822850D01*
X106616492Y-110690813D01*
X106396923Y-110599865D01*
X106163830Y-110553500D01*
X105926170Y-110553500D01*
X105693077Y-110599865D01*
X105473508Y-110690813D01*
X105275901Y-110822850D01*
X105107850Y-110990901D01*
X104975813Y-111188508D01*
X104884865Y-111408077D01*
X104838500Y-111641170D01*
X104711500Y-111641170D01*
X104665135Y-111408077D01*
X104574187Y-111188508D01*
X104442150Y-110990901D01*
X104274099Y-110822850D01*
X104076492Y-110690813D01*
X103856923Y-110599865D01*
X103623830Y-110553500D01*
X103386170Y-110553500D01*
X103153077Y-110599865D01*
X102933508Y-110690813D01*
X102735901Y-110822850D01*
X102567850Y-110990901D01*
X102435813Y-111188508D01*
X102344865Y-111408077D01*
X102298500Y-111641170D01*
X100887419Y-111641170D01*
X100973281Y-111512670D01*
X101136030Y-111119757D01*
X101219000Y-110702643D01*
X101219000Y-110277357D01*
X101136030Y-109860243D01*
X100973281Y-109467330D01*
X100737004Y-109113718D01*
X100724456Y-109101170D01*
X101028500Y-109101170D01*
X101028500Y-109338830D01*
X101074865Y-109571923D01*
X101165813Y-109791492D01*
X101297850Y-109989099D01*
X101465901Y-110157150D01*
X101663508Y-110289187D01*
X101883077Y-110380135D01*
X102116170Y-110426500D01*
X102353830Y-110426500D01*
X102586923Y-110380135D01*
X102806492Y-110289187D01*
X103004099Y-110157150D01*
X103172150Y-109989099D01*
X103304187Y-109791492D01*
X103395135Y-109571923D01*
X103441500Y-109338830D01*
X103441500Y-109101170D01*
X103568500Y-109101170D01*
X103568500Y-109338830D01*
X103614865Y-109571923D01*
X103705813Y-109791492D01*
X103837850Y-109989099D01*
X104005901Y-110157150D01*
X104203508Y-110289187D01*
X104423077Y-110380135D01*
X104656170Y-110426500D01*
X104893830Y-110426500D01*
X105126923Y-110380135D01*
X105346492Y-110289187D01*
X105544099Y-110157150D01*
X105712150Y-109989099D01*
X105844187Y-109791492D01*
X105935135Y-109571923D01*
X105981500Y-109338830D01*
X105981500Y-109101170D01*
X106108500Y-109101170D01*
X106108500Y-109338830D01*
X106154865Y-109571923D01*
X106245813Y-109791492D01*
X106377850Y-109989099D01*
X106545901Y-110157150D01*
X106743508Y-110289187D01*
X106963077Y-110380135D01*
X107196170Y-110426500D01*
X107433830Y-110426500D01*
X107666923Y-110380135D01*
X107886492Y-110289187D01*
X108084099Y-110157150D01*
X108252150Y-109989099D01*
X108384187Y-109791492D01*
X108475135Y-109571923D01*
X108521500Y-109338830D01*
X108521500Y-109101170D01*
X108648500Y-109101170D01*
X108648500Y-109338830D01*
X108694865Y-109571923D01*
X108785813Y-109791492D01*
X108917850Y-109989099D01*
X109085901Y-110157150D01*
X109283508Y-110289187D01*
X109503077Y-110380135D01*
X109736170Y-110426500D01*
X109973830Y-110426500D01*
X110206923Y-110380135D01*
X110426492Y-110289187D01*
X110624099Y-110157150D01*
X110792150Y-109989099D01*
X110924187Y-109791492D01*
X111015135Y-109571923D01*
X111061500Y-109338830D01*
X111061500Y-109101170D01*
X111188500Y-109101170D01*
X111188500Y-109338830D01*
X111234865Y-109571923D01*
X111325813Y-109791492D01*
X111457850Y-109989099D01*
X111625901Y-110157150D01*
X111823508Y-110289187D01*
X112043077Y-110380135D01*
X112276170Y-110426500D01*
X112513830Y-110426500D01*
X112746923Y-110380135D01*
X112966492Y-110289187D01*
X113164099Y-110157150D01*
X113332150Y-109989099D01*
X113464187Y-109791492D01*
X113555135Y-109571923D01*
X113601500Y-109338830D01*
X113601500Y-109101170D01*
X113728500Y-109101170D01*
X113728500Y-109338830D01*
X113774865Y-109571923D01*
X113865813Y-109791492D01*
X113997850Y-109989099D01*
X114165901Y-110157150D01*
X114363508Y-110289187D01*
X114583077Y-110380135D01*
X114816170Y-110426500D01*
X115053830Y-110426500D01*
X115286923Y-110380135D01*
X115506492Y-110289187D01*
X115704099Y-110157150D01*
X115872150Y-109989099D01*
X116004187Y-109791492D01*
X116095135Y-109571923D01*
X116141500Y-109338830D01*
X116141500Y-109101170D01*
X116268500Y-109101170D01*
X116268500Y-109338830D01*
X116314865Y-109571923D01*
X116405813Y-109791492D01*
X116537850Y-109989099D01*
X116705901Y-110157150D01*
X116903508Y-110289187D01*
X117123077Y-110380135D01*
X117356170Y-110426500D01*
X117593830Y-110426500D01*
X117826923Y-110380135D01*
X118046492Y-110289187D01*
X118244099Y-110157150D01*
X118412150Y-109989099D01*
X118544187Y-109791492D01*
X118635135Y-109571923D01*
X118681500Y-109338830D01*
X118681500Y-109101170D01*
X118808500Y-109101170D01*
X118808500Y-109338830D01*
X118854865Y-109571923D01*
X118945813Y-109791492D01*
X119077850Y-109989099D01*
X119245901Y-110157150D01*
X119443508Y-110289187D01*
X119663077Y-110380135D01*
X119896170Y-110426500D01*
X120133830Y-110426500D01*
X120366923Y-110380135D01*
X120586492Y-110289187D01*
X120784099Y-110157150D01*
X120952150Y-109989099D01*
X121084187Y-109791492D01*
X121175135Y-109571923D01*
X121221500Y-109338830D01*
X121221500Y-109101170D01*
X121348500Y-109101170D01*
X121348500Y-109338830D01*
X121394865Y-109571923D01*
X121485813Y-109791492D01*
X121617850Y-109989099D01*
X121785901Y-110157150D01*
X121983508Y-110289187D01*
X122203077Y-110380135D01*
X122436170Y-110426500D01*
X122673830Y-110426500D01*
X122906923Y-110380135D01*
X123126492Y-110289187D01*
X123324099Y-110157150D01*
X123492150Y-109989099D01*
X123624187Y-109791492D01*
X123715135Y-109571923D01*
X123761500Y-109338830D01*
X123761500Y-109101170D01*
X123888500Y-109101170D01*
X123888500Y-109338830D01*
X123934865Y-109571923D01*
X124025813Y-109791492D01*
X124157850Y-109989099D01*
X124325901Y-110157150D01*
X124523508Y-110289187D01*
X124743077Y-110380135D01*
X124976170Y-110426500D01*
X125213830Y-110426500D01*
X125446923Y-110380135D01*
X125666492Y-110289187D01*
X125864099Y-110157150D01*
X126032150Y-109989099D01*
X126164187Y-109791492D01*
X126255135Y-109571923D01*
X126301500Y-109338830D01*
X126301500Y-109101170D01*
X126428500Y-109101170D01*
X126428500Y-109338830D01*
X126474865Y-109571923D01*
X126565813Y-109791492D01*
X126697850Y-109989099D01*
X126865901Y-110157150D01*
X127063508Y-110289187D01*
X127283077Y-110380135D01*
X127516170Y-110426500D01*
X127753830Y-110426500D01*
X127986923Y-110380135D01*
X128206492Y-110289187D01*
X128404099Y-110157150D01*
X128572150Y-109989099D01*
X128704187Y-109791492D01*
X128795135Y-109571923D01*
X128841500Y-109338830D01*
X128841500Y-109101170D01*
X128968500Y-109101170D01*
X128968500Y-109338830D01*
X129014865Y-109571923D01*
X129105813Y-109791492D01*
X129237850Y-109989099D01*
X129405901Y-110157150D01*
X129603508Y-110289187D01*
X129823077Y-110380135D01*
X130056170Y-110426500D01*
X130293830Y-110426500D01*
X130526923Y-110380135D01*
X130746492Y-110289187D01*
X130944099Y-110157150D01*
X131112150Y-109989099D01*
X131244187Y-109791492D01*
X131335135Y-109571923D01*
X131381500Y-109338830D01*
X131381500Y-109101170D01*
X131508500Y-109101170D01*
X131508500Y-109338830D01*
X131554865Y-109571923D01*
X131645813Y-109791492D01*
X131777850Y-109989099D01*
X131945901Y-110157150D01*
X132143508Y-110289187D01*
X132363077Y-110380135D01*
X132596170Y-110426500D01*
X132833830Y-110426500D01*
X133066923Y-110380135D01*
X133286492Y-110289187D01*
X133484099Y-110157150D01*
X133652150Y-109989099D01*
X133784187Y-109791492D01*
X133875135Y-109571923D01*
X133921500Y-109338830D01*
X133921500Y-109101170D01*
X134048500Y-109101170D01*
X134048500Y-109338830D01*
X134094865Y-109571923D01*
X134185813Y-109791492D01*
X134317850Y-109989099D01*
X134485901Y-110157150D01*
X134683508Y-110289187D01*
X134903077Y-110380135D01*
X135136170Y-110426500D01*
X135373830Y-110426500D01*
X135606923Y-110380135D01*
X135826492Y-110289187D01*
X136024099Y-110157150D01*
X136192150Y-109989099D01*
X136324187Y-109791492D01*
X136415135Y-109571923D01*
X136461500Y-109338830D01*
X136461500Y-109101170D01*
X136588500Y-109101170D01*
X136588500Y-109338830D01*
X136634865Y-109571923D01*
X136725813Y-109791492D01*
X136857850Y-109989099D01*
X137025901Y-110157150D01*
X137223508Y-110289187D01*
X137443077Y-110380135D01*
X137676170Y-110426500D01*
X137913830Y-110426500D01*
X138146923Y-110380135D01*
X138366492Y-110289187D01*
X138564099Y-110157150D01*
X138732150Y-109989099D01*
X138864187Y-109791492D01*
X138955135Y-109571923D01*
X139001500Y-109338830D01*
X139001500Y-109101170D01*
X139128500Y-109101170D01*
X139128500Y-109338830D01*
X139174865Y-109571923D01*
X139265813Y-109791492D01*
X139397850Y-109989099D01*
X139565901Y-110157150D01*
X139763508Y-110289187D01*
X139983077Y-110380135D01*
X140216170Y-110426500D01*
X140453830Y-110426500D01*
X140686923Y-110380135D01*
X140906492Y-110289187D01*
X141104099Y-110157150D01*
X141272150Y-109989099D01*
X141404187Y-109791492D01*
X141495135Y-109571923D01*
X141541500Y-109338830D01*
X141541500Y-109101170D01*
X141668500Y-109101170D01*
X141668500Y-109338830D01*
X141714865Y-109571923D01*
X141805813Y-109791492D01*
X141937850Y-109989099D01*
X142105901Y-110157150D01*
X142303508Y-110289187D01*
X142523077Y-110380135D01*
X142756170Y-110426500D01*
X142993830Y-110426500D01*
X143226923Y-110380135D01*
X143446492Y-110289187D01*
X143644099Y-110157150D01*
X143812150Y-109989099D01*
X143944187Y-109791492D01*
X144035135Y-109571923D01*
X144081500Y-109338830D01*
X144081500Y-109101170D01*
X144208500Y-109101170D01*
X144208500Y-109338830D01*
X144254865Y-109571923D01*
X144345813Y-109791492D01*
X144477850Y-109989099D01*
X144645901Y-110157150D01*
X144843508Y-110289187D01*
X145063077Y-110380135D01*
X145296170Y-110426500D01*
X145533830Y-110426500D01*
X145766923Y-110380135D01*
X145986492Y-110289187D01*
X146004196Y-110277357D01*
X152781000Y-110277357D01*
X152781000Y-110702643D01*
X152863970Y-111119757D01*
X153026719Y-111512670D01*
X153262996Y-111866282D01*
X153563718Y-112167004D01*
X153917330Y-112403281D01*
X154310243Y-112566030D01*
X154727357Y-112649000D01*
X155152643Y-112649000D01*
X155569757Y-112566030D01*
X155962670Y-112403281D01*
X156316282Y-112167004D01*
X156617004Y-111866282D01*
X156853281Y-111512670D01*
X157016030Y-111119757D01*
X157099000Y-110702643D01*
X157099000Y-110277357D01*
X157016030Y-109860243D01*
X156853281Y-109467330D01*
X156617004Y-109113718D01*
X156316282Y-108812996D01*
X155962670Y-108576719D01*
X155569757Y-108413970D01*
X155152643Y-108331000D01*
X154727357Y-108331000D01*
X154310243Y-108413970D01*
X153917330Y-108576719D01*
X153563718Y-108812996D01*
X153262996Y-109113718D01*
X153026719Y-109467330D01*
X152863970Y-109860243D01*
X152781000Y-110277357D01*
X146004196Y-110277357D01*
X146184099Y-110157150D01*
X146352150Y-109989099D01*
X146484187Y-109791492D01*
X146575135Y-109571923D01*
X146621500Y-109338830D01*
X146621500Y-109101170D01*
X146575135Y-108868077D01*
X146484187Y-108648508D01*
X146352150Y-108450901D01*
X146184099Y-108282850D01*
X145986492Y-108150813D01*
X145766923Y-108059865D01*
X145533830Y-108013500D01*
X145296170Y-108013500D01*
X145063077Y-108059865D01*
X144843508Y-108150813D01*
X144645901Y-108282850D01*
X144477850Y-108450901D01*
X144345813Y-108648508D01*
X144254865Y-108868077D01*
X144208500Y-109101170D01*
X144081500Y-109101170D01*
X144035135Y-108868077D01*
X143944187Y-108648508D01*
X143812150Y-108450901D01*
X143644099Y-108282850D01*
X143446492Y-108150813D01*
X143226923Y-108059865D01*
X142993830Y-108013500D01*
X142756170Y-108013500D01*
X142523077Y-108059865D01*
X142303508Y-108150813D01*
X142105901Y-108282850D01*
X141937850Y-108450901D01*
X141805813Y-108648508D01*
X141714865Y-108868077D01*
X141668500Y-109101170D01*
X141541500Y-109101170D01*
X141495135Y-108868077D01*
X141404187Y-108648508D01*
X141272150Y-108450901D01*
X141104099Y-108282850D01*
X140906492Y-108150813D01*
X140686923Y-108059865D01*
X140453830Y-108013500D01*
X140216170Y-108013500D01*
X139983077Y-108059865D01*
X139763508Y-108150813D01*
X139565901Y-108282850D01*
X139397850Y-108450901D01*
X139265813Y-108648508D01*
X139174865Y-108868077D01*
X139128500Y-109101170D01*
X139001500Y-109101170D01*
X138955135Y-108868077D01*
X138864187Y-108648508D01*
X138732150Y-108450901D01*
X138564099Y-108282850D01*
X138366492Y-108150813D01*
X138146923Y-108059865D01*
X137913830Y-108013500D01*
X137676170Y-108013500D01*
X137443077Y-108059865D01*
X137223508Y-108150813D01*
X137025901Y-108282850D01*
X136857850Y-108450901D01*
X136725813Y-108648508D01*
X136634865Y-108868077D01*
X136588500Y-109101170D01*
X136461500Y-109101170D01*
X136415135Y-108868077D01*
X136324187Y-108648508D01*
X136192150Y-108450901D01*
X136024099Y-108282850D01*
X135826492Y-108150813D01*
X135606923Y-108059865D01*
X135373830Y-108013500D01*
X135136170Y-108013500D01*
X134903077Y-108059865D01*
X134683508Y-108150813D01*
X134485901Y-108282850D01*
X134317850Y-108450901D01*
X134185813Y-108648508D01*
X134094865Y-108868077D01*
X134048500Y-109101170D01*
X133921500Y-109101170D01*
X133875135Y-108868077D01*
X133784187Y-108648508D01*
X133652150Y-108450901D01*
X133484099Y-108282850D01*
X133286492Y-108150813D01*
X133066923Y-108059865D01*
X132833830Y-108013500D01*
X132596170Y-108013500D01*
X132363077Y-108059865D01*
X132143508Y-108150813D01*
X131945901Y-108282850D01*
X131777850Y-108450901D01*
X131645813Y-108648508D01*
X131554865Y-108868077D01*
X131508500Y-109101170D01*
X131381500Y-109101170D01*
X131335135Y-108868077D01*
X131244187Y-108648508D01*
X131112150Y-108450901D01*
X130944099Y-108282850D01*
X130746492Y-108150813D01*
X130526923Y-108059865D01*
X130293830Y-108013500D01*
X130056170Y-108013500D01*
X129823077Y-108059865D01*
X129603508Y-108150813D01*
X129405901Y-108282850D01*
X129237850Y-108450901D01*
X129105813Y-108648508D01*
X129014865Y-108868077D01*
X128968500Y-109101170D01*
X128841500Y-109101170D01*
X128795135Y-108868077D01*
X128704187Y-108648508D01*
X128572150Y-108450901D01*
X128404099Y-108282850D01*
X128206492Y-108150813D01*
X127986923Y-108059865D01*
X127753830Y-108013500D01*
X127516170Y-108013500D01*
X127283077Y-108059865D01*
X127063508Y-108150813D01*
X126865901Y-108282850D01*
X126697850Y-108450901D01*
X126565813Y-108648508D01*
X126474865Y-108868077D01*
X126428500Y-109101170D01*
X126301500Y-109101170D01*
X126255135Y-108868077D01*
X126164187Y-108648508D01*
X126032150Y-108450901D01*
X125864099Y-108282850D01*
X125666492Y-108150813D01*
X125446923Y-108059865D01*
X125213830Y-108013500D01*
X124976170Y-108013500D01*
X124743077Y-108059865D01*
X124523508Y-108150813D01*
X124325901Y-108282850D01*
X124157850Y-108450901D01*
X124025813Y-108648508D01*
X123934865Y-108868077D01*
X123888500Y-109101170D01*
X123761500Y-109101170D01*
X123715135Y-108868077D01*
X123624187Y-108648508D01*
X123492150Y-108450901D01*
X123324099Y-108282850D01*
X123126492Y-108150813D01*
X122906923Y-108059865D01*
X122673830Y-108013500D01*
X122436170Y-108013500D01*
X122203077Y-108059865D01*
X121983508Y-108150813D01*
X121785901Y-108282850D01*
X121617850Y-108450901D01*
X121485813Y-108648508D01*
X121394865Y-108868077D01*
X121348500Y-109101170D01*
X121221500Y-109101170D01*
X121175135Y-108868077D01*
X121084187Y-108648508D01*
X120952150Y-108450901D01*
X120784099Y-108282850D01*
X120586492Y-108150813D01*
X120366923Y-108059865D01*
X120133830Y-108013500D01*
X119896170Y-108013500D01*
X119663077Y-108059865D01*
X119443508Y-108150813D01*
X119245901Y-108282850D01*
X119077850Y-108450901D01*
X118945813Y-108648508D01*
X118854865Y-108868077D01*
X118808500Y-109101170D01*
X118681500Y-109101170D01*
X118635135Y-108868077D01*
X118544187Y-108648508D01*
X118412150Y-108450901D01*
X118244099Y-108282850D01*
X118046492Y-108150813D01*
X117826923Y-108059865D01*
X117593830Y-108013500D01*
X117356170Y-108013500D01*
X117123077Y-108059865D01*
X116903508Y-108150813D01*
X116705901Y-108282850D01*
X116537850Y-108450901D01*
X116405813Y-108648508D01*
X116314865Y-108868077D01*
X116268500Y-109101170D01*
X116141500Y-109101170D01*
X116095135Y-108868077D01*
X116004187Y-108648508D01*
X115872150Y-108450901D01*
X115704099Y-108282850D01*
X115506492Y-108150813D01*
X115286923Y-108059865D01*
X115053830Y-108013500D01*
X114816170Y-108013500D01*
X114583077Y-108059865D01*
X114363508Y-108150813D01*
X114165901Y-108282850D01*
X113997850Y-108450901D01*
X113865813Y-108648508D01*
X113774865Y-108868077D01*
X113728500Y-109101170D01*
X113601500Y-109101170D01*
X113555135Y-108868077D01*
X113464187Y-108648508D01*
X113332150Y-108450901D01*
X113164099Y-108282850D01*
X112966492Y-108150813D01*
X112746923Y-108059865D01*
X112513830Y-108013500D01*
X112276170Y-108013500D01*
X112043077Y-108059865D01*
X111823508Y-108150813D01*
X111625901Y-108282850D01*
X111457850Y-108450901D01*
X111325813Y-108648508D01*
X111234865Y-108868077D01*
X111188500Y-109101170D01*
X111061500Y-109101170D01*
X111015135Y-108868077D01*
X110924187Y-108648508D01*
X110792150Y-108450901D01*
X110624099Y-108282850D01*
X110426492Y-108150813D01*
X110206923Y-108059865D01*
X109973830Y-108013500D01*
X109736170Y-108013500D01*
X109503077Y-108059865D01*
X109283508Y-108150813D01*
X109085901Y-108282850D01*
X108917850Y-108450901D01*
X108785813Y-108648508D01*
X108694865Y-108868077D01*
X108648500Y-109101170D01*
X108521500Y-109101170D01*
X108475135Y-108868077D01*
X108384187Y-108648508D01*
X108252150Y-108450901D01*
X108084099Y-108282850D01*
X107886492Y-108150813D01*
X107666923Y-108059865D01*
X107433830Y-108013500D01*
X107196170Y-108013500D01*
X106963077Y-108059865D01*
X106743508Y-108150813D01*
X106545901Y-108282850D01*
X106377850Y-108450901D01*
X106245813Y-108648508D01*
X106154865Y-108868077D01*
X106108500Y-109101170D01*
X105981500Y-109101170D01*
X105935135Y-108868077D01*
X105844187Y-108648508D01*
X105712150Y-108450901D01*
X105544099Y-108282850D01*
X105346492Y-108150813D01*
X105126923Y-108059865D01*
X104893830Y-108013500D01*
X104656170Y-108013500D01*
X104423077Y-108059865D01*
X104203508Y-108150813D01*
X104005901Y-108282850D01*
X103837850Y-108450901D01*
X103705813Y-108648508D01*
X103614865Y-108868077D01*
X103568500Y-109101170D01*
X103441500Y-109101170D01*
X103395135Y-108868077D01*
X103304187Y-108648508D01*
X103172150Y-108450901D01*
X103004099Y-108282850D01*
X102806492Y-108150813D01*
X102586923Y-108059865D01*
X102353830Y-108013500D01*
X102116170Y-108013500D01*
X101883077Y-108059865D01*
X101663508Y-108150813D01*
X101465901Y-108282850D01*
X101297850Y-108450901D01*
X101165813Y-108648508D01*
X101074865Y-108868077D01*
X101028500Y-109101170D01*
X100724456Y-109101170D01*
X100436282Y-108812996D01*
X100082670Y-108576719D01*
X99689757Y-108413970D01*
X99272643Y-108331000D01*
X98847357Y-108331000D01*
X98430243Y-108413970D01*
X98037330Y-108576719D01*
X97683718Y-108812996D01*
X97382996Y-109113718D01*
X97146719Y-109467330D01*
X96983970Y-109860243D01*
X96901000Y-110277357D01*
X95204196Y-110277357D01*
X95384099Y-110157150D01*
X95552150Y-109989099D01*
X95684187Y-109791492D01*
X95775135Y-109571923D01*
X95821500Y-109338830D01*
X95821500Y-109101170D01*
X95775135Y-108868077D01*
X95684187Y-108648508D01*
X95552150Y-108450901D01*
X95384099Y-108282850D01*
X95186492Y-108150813D01*
X94966923Y-108059865D01*
X94733830Y-108013500D01*
X94496170Y-108013500D01*
X94263077Y-108059865D01*
X94043508Y-108150813D01*
X93845901Y-108282850D01*
X93677850Y-108450901D01*
X93545813Y-108648508D01*
X93454865Y-108868077D01*
X93408500Y-109101170D01*
X93281500Y-109101170D01*
X93235135Y-108868077D01*
X93144187Y-108648508D01*
X93012150Y-108450901D01*
X92844099Y-108282850D01*
X92646492Y-108150813D01*
X92426923Y-108059865D01*
X92193830Y-108013500D01*
X91956170Y-108013500D01*
X91723077Y-108059865D01*
X91503508Y-108150813D01*
X91305901Y-108282850D01*
X91137850Y-108450901D01*
X91005813Y-108648508D01*
X90914865Y-108868077D01*
X90868500Y-109101170D01*
X90741500Y-109101170D01*
X90695135Y-108868077D01*
X90604187Y-108648508D01*
X90472150Y-108450901D01*
X90304099Y-108282850D01*
X90106492Y-108150813D01*
X89886923Y-108059865D01*
X89653830Y-108013500D01*
X89416170Y-108013500D01*
X89183077Y-108059865D01*
X88963508Y-108150813D01*
X88765901Y-108282850D01*
X88597850Y-108450901D01*
X88465813Y-108648508D01*
X88374865Y-108868077D01*
X88328500Y-109101170D01*
X88201500Y-109101170D01*
X88155135Y-108868077D01*
X88064187Y-108648508D01*
X87932150Y-108450901D01*
X87764099Y-108282850D01*
X87566492Y-108150813D01*
X87346923Y-108059865D01*
X87113830Y-108013500D01*
X86876170Y-108013500D01*
X86643077Y-108059865D01*
X86423508Y-108150813D01*
X86225901Y-108282850D01*
X86057850Y-108450901D01*
X85925813Y-108648508D01*
X85834865Y-108868077D01*
X85788500Y-109101170D01*
X85661500Y-109101170D01*
X85615135Y-108868077D01*
X85524187Y-108648508D01*
X85392150Y-108450901D01*
X85224099Y-108282850D01*
X85026492Y-108150813D01*
X84806923Y-108059865D01*
X84573830Y-108013500D01*
X84336170Y-108013500D01*
X84103077Y-108059865D01*
X83883508Y-108150813D01*
X83685901Y-108282850D01*
X83517850Y-108450901D01*
X83385813Y-108648508D01*
X83294865Y-108868077D01*
X83248500Y-109101170D01*
X83121500Y-109101170D01*
X83075135Y-108868077D01*
X82984187Y-108648508D01*
X82852150Y-108450901D01*
X82684099Y-108282850D01*
X82486492Y-108150813D01*
X82266923Y-108059865D01*
X82033830Y-108013500D01*
X81796170Y-108013500D01*
X81563077Y-108059865D01*
X81343508Y-108150813D01*
X81145901Y-108282850D01*
X80977850Y-108450901D01*
X80845813Y-108648508D01*
X80754865Y-108868077D01*
X80708500Y-109101170D01*
X80581500Y-109101170D01*
X80535135Y-108868077D01*
X80444187Y-108648508D01*
X80312150Y-108450901D01*
X80144099Y-108282850D01*
X79946492Y-108150813D01*
X79726923Y-108059865D01*
X79493830Y-108013500D01*
X79256170Y-108013500D01*
X79023077Y-108059865D01*
X78803508Y-108150813D01*
X78605901Y-108282850D01*
X78437850Y-108450901D01*
X78305813Y-108648508D01*
X78214865Y-108868077D01*
X78168500Y-109101170D01*
X78041500Y-109101170D01*
X77995135Y-108868077D01*
X77904187Y-108648508D01*
X77772150Y-108450901D01*
X77604099Y-108282850D01*
X77406492Y-108150813D01*
X77186923Y-108059865D01*
X76953830Y-108013500D01*
X76716170Y-108013500D01*
X76483077Y-108059865D01*
X76263508Y-108150813D01*
X76065901Y-108282850D01*
X75897850Y-108450901D01*
X75765813Y-108648508D01*
X75674865Y-108868077D01*
X75628500Y-109101170D01*
X75501500Y-109101170D01*
X75455135Y-108868077D01*
X75364187Y-108648508D01*
X75232150Y-108450901D01*
X75064099Y-108282850D01*
X74866492Y-108150813D01*
X74646923Y-108059865D01*
X74413830Y-108013500D01*
X74176170Y-108013500D01*
X73943077Y-108059865D01*
X73723508Y-108150813D01*
X73525901Y-108282850D01*
X73357850Y-108450901D01*
X73225813Y-108648508D01*
X73134865Y-108868077D01*
X73088500Y-109101170D01*
X72961500Y-109101170D01*
X72915135Y-108868077D01*
X72824187Y-108648508D01*
X72692150Y-108450901D01*
X72524099Y-108282850D01*
X72326492Y-108150813D01*
X72106923Y-108059865D01*
X71873830Y-108013500D01*
X71636170Y-108013500D01*
X71403077Y-108059865D01*
X71183508Y-108150813D01*
X70985901Y-108282850D01*
X70817850Y-108450901D01*
X70685813Y-108648508D01*
X70594865Y-108868077D01*
X70548500Y-109101170D01*
X70421500Y-109101170D01*
X70375135Y-108868077D01*
X70284187Y-108648508D01*
X70152150Y-108450901D01*
X69984099Y-108282850D01*
X69786492Y-108150813D01*
X69566923Y-108059865D01*
X69333830Y-108013500D01*
X69096170Y-108013500D01*
X68863077Y-108059865D01*
X68643508Y-108150813D01*
X68445901Y-108282850D01*
X68277850Y-108450901D01*
X68145813Y-108648508D01*
X68054865Y-108868077D01*
X68008500Y-109101170D01*
X67881500Y-109101170D01*
X67835135Y-108868077D01*
X67744187Y-108648508D01*
X67612150Y-108450901D01*
X67444099Y-108282850D01*
X67246492Y-108150813D01*
X67026923Y-108059865D01*
X66793830Y-108013500D01*
X66556170Y-108013500D01*
X66323077Y-108059865D01*
X66103508Y-108150813D01*
X65905901Y-108282850D01*
X65737850Y-108450901D01*
X65605813Y-108648508D01*
X65514865Y-108868077D01*
X65468500Y-109101170D01*
X65341500Y-109101170D01*
X65295135Y-108868077D01*
X65204187Y-108648508D01*
X65072150Y-108450901D01*
X64904099Y-108282850D01*
X64706492Y-108150813D01*
X64486923Y-108059865D01*
X64253830Y-108013500D01*
X64016170Y-108013500D01*
X63783077Y-108059865D01*
X63563508Y-108150813D01*
X63365901Y-108282850D01*
X63197850Y-108450901D01*
X63065813Y-108648508D01*
X62974865Y-108868077D01*
X62928500Y-109101170D01*
X62801500Y-109101170D01*
X62755135Y-108868077D01*
X62664187Y-108648508D01*
X62532150Y-108450901D01*
X62364099Y-108282850D01*
X62166492Y-108150813D01*
X61946923Y-108059865D01*
X61713830Y-108013500D01*
X61476170Y-108013500D01*
X61243077Y-108059865D01*
X61023508Y-108150813D01*
X60825901Y-108282850D01*
X60657850Y-108450901D01*
X60525813Y-108648508D01*
X60434865Y-108868077D01*
X60388500Y-109101170D01*
X60261500Y-109101170D01*
X60215135Y-108868077D01*
X60124187Y-108648508D01*
X59992150Y-108450901D01*
X59824099Y-108282850D01*
X59626492Y-108150813D01*
X59406923Y-108059865D01*
X59173830Y-108013500D01*
X58936170Y-108013500D01*
X58703077Y-108059865D01*
X58483508Y-108150813D01*
X58285901Y-108282850D01*
X58117850Y-108450901D01*
X57985813Y-108648508D01*
X57894865Y-108868077D01*
X57848500Y-109101170D01*
X57721500Y-109101170D01*
X57675135Y-108868077D01*
X57584187Y-108648508D01*
X57452150Y-108450901D01*
X57284099Y-108282850D01*
X57086492Y-108150813D01*
X56866923Y-108059865D01*
X56633830Y-108013500D01*
X56396170Y-108013500D01*
X56163077Y-108059865D01*
X55943508Y-108150813D01*
X55745901Y-108282850D01*
X55577850Y-108450901D01*
X55445813Y-108648508D01*
X55354865Y-108868077D01*
X55308500Y-109101170D01*
X55181500Y-109101170D01*
X55135135Y-108868077D01*
X55044187Y-108648508D01*
X54912150Y-108450901D01*
X54744099Y-108282850D01*
X54546492Y-108150813D01*
X54326923Y-108059865D01*
X54093830Y-108013500D01*
X53856170Y-108013500D01*
X53623077Y-108059865D01*
X53403508Y-108150813D01*
X53205901Y-108282850D01*
X53037850Y-108450901D01*
X52905813Y-108648508D01*
X52814865Y-108868077D01*
X52768500Y-109101170D01*
X52638232Y-109101170D01*
X52605956Y-108905957D01*
X52522189Y-108683549D01*
X52485054Y-108614071D01*
X52264370Y-108570235D01*
X51614605Y-109220000D01*
X51255395Y-109220000D01*
X50605630Y-108570235D01*
X50384946Y-108614071D01*
X50286912Y-108830569D01*
X50232998Y-109062033D01*
X50225277Y-109299567D01*
X44981185Y-109299567D01*
X44857004Y-109113718D01*
X44556282Y-108812996D01*
X44202670Y-108576719D01*
X43809757Y-108413970D01*
X43692421Y-108390630D01*
X50785235Y-108390630D01*
X51435000Y-109040395D01*
X52084765Y-108390630D01*
X52040929Y-108169946D01*
X51824431Y-108071912D01*
X51592967Y-108017998D01*
X51355433Y-108010277D01*
X51120957Y-108049044D01*
X50898549Y-108132811D01*
X50829071Y-108169946D01*
X50785235Y-108390630D01*
X43692421Y-108390630D01*
X43392643Y-108331000D01*
X42967357Y-108331000D01*
X42550243Y-108413970D01*
X42157330Y-108576719D01*
X41803718Y-108812996D01*
X41502996Y-109113718D01*
X41266719Y-109467330D01*
X41103970Y-109860243D01*
X41021000Y-110277357D01*
X40030000Y-110277357D01*
X40030000Y-99655000D01*
X129877928Y-99655000D01*
X129877928Y-101005000D01*
X129890188Y-101129482D01*
X129926498Y-101249180D01*
X129985463Y-101359494D01*
X130064815Y-101456185D01*
X130161506Y-101535537D01*
X130271820Y-101594502D01*
X130391518Y-101630812D01*
X130516000Y-101643072D01*
X131866000Y-101643072D01*
X131990482Y-101630812D01*
X132110180Y-101594502D01*
X132220494Y-101535537D01*
X132317185Y-101456185D01*
X132388487Y-101369303D01*
X132570482Y-101490907D01*
X132808887Y-101589658D01*
X133061976Y-101640000D01*
X133320024Y-101640000D01*
X133573113Y-101589658D01*
X133811518Y-101490907D01*
X134026077Y-101347544D01*
X134191000Y-101182621D01*
X134355923Y-101347544D01*
X134570482Y-101490907D01*
X134808887Y-101589658D01*
X135061976Y-101640000D01*
X135320024Y-101640000D01*
X135573113Y-101589658D01*
X135811518Y-101490907D01*
X136026077Y-101347544D01*
X136191000Y-101182621D01*
X136355923Y-101347544D01*
X136570482Y-101490907D01*
X136808887Y-101589658D01*
X137061976Y-101640000D01*
X137320024Y-101640000D01*
X137573113Y-101589658D01*
X137811518Y-101490907D01*
X138026077Y-101347544D01*
X138197681Y-101175940D01*
X138319773Y-101308303D01*
X138527371Y-101459473D01*
X138760472Y-101567238D01*
X138861600Y-101597910D01*
X139064000Y-101474224D01*
X139064000Y-100457000D01*
X139318000Y-100457000D01*
X139318000Y-101474224D01*
X139520400Y-101597910D01*
X139621528Y-101567238D01*
X139854629Y-101459473D01*
X140062227Y-101308303D01*
X140191000Y-101168696D01*
X140319773Y-101308303D01*
X140527371Y-101459473D01*
X140760472Y-101567238D01*
X140861600Y-101597910D01*
X141064000Y-101474224D01*
X141064000Y-100457000D01*
X139318000Y-100457000D01*
X139064000Y-100457000D01*
X139044000Y-100457000D01*
X139044000Y-100203000D01*
X139064000Y-100203000D01*
X139064000Y-98457000D01*
X139318000Y-98457000D01*
X139318000Y-100203000D01*
X141064000Y-100203000D01*
X141064000Y-98457000D01*
X139318000Y-98457000D01*
X139064000Y-98457000D01*
X139044000Y-98457000D01*
X139044000Y-98203000D01*
X139064000Y-98203000D01*
X139064000Y-97185776D01*
X139318000Y-97185776D01*
X139318000Y-98203000D01*
X141064000Y-98203000D01*
X141064000Y-97185776D01*
X141318000Y-97185776D01*
X141318000Y-98203000D01*
X141338000Y-98203000D01*
X141338000Y-98457000D01*
X141318000Y-98457000D01*
X141318000Y-100203000D01*
X141338000Y-100203000D01*
X141338000Y-100457000D01*
X141318000Y-100457000D01*
X141318000Y-101474224D01*
X141520400Y-101597910D01*
X141621528Y-101567238D01*
X141854629Y-101459473D01*
X142062227Y-101308303D01*
X142184319Y-101175940D01*
X142355923Y-101347544D01*
X142570482Y-101490907D01*
X142808887Y-101589658D01*
X143061976Y-101640000D01*
X143320024Y-101640000D01*
X143573113Y-101589658D01*
X143811518Y-101490907D01*
X144026077Y-101347544D01*
X144197681Y-101175940D01*
X144319773Y-101308303D01*
X144527371Y-101459473D01*
X144760472Y-101567238D01*
X144861600Y-101597910D01*
X145064000Y-101474224D01*
X145064000Y-100457000D01*
X145044000Y-100457000D01*
X145044000Y-100203000D01*
X145064000Y-100203000D01*
X145064000Y-98457000D01*
X145044000Y-98457000D01*
X145044000Y-98203000D01*
X145064000Y-98203000D01*
X145064000Y-97185776D01*
X145318000Y-97185776D01*
X145318000Y-98203000D01*
X145338000Y-98203000D01*
X145338000Y-98457000D01*
X145318000Y-98457000D01*
X145318000Y-100203000D01*
X145338000Y-100203000D01*
X145338000Y-100457000D01*
X145318000Y-100457000D01*
X145318000Y-101474224D01*
X145520400Y-101597910D01*
X145621528Y-101567238D01*
X145854629Y-101459473D01*
X146062227Y-101308303D01*
X146184319Y-101175940D01*
X146355923Y-101347544D01*
X146570482Y-101490907D01*
X146808887Y-101589658D01*
X147061976Y-101640000D01*
X147320024Y-101640000D01*
X147573113Y-101589658D01*
X147811518Y-101490907D01*
X148026077Y-101347544D01*
X148191000Y-101182621D01*
X148355923Y-101347544D01*
X148570482Y-101490907D01*
X148808887Y-101589658D01*
X149061976Y-101640000D01*
X149320024Y-101640000D01*
X149573113Y-101589658D01*
X149811518Y-101490907D01*
X150026077Y-101347544D01*
X150191000Y-101182621D01*
X150355923Y-101347544D01*
X150570482Y-101490907D01*
X150808887Y-101589658D01*
X151061976Y-101640000D01*
X151320024Y-101640000D01*
X151573113Y-101589658D01*
X151811518Y-101490907D01*
X152026077Y-101347544D01*
X152191000Y-101182621D01*
X152355923Y-101347544D01*
X152570482Y-101490907D01*
X152808887Y-101589658D01*
X153061976Y-101640000D01*
X153320024Y-101640000D01*
X153573113Y-101589658D01*
X153811518Y-101490907D01*
X154026077Y-101347544D01*
X154191000Y-101182621D01*
X154355923Y-101347544D01*
X154570482Y-101490907D01*
X154808887Y-101589658D01*
X155061976Y-101640000D01*
X155320024Y-101640000D01*
X155573113Y-101589658D01*
X155811518Y-101490907D01*
X156026077Y-101347544D01*
X156208544Y-101165077D01*
X156351907Y-100950518D01*
X156450658Y-100712113D01*
X156501000Y-100459024D01*
X156501000Y-100200976D01*
X156450658Y-99947887D01*
X156351907Y-99709482D01*
X156208544Y-99494923D01*
X156043621Y-99330000D01*
X156208544Y-99165077D01*
X156351907Y-98950518D01*
X156450658Y-98712113D01*
X156501000Y-98459024D01*
X156501000Y-98200976D01*
X156450658Y-97947887D01*
X156351907Y-97709482D01*
X156208544Y-97494923D01*
X156026077Y-97312456D01*
X155811518Y-97169093D01*
X155573113Y-97070342D01*
X155320024Y-97020000D01*
X155061976Y-97020000D01*
X154808887Y-97070342D01*
X154570482Y-97169093D01*
X154355923Y-97312456D01*
X154191000Y-97477379D01*
X154026077Y-97312456D01*
X153811518Y-97169093D01*
X153573113Y-97070342D01*
X153320024Y-97020000D01*
X153061976Y-97020000D01*
X152808887Y-97070342D01*
X152570482Y-97169093D01*
X152355923Y-97312456D01*
X152191000Y-97477379D01*
X152026077Y-97312456D01*
X151811518Y-97169093D01*
X151573113Y-97070342D01*
X151320024Y-97020000D01*
X151061976Y-97020000D01*
X150808887Y-97070342D01*
X150570482Y-97169093D01*
X150355923Y-97312456D01*
X150191000Y-97477379D01*
X150026077Y-97312456D01*
X149811518Y-97169093D01*
X149573113Y-97070342D01*
X149320024Y-97020000D01*
X149061976Y-97020000D01*
X148808887Y-97070342D01*
X148570482Y-97169093D01*
X148355923Y-97312456D01*
X148191000Y-97477379D01*
X148026077Y-97312456D01*
X147811518Y-97169093D01*
X147573113Y-97070342D01*
X147320024Y-97020000D01*
X147061976Y-97020000D01*
X146808887Y-97070342D01*
X146570482Y-97169093D01*
X146355923Y-97312456D01*
X146184319Y-97484060D01*
X146062227Y-97351697D01*
X145854629Y-97200527D01*
X145621528Y-97092762D01*
X145520400Y-97062090D01*
X145318000Y-97185776D01*
X145064000Y-97185776D01*
X144861600Y-97062090D01*
X144760472Y-97092762D01*
X144527371Y-97200527D01*
X144319773Y-97351697D01*
X144197681Y-97484060D01*
X144026077Y-97312456D01*
X143811518Y-97169093D01*
X143573113Y-97070342D01*
X143320024Y-97020000D01*
X143061976Y-97020000D01*
X142808887Y-97070342D01*
X142570482Y-97169093D01*
X142355923Y-97312456D01*
X142184319Y-97484060D01*
X142062227Y-97351697D01*
X141854629Y-97200527D01*
X141621528Y-97092762D01*
X141520400Y-97062090D01*
X141318000Y-97185776D01*
X141064000Y-97185776D01*
X140861600Y-97062090D01*
X140760472Y-97092762D01*
X140527371Y-97200527D01*
X140319773Y-97351697D01*
X140191000Y-97491304D01*
X140062227Y-97351697D01*
X139854629Y-97200527D01*
X139621528Y-97092762D01*
X139520400Y-97062090D01*
X139318000Y-97185776D01*
X139064000Y-97185776D01*
X138861600Y-97062090D01*
X138760472Y-97092762D01*
X138527371Y-97200527D01*
X138319773Y-97351697D01*
X138197681Y-97484060D01*
X138026077Y-97312456D01*
X137811518Y-97169093D01*
X137573113Y-97070342D01*
X137320024Y-97020000D01*
X137061976Y-97020000D01*
X136808887Y-97070342D01*
X136570482Y-97169093D01*
X136355923Y-97312456D01*
X136191000Y-97477379D01*
X136026077Y-97312456D01*
X135811518Y-97169093D01*
X135573113Y-97070342D01*
X135320024Y-97020000D01*
X135061976Y-97020000D01*
X134808887Y-97070342D01*
X134570482Y-97169093D01*
X134355923Y-97312456D01*
X134191000Y-97477379D01*
X134026077Y-97312456D01*
X133811518Y-97169093D01*
X133573113Y-97070342D01*
X133320024Y-97020000D01*
X133061976Y-97020000D01*
X132808887Y-97070342D01*
X132570482Y-97169093D01*
X132355923Y-97312456D01*
X132191000Y-97477379D01*
X132026077Y-97312456D01*
X131811518Y-97169093D01*
X131573113Y-97070342D01*
X131320024Y-97020000D01*
X131061976Y-97020000D01*
X130808887Y-97070342D01*
X130570482Y-97169093D01*
X130355923Y-97312456D01*
X130173456Y-97494923D01*
X130030093Y-97709482D01*
X129931342Y-97947887D01*
X129881000Y-98200976D01*
X129881000Y-98459024D01*
X129931342Y-98712113D01*
X130030093Y-98950518D01*
X130151697Y-99132513D01*
X130064815Y-99203815D01*
X129985463Y-99300506D01*
X129926498Y-99410820D01*
X129890188Y-99530518D01*
X129877928Y-99655000D01*
X40030000Y-99655000D01*
X40030000Y-95910000D01*
X158090000Y-95910000D01*
X158090001Y-139040000D01*
%TA.AperFunction,Conductor*%
D18*
G36*
X158090001Y-139040000D02*
G01*
X40030000Y-139040000D01*
X40030000Y-137502000D01*
X99095928Y-137502000D01*
X99108188Y-137626482D01*
X99144498Y-137746180D01*
X99203463Y-137856494D01*
X99282815Y-137953185D01*
X99379506Y-138032537D01*
X99489820Y-138091502D01*
X99609518Y-138127812D01*
X99734000Y-138140072D01*
X100298250Y-138137000D01*
X100457000Y-137978250D01*
X100457000Y-136779000D01*
X99257750Y-136779000D01*
X99099000Y-136937750D01*
X99095928Y-137502000D01*
X40030000Y-137502000D01*
X40030000Y-135802000D01*
X99095928Y-135802000D01*
X99099000Y-136366250D01*
X99257750Y-136525000D01*
X100457000Y-136525000D01*
X100457000Y-135325750D01*
X100711000Y-135325750D01*
X100711000Y-136525000D01*
X100731000Y-136525000D01*
X100731000Y-136779000D01*
X100711000Y-136779000D01*
X100711000Y-137978250D01*
X100869750Y-138137000D01*
X101434000Y-138140072D01*
X101558482Y-138127812D01*
X101678180Y-138091502D01*
X101788494Y-138032537D01*
X101885185Y-137953185D01*
X101964537Y-137856494D01*
X102023502Y-137746180D01*
X102045513Y-137673620D01*
X102177368Y-137805475D01*
X102420589Y-137967990D01*
X102690842Y-138079932D01*
X102977740Y-138137000D01*
X103270260Y-138137000D01*
X103557158Y-138079932D01*
X103827411Y-137967990D01*
X104070632Y-137805475D01*
X104277475Y-137598632D01*
X104394000Y-137424240D01*
X104510525Y-137598632D01*
X104717368Y-137805475D01*
X104960589Y-137967990D01*
X105230842Y-138079932D01*
X105517740Y-138137000D01*
X105810260Y-138137000D01*
X106097158Y-138079932D01*
X106367411Y-137967990D01*
X106610632Y-137805475D01*
X106817475Y-137598632D01*
X106979990Y-137355411D01*
X107091932Y-137085158D01*
X107149000Y-136798260D01*
X107149000Y-136505740D01*
X107091932Y-136218842D01*
X107070459Y-136167000D01*
X129877928Y-136167000D01*
X129877928Y-137517000D01*
X129890188Y-137641482D01*
X129926498Y-137761180D01*
X129985463Y-137871494D01*
X130064815Y-137968185D01*
X130161506Y-138047537D01*
X130271820Y-138106502D01*
X130391518Y-138142812D01*
X130516000Y-138155072D01*
X131866000Y-138155072D01*
X131990482Y-138142812D01*
X132110180Y-138106502D01*
X132220494Y-138047537D01*
X132317185Y-137968185D01*
X132388487Y-137881303D01*
X132570482Y-138002907D01*
X132808887Y-138101658D01*
X133061976Y-138152000D01*
X133320024Y-138152000D01*
X133573113Y-138101658D01*
X133811518Y-138002907D01*
X134026077Y-137859544D01*
X134191000Y-137694621D01*
X134355923Y-137859544D01*
X134570482Y-138002907D01*
X134808887Y-138101658D01*
X135061976Y-138152000D01*
X135320024Y-138152000D01*
X135573113Y-138101658D01*
X135811518Y-138002907D01*
X136026077Y-137859544D01*
X136191000Y-137694621D01*
X136355923Y-137859544D01*
X136570482Y-138002907D01*
X136808887Y-138101658D01*
X137061976Y-138152000D01*
X137320024Y-138152000D01*
X137573113Y-138101658D01*
X137811518Y-138002907D01*
X138026077Y-137859544D01*
X138197681Y-137687940D01*
X138319773Y-137820303D01*
X138527371Y-137971473D01*
X138760472Y-138079238D01*
X138861600Y-138109910D01*
X139064000Y-137986224D01*
X139064000Y-136969000D01*
X139044000Y-136969000D01*
X139044000Y-136715000D01*
X139064000Y-136715000D01*
X139064000Y-134969000D01*
X139044000Y-134969000D01*
X139044000Y-134715000D01*
X139064000Y-134715000D01*
X139064000Y-133697776D01*
X139318000Y-133697776D01*
X139318000Y-134715000D01*
X139338000Y-134715000D01*
X139338000Y-134969000D01*
X139318000Y-134969000D01*
X139318000Y-136715000D01*
X139338000Y-136715000D01*
X139338000Y-136969000D01*
X139318000Y-136969000D01*
X139318000Y-137986224D01*
X139520400Y-138109910D01*
X139621528Y-138079238D01*
X139854629Y-137971473D01*
X140062227Y-137820303D01*
X140184319Y-137687940D01*
X140355923Y-137859544D01*
X140570482Y-138002907D01*
X140808887Y-138101658D01*
X141061976Y-138152000D01*
X141320024Y-138152000D01*
X141573113Y-138101658D01*
X141811518Y-138002907D01*
X142026077Y-137859544D01*
X142197681Y-137687940D01*
X142319773Y-137820303D01*
X142527371Y-137971473D01*
X142760472Y-138079238D01*
X142861600Y-138109910D01*
X143064000Y-137986224D01*
X143064000Y-136969000D01*
X143044000Y-136969000D01*
X143044000Y-136715000D01*
X143064000Y-136715000D01*
X143064000Y-134969000D01*
X143044000Y-134969000D01*
X143044000Y-134715000D01*
X143064000Y-134715000D01*
X143064000Y-133697776D01*
X143318000Y-133697776D01*
X143318000Y-134715000D01*
X143338000Y-134715000D01*
X143338000Y-134969000D01*
X143318000Y-134969000D01*
X143318000Y-136715000D01*
X143338000Y-136715000D01*
X143338000Y-136969000D01*
X143318000Y-136969000D01*
X143318000Y-137986224D01*
X143520400Y-138109910D01*
X143621528Y-138079238D01*
X143854629Y-137971473D01*
X144062227Y-137820303D01*
X144184319Y-137687940D01*
X144355923Y-137859544D01*
X144570482Y-138002907D01*
X144808887Y-138101658D01*
X145061976Y-138152000D01*
X145320024Y-138152000D01*
X145573113Y-138101658D01*
X145811518Y-138002907D01*
X146026077Y-137859544D01*
X146191000Y-137694621D01*
X146355923Y-137859544D01*
X146570482Y-138002907D01*
X146808887Y-138101658D01*
X147061976Y-138152000D01*
X147320024Y-138152000D01*
X147573113Y-138101658D01*
X147811518Y-138002907D01*
X148026077Y-137859544D01*
X148191000Y-137694621D01*
X148355923Y-137859544D01*
X148570482Y-138002907D01*
X148808887Y-138101658D01*
X149061976Y-138152000D01*
X149320024Y-138152000D01*
X149573113Y-138101658D01*
X149811518Y-138002907D01*
X150026077Y-137859544D01*
X150191000Y-137694621D01*
X150355923Y-137859544D01*
X150570482Y-138002907D01*
X150808887Y-138101658D01*
X151061976Y-138152000D01*
X151320024Y-138152000D01*
X151573113Y-138101658D01*
X151811518Y-138002907D01*
X152026077Y-137859544D01*
X152191000Y-137694621D01*
X152355923Y-137859544D01*
X152570482Y-138002907D01*
X152808887Y-138101658D01*
X153061976Y-138152000D01*
X153320024Y-138152000D01*
X153573113Y-138101658D01*
X153811518Y-138002907D01*
X154026077Y-137859544D01*
X154208544Y-137677077D01*
X154351907Y-137462518D01*
X154450658Y-137224113D01*
X154501000Y-136971024D01*
X154501000Y-136712976D01*
X154450658Y-136459887D01*
X154351907Y-136221482D01*
X154208544Y-136006923D01*
X154043621Y-135842000D01*
X154208544Y-135677077D01*
X154351907Y-135462518D01*
X154450658Y-135224113D01*
X154501000Y-134971024D01*
X154501000Y-134712976D01*
X154450658Y-134459887D01*
X154351907Y-134221482D01*
X154208544Y-134006923D01*
X154026077Y-133824456D01*
X153811518Y-133681093D01*
X153573113Y-133582342D01*
X153320024Y-133532000D01*
X153061976Y-133532000D01*
X152808887Y-133582342D01*
X152570482Y-133681093D01*
X152355923Y-133824456D01*
X152191000Y-133989379D01*
X152026077Y-133824456D01*
X151811518Y-133681093D01*
X151573113Y-133582342D01*
X151320024Y-133532000D01*
X151061976Y-133532000D01*
X150808887Y-133582342D01*
X150570482Y-133681093D01*
X150355923Y-133824456D01*
X150191000Y-133989379D01*
X150026077Y-133824456D01*
X149811518Y-133681093D01*
X149573113Y-133582342D01*
X149320024Y-133532000D01*
X149061976Y-133532000D01*
X148808887Y-133582342D01*
X148570482Y-133681093D01*
X148355923Y-133824456D01*
X148191000Y-133989379D01*
X148026077Y-133824456D01*
X147811518Y-133681093D01*
X147573113Y-133582342D01*
X147320024Y-133532000D01*
X147061976Y-133532000D01*
X146808887Y-133582342D01*
X146570482Y-133681093D01*
X146355923Y-133824456D01*
X146191000Y-133989379D01*
X146026077Y-133824456D01*
X145811518Y-133681093D01*
X145573113Y-133582342D01*
X145320024Y-133532000D01*
X145061976Y-133532000D01*
X144808887Y-133582342D01*
X144570482Y-133681093D01*
X144355923Y-133824456D01*
X144184319Y-133996060D01*
X144062227Y-133863697D01*
X143854629Y-133712527D01*
X143621528Y-133604762D01*
X143520400Y-133574090D01*
X143318000Y-133697776D01*
X143064000Y-133697776D01*
X142861600Y-133574090D01*
X142760472Y-133604762D01*
X142527371Y-133712527D01*
X142319773Y-133863697D01*
X142197681Y-133996060D01*
X142026077Y-133824456D01*
X141811518Y-133681093D01*
X141573113Y-133582342D01*
X141320024Y-133532000D01*
X141061976Y-133532000D01*
X140808887Y-133582342D01*
X140570482Y-133681093D01*
X140355923Y-133824456D01*
X140184319Y-133996060D01*
X140062227Y-133863697D01*
X139854629Y-133712527D01*
X139621528Y-133604762D01*
X139520400Y-133574090D01*
X139318000Y-133697776D01*
X139064000Y-133697776D01*
X138861600Y-133574090D01*
X138760472Y-133604762D01*
X138527371Y-133712527D01*
X138319773Y-133863697D01*
X138197681Y-133996060D01*
X138026077Y-133824456D01*
X137811518Y-133681093D01*
X137573113Y-133582342D01*
X137320024Y-133532000D01*
X137061976Y-133532000D01*
X136808887Y-133582342D01*
X136570482Y-133681093D01*
X136355923Y-133824456D01*
X136191000Y-133989379D01*
X136026077Y-133824456D01*
X135811518Y-133681093D01*
X135573113Y-133582342D01*
X135320024Y-133532000D01*
X135061976Y-133532000D01*
X134808887Y-133582342D01*
X134570482Y-133681093D01*
X134355923Y-133824456D01*
X134191000Y-133989379D01*
X134026077Y-133824456D01*
X133811518Y-133681093D01*
X133573113Y-133582342D01*
X133320024Y-133532000D01*
X133061976Y-133532000D01*
X132808887Y-133582342D01*
X132570482Y-133681093D01*
X132355923Y-133824456D01*
X132191000Y-133989379D01*
X132026077Y-133824456D01*
X131811518Y-133681093D01*
X131573113Y-133582342D01*
X131320024Y-133532000D01*
X131061976Y-133532000D01*
X130808887Y-133582342D01*
X130570482Y-133681093D01*
X130355923Y-133824456D01*
X130173456Y-134006923D01*
X130030093Y-134221482D01*
X129931342Y-134459887D01*
X129881000Y-134712976D01*
X129881000Y-134971024D01*
X129931342Y-135224113D01*
X130030093Y-135462518D01*
X130151697Y-135644513D01*
X130064815Y-135715815D01*
X129985463Y-135812506D01*
X129926498Y-135922820D01*
X129890188Y-136042518D01*
X129877928Y-136167000D01*
X107070459Y-136167000D01*
X106979990Y-135948589D01*
X106817475Y-135705368D01*
X106610632Y-135498525D01*
X106367411Y-135336010D01*
X106097158Y-135224068D01*
X105810260Y-135167000D01*
X105517740Y-135167000D01*
X105230842Y-135224068D01*
X104960589Y-135336010D01*
X104717368Y-135498525D01*
X104510525Y-135705368D01*
X104394000Y-135879760D01*
X104277475Y-135705368D01*
X104070632Y-135498525D01*
X103827411Y-135336010D01*
X103557158Y-135224068D01*
X103270260Y-135167000D01*
X102977740Y-135167000D01*
X102690842Y-135224068D01*
X102420589Y-135336010D01*
X102177368Y-135498525D01*
X102045513Y-135630380D01*
X102023502Y-135557820D01*
X101964537Y-135447506D01*
X101885185Y-135350815D01*
X101788494Y-135271463D01*
X101678180Y-135212498D01*
X101558482Y-135176188D01*
X101434000Y-135163928D01*
X100869750Y-135167000D01*
X100711000Y-135325750D01*
X100457000Y-135325750D01*
X100298250Y-135167000D01*
X99734000Y-135163928D01*
X99609518Y-135176188D01*
X99489820Y-135212498D01*
X99379506Y-135271463D01*
X99282815Y-135350815D01*
X99203463Y-135447506D01*
X99144498Y-135557820D01*
X99108188Y-135677518D01*
X99095928Y-135802000D01*
X40030000Y-135802000D01*
X40030000Y-133692000D01*
X99222928Y-133692000D01*
X99235188Y-133816482D01*
X99271498Y-133936180D01*
X99330463Y-134046494D01*
X99409815Y-134143185D01*
X99506506Y-134222537D01*
X99616820Y-134281502D01*
X99736518Y-134317812D01*
X99861000Y-134330072D01*
X100425250Y-134327000D01*
X100584000Y-134168250D01*
X100584000Y-132969000D01*
X99384750Y-132969000D01*
X99226000Y-133127750D01*
X99222928Y-133692000D01*
X40030000Y-133692000D01*
X40030000Y-131992000D01*
X99222928Y-131992000D01*
X99226000Y-132556250D01*
X99384750Y-132715000D01*
X100584000Y-132715000D01*
X100584000Y-131515750D01*
X100838000Y-131515750D01*
X100838000Y-132715000D01*
X100858000Y-132715000D01*
X100858000Y-132969000D01*
X100838000Y-132969000D01*
X100838000Y-134168250D01*
X100996750Y-134327000D01*
X101561000Y-134330072D01*
X101685482Y-134317812D01*
X101805180Y-134281502D01*
X101915494Y-134222537D01*
X102012185Y-134143185D01*
X102091537Y-134046494D01*
X102150502Y-133936180D01*
X102172513Y-133863620D01*
X102304368Y-133995475D01*
X102547589Y-134157990D01*
X102817842Y-134269932D01*
X103104740Y-134327000D01*
X103397260Y-134327000D01*
X103684158Y-134269932D01*
X103954411Y-134157990D01*
X104197632Y-133995475D01*
X104404475Y-133788632D01*
X104521000Y-133614240D01*
X104637525Y-133788632D01*
X104844368Y-133995475D01*
X105087589Y-134157990D01*
X105357842Y-134269932D01*
X105644740Y-134327000D01*
X105937260Y-134327000D01*
X106224158Y-134269932D01*
X106494411Y-134157990D01*
X106737632Y-133995475D01*
X106944475Y-133788632D01*
X107106990Y-133545411D01*
X107218932Y-133275158D01*
X107276000Y-132988260D01*
X107276000Y-132695740D01*
X107218932Y-132408842D01*
X107106990Y-132138589D01*
X106944475Y-131895368D01*
X106737632Y-131688525D01*
X106494411Y-131526010D01*
X106224158Y-131414068D01*
X105937260Y-131357000D01*
X105644740Y-131357000D01*
X105357842Y-131414068D01*
X105087589Y-131526010D01*
X104844368Y-131688525D01*
X104637525Y-131895368D01*
X104521000Y-132069760D01*
X104404475Y-131895368D01*
X104197632Y-131688525D01*
X103954411Y-131526010D01*
X103684158Y-131414068D01*
X103397260Y-131357000D01*
X103104740Y-131357000D01*
X102817842Y-131414068D01*
X102547589Y-131526010D01*
X102304368Y-131688525D01*
X102172513Y-131820380D01*
X102150502Y-131747820D01*
X102091537Y-131637506D01*
X102012185Y-131540815D01*
X101915494Y-131461463D01*
X101805180Y-131402498D01*
X101685482Y-131366188D01*
X101561000Y-131353928D01*
X100996750Y-131357000D01*
X100838000Y-131515750D01*
X100584000Y-131515750D01*
X100425250Y-131357000D01*
X99861000Y-131353928D01*
X99736518Y-131366188D01*
X99616820Y-131402498D01*
X99506506Y-131461463D01*
X99409815Y-131540815D01*
X99330463Y-131637506D01*
X99271498Y-131747820D01*
X99235188Y-131867518D01*
X99222928Y-131992000D01*
X40030000Y-131992000D01*
X40030000Y-110277357D01*
X41021000Y-110277357D01*
X41021000Y-110702643D01*
X41103970Y-111119757D01*
X41266719Y-111512670D01*
X41502996Y-111866282D01*
X41803718Y-112167004D01*
X42157330Y-112403281D01*
X42550243Y-112566030D01*
X42967357Y-112649000D01*
X43392643Y-112649000D01*
X43809757Y-112566030D01*
X44202670Y-112403281D01*
X44556282Y-112167004D01*
X44857004Y-111866282D01*
X45007419Y-111641170D01*
X51498500Y-111641170D01*
X51498500Y-111878830D01*
X51544865Y-112111923D01*
X51635813Y-112331492D01*
X51767850Y-112529099D01*
X51935901Y-112697150D01*
X52133508Y-112829187D01*
X52353077Y-112920135D01*
X52586170Y-112966500D01*
X52823830Y-112966500D01*
X53056923Y-112920135D01*
X53276492Y-112829187D01*
X53474099Y-112697150D01*
X53642150Y-112529099D01*
X53774187Y-112331492D01*
X53865135Y-112111923D01*
X53911500Y-111878830D01*
X53911500Y-111641170D01*
X54038500Y-111641170D01*
X54038500Y-111878830D01*
X54084865Y-112111923D01*
X54175813Y-112331492D01*
X54307850Y-112529099D01*
X54475901Y-112697150D01*
X54673508Y-112829187D01*
X54893077Y-112920135D01*
X55126170Y-112966500D01*
X55363830Y-112966500D01*
X55596923Y-112920135D01*
X55816492Y-112829187D01*
X56014099Y-112697150D01*
X56182150Y-112529099D01*
X56314187Y-112331492D01*
X56405135Y-112111923D01*
X56451500Y-111878830D01*
X56451500Y-111641170D01*
X56578500Y-111641170D01*
X56578500Y-111878830D01*
X56624865Y-112111923D01*
X56715813Y-112331492D01*
X56847850Y-112529099D01*
X57015901Y-112697150D01*
X57213508Y-112829187D01*
X57433077Y-112920135D01*
X57666170Y-112966500D01*
X57903830Y-112966500D01*
X58136923Y-112920135D01*
X58356492Y-112829187D01*
X58554099Y-112697150D01*
X58722150Y-112529099D01*
X58854187Y-112331492D01*
X58945135Y-112111923D01*
X58991500Y-111878830D01*
X58991500Y-111641170D01*
X59118500Y-111641170D01*
X59118500Y-111878830D01*
X59164865Y-112111923D01*
X59255813Y-112331492D01*
X59387850Y-112529099D01*
X59555901Y-112697150D01*
X59753508Y-112829187D01*
X59973077Y-112920135D01*
X60206170Y-112966500D01*
X60443830Y-112966500D01*
X60676923Y-112920135D01*
X60896492Y-112829187D01*
X61094099Y-112697150D01*
X61262150Y-112529099D01*
X61394187Y-112331492D01*
X61485135Y-112111923D01*
X61531500Y-111878830D01*
X61531500Y-111641170D01*
X61658500Y-111641170D01*
X61658500Y-111878830D01*
X61704865Y-112111923D01*
X61795813Y-112331492D01*
X61927850Y-112529099D01*
X62095901Y-112697150D01*
X62293508Y-112829187D01*
X62513077Y-112920135D01*
X62746170Y-112966500D01*
X62983830Y-112966500D01*
X63216923Y-112920135D01*
X63436492Y-112829187D01*
X63634099Y-112697150D01*
X63802150Y-112529099D01*
X63934187Y-112331492D01*
X64025135Y-112111923D01*
X64071500Y-111878830D01*
X64071500Y-111641170D01*
X64198500Y-111641170D01*
X64198500Y-111878830D01*
X64244865Y-112111923D01*
X64335813Y-112331492D01*
X64467850Y-112529099D01*
X64635901Y-112697150D01*
X64833508Y-112829187D01*
X65053077Y-112920135D01*
X65286170Y-112966500D01*
X65523830Y-112966500D01*
X65756923Y-112920135D01*
X65976492Y-112829187D01*
X66174099Y-112697150D01*
X66342150Y-112529099D01*
X66474187Y-112331492D01*
X66565135Y-112111923D01*
X66611500Y-111878830D01*
X66611500Y-111641170D01*
X66738500Y-111641170D01*
X66738500Y-111878830D01*
X66784865Y-112111923D01*
X66875813Y-112331492D01*
X67007850Y-112529099D01*
X67175901Y-112697150D01*
X67373508Y-112829187D01*
X67593077Y-112920135D01*
X67826170Y-112966500D01*
X68063830Y-112966500D01*
X68296923Y-112920135D01*
X68516492Y-112829187D01*
X68714099Y-112697150D01*
X68882150Y-112529099D01*
X69014187Y-112331492D01*
X69105135Y-112111923D01*
X69151500Y-111878830D01*
X69151500Y-111641170D01*
X69278500Y-111641170D01*
X69278500Y-111878830D01*
X69324865Y-112111923D01*
X69415813Y-112331492D01*
X69547850Y-112529099D01*
X69715901Y-112697150D01*
X69913508Y-112829187D01*
X70133077Y-112920135D01*
X70366170Y-112966500D01*
X70603830Y-112966500D01*
X70836923Y-112920135D01*
X71056492Y-112829187D01*
X71254099Y-112697150D01*
X71422150Y-112529099D01*
X71554187Y-112331492D01*
X71645135Y-112111923D01*
X71691500Y-111878830D01*
X71691500Y-111641170D01*
X71818500Y-111641170D01*
X71818500Y-111878830D01*
X71864865Y-112111923D01*
X71955813Y-112331492D01*
X72087850Y-112529099D01*
X72255901Y-112697150D01*
X72453508Y-112829187D01*
X72673077Y-112920135D01*
X72906170Y-112966500D01*
X73143830Y-112966500D01*
X73376923Y-112920135D01*
X73596492Y-112829187D01*
X73794099Y-112697150D01*
X73962150Y-112529099D01*
X74094187Y-112331492D01*
X74185135Y-112111923D01*
X74231500Y-111878830D01*
X74231500Y-111641170D01*
X74358500Y-111641170D01*
X74358500Y-111878830D01*
X74404865Y-112111923D01*
X74495813Y-112331492D01*
X74627850Y-112529099D01*
X74795901Y-112697150D01*
X74993508Y-112829187D01*
X75213077Y-112920135D01*
X75446170Y-112966500D01*
X75683830Y-112966500D01*
X75916923Y-112920135D01*
X76136492Y-112829187D01*
X76334099Y-112697150D01*
X76502150Y-112529099D01*
X76634187Y-112331492D01*
X76725135Y-112111923D01*
X76771500Y-111878830D01*
X76771500Y-111641170D01*
X76898500Y-111641170D01*
X76898500Y-111878830D01*
X76944865Y-112111923D01*
X77035813Y-112331492D01*
X77167850Y-112529099D01*
X77335901Y-112697150D01*
X77533508Y-112829187D01*
X77753077Y-112920135D01*
X77986170Y-112966500D01*
X78223830Y-112966500D01*
X78456923Y-112920135D01*
X78676492Y-112829187D01*
X78874099Y-112697150D01*
X79042150Y-112529099D01*
X79174187Y-112331492D01*
X79265135Y-112111923D01*
X79311500Y-111878830D01*
X79311500Y-111641170D01*
X79438500Y-111641170D01*
X79438500Y-111878830D01*
X79484865Y-112111923D01*
X79575813Y-112331492D01*
X79707850Y-112529099D01*
X79875901Y-112697150D01*
X80073508Y-112829187D01*
X80293077Y-112920135D01*
X80526170Y-112966500D01*
X80763830Y-112966500D01*
X80996923Y-112920135D01*
X81216492Y-112829187D01*
X81414099Y-112697150D01*
X81582150Y-112529099D01*
X81714187Y-112331492D01*
X81805135Y-112111923D01*
X81851500Y-111878830D01*
X81851500Y-111641170D01*
X81978500Y-111641170D01*
X81978500Y-111878830D01*
X82024865Y-112111923D01*
X82115813Y-112331492D01*
X82247850Y-112529099D01*
X82415901Y-112697150D01*
X82613508Y-112829187D01*
X82833077Y-112920135D01*
X83066170Y-112966500D01*
X83303830Y-112966500D01*
X83536923Y-112920135D01*
X83756492Y-112829187D01*
X83954099Y-112697150D01*
X84122150Y-112529099D01*
X84254187Y-112331492D01*
X84345135Y-112111923D01*
X84391500Y-111878830D01*
X84391500Y-111641170D01*
X84518500Y-111641170D01*
X84518500Y-111878830D01*
X84564865Y-112111923D01*
X84655813Y-112331492D01*
X84787850Y-112529099D01*
X84955901Y-112697150D01*
X85153508Y-112829187D01*
X85373077Y-112920135D01*
X85606170Y-112966500D01*
X85843830Y-112966500D01*
X86076923Y-112920135D01*
X86296492Y-112829187D01*
X86494099Y-112697150D01*
X86662150Y-112529099D01*
X86794187Y-112331492D01*
X86885135Y-112111923D01*
X86931500Y-111878830D01*
X86931500Y-111641170D01*
X87058500Y-111641170D01*
X87058500Y-111878830D01*
X87104865Y-112111923D01*
X87195813Y-112331492D01*
X87327850Y-112529099D01*
X87495901Y-112697150D01*
X87693508Y-112829187D01*
X87913077Y-112920135D01*
X88146170Y-112966500D01*
X88383830Y-112966500D01*
X88616923Y-112920135D01*
X88836492Y-112829187D01*
X89034099Y-112697150D01*
X89202150Y-112529099D01*
X89334187Y-112331492D01*
X89425135Y-112111923D01*
X89471500Y-111878830D01*
X89471500Y-111641170D01*
X89598500Y-111641170D01*
X89598500Y-111878830D01*
X89644865Y-112111923D01*
X89735813Y-112331492D01*
X89867850Y-112529099D01*
X90035901Y-112697150D01*
X90233508Y-112829187D01*
X90453077Y-112920135D01*
X90686170Y-112966500D01*
X90923830Y-112966500D01*
X91156923Y-112920135D01*
X91376492Y-112829187D01*
X91574099Y-112697150D01*
X91681879Y-112589370D01*
X92695235Y-112589370D01*
X92739071Y-112810054D01*
X92955569Y-112908088D01*
X93187033Y-112962002D01*
X93424567Y-112969723D01*
X93659043Y-112930956D01*
X93881451Y-112847189D01*
X93950929Y-112810054D01*
X93994765Y-112589370D01*
X93345000Y-111939605D01*
X92695235Y-112589370D01*
X91681879Y-112589370D01*
X91742150Y-112529099D01*
X91874187Y-112331492D01*
X91965135Y-112111923D01*
X92011500Y-111878830D01*
X92011500Y-111839567D01*
X92135277Y-111839567D01*
X92174044Y-112074043D01*
X92257811Y-112296451D01*
X92294946Y-112365929D01*
X92515630Y-112409765D01*
X93165395Y-111760000D01*
X93524605Y-111760000D01*
X94174370Y-112409765D01*
X94395054Y-112365929D01*
X94493088Y-112149431D01*
X94547002Y-111917967D01*
X94554723Y-111680433D01*
X94548232Y-111641170D01*
X94678500Y-111641170D01*
X94678500Y-111878830D01*
X94724865Y-112111923D01*
X94815813Y-112331492D01*
X94947850Y-112529099D01*
X95115901Y-112697150D01*
X95313508Y-112829187D01*
X95533077Y-112920135D01*
X95766170Y-112966500D01*
X96003830Y-112966500D01*
X96236923Y-112920135D01*
X96456492Y-112829187D01*
X96654099Y-112697150D01*
X96822150Y-112529099D01*
X96954187Y-112331492D01*
X97045135Y-112111923D01*
X97091500Y-111878830D01*
X97091500Y-111641170D01*
X97045135Y-111408077D01*
X96954187Y-111188508D01*
X96822150Y-110990901D01*
X96654099Y-110822850D01*
X96456492Y-110690813D01*
X96236923Y-110599865D01*
X96003830Y-110553500D01*
X95766170Y-110553500D01*
X95533077Y-110599865D01*
X95313508Y-110690813D01*
X95115901Y-110822850D01*
X94947850Y-110990901D01*
X94815813Y-111188508D01*
X94724865Y-111408077D01*
X94678500Y-111641170D01*
X94548232Y-111641170D01*
X94515956Y-111445957D01*
X94432189Y-111223549D01*
X94395054Y-111154071D01*
X94174370Y-111110235D01*
X93524605Y-111760000D01*
X93165395Y-111760000D01*
X92515630Y-111110235D01*
X92294946Y-111154071D01*
X92196912Y-111370569D01*
X92142998Y-111602033D01*
X92135277Y-111839567D01*
X92011500Y-111839567D01*
X92011500Y-111641170D01*
X91965135Y-111408077D01*
X91874187Y-111188508D01*
X91742150Y-110990901D01*
X91681879Y-110930630D01*
X92695235Y-110930630D01*
X93345000Y-111580395D01*
X93994765Y-110930630D01*
X93950929Y-110709946D01*
X93734431Y-110611912D01*
X93502967Y-110557998D01*
X93265433Y-110550277D01*
X93030957Y-110589044D01*
X92808549Y-110672811D01*
X92739071Y-110709946D01*
X92695235Y-110930630D01*
X91681879Y-110930630D01*
X91574099Y-110822850D01*
X91376492Y-110690813D01*
X91156923Y-110599865D01*
X90923830Y-110553500D01*
X90686170Y-110553500D01*
X90453077Y-110599865D01*
X90233508Y-110690813D01*
X90035901Y-110822850D01*
X89867850Y-110990901D01*
X89735813Y-111188508D01*
X89644865Y-111408077D01*
X89598500Y-111641170D01*
X89471500Y-111641170D01*
X89425135Y-111408077D01*
X89334187Y-111188508D01*
X89202150Y-110990901D01*
X89034099Y-110822850D01*
X88836492Y-110690813D01*
X88616923Y-110599865D01*
X88383830Y-110553500D01*
X88146170Y-110553500D01*
X87913077Y-110599865D01*
X87693508Y-110690813D01*
X87495901Y-110822850D01*
X87327850Y-110990901D01*
X87195813Y-111188508D01*
X87104865Y-111408077D01*
X87058500Y-111641170D01*
X86931500Y-111641170D01*
X86885135Y-111408077D01*
X86794187Y-111188508D01*
X86662150Y-110990901D01*
X86494099Y-110822850D01*
X86296492Y-110690813D01*
X86076923Y-110599865D01*
X85843830Y-110553500D01*
X85606170Y-110553500D01*
X85373077Y-110599865D01*
X85153508Y-110690813D01*
X84955901Y-110822850D01*
X84787850Y-110990901D01*
X84655813Y-111188508D01*
X84564865Y-111408077D01*
X84518500Y-111641170D01*
X84391500Y-111641170D01*
X84345135Y-111408077D01*
X84254187Y-111188508D01*
X84122150Y-110990901D01*
X83954099Y-110822850D01*
X83756492Y-110690813D01*
X83536923Y-110599865D01*
X83303830Y-110553500D01*
X83066170Y-110553500D01*
X82833077Y-110599865D01*
X82613508Y-110690813D01*
X82415901Y-110822850D01*
X82247850Y-110990901D01*
X82115813Y-111188508D01*
X82024865Y-111408077D01*
X81978500Y-111641170D01*
X81851500Y-111641170D01*
X81805135Y-111408077D01*
X81714187Y-111188508D01*
X81582150Y-110990901D01*
X81414099Y-110822850D01*
X81216492Y-110690813D01*
X80996923Y-110599865D01*
X80763830Y-110553500D01*
X80526170Y-110553500D01*
X80293077Y-110599865D01*
X80073508Y-110690813D01*
X79875901Y-110822850D01*
X79707850Y-110990901D01*
X79575813Y-111188508D01*
X79484865Y-111408077D01*
X79438500Y-111641170D01*
X79311500Y-111641170D01*
X79265135Y-111408077D01*
X79174187Y-111188508D01*
X79042150Y-110990901D01*
X78874099Y-110822850D01*
X78676492Y-110690813D01*
X78456923Y-110599865D01*
X78223830Y-110553500D01*
X77986170Y-110553500D01*
X77753077Y-110599865D01*
X77533508Y-110690813D01*
X77335901Y-110822850D01*
X77167850Y-110990901D01*
X77035813Y-111188508D01*
X76944865Y-111408077D01*
X76898500Y-111641170D01*
X76771500Y-111641170D01*
X76725135Y-111408077D01*
X76634187Y-111188508D01*
X76502150Y-110990901D01*
X76334099Y-110822850D01*
X76136492Y-110690813D01*
X75916923Y-110599865D01*
X75683830Y-110553500D01*
X75446170Y-110553500D01*
X75213077Y-110599865D01*
X74993508Y-110690813D01*
X74795901Y-110822850D01*
X74627850Y-110990901D01*
X74495813Y-111188508D01*
X74404865Y-111408077D01*
X74358500Y-111641170D01*
X74231500Y-111641170D01*
X74185135Y-111408077D01*
X74094187Y-111188508D01*
X73962150Y-110990901D01*
X73794099Y-110822850D01*
X73596492Y-110690813D01*
X73376923Y-110599865D01*
X73143830Y-110553500D01*
X72906170Y-110553500D01*
X72673077Y-110599865D01*
X72453508Y-110690813D01*
X72255901Y-110822850D01*
X72087850Y-110990901D01*
X71955813Y-111188508D01*
X71864865Y-111408077D01*
X71818500Y-111641170D01*
X71691500Y-111641170D01*
X71645135Y-111408077D01*
X71554187Y-111188508D01*
X71422150Y-110990901D01*
X71254099Y-110822850D01*
X71056492Y-110690813D01*
X70836923Y-110599865D01*
X70603830Y-110553500D01*
X70366170Y-110553500D01*
X70133077Y-110599865D01*
X69913508Y-110690813D01*
X69715901Y-110822850D01*
X69547850Y-110990901D01*
X69415813Y-111188508D01*
X69324865Y-111408077D01*
X69278500Y-111641170D01*
X69151500Y-111641170D01*
X69105135Y-111408077D01*
X69014187Y-111188508D01*
X68882150Y-110990901D01*
X68714099Y-110822850D01*
X68516492Y-110690813D01*
X68296923Y-110599865D01*
X68063830Y-110553500D01*
X67826170Y-110553500D01*
X67593077Y-110599865D01*
X67373508Y-110690813D01*
X67175901Y-110822850D01*
X67007850Y-110990901D01*
X66875813Y-111188508D01*
X66784865Y-111408077D01*
X66738500Y-111641170D01*
X66611500Y-111641170D01*
X66565135Y-111408077D01*
X66474187Y-111188508D01*
X66342150Y-110990901D01*
X66174099Y-110822850D01*
X65976492Y-110690813D01*
X65756923Y-110599865D01*
X65523830Y-110553500D01*
X65286170Y-110553500D01*
X65053077Y-110599865D01*
X64833508Y-110690813D01*
X64635901Y-110822850D01*
X64467850Y-110990901D01*
X64335813Y-111188508D01*
X64244865Y-111408077D01*
X64198500Y-111641170D01*
X64071500Y-111641170D01*
X64025135Y-111408077D01*
X63934187Y-111188508D01*
X63802150Y-110990901D01*
X63634099Y-110822850D01*
X63436492Y-110690813D01*
X63216923Y-110599865D01*
X62983830Y-110553500D01*
X62746170Y-110553500D01*
X62513077Y-110599865D01*
X62293508Y-110690813D01*
X62095901Y-110822850D01*
X61927850Y-110990901D01*
X61795813Y-111188508D01*
X61704865Y-111408077D01*
X61658500Y-111641170D01*
X61531500Y-111641170D01*
X61485135Y-111408077D01*
X61394187Y-111188508D01*
X61262150Y-110990901D01*
X61094099Y-110822850D01*
X60896492Y-110690813D01*
X60676923Y-110599865D01*
X60443830Y-110553500D01*
X60206170Y-110553500D01*
X59973077Y-110599865D01*
X59753508Y-110690813D01*
X59555901Y-110822850D01*
X59387850Y-110990901D01*
X59255813Y-111188508D01*
X59164865Y-111408077D01*
X59118500Y-111641170D01*
X58991500Y-111641170D01*
X58945135Y-111408077D01*
X58854187Y-111188508D01*
X58722150Y-110990901D01*
X58554099Y-110822850D01*
X58356492Y-110690813D01*
X58136923Y-110599865D01*
X57903830Y-110553500D01*
X57666170Y-110553500D01*
X57433077Y-110599865D01*
X57213508Y-110690813D01*
X57015901Y-110822850D01*
X56847850Y-110990901D01*
X56715813Y-111188508D01*
X56624865Y-111408077D01*
X56578500Y-111641170D01*
X56451500Y-111641170D01*
X56405135Y-111408077D01*
X56314187Y-111188508D01*
X56182150Y-110990901D01*
X56014099Y-110822850D01*
X55816492Y-110690813D01*
X55596923Y-110599865D01*
X55363830Y-110553500D01*
X55126170Y-110553500D01*
X54893077Y-110599865D01*
X54673508Y-110690813D01*
X54475901Y-110822850D01*
X54307850Y-110990901D01*
X54175813Y-111188508D01*
X54084865Y-111408077D01*
X54038500Y-111641170D01*
X53911500Y-111641170D01*
X53865135Y-111408077D01*
X53774187Y-111188508D01*
X53642150Y-110990901D01*
X53474099Y-110822850D01*
X53276492Y-110690813D01*
X53056923Y-110599865D01*
X52823830Y-110553500D01*
X52586170Y-110553500D01*
X52353077Y-110599865D01*
X52133508Y-110690813D01*
X51935901Y-110822850D01*
X51767850Y-110990901D01*
X51635813Y-111188508D01*
X51544865Y-111408077D01*
X51498500Y-111641170D01*
X45007419Y-111641170D01*
X45093281Y-111512670D01*
X45256030Y-111119757D01*
X45339000Y-110702643D01*
X45339000Y-110277357D01*
X45293651Y-110049370D01*
X50785235Y-110049370D01*
X50829071Y-110270054D01*
X51045569Y-110368088D01*
X51277033Y-110422002D01*
X51514567Y-110429723D01*
X51749043Y-110390956D01*
X51971451Y-110307189D01*
X52040929Y-110270054D01*
X52084765Y-110049370D01*
X51435000Y-109399605D01*
X50785235Y-110049370D01*
X45293651Y-110049370D01*
X45256030Y-109860243D01*
X45093281Y-109467330D01*
X44981185Y-109299567D01*
X50225277Y-109299567D01*
X50264044Y-109534043D01*
X50347811Y-109756451D01*
X50384946Y-109825929D01*
X50605630Y-109869765D01*
X51255395Y-109220000D01*
X51614605Y-109220000D01*
X52264370Y-109869765D01*
X52485054Y-109825929D01*
X52583088Y-109609431D01*
X52637002Y-109377967D01*
X52644723Y-109140433D01*
X52638232Y-109101170D01*
X52768500Y-109101170D01*
X52768500Y-109338830D01*
X52814865Y-109571923D01*
X52905813Y-109791492D01*
X53037850Y-109989099D01*
X53205901Y-110157150D01*
X53403508Y-110289187D01*
X53623077Y-110380135D01*
X53856170Y-110426500D01*
X54093830Y-110426500D01*
X54326923Y-110380135D01*
X54546492Y-110289187D01*
X54744099Y-110157150D01*
X54912150Y-109989099D01*
X55044187Y-109791492D01*
X55135135Y-109571923D01*
X55181500Y-109338830D01*
X55181500Y-109101170D01*
X55308500Y-109101170D01*
X55308500Y-109338830D01*
X55354865Y-109571923D01*
X55445813Y-109791492D01*
X55577850Y-109989099D01*
X55745901Y-110157150D01*
X55943508Y-110289187D01*
X56163077Y-110380135D01*
X56396170Y-110426500D01*
X56633830Y-110426500D01*
X56866923Y-110380135D01*
X57086492Y-110289187D01*
X57284099Y-110157150D01*
X57452150Y-109989099D01*
X57584187Y-109791492D01*
X57675135Y-109571923D01*
X57721500Y-109338830D01*
X57721500Y-109101170D01*
X57848500Y-109101170D01*
X57848500Y-109338830D01*
X57894865Y-109571923D01*
X57985813Y-109791492D01*
X58117850Y-109989099D01*
X58285901Y-110157150D01*
X58483508Y-110289187D01*
X58703077Y-110380135D01*
X58936170Y-110426500D01*
X59173830Y-110426500D01*
X59406923Y-110380135D01*
X59626492Y-110289187D01*
X59824099Y-110157150D01*
X59992150Y-109989099D01*
X60124187Y-109791492D01*
X60215135Y-109571923D01*
X60261500Y-109338830D01*
X60261500Y-109101170D01*
X60388500Y-109101170D01*
X60388500Y-109338830D01*
X60434865Y-109571923D01*
X60525813Y-109791492D01*
X60657850Y-109989099D01*
X60825901Y-110157150D01*
X61023508Y-110289187D01*
X61243077Y-110380135D01*
X61476170Y-110426500D01*
X61713830Y-110426500D01*
X61946923Y-110380135D01*
X62166492Y-110289187D01*
X62364099Y-110157150D01*
X62532150Y-109989099D01*
X62664187Y-109791492D01*
X62755135Y-109571923D01*
X62801500Y-109338830D01*
X62801500Y-109101170D01*
X62928500Y-109101170D01*
X62928500Y-109338830D01*
X62974865Y-109571923D01*
X63065813Y-109791492D01*
X63197850Y-109989099D01*
X63365901Y-110157150D01*
X63563508Y-110289187D01*
X63783077Y-110380135D01*
X64016170Y-110426500D01*
X64253830Y-110426500D01*
X64486923Y-110380135D01*
X64706492Y-110289187D01*
X64904099Y-110157150D01*
X65072150Y-109989099D01*
X65204187Y-109791492D01*
X65295135Y-109571923D01*
X65341500Y-109338830D01*
X65341500Y-109101170D01*
X65468500Y-109101170D01*
X65468500Y-109338830D01*
X65514865Y-109571923D01*
X65605813Y-109791492D01*
X65737850Y-109989099D01*
X65905901Y-110157150D01*
X66103508Y-110289187D01*
X66323077Y-110380135D01*
X66556170Y-110426500D01*
X66793830Y-110426500D01*
X67026923Y-110380135D01*
X67246492Y-110289187D01*
X67444099Y-110157150D01*
X67612150Y-109989099D01*
X67744187Y-109791492D01*
X67835135Y-109571923D01*
X67881500Y-109338830D01*
X67881500Y-109101170D01*
X68008500Y-109101170D01*
X68008500Y-109338830D01*
X68054865Y-109571923D01*
X68145813Y-109791492D01*
X68277850Y-109989099D01*
X68445901Y-110157150D01*
X68643508Y-110289187D01*
X68863077Y-110380135D01*
X69096170Y-110426500D01*
X69333830Y-110426500D01*
X69566923Y-110380135D01*
X69786492Y-110289187D01*
X69984099Y-110157150D01*
X70152150Y-109989099D01*
X70284187Y-109791492D01*
X70375135Y-109571923D01*
X70421500Y-109338830D01*
X70421500Y-109101170D01*
X70548500Y-109101170D01*
X70548500Y-109338830D01*
X70594865Y-109571923D01*
X70685813Y-109791492D01*
X70817850Y-109989099D01*
X70985901Y-110157150D01*
X71183508Y-110289187D01*
X71403077Y-110380135D01*
X71636170Y-110426500D01*
X71873830Y-110426500D01*
X72106923Y-110380135D01*
X72326492Y-110289187D01*
X72524099Y-110157150D01*
X72692150Y-109989099D01*
X72824187Y-109791492D01*
X72915135Y-109571923D01*
X72961500Y-109338830D01*
X72961500Y-109101170D01*
X73088500Y-109101170D01*
X73088500Y-109338830D01*
X73134865Y-109571923D01*
X73225813Y-109791492D01*
X73357850Y-109989099D01*
X73525901Y-110157150D01*
X73723508Y-110289187D01*
X73943077Y-110380135D01*
X74176170Y-110426500D01*
X74413830Y-110426500D01*
X74646923Y-110380135D01*
X74866492Y-110289187D01*
X75064099Y-110157150D01*
X75232150Y-109989099D01*
X75364187Y-109791492D01*
X75455135Y-109571923D01*
X75501500Y-109338830D01*
X75501500Y-109101170D01*
X75628500Y-109101170D01*
X75628500Y-109338830D01*
X75674865Y-109571923D01*
X75765813Y-109791492D01*
X75897850Y-109989099D01*
X76065901Y-110157150D01*
X76263508Y-110289187D01*
X76483077Y-110380135D01*
X76716170Y-110426500D01*
X76953830Y-110426500D01*
X77186923Y-110380135D01*
X77406492Y-110289187D01*
X77604099Y-110157150D01*
X77772150Y-109989099D01*
X77904187Y-109791492D01*
X77995135Y-109571923D01*
X78041500Y-109338830D01*
X78041500Y-109101170D01*
X78168500Y-109101170D01*
X78168500Y-109338830D01*
X78214865Y-109571923D01*
X78305813Y-109791492D01*
X78437850Y-109989099D01*
X78605901Y-110157150D01*
X78803508Y-110289187D01*
X79023077Y-110380135D01*
X79256170Y-110426500D01*
X79493830Y-110426500D01*
X79726923Y-110380135D01*
X79946492Y-110289187D01*
X80144099Y-110157150D01*
X80312150Y-109989099D01*
X80444187Y-109791492D01*
X80535135Y-109571923D01*
X80581500Y-109338830D01*
X80581500Y-109101170D01*
X80708500Y-109101170D01*
X80708500Y-109338830D01*
X80754865Y-109571923D01*
X80845813Y-109791492D01*
X80977850Y-109989099D01*
X81145901Y-110157150D01*
X81343508Y-110289187D01*
X81563077Y-110380135D01*
X81796170Y-110426500D01*
X82033830Y-110426500D01*
X82266923Y-110380135D01*
X82486492Y-110289187D01*
X82684099Y-110157150D01*
X82852150Y-109989099D01*
X82984187Y-109791492D01*
X83075135Y-109571923D01*
X83121500Y-109338830D01*
X83121500Y-109101170D01*
X83248500Y-109101170D01*
X83248500Y-109338830D01*
X83294865Y-109571923D01*
X83385813Y-109791492D01*
X83517850Y-109989099D01*
X83685901Y-110157150D01*
X83883508Y-110289187D01*
X84103077Y-110380135D01*
X84336170Y-110426500D01*
X84573830Y-110426500D01*
X84806923Y-110380135D01*
X85026492Y-110289187D01*
X85224099Y-110157150D01*
X85392150Y-109989099D01*
X85524187Y-109791492D01*
X85615135Y-109571923D01*
X85661500Y-109338830D01*
X85661500Y-109101170D01*
X85788500Y-109101170D01*
X85788500Y-109338830D01*
X85834865Y-109571923D01*
X85925813Y-109791492D01*
X86057850Y-109989099D01*
X86225901Y-110157150D01*
X86423508Y-110289187D01*
X86643077Y-110380135D01*
X86876170Y-110426500D01*
X87113830Y-110426500D01*
X87346923Y-110380135D01*
X87566492Y-110289187D01*
X87764099Y-110157150D01*
X87932150Y-109989099D01*
X88064187Y-109791492D01*
X88155135Y-109571923D01*
X88201500Y-109338830D01*
X88201500Y-109101170D01*
X88328500Y-109101170D01*
X88328500Y-109338830D01*
X88374865Y-109571923D01*
X88465813Y-109791492D01*
X88597850Y-109989099D01*
X88765901Y-110157150D01*
X88963508Y-110289187D01*
X89183077Y-110380135D01*
X89416170Y-110426500D01*
X89653830Y-110426500D01*
X89886923Y-110380135D01*
X90106492Y-110289187D01*
X90304099Y-110157150D01*
X90472150Y-109989099D01*
X90604187Y-109791492D01*
X90695135Y-109571923D01*
X90741500Y-109338830D01*
X90741500Y-109101170D01*
X90868500Y-109101170D01*
X90868500Y-109338830D01*
X90914865Y-109571923D01*
X91005813Y-109791492D01*
X91137850Y-109989099D01*
X91305901Y-110157150D01*
X91503508Y-110289187D01*
X91723077Y-110380135D01*
X91956170Y-110426500D01*
X92193830Y-110426500D01*
X92426923Y-110380135D01*
X92646492Y-110289187D01*
X92844099Y-110157150D01*
X93012150Y-109989099D01*
X93144187Y-109791492D01*
X93235135Y-109571923D01*
X93281500Y-109338830D01*
X93281500Y-109101170D01*
X93408500Y-109101170D01*
X93408500Y-109338830D01*
X93454865Y-109571923D01*
X93545813Y-109791492D01*
X93677850Y-109989099D01*
X93845901Y-110157150D01*
X94043508Y-110289187D01*
X94263077Y-110380135D01*
X94496170Y-110426500D01*
X94733830Y-110426500D01*
X94966923Y-110380135D01*
X95186492Y-110289187D01*
X95204196Y-110277357D01*
X96901000Y-110277357D01*
X96901000Y-110702643D01*
X96983970Y-111119757D01*
X97146719Y-111512670D01*
X97382996Y-111866282D01*
X97683718Y-112167004D01*
X98037330Y-112403281D01*
X98430243Y-112566030D01*
X98847357Y-112649000D01*
X99272643Y-112649000D01*
X99689757Y-112566030D01*
X100082670Y-112403281D01*
X100436282Y-112167004D01*
X100737004Y-111866282D01*
X100887419Y-111641170D01*
X102298500Y-111641170D01*
X102298500Y-111878830D01*
X102344865Y-112111923D01*
X102435813Y-112331492D01*
X102567850Y-112529099D01*
X102735901Y-112697150D01*
X102933508Y-112829187D01*
X103153077Y-112920135D01*
X103386170Y-112966500D01*
X103623830Y-112966500D01*
X103856923Y-112920135D01*
X104076492Y-112829187D01*
X104274099Y-112697150D01*
X104442150Y-112529099D01*
X104574187Y-112331492D01*
X104665135Y-112111923D01*
X104711500Y-111878830D01*
X104711500Y-111641170D01*
X104838500Y-111641170D01*
X104838500Y-111878830D01*
X104884865Y-112111923D01*
X104975813Y-112331492D01*
X105107850Y-112529099D01*
X105275901Y-112697150D01*
X105473508Y-112829187D01*
X105693077Y-112920135D01*
X105926170Y-112966500D01*
X106163830Y-112966500D01*
X106396923Y-112920135D01*
X106616492Y-112829187D01*
X106814099Y-112697150D01*
X106982150Y-112529099D01*
X107114187Y-112331492D01*
X107205135Y-112111923D01*
X107251500Y-111878830D01*
X107251500Y-111641170D01*
X107378500Y-111641170D01*
X107378500Y-111878830D01*
X107424865Y-112111923D01*
X107515813Y-112331492D01*
X107647850Y-112529099D01*
X107815901Y-112697150D01*
X108013508Y-112829187D01*
X108233077Y-112920135D01*
X108466170Y-112966500D01*
X108703830Y-112966500D01*
X108936923Y-112920135D01*
X109156492Y-112829187D01*
X109354099Y-112697150D01*
X109522150Y-112529099D01*
X109654187Y-112331492D01*
X109745135Y-112111923D01*
X109791500Y-111878830D01*
X109791500Y-111641170D01*
X109918500Y-111641170D01*
X109918500Y-111878830D01*
X109964865Y-112111923D01*
X110055813Y-112331492D01*
X110187850Y-112529099D01*
X110355901Y-112697150D01*
X110553508Y-112829187D01*
X110773077Y-112920135D01*
X111006170Y-112966500D01*
X111243830Y-112966500D01*
X111476923Y-112920135D01*
X111696492Y-112829187D01*
X111894099Y-112697150D01*
X112062150Y-112529099D01*
X112194187Y-112331492D01*
X112285135Y-112111923D01*
X112331500Y-111878830D01*
X112331500Y-111641170D01*
X112458500Y-111641170D01*
X112458500Y-111878830D01*
X112504865Y-112111923D01*
X112595813Y-112331492D01*
X112727850Y-112529099D01*
X112895901Y-112697150D01*
X113093508Y-112829187D01*
X113313077Y-112920135D01*
X113546170Y-112966500D01*
X113783830Y-112966500D01*
X114016923Y-112920135D01*
X114236492Y-112829187D01*
X114434099Y-112697150D01*
X114602150Y-112529099D01*
X114734187Y-112331492D01*
X114825135Y-112111923D01*
X114871500Y-111878830D01*
X114871500Y-111641170D01*
X114998500Y-111641170D01*
X114998500Y-111878830D01*
X115044865Y-112111923D01*
X115135813Y-112331492D01*
X115267850Y-112529099D01*
X115435901Y-112697150D01*
X115633508Y-112829187D01*
X115853077Y-112920135D01*
X116086170Y-112966500D01*
X116323830Y-112966500D01*
X116556923Y-112920135D01*
X116776492Y-112829187D01*
X116974099Y-112697150D01*
X117142150Y-112529099D01*
X117274187Y-112331492D01*
X117365135Y-112111923D01*
X117411500Y-111878830D01*
X117411500Y-111641170D01*
X117538500Y-111641170D01*
X117538500Y-111878830D01*
X117584865Y-112111923D01*
X117675813Y-112331492D01*
X117807850Y-112529099D01*
X117975901Y-112697150D01*
X118173508Y-112829187D01*
X118393077Y-112920135D01*
X118626170Y-112966500D01*
X118863830Y-112966500D01*
X119096923Y-112920135D01*
X119316492Y-112829187D01*
X119514099Y-112697150D01*
X119682150Y-112529099D01*
X119814187Y-112331492D01*
X119905135Y-112111923D01*
X119951500Y-111878830D01*
X119951500Y-111641170D01*
X120078500Y-111641170D01*
X120078500Y-111878830D01*
X120124865Y-112111923D01*
X120215813Y-112331492D01*
X120347850Y-112529099D01*
X120515901Y-112697150D01*
X120713508Y-112829187D01*
X120933077Y-112920135D01*
X121166170Y-112966500D01*
X121403830Y-112966500D01*
X121636923Y-112920135D01*
X121856492Y-112829187D01*
X122054099Y-112697150D01*
X122222150Y-112529099D01*
X122354187Y-112331492D01*
X122445135Y-112111923D01*
X122491500Y-111878830D01*
X122491500Y-111641170D01*
X122618500Y-111641170D01*
X122618500Y-111878830D01*
X122664865Y-112111923D01*
X122755813Y-112331492D01*
X122887850Y-112529099D01*
X123055901Y-112697150D01*
X123253508Y-112829187D01*
X123473077Y-112920135D01*
X123706170Y-112966500D01*
X123943830Y-112966500D01*
X124176923Y-112920135D01*
X124396492Y-112829187D01*
X124594099Y-112697150D01*
X124762150Y-112529099D01*
X124894187Y-112331492D01*
X124985135Y-112111923D01*
X125031500Y-111878830D01*
X125031500Y-111641170D01*
X125158500Y-111641170D01*
X125158500Y-111878830D01*
X125204865Y-112111923D01*
X125295813Y-112331492D01*
X125427850Y-112529099D01*
X125595901Y-112697150D01*
X125793508Y-112829187D01*
X126013077Y-112920135D01*
X126246170Y-112966500D01*
X126483830Y-112966500D01*
X126716923Y-112920135D01*
X126936492Y-112829187D01*
X127134099Y-112697150D01*
X127302150Y-112529099D01*
X127434187Y-112331492D01*
X127525135Y-112111923D01*
X127571500Y-111878830D01*
X127571500Y-111641170D01*
X127698500Y-111641170D01*
X127698500Y-111878830D01*
X127744865Y-112111923D01*
X127835813Y-112331492D01*
X127967850Y-112529099D01*
X128135901Y-112697150D01*
X128333508Y-112829187D01*
X128553077Y-112920135D01*
X128786170Y-112966500D01*
X129023830Y-112966500D01*
X129256923Y-112920135D01*
X129476492Y-112829187D01*
X129674099Y-112697150D01*
X129842150Y-112529099D01*
X129974187Y-112331492D01*
X130065135Y-112111923D01*
X130111500Y-111878830D01*
X130111500Y-111641170D01*
X130238500Y-111641170D01*
X130238500Y-111878830D01*
X130284865Y-112111923D01*
X130375813Y-112331492D01*
X130507850Y-112529099D01*
X130675901Y-112697150D01*
X130873508Y-112829187D01*
X131093077Y-112920135D01*
X131326170Y-112966500D01*
X131563830Y-112966500D01*
X131796923Y-112920135D01*
X132016492Y-112829187D01*
X132214099Y-112697150D01*
X132382150Y-112529099D01*
X132514187Y-112331492D01*
X132605135Y-112111923D01*
X132651500Y-111878830D01*
X132651500Y-111641170D01*
X132778500Y-111641170D01*
X132778500Y-111878830D01*
X132824865Y-112111923D01*
X132915813Y-112331492D01*
X133047850Y-112529099D01*
X133215901Y-112697150D01*
X133413508Y-112829187D01*
X133633077Y-112920135D01*
X133866170Y-112966500D01*
X134103830Y-112966500D01*
X134336923Y-112920135D01*
X134556492Y-112829187D01*
X134754099Y-112697150D01*
X134922150Y-112529099D01*
X135054187Y-112331492D01*
X135145135Y-112111923D01*
X135191500Y-111878830D01*
X135191500Y-111641170D01*
X135318500Y-111641170D01*
X135318500Y-111878830D01*
X135364865Y-112111923D01*
X135455813Y-112331492D01*
X135587850Y-112529099D01*
X135755901Y-112697150D01*
X135953508Y-112829187D01*
X136173077Y-112920135D01*
X136406170Y-112966500D01*
X136643830Y-112966500D01*
X136876923Y-112920135D01*
X137096492Y-112829187D01*
X137294099Y-112697150D01*
X137462150Y-112529099D01*
X137594187Y-112331492D01*
X137685135Y-112111923D01*
X137731500Y-111878830D01*
X137731500Y-111641170D01*
X137858500Y-111641170D01*
X137858500Y-111878830D01*
X137904865Y-112111923D01*
X137995813Y-112331492D01*
X138127850Y-112529099D01*
X138295901Y-112697150D01*
X138493508Y-112829187D01*
X138713077Y-112920135D01*
X138946170Y-112966500D01*
X139183830Y-112966500D01*
X139416923Y-112920135D01*
X139636492Y-112829187D01*
X139834099Y-112697150D01*
X140002150Y-112529099D01*
X140134187Y-112331492D01*
X140225135Y-112111923D01*
X140271500Y-111878830D01*
X140271500Y-111641170D01*
X140398500Y-111641170D01*
X140398500Y-111878830D01*
X140444865Y-112111923D01*
X140535813Y-112331492D01*
X140667850Y-112529099D01*
X140835901Y-112697150D01*
X141033508Y-112829187D01*
X141253077Y-112920135D01*
X141486170Y-112966500D01*
X141723830Y-112966500D01*
X141956923Y-112920135D01*
X142176492Y-112829187D01*
X142374099Y-112697150D01*
X142542150Y-112529099D01*
X142674187Y-112331492D01*
X142765135Y-112111923D01*
X142811500Y-111878830D01*
X142811500Y-111641170D01*
X142938500Y-111641170D01*
X142938500Y-111878830D01*
X142984865Y-112111923D01*
X143075813Y-112331492D01*
X143207850Y-112529099D01*
X143375901Y-112697150D01*
X143573508Y-112829187D01*
X143793077Y-112920135D01*
X144026170Y-112966500D01*
X144263830Y-112966500D01*
X144496923Y-112920135D01*
X144716492Y-112829187D01*
X144914099Y-112697150D01*
X145082150Y-112529099D01*
X145214181Y-112331500D01*
X145475428Y-112331500D01*
X145487688Y-112455982D01*
X145523998Y-112575680D01*
X145582963Y-112685994D01*
X145662315Y-112782685D01*
X145759006Y-112862037D01*
X145869320Y-112921002D01*
X145989018Y-112957312D01*
X146113500Y-112969572D01*
X146399250Y-112966500D01*
X146558000Y-112807750D01*
X146558000Y-111887000D01*
X146812000Y-111887000D01*
X146812000Y-112807750D01*
X146970750Y-112966500D01*
X147256500Y-112969572D01*
X147380982Y-112957312D01*
X147500680Y-112921002D01*
X147610994Y-112862037D01*
X147707685Y-112782685D01*
X147787037Y-112685994D01*
X147846002Y-112575680D01*
X147882312Y-112455982D01*
X147894572Y-112331500D01*
X147891500Y-112045750D01*
X147732750Y-111887000D01*
X146812000Y-111887000D01*
X146558000Y-111887000D01*
X145637250Y-111887000D01*
X145478500Y-112045750D01*
X145475428Y-112331500D01*
X145214181Y-112331500D01*
X145214187Y-112331492D01*
X145305135Y-112111923D01*
X145351500Y-111878830D01*
X145351500Y-111641170D01*
X145305135Y-111408077D01*
X145214187Y-111188508D01*
X145214182Y-111188500D01*
X145475428Y-111188500D01*
X145478500Y-111474250D01*
X145637250Y-111633000D01*
X146558000Y-111633000D01*
X146558000Y-110712250D01*
X146812000Y-110712250D01*
X146812000Y-111633000D01*
X147732750Y-111633000D01*
X147891500Y-111474250D01*
X147894572Y-111188500D01*
X147882312Y-111064018D01*
X147846002Y-110944320D01*
X147787037Y-110834006D01*
X147707685Y-110737315D01*
X147610994Y-110657963D01*
X147500680Y-110598998D01*
X147380982Y-110562688D01*
X147256500Y-110550428D01*
X146970750Y-110553500D01*
X146812000Y-110712250D01*
X146558000Y-110712250D01*
X146399250Y-110553500D01*
X146113500Y-110550428D01*
X145989018Y-110562688D01*
X145869320Y-110598998D01*
X145759006Y-110657963D01*
X145662315Y-110737315D01*
X145582963Y-110834006D01*
X145523998Y-110944320D01*
X145487688Y-111064018D01*
X145475428Y-111188500D01*
X145214182Y-111188500D01*
X145082150Y-110990901D01*
X144914099Y-110822850D01*
X144716492Y-110690813D01*
X144496923Y-110599865D01*
X144263830Y-110553500D01*
X144026170Y-110553500D01*
X143793077Y-110599865D01*
X143573508Y-110690813D01*
X143375901Y-110822850D01*
X143207850Y-110990901D01*
X143075813Y-111188508D01*
X142984865Y-111408077D01*
X142938500Y-111641170D01*
X142811500Y-111641170D01*
X142765135Y-111408077D01*
X142674187Y-111188508D01*
X142542150Y-110990901D01*
X142374099Y-110822850D01*
X142176492Y-110690813D01*
X141956923Y-110599865D01*
X141723830Y-110553500D01*
X141486170Y-110553500D01*
X141253077Y-110599865D01*
X141033508Y-110690813D01*
X140835901Y-110822850D01*
X140667850Y-110990901D01*
X140535813Y-111188508D01*
X140444865Y-111408077D01*
X140398500Y-111641170D01*
X140271500Y-111641170D01*
X140225135Y-111408077D01*
X140134187Y-111188508D01*
X140002150Y-110990901D01*
X139834099Y-110822850D01*
X139636492Y-110690813D01*
X139416923Y-110599865D01*
X139183830Y-110553500D01*
X138946170Y-110553500D01*
X138713077Y-110599865D01*
X138493508Y-110690813D01*
X138295901Y-110822850D01*
X138127850Y-110990901D01*
X137995813Y-111188508D01*
X137904865Y-111408077D01*
X137858500Y-111641170D01*
X137731500Y-111641170D01*
X137685135Y-111408077D01*
X137594187Y-111188508D01*
X137462150Y-110990901D01*
X137294099Y-110822850D01*
X137096492Y-110690813D01*
X136876923Y-110599865D01*
X136643830Y-110553500D01*
X136406170Y-110553500D01*
X136173077Y-110599865D01*
X135953508Y-110690813D01*
X135755901Y-110822850D01*
X135587850Y-110990901D01*
X135455813Y-111188508D01*
X135364865Y-111408077D01*
X135318500Y-111641170D01*
X135191500Y-111641170D01*
X135145135Y-111408077D01*
X135054187Y-111188508D01*
X134922150Y-110990901D01*
X134754099Y-110822850D01*
X134556492Y-110690813D01*
X134336923Y-110599865D01*
X134103830Y-110553500D01*
X133866170Y-110553500D01*
X133633077Y-110599865D01*
X133413508Y-110690813D01*
X133215901Y-110822850D01*
X133047850Y-110990901D01*
X132915813Y-111188508D01*
X132824865Y-111408077D01*
X132778500Y-111641170D01*
X132651500Y-111641170D01*
X132605135Y-111408077D01*
X132514187Y-111188508D01*
X132382150Y-110990901D01*
X132214099Y-110822850D01*
X132016492Y-110690813D01*
X131796923Y-110599865D01*
X131563830Y-110553500D01*
X131326170Y-110553500D01*
X131093077Y-110599865D01*
X130873508Y-110690813D01*
X130675901Y-110822850D01*
X130507850Y-110990901D01*
X130375813Y-111188508D01*
X130284865Y-111408077D01*
X130238500Y-111641170D01*
X130111500Y-111641170D01*
X130065135Y-111408077D01*
X129974187Y-111188508D01*
X129842150Y-110990901D01*
X129674099Y-110822850D01*
X129476492Y-110690813D01*
X129256923Y-110599865D01*
X129023830Y-110553500D01*
X128786170Y-110553500D01*
X128553077Y-110599865D01*
X128333508Y-110690813D01*
X128135901Y-110822850D01*
X127967850Y-110990901D01*
X127835813Y-111188508D01*
X127744865Y-111408077D01*
X127698500Y-111641170D01*
X127571500Y-111641170D01*
X127525135Y-111408077D01*
X127434187Y-111188508D01*
X127302150Y-110990901D01*
X127134099Y-110822850D01*
X126936492Y-110690813D01*
X126716923Y-110599865D01*
X126483830Y-110553500D01*
X126246170Y-110553500D01*
X126013077Y-110599865D01*
X125793508Y-110690813D01*
X125595901Y-110822850D01*
X125427850Y-110990901D01*
X125295813Y-111188508D01*
X125204865Y-111408077D01*
X125158500Y-111641170D01*
X125031500Y-111641170D01*
X124985135Y-111408077D01*
X124894187Y-111188508D01*
X124762150Y-110990901D01*
X124594099Y-110822850D01*
X124396492Y-110690813D01*
X124176923Y-110599865D01*
X123943830Y-110553500D01*
X123706170Y-110553500D01*
X123473077Y-110599865D01*
X123253508Y-110690813D01*
X123055901Y-110822850D01*
X122887850Y-110990901D01*
X122755813Y-111188508D01*
X122664865Y-111408077D01*
X122618500Y-111641170D01*
X122491500Y-111641170D01*
X122445135Y-111408077D01*
X122354187Y-111188508D01*
X122222150Y-110990901D01*
X122054099Y-110822850D01*
X121856492Y-110690813D01*
X121636923Y-110599865D01*
X121403830Y-110553500D01*
X121166170Y-110553500D01*
X120933077Y-110599865D01*
X120713508Y-110690813D01*
X120515901Y-110822850D01*
X120347850Y-110990901D01*
X120215813Y-111188508D01*
X120124865Y-111408077D01*
X120078500Y-111641170D01*
X119951500Y-111641170D01*
X119905135Y-111408077D01*
X119814187Y-111188508D01*
X119682150Y-110990901D01*
X119514099Y-110822850D01*
X119316492Y-110690813D01*
X119096923Y-110599865D01*
X118863830Y-110553500D01*
X118626170Y-110553500D01*
X118393077Y-110599865D01*
X118173508Y-110690813D01*
X117975901Y-110822850D01*
X117807850Y-110990901D01*
X117675813Y-111188508D01*
X117584865Y-111408077D01*
X117538500Y-111641170D01*
X117411500Y-111641170D01*
X117365135Y-111408077D01*
X117274187Y-111188508D01*
X117142150Y-110990901D01*
X116974099Y-110822850D01*
X116776492Y-110690813D01*
X116556923Y-110599865D01*
X116323830Y-110553500D01*
X116086170Y-110553500D01*
X115853077Y-110599865D01*
X115633508Y-110690813D01*
X115435901Y-110822850D01*
X115267850Y-110990901D01*
X115135813Y-111188508D01*
X115044865Y-111408077D01*
X114998500Y-111641170D01*
X114871500Y-111641170D01*
X114825135Y-111408077D01*
X114734187Y-111188508D01*
X114602150Y-110990901D01*
X114434099Y-110822850D01*
X114236492Y-110690813D01*
X114016923Y-110599865D01*
X113783830Y-110553500D01*
X113546170Y-110553500D01*
X113313077Y-110599865D01*
X113093508Y-110690813D01*
X112895901Y-110822850D01*
X112727850Y-110990901D01*
X112595813Y-111188508D01*
X112504865Y-111408077D01*
X112458500Y-111641170D01*
X112331500Y-111641170D01*
X112285135Y-111408077D01*
X112194187Y-111188508D01*
X112062150Y-110990901D01*
X111894099Y-110822850D01*
X111696492Y-110690813D01*
X111476923Y-110599865D01*
X111243830Y-110553500D01*
X111006170Y-110553500D01*
X110773077Y-110599865D01*
X110553508Y-110690813D01*
X110355901Y-110822850D01*
X110187850Y-110990901D01*
X110055813Y-111188508D01*
X109964865Y-111408077D01*
X109918500Y-111641170D01*
X109791500Y-111641170D01*
X109745135Y-111408077D01*
X109654187Y-111188508D01*
X109522150Y-110990901D01*
X109354099Y-110822850D01*
X109156492Y-110690813D01*
X108936923Y-110599865D01*
X108703830Y-110553500D01*
X108466170Y-110553500D01*
X108233077Y-110599865D01*
X108013508Y-110690813D01*
X107815901Y-110822850D01*
X107647850Y-110990901D01*
X107515813Y-111188508D01*
X107424865Y-111408077D01*
X107378500Y-111641170D01*
X107251500Y-111641170D01*
X107205135Y-111408077D01*
X107114187Y-111188508D01*
X106982150Y-110990901D01*
X106814099Y-110822850D01*
X106616492Y-110690813D01*
X106396923Y-110599865D01*
X106163830Y-110553500D01*
X105926170Y-110553500D01*
X105693077Y-110599865D01*
X105473508Y-110690813D01*
X105275901Y-110822850D01*
X105107850Y-110990901D01*
X104975813Y-111188508D01*
X104884865Y-111408077D01*
X104838500Y-111641170D01*
X104711500Y-111641170D01*
X104665135Y-111408077D01*
X104574187Y-111188508D01*
X104442150Y-110990901D01*
X104274099Y-110822850D01*
X104076492Y-110690813D01*
X103856923Y-110599865D01*
X103623830Y-110553500D01*
X103386170Y-110553500D01*
X103153077Y-110599865D01*
X102933508Y-110690813D01*
X102735901Y-110822850D01*
X102567850Y-110990901D01*
X102435813Y-111188508D01*
X102344865Y-111408077D01*
X102298500Y-111641170D01*
X100887419Y-111641170D01*
X100973281Y-111512670D01*
X101136030Y-111119757D01*
X101219000Y-110702643D01*
X101219000Y-110277357D01*
X101136030Y-109860243D01*
X100973281Y-109467330D01*
X100737004Y-109113718D01*
X100724456Y-109101170D01*
X101028500Y-109101170D01*
X101028500Y-109338830D01*
X101074865Y-109571923D01*
X101165813Y-109791492D01*
X101297850Y-109989099D01*
X101465901Y-110157150D01*
X101663508Y-110289187D01*
X101883077Y-110380135D01*
X102116170Y-110426500D01*
X102353830Y-110426500D01*
X102586923Y-110380135D01*
X102806492Y-110289187D01*
X103004099Y-110157150D01*
X103172150Y-109989099D01*
X103304187Y-109791492D01*
X103395135Y-109571923D01*
X103441500Y-109338830D01*
X103441500Y-109101170D01*
X103568500Y-109101170D01*
X103568500Y-109338830D01*
X103614865Y-109571923D01*
X103705813Y-109791492D01*
X103837850Y-109989099D01*
X104005901Y-110157150D01*
X104203508Y-110289187D01*
X104423077Y-110380135D01*
X104656170Y-110426500D01*
X104893830Y-110426500D01*
X105126923Y-110380135D01*
X105346492Y-110289187D01*
X105544099Y-110157150D01*
X105712150Y-109989099D01*
X105844187Y-109791492D01*
X105935135Y-109571923D01*
X105981500Y-109338830D01*
X105981500Y-109101170D01*
X106108500Y-109101170D01*
X106108500Y-109338830D01*
X106154865Y-109571923D01*
X106245813Y-109791492D01*
X106377850Y-109989099D01*
X106545901Y-110157150D01*
X106743508Y-110289187D01*
X106963077Y-110380135D01*
X107196170Y-110426500D01*
X107433830Y-110426500D01*
X107666923Y-110380135D01*
X107886492Y-110289187D01*
X108084099Y-110157150D01*
X108252150Y-109989099D01*
X108384187Y-109791492D01*
X108475135Y-109571923D01*
X108521500Y-109338830D01*
X108521500Y-109101170D01*
X108648500Y-109101170D01*
X108648500Y-109338830D01*
X108694865Y-109571923D01*
X108785813Y-109791492D01*
X108917850Y-109989099D01*
X109085901Y-110157150D01*
X109283508Y-110289187D01*
X109503077Y-110380135D01*
X109736170Y-110426500D01*
X109973830Y-110426500D01*
X110206923Y-110380135D01*
X110426492Y-110289187D01*
X110624099Y-110157150D01*
X110792150Y-109989099D01*
X110924187Y-109791492D01*
X111015135Y-109571923D01*
X111061500Y-109338830D01*
X111061500Y-109101170D01*
X111188500Y-109101170D01*
X111188500Y-109338830D01*
X111234865Y-109571923D01*
X111325813Y-109791492D01*
X111457850Y-109989099D01*
X111625901Y-110157150D01*
X111823508Y-110289187D01*
X112043077Y-110380135D01*
X112276170Y-110426500D01*
X112513830Y-110426500D01*
X112746923Y-110380135D01*
X112966492Y-110289187D01*
X113164099Y-110157150D01*
X113332150Y-109989099D01*
X113464187Y-109791492D01*
X113555135Y-109571923D01*
X113601500Y-109338830D01*
X113601500Y-109101170D01*
X113728500Y-109101170D01*
X113728500Y-109338830D01*
X113774865Y-109571923D01*
X113865813Y-109791492D01*
X113997850Y-109989099D01*
X114165901Y-110157150D01*
X114363508Y-110289187D01*
X114583077Y-110380135D01*
X114816170Y-110426500D01*
X115053830Y-110426500D01*
X115286923Y-110380135D01*
X115506492Y-110289187D01*
X115704099Y-110157150D01*
X115872150Y-109989099D01*
X116004187Y-109791492D01*
X116095135Y-109571923D01*
X116141500Y-109338830D01*
X116141500Y-109101170D01*
X116268500Y-109101170D01*
X116268500Y-109338830D01*
X116314865Y-109571923D01*
X116405813Y-109791492D01*
X116537850Y-109989099D01*
X116705901Y-110157150D01*
X116903508Y-110289187D01*
X117123077Y-110380135D01*
X117356170Y-110426500D01*
X117593830Y-110426500D01*
X117826923Y-110380135D01*
X118046492Y-110289187D01*
X118244099Y-110157150D01*
X118412150Y-109989099D01*
X118544187Y-109791492D01*
X118635135Y-109571923D01*
X118681500Y-109338830D01*
X118681500Y-109101170D01*
X118808500Y-109101170D01*
X118808500Y-109338830D01*
X118854865Y-109571923D01*
X118945813Y-109791492D01*
X119077850Y-109989099D01*
X119245901Y-110157150D01*
X119443508Y-110289187D01*
X119663077Y-110380135D01*
X119896170Y-110426500D01*
X120133830Y-110426500D01*
X120366923Y-110380135D01*
X120586492Y-110289187D01*
X120784099Y-110157150D01*
X120952150Y-109989099D01*
X121084187Y-109791492D01*
X121175135Y-109571923D01*
X121221500Y-109338830D01*
X121221500Y-109101170D01*
X121348500Y-109101170D01*
X121348500Y-109338830D01*
X121394865Y-109571923D01*
X121485813Y-109791492D01*
X121617850Y-109989099D01*
X121785901Y-110157150D01*
X121983508Y-110289187D01*
X122203077Y-110380135D01*
X122436170Y-110426500D01*
X122673830Y-110426500D01*
X122906923Y-110380135D01*
X123126492Y-110289187D01*
X123324099Y-110157150D01*
X123492150Y-109989099D01*
X123624187Y-109791492D01*
X123715135Y-109571923D01*
X123761500Y-109338830D01*
X123761500Y-109101170D01*
X123888500Y-109101170D01*
X123888500Y-109338830D01*
X123934865Y-109571923D01*
X124025813Y-109791492D01*
X124157850Y-109989099D01*
X124325901Y-110157150D01*
X124523508Y-110289187D01*
X124743077Y-110380135D01*
X124976170Y-110426500D01*
X125213830Y-110426500D01*
X125446923Y-110380135D01*
X125666492Y-110289187D01*
X125864099Y-110157150D01*
X126032150Y-109989099D01*
X126164187Y-109791492D01*
X126255135Y-109571923D01*
X126301500Y-109338830D01*
X126301500Y-109101170D01*
X126428500Y-109101170D01*
X126428500Y-109338830D01*
X126474865Y-109571923D01*
X126565813Y-109791492D01*
X126697850Y-109989099D01*
X126865901Y-110157150D01*
X127063508Y-110289187D01*
X127283077Y-110380135D01*
X127516170Y-110426500D01*
X127753830Y-110426500D01*
X127986923Y-110380135D01*
X128206492Y-110289187D01*
X128404099Y-110157150D01*
X128572150Y-109989099D01*
X128704187Y-109791492D01*
X128795135Y-109571923D01*
X128841500Y-109338830D01*
X128841500Y-109101170D01*
X128968500Y-109101170D01*
X128968500Y-109338830D01*
X129014865Y-109571923D01*
X129105813Y-109791492D01*
X129237850Y-109989099D01*
X129405901Y-110157150D01*
X129603508Y-110289187D01*
X129823077Y-110380135D01*
X130056170Y-110426500D01*
X130293830Y-110426500D01*
X130526923Y-110380135D01*
X130746492Y-110289187D01*
X130944099Y-110157150D01*
X131112150Y-109989099D01*
X131244187Y-109791492D01*
X131335135Y-109571923D01*
X131381500Y-109338830D01*
X131381500Y-109101170D01*
X131508500Y-109101170D01*
X131508500Y-109338830D01*
X131554865Y-109571923D01*
X131645813Y-109791492D01*
X131777850Y-109989099D01*
X131945901Y-110157150D01*
X132143508Y-110289187D01*
X132363077Y-110380135D01*
X132596170Y-110426500D01*
X132833830Y-110426500D01*
X133066923Y-110380135D01*
X133286492Y-110289187D01*
X133484099Y-110157150D01*
X133652150Y-109989099D01*
X133784187Y-109791492D01*
X133875135Y-109571923D01*
X133921500Y-109338830D01*
X133921500Y-109101170D01*
X134048500Y-109101170D01*
X134048500Y-109338830D01*
X134094865Y-109571923D01*
X134185813Y-109791492D01*
X134317850Y-109989099D01*
X134485901Y-110157150D01*
X134683508Y-110289187D01*
X134903077Y-110380135D01*
X135136170Y-110426500D01*
X135373830Y-110426500D01*
X135606923Y-110380135D01*
X135826492Y-110289187D01*
X136024099Y-110157150D01*
X136192150Y-109989099D01*
X136324187Y-109791492D01*
X136415135Y-109571923D01*
X136461500Y-109338830D01*
X136461500Y-109101170D01*
X136588500Y-109101170D01*
X136588500Y-109338830D01*
X136634865Y-109571923D01*
X136725813Y-109791492D01*
X136857850Y-109989099D01*
X137025901Y-110157150D01*
X137223508Y-110289187D01*
X137443077Y-110380135D01*
X137676170Y-110426500D01*
X137913830Y-110426500D01*
X138146923Y-110380135D01*
X138366492Y-110289187D01*
X138564099Y-110157150D01*
X138732150Y-109989099D01*
X138864187Y-109791492D01*
X138955135Y-109571923D01*
X139001500Y-109338830D01*
X139001500Y-109101170D01*
X139128500Y-109101170D01*
X139128500Y-109338830D01*
X139174865Y-109571923D01*
X139265813Y-109791492D01*
X139397850Y-109989099D01*
X139565901Y-110157150D01*
X139763508Y-110289187D01*
X139983077Y-110380135D01*
X140216170Y-110426500D01*
X140453830Y-110426500D01*
X140686923Y-110380135D01*
X140906492Y-110289187D01*
X141104099Y-110157150D01*
X141272150Y-109989099D01*
X141404187Y-109791492D01*
X141495135Y-109571923D01*
X141541500Y-109338830D01*
X141541500Y-109101170D01*
X141668500Y-109101170D01*
X141668500Y-109338830D01*
X141714865Y-109571923D01*
X141805813Y-109791492D01*
X141937850Y-109989099D01*
X142105901Y-110157150D01*
X142303508Y-110289187D01*
X142523077Y-110380135D01*
X142756170Y-110426500D01*
X142993830Y-110426500D01*
X143226923Y-110380135D01*
X143446492Y-110289187D01*
X143644099Y-110157150D01*
X143812150Y-109989099D01*
X143944187Y-109791492D01*
X144035135Y-109571923D01*
X144081500Y-109338830D01*
X144081500Y-109101170D01*
X144208500Y-109101170D01*
X144208500Y-109338830D01*
X144254865Y-109571923D01*
X144345813Y-109791492D01*
X144477850Y-109989099D01*
X144645901Y-110157150D01*
X144843508Y-110289187D01*
X145063077Y-110380135D01*
X145296170Y-110426500D01*
X145533830Y-110426500D01*
X145766923Y-110380135D01*
X145986492Y-110289187D01*
X146004196Y-110277357D01*
X152781000Y-110277357D01*
X152781000Y-110702643D01*
X152863970Y-111119757D01*
X153026719Y-111512670D01*
X153262996Y-111866282D01*
X153563718Y-112167004D01*
X153917330Y-112403281D01*
X154310243Y-112566030D01*
X154727357Y-112649000D01*
X155152643Y-112649000D01*
X155569757Y-112566030D01*
X155962670Y-112403281D01*
X156316282Y-112167004D01*
X156617004Y-111866282D01*
X156853281Y-111512670D01*
X157016030Y-111119757D01*
X157099000Y-110702643D01*
X157099000Y-110277357D01*
X157016030Y-109860243D01*
X156853281Y-109467330D01*
X156617004Y-109113718D01*
X156316282Y-108812996D01*
X155962670Y-108576719D01*
X155569757Y-108413970D01*
X155152643Y-108331000D01*
X154727357Y-108331000D01*
X154310243Y-108413970D01*
X153917330Y-108576719D01*
X153563718Y-108812996D01*
X153262996Y-109113718D01*
X153026719Y-109467330D01*
X152863970Y-109860243D01*
X152781000Y-110277357D01*
X146004196Y-110277357D01*
X146184099Y-110157150D01*
X146352150Y-109989099D01*
X146484187Y-109791492D01*
X146575135Y-109571923D01*
X146621500Y-109338830D01*
X146621500Y-109101170D01*
X146575135Y-108868077D01*
X146484187Y-108648508D01*
X146352150Y-108450901D01*
X146184099Y-108282850D01*
X145986492Y-108150813D01*
X145766923Y-108059865D01*
X145533830Y-108013500D01*
X145296170Y-108013500D01*
X145063077Y-108059865D01*
X144843508Y-108150813D01*
X144645901Y-108282850D01*
X144477850Y-108450901D01*
X144345813Y-108648508D01*
X144254865Y-108868077D01*
X144208500Y-109101170D01*
X144081500Y-109101170D01*
X144035135Y-108868077D01*
X143944187Y-108648508D01*
X143812150Y-108450901D01*
X143644099Y-108282850D01*
X143446492Y-108150813D01*
X143226923Y-108059865D01*
X142993830Y-108013500D01*
X142756170Y-108013500D01*
X142523077Y-108059865D01*
X142303508Y-108150813D01*
X142105901Y-108282850D01*
X141937850Y-108450901D01*
X141805813Y-108648508D01*
X141714865Y-108868077D01*
X141668500Y-109101170D01*
X141541500Y-109101170D01*
X141495135Y-108868077D01*
X141404187Y-108648508D01*
X141272150Y-108450901D01*
X141104099Y-108282850D01*
X140906492Y-108150813D01*
X140686923Y-108059865D01*
X140453830Y-108013500D01*
X140216170Y-108013500D01*
X139983077Y-108059865D01*
X139763508Y-108150813D01*
X139565901Y-108282850D01*
X139397850Y-108450901D01*
X139265813Y-108648508D01*
X139174865Y-108868077D01*
X139128500Y-109101170D01*
X139001500Y-109101170D01*
X138955135Y-108868077D01*
X138864187Y-108648508D01*
X138732150Y-108450901D01*
X138564099Y-108282850D01*
X138366492Y-108150813D01*
X138146923Y-108059865D01*
X137913830Y-108013500D01*
X137676170Y-108013500D01*
X137443077Y-108059865D01*
X137223508Y-108150813D01*
X137025901Y-108282850D01*
X136857850Y-108450901D01*
X136725813Y-108648508D01*
X136634865Y-108868077D01*
X136588500Y-109101170D01*
X136461500Y-109101170D01*
X136415135Y-108868077D01*
X136324187Y-108648508D01*
X136192150Y-108450901D01*
X136024099Y-108282850D01*
X135826492Y-108150813D01*
X135606923Y-108059865D01*
X135373830Y-108013500D01*
X135136170Y-108013500D01*
X134903077Y-108059865D01*
X134683508Y-108150813D01*
X134485901Y-108282850D01*
X134317850Y-108450901D01*
X134185813Y-108648508D01*
X134094865Y-108868077D01*
X134048500Y-109101170D01*
X133921500Y-109101170D01*
X133875135Y-108868077D01*
X133784187Y-108648508D01*
X133652150Y-108450901D01*
X133484099Y-108282850D01*
X133286492Y-108150813D01*
X133066923Y-108059865D01*
X132833830Y-108013500D01*
X132596170Y-108013500D01*
X132363077Y-108059865D01*
X132143508Y-108150813D01*
X131945901Y-108282850D01*
X131777850Y-108450901D01*
X131645813Y-108648508D01*
X131554865Y-108868077D01*
X131508500Y-109101170D01*
X131381500Y-109101170D01*
X131335135Y-108868077D01*
X131244187Y-108648508D01*
X131112150Y-108450901D01*
X130944099Y-108282850D01*
X130746492Y-108150813D01*
X130526923Y-108059865D01*
X130293830Y-108013500D01*
X130056170Y-108013500D01*
X129823077Y-108059865D01*
X129603508Y-108150813D01*
X129405901Y-108282850D01*
X129237850Y-108450901D01*
X129105813Y-108648508D01*
X129014865Y-108868077D01*
X128968500Y-109101170D01*
X128841500Y-109101170D01*
X128795135Y-108868077D01*
X128704187Y-108648508D01*
X128572150Y-108450901D01*
X128404099Y-108282850D01*
X128206492Y-108150813D01*
X127986923Y-108059865D01*
X127753830Y-108013500D01*
X127516170Y-108013500D01*
X127283077Y-108059865D01*
X127063508Y-108150813D01*
X126865901Y-108282850D01*
X126697850Y-108450901D01*
X126565813Y-108648508D01*
X126474865Y-108868077D01*
X126428500Y-109101170D01*
X126301500Y-109101170D01*
X126255135Y-108868077D01*
X126164187Y-108648508D01*
X126032150Y-108450901D01*
X125864099Y-108282850D01*
X125666492Y-108150813D01*
X125446923Y-108059865D01*
X125213830Y-108013500D01*
X124976170Y-108013500D01*
X124743077Y-108059865D01*
X124523508Y-108150813D01*
X124325901Y-108282850D01*
X124157850Y-108450901D01*
X124025813Y-108648508D01*
X123934865Y-108868077D01*
X123888500Y-109101170D01*
X123761500Y-109101170D01*
X123715135Y-108868077D01*
X123624187Y-108648508D01*
X123492150Y-108450901D01*
X123324099Y-108282850D01*
X123126492Y-108150813D01*
X122906923Y-108059865D01*
X122673830Y-108013500D01*
X122436170Y-108013500D01*
X122203077Y-108059865D01*
X121983508Y-108150813D01*
X121785901Y-108282850D01*
X121617850Y-108450901D01*
X121485813Y-108648508D01*
X121394865Y-108868077D01*
X121348500Y-109101170D01*
X121221500Y-109101170D01*
X121175135Y-108868077D01*
X121084187Y-108648508D01*
X120952150Y-108450901D01*
X120784099Y-108282850D01*
X120586492Y-108150813D01*
X120366923Y-108059865D01*
X120133830Y-108013500D01*
X119896170Y-108013500D01*
X119663077Y-108059865D01*
X119443508Y-108150813D01*
X119245901Y-108282850D01*
X119077850Y-108450901D01*
X118945813Y-108648508D01*
X118854865Y-108868077D01*
X118808500Y-109101170D01*
X118681500Y-109101170D01*
X118635135Y-108868077D01*
X118544187Y-108648508D01*
X118412150Y-108450901D01*
X118244099Y-108282850D01*
X118046492Y-108150813D01*
X117826923Y-108059865D01*
X117593830Y-108013500D01*
X117356170Y-108013500D01*
X117123077Y-108059865D01*
X116903508Y-108150813D01*
X116705901Y-108282850D01*
X116537850Y-108450901D01*
X116405813Y-108648508D01*
X116314865Y-108868077D01*
X116268500Y-109101170D01*
X116141500Y-109101170D01*
X116095135Y-108868077D01*
X116004187Y-108648508D01*
X115872150Y-108450901D01*
X115704099Y-108282850D01*
X115506492Y-108150813D01*
X115286923Y-108059865D01*
X115053830Y-108013500D01*
X114816170Y-108013500D01*
X114583077Y-108059865D01*
X114363508Y-108150813D01*
X114165901Y-108282850D01*
X113997850Y-108450901D01*
X113865813Y-108648508D01*
X113774865Y-108868077D01*
X113728500Y-109101170D01*
X113601500Y-109101170D01*
X113555135Y-108868077D01*
X113464187Y-108648508D01*
X113332150Y-108450901D01*
X113164099Y-108282850D01*
X112966492Y-108150813D01*
X112746923Y-108059865D01*
X112513830Y-108013500D01*
X112276170Y-108013500D01*
X112043077Y-108059865D01*
X111823508Y-108150813D01*
X111625901Y-108282850D01*
X111457850Y-108450901D01*
X111325813Y-108648508D01*
X111234865Y-108868077D01*
X111188500Y-109101170D01*
X111061500Y-109101170D01*
X111015135Y-108868077D01*
X110924187Y-108648508D01*
X110792150Y-108450901D01*
X110624099Y-108282850D01*
X110426492Y-108150813D01*
X110206923Y-108059865D01*
X109973830Y-108013500D01*
X109736170Y-108013500D01*
X109503077Y-108059865D01*
X109283508Y-108150813D01*
X109085901Y-108282850D01*
X108917850Y-108450901D01*
X108785813Y-108648508D01*
X108694865Y-108868077D01*
X108648500Y-109101170D01*
X108521500Y-109101170D01*
X108475135Y-108868077D01*
X108384187Y-108648508D01*
X108252150Y-108450901D01*
X108084099Y-108282850D01*
X107886492Y-108150813D01*
X107666923Y-108059865D01*
X107433830Y-108013500D01*
X107196170Y-108013500D01*
X106963077Y-108059865D01*
X106743508Y-108150813D01*
X106545901Y-108282850D01*
X106377850Y-108450901D01*
X106245813Y-108648508D01*
X106154865Y-108868077D01*
X106108500Y-109101170D01*
X105981500Y-109101170D01*
X105935135Y-108868077D01*
X105844187Y-108648508D01*
X105712150Y-108450901D01*
X105544099Y-108282850D01*
X105346492Y-108150813D01*
X105126923Y-108059865D01*
X104893830Y-108013500D01*
X104656170Y-108013500D01*
X104423077Y-108059865D01*
X104203508Y-108150813D01*
X104005901Y-108282850D01*
X103837850Y-108450901D01*
X103705813Y-108648508D01*
X103614865Y-108868077D01*
X103568500Y-109101170D01*
X103441500Y-109101170D01*
X103395135Y-108868077D01*
X103304187Y-108648508D01*
X103172150Y-108450901D01*
X103004099Y-108282850D01*
X102806492Y-108150813D01*
X102586923Y-108059865D01*
X102353830Y-108013500D01*
X102116170Y-108013500D01*
X101883077Y-108059865D01*
X101663508Y-108150813D01*
X101465901Y-108282850D01*
X101297850Y-108450901D01*
X101165813Y-108648508D01*
X101074865Y-108868077D01*
X101028500Y-109101170D01*
X100724456Y-109101170D01*
X100436282Y-108812996D01*
X100082670Y-108576719D01*
X99689757Y-108413970D01*
X99272643Y-108331000D01*
X98847357Y-108331000D01*
X98430243Y-108413970D01*
X98037330Y-108576719D01*
X97683718Y-108812996D01*
X97382996Y-109113718D01*
X97146719Y-109467330D01*
X96983970Y-109860243D01*
X96901000Y-110277357D01*
X95204196Y-110277357D01*
X95384099Y-110157150D01*
X95552150Y-109989099D01*
X95684187Y-109791492D01*
X95775135Y-109571923D01*
X95821500Y-109338830D01*
X95821500Y-109101170D01*
X95775135Y-108868077D01*
X95684187Y-108648508D01*
X95552150Y-108450901D01*
X95384099Y-108282850D01*
X95186492Y-108150813D01*
X94966923Y-108059865D01*
X94733830Y-108013500D01*
X94496170Y-108013500D01*
X94263077Y-108059865D01*
X94043508Y-108150813D01*
X93845901Y-108282850D01*
X93677850Y-108450901D01*
X93545813Y-108648508D01*
X93454865Y-108868077D01*
X93408500Y-109101170D01*
X93281500Y-109101170D01*
X93235135Y-108868077D01*
X93144187Y-108648508D01*
X93012150Y-108450901D01*
X92844099Y-108282850D01*
X92646492Y-108150813D01*
X92426923Y-108059865D01*
X92193830Y-108013500D01*
X91956170Y-108013500D01*
X91723077Y-108059865D01*
X91503508Y-108150813D01*
X91305901Y-108282850D01*
X91137850Y-108450901D01*
X91005813Y-108648508D01*
X90914865Y-108868077D01*
X90868500Y-109101170D01*
X90741500Y-109101170D01*
X90695135Y-108868077D01*
X90604187Y-108648508D01*
X90472150Y-108450901D01*
X90304099Y-108282850D01*
X90106492Y-108150813D01*
X89886923Y-108059865D01*
X89653830Y-108013500D01*
X89416170Y-108013500D01*
X89183077Y-108059865D01*
X88963508Y-108150813D01*
X88765901Y-108282850D01*
X88597850Y-108450901D01*
X88465813Y-108648508D01*
X88374865Y-108868077D01*
X88328500Y-109101170D01*
X88201500Y-109101170D01*
X88155135Y-108868077D01*
X88064187Y-108648508D01*
X87932150Y-108450901D01*
X87764099Y-108282850D01*
X87566492Y-108150813D01*
X87346923Y-108059865D01*
X87113830Y-108013500D01*
X86876170Y-108013500D01*
X86643077Y-108059865D01*
X86423508Y-108150813D01*
X86225901Y-108282850D01*
X86057850Y-108450901D01*
X85925813Y-108648508D01*
X85834865Y-108868077D01*
X85788500Y-109101170D01*
X85661500Y-109101170D01*
X85615135Y-108868077D01*
X85524187Y-108648508D01*
X85392150Y-108450901D01*
X85224099Y-108282850D01*
X85026492Y-108150813D01*
X84806923Y-108059865D01*
X84573830Y-108013500D01*
X84336170Y-108013500D01*
X84103077Y-108059865D01*
X83883508Y-108150813D01*
X83685901Y-108282850D01*
X83517850Y-108450901D01*
X83385813Y-108648508D01*
X83294865Y-108868077D01*
X83248500Y-109101170D01*
X83121500Y-109101170D01*
X83075135Y-108868077D01*
X82984187Y-108648508D01*
X82852150Y-108450901D01*
X82684099Y-108282850D01*
X82486492Y-108150813D01*
X82266923Y-108059865D01*
X82033830Y-108013500D01*
X81796170Y-108013500D01*
X81563077Y-108059865D01*
X81343508Y-108150813D01*
X81145901Y-108282850D01*
X80977850Y-108450901D01*
X80845813Y-108648508D01*
X80754865Y-108868077D01*
X80708500Y-109101170D01*
X80581500Y-109101170D01*
X80535135Y-108868077D01*
X80444187Y-108648508D01*
X80312150Y-108450901D01*
X80144099Y-108282850D01*
X79946492Y-108150813D01*
X79726923Y-108059865D01*
X79493830Y-108013500D01*
X79256170Y-108013500D01*
X79023077Y-108059865D01*
X78803508Y-108150813D01*
X78605901Y-108282850D01*
X78437850Y-108450901D01*
X78305813Y-108648508D01*
X78214865Y-108868077D01*
X78168500Y-109101170D01*
X78041500Y-109101170D01*
X77995135Y-108868077D01*
X77904187Y-108648508D01*
X77772150Y-108450901D01*
X77604099Y-108282850D01*
X77406492Y-108150813D01*
X77186923Y-108059865D01*
X76953830Y-108013500D01*
X76716170Y-108013500D01*
X76483077Y-108059865D01*
X76263508Y-108150813D01*
X76065901Y-108282850D01*
X75897850Y-108450901D01*
X75765813Y-108648508D01*
X75674865Y-108868077D01*
X75628500Y-109101170D01*
X75501500Y-109101170D01*
X75455135Y-108868077D01*
X75364187Y-108648508D01*
X75232150Y-108450901D01*
X75064099Y-108282850D01*
X74866492Y-108150813D01*
X74646923Y-108059865D01*
X74413830Y-108013500D01*
X74176170Y-108013500D01*
X73943077Y-108059865D01*
X73723508Y-108150813D01*
X73525901Y-108282850D01*
X73357850Y-108450901D01*
X73225813Y-108648508D01*
X73134865Y-108868077D01*
X73088500Y-109101170D01*
X72961500Y-109101170D01*
X72915135Y-108868077D01*
X72824187Y-108648508D01*
X72692150Y-108450901D01*
X72524099Y-108282850D01*
X72326492Y-108150813D01*
X72106923Y-108059865D01*
X71873830Y-108013500D01*
X71636170Y-108013500D01*
X71403077Y-108059865D01*
X71183508Y-108150813D01*
X70985901Y-108282850D01*
X70817850Y-108450901D01*
X70685813Y-108648508D01*
X70594865Y-108868077D01*
X70548500Y-109101170D01*
X70421500Y-109101170D01*
X70375135Y-108868077D01*
X70284187Y-108648508D01*
X70152150Y-108450901D01*
X69984099Y-108282850D01*
X69786492Y-108150813D01*
X69566923Y-108059865D01*
X69333830Y-108013500D01*
X69096170Y-108013500D01*
X68863077Y-108059865D01*
X68643508Y-108150813D01*
X68445901Y-108282850D01*
X68277850Y-108450901D01*
X68145813Y-108648508D01*
X68054865Y-108868077D01*
X68008500Y-109101170D01*
X67881500Y-109101170D01*
X67835135Y-108868077D01*
X67744187Y-108648508D01*
X67612150Y-108450901D01*
X67444099Y-108282850D01*
X67246492Y-108150813D01*
X67026923Y-108059865D01*
X66793830Y-108013500D01*
X66556170Y-108013500D01*
X66323077Y-108059865D01*
X66103508Y-108150813D01*
X65905901Y-108282850D01*
X65737850Y-108450901D01*
X65605813Y-108648508D01*
X65514865Y-108868077D01*
X65468500Y-109101170D01*
X65341500Y-109101170D01*
X65295135Y-108868077D01*
X65204187Y-108648508D01*
X65072150Y-108450901D01*
X64904099Y-108282850D01*
X64706492Y-108150813D01*
X64486923Y-108059865D01*
X64253830Y-108013500D01*
X64016170Y-108013500D01*
X63783077Y-108059865D01*
X63563508Y-108150813D01*
X63365901Y-108282850D01*
X63197850Y-108450901D01*
X63065813Y-108648508D01*
X62974865Y-108868077D01*
X62928500Y-109101170D01*
X62801500Y-109101170D01*
X62755135Y-108868077D01*
X62664187Y-108648508D01*
X62532150Y-108450901D01*
X62364099Y-108282850D01*
X62166492Y-108150813D01*
X61946923Y-108059865D01*
X61713830Y-108013500D01*
X61476170Y-108013500D01*
X61243077Y-108059865D01*
X61023508Y-108150813D01*
X60825901Y-108282850D01*
X60657850Y-108450901D01*
X60525813Y-108648508D01*
X60434865Y-108868077D01*
X60388500Y-109101170D01*
X60261500Y-109101170D01*
X60215135Y-108868077D01*
X60124187Y-108648508D01*
X59992150Y-108450901D01*
X59824099Y-108282850D01*
X59626492Y-108150813D01*
X59406923Y-108059865D01*
X59173830Y-108013500D01*
X58936170Y-108013500D01*
X58703077Y-108059865D01*
X58483508Y-108150813D01*
X58285901Y-108282850D01*
X58117850Y-108450901D01*
X57985813Y-108648508D01*
X57894865Y-108868077D01*
X57848500Y-109101170D01*
X57721500Y-109101170D01*
X57675135Y-108868077D01*
X57584187Y-108648508D01*
X57452150Y-108450901D01*
X57284099Y-108282850D01*
X57086492Y-108150813D01*
X56866923Y-108059865D01*
X56633830Y-108013500D01*
X56396170Y-108013500D01*
X56163077Y-108059865D01*
X55943508Y-108150813D01*
X55745901Y-108282850D01*
X55577850Y-108450901D01*
X55445813Y-108648508D01*
X55354865Y-108868077D01*
X55308500Y-109101170D01*
X55181500Y-109101170D01*
X55135135Y-108868077D01*
X55044187Y-108648508D01*
X54912150Y-108450901D01*
X54744099Y-108282850D01*
X54546492Y-108150813D01*
X54326923Y-108059865D01*
X54093830Y-108013500D01*
X53856170Y-108013500D01*
X53623077Y-108059865D01*
X53403508Y-108150813D01*
X53205901Y-108282850D01*
X53037850Y-108450901D01*
X52905813Y-108648508D01*
X52814865Y-108868077D01*
X52768500Y-109101170D01*
X52638232Y-109101170D01*
X52605956Y-108905957D01*
X52522189Y-108683549D01*
X52485054Y-108614071D01*
X52264370Y-108570235D01*
X51614605Y-109220000D01*
X51255395Y-109220000D01*
X50605630Y-108570235D01*
X50384946Y-108614071D01*
X50286912Y-108830569D01*
X50232998Y-109062033D01*
X50225277Y-109299567D01*
X44981185Y-109299567D01*
X44857004Y-109113718D01*
X44556282Y-108812996D01*
X44202670Y-108576719D01*
X43809757Y-108413970D01*
X43692421Y-108390630D01*
X50785235Y-108390630D01*
X51435000Y-109040395D01*
X52084765Y-108390630D01*
X52040929Y-108169946D01*
X51824431Y-108071912D01*
X51592967Y-108017998D01*
X51355433Y-108010277D01*
X51120957Y-108049044D01*
X50898549Y-108132811D01*
X50829071Y-108169946D01*
X50785235Y-108390630D01*
X43692421Y-108390630D01*
X43392643Y-108331000D01*
X42967357Y-108331000D01*
X42550243Y-108413970D01*
X42157330Y-108576719D01*
X41803718Y-108812996D01*
X41502996Y-109113718D01*
X41266719Y-109467330D01*
X41103970Y-109860243D01*
X41021000Y-110277357D01*
X40030000Y-110277357D01*
X40030000Y-99655000D01*
X129877928Y-99655000D01*
X129877928Y-101005000D01*
X129890188Y-101129482D01*
X129926498Y-101249180D01*
X129985463Y-101359494D01*
X130064815Y-101456185D01*
X130161506Y-101535537D01*
X130271820Y-101594502D01*
X130391518Y-101630812D01*
X130516000Y-101643072D01*
X131866000Y-101643072D01*
X131990482Y-101630812D01*
X132110180Y-101594502D01*
X132220494Y-101535537D01*
X132317185Y-101456185D01*
X132388487Y-101369303D01*
X132570482Y-101490907D01*
X132808887Y-101589658D01*
X133061976Y-101640000D01*
X133320024Y-101640000D01*
X133573113Y-101589658D01*
X133811518Y-101490907D01*
X134026077Y-101347544D01*
X134191000Y-101182621D01*
X134355923Y-101347544D01*
X134570482Y-101490907D01*
X134808887Y-101589658D01*
X135061976Y-101640000D01*
X135320024Y-101640000D01*
X135573113Y-101589658D01*
X135811518Y-101490907D01*
X136026077Y-101347544D01*
X136191000Y-101182621D01*
X136355923Y-101347544D01*
X136570482Y-101490907D01*
X136808887Y-101589658D01*
X137061976Y-101640000D01*
X137320024Y-101640000D01*
X137573113Y-101589658D01*
X137811518Y-101490907D01*
X138026077Y-101347544D01*
X138197681Y-101175940D01*
X138319773Y-101308303D01*
X138527371Y-101459473D01*
X138760472Y-101567238D01*
X138861600Y-101597910D01*
X139064000Y-101474224D01*
X139064000Y-100457000D01*
X139318000Y-100457000D01*
X139318000Y-101474224D01*
X139520400Y-101597910D01*
X139621528Y-101567238D01*
X139854629Y-101459473D01*
X140062227Y-101308303D01*
X140191000Y-101168696D01*
X140319773Y-101308303D01*
X140527371Y-101459473D01*
X140760472Y-101567238D01*
X140861600Y-101597910D01*
X141064000Y-101474224D01*
X141064000Y-100457000D01*
X139318000Y-100457000D01*
X139064000Y-100457000D01*
X139044000Y-100457000D01*
X139044000Y-100203000D01*
X139064000Y-100203000D01*
X139064000Y-98457000D01*
X139318000Y-98457000D01*
X139318000Y-100203000D01*
X141064000Y-100203000D01*
X141064000Y-98457000D01*
X139318000Y-98457000D01*
X139064000Y-98457000D01*
X139044000Y-98457000D01*
X139044000Y-98203000D01*
X139064000Y-98203000D01*
X139064000Y-97185776D01*
X139318000Y-97185776D01*
X139318000Y-98203000D01*
X141064000Y-98203000D01*
X141064000Y-97185776D01*
X141318000Y-97185776D01*
X141318000Y-98203000D01*
X141338000Y-98203000D01*
X141338000Y-98457000D01*
X141318000Y-98457000D01*
X141318000Y-100203000D01*
X141338000Y-100203000D01*
X141338000Y-100457000D01*
X141318000Y-100457000D01*
X141318000Y-101474224D01*
X141520400Y-101597910D01*
X141621528Y-101567238D01*
X141854629Y-101459473D01*
X142062227Y-101308303D01*
X142184319Y-101175940D01*
X142355923Y-101347544D01*
X142570482Y-101490907D01*
X142808887Y-101589658D01*
X143061976Y-101640000D01*
X143320024Y-101640000D01*
X143573113Y-101589658D01*
X143811518Y-101490907D01*
X144026077Y-101347544D01*
X144197681Y-101175940D01*
X144319773Y-101308303D01*
X144527371Y-101459473D01*
X144760472Y-101567238D01*
X144861600Y-101597910D01*
X145064000Y-101474224D01*
X145064000Y-100457000D01*
X145044000Y-100457000D01*
X145044000Y-100203000D01*
X145064000Y-100203000D01*
X145064000Y-98457000D01*
X145044000Y-98457000D01*
X145044000Y-98203000D01*
X145064000Y-98203000D01*
X145064000Y-97185776D01*
X145318000Y-97185776D01*
X145318000Y-98203000D01*
X145338000Y-98203000D01*
X145338000Y-98457000D01*
X145318000Y-98457000D01*
X145318000Y-100203000D01*
X145338000Y-100203000D01*
X145338000Y-100457000D01*
X145318000Y-100457000D01*
X145318000Y-101474224D01*
X145520400Y-101597910D01*
X145621528Y-101567238D01*
X145854629Y-101459473D01*
X146062227Y-101308303D01*
X146184319Y-101175940D01*
X146355923Y-101347544D01*
X146570482Y-101490907D01*
X146808887Y-101589658D01*
X147061976Y-101640000D01*
X147320024Y-101640000D01*
X147573113Y-101589658D01*
X147811518Y-101490907D01*
X148026077Y-101347544D01*
X148191000Y-101182621D01*
X148355923Y-101347544D01*
X148570482Y-101490907D01*
X148808887Y-101589658D01*
X149061976Y-101640000D01*
X149320024Y-101640000D01*
X149573113Y-101589658D01*
X149811518Y-101490907D01*
X150026077Y-101347544D01*
X150191000Y-101182621D01*
X150355923Y-101347544D01*
X150570482Y-101490907D01*
X150808887Y-101589658D01*
X151061976Y-101640000D01*
X151320024Y-101640000D01*
X151573113Y-101589658D01*
X151811518Y-101490907D01*
X152026077Y-101347544D01*
X152191000Y-101182621D01*
X152355923Y-101347544D01*
X152570482Y-101490907D01*
X152808887Y-101589658D01*
X153061976Y-101640000D01*
X153320024Y-101640000D01*
X153573113Y-101589658D01*
X153811518Y-101490907D01*
X154026077Y-101347544D01*
X154191000Y-101182621D01*
X154355923Y-101347544D01*
X154570482Y-101490907D01*
X154808887Y-101589658D01*
X155061976Y-101640000D01*
X155320024Y-101640000D01*
X155573113Y-101589658D01*
X155811518Y-101490907D01*
X156026077Y-101347544D01*
X156208544Y-101165077D01*
X156351907Y-100950518D01*
X156450658Y-100712113D01*
X156501000Y-100459024D01*
X156501000Y-100200976D01*
X156450658Y-99947887D01*
X156351907Y-99709482D01*
X156208544Y-99494923D01*
X156043621Y-99330000D01*
X156208544Y-99165077D01*
X156351907Y-98950518D01*
X156450658Y-98712113D01*
X156501000Y-98459024D01*
X156501000Y-98200976D01*
X156450658Y-97947887D01*
X156351907Y-97709482D01*
X156208544Y-97494923D01*
X156026077Y-97312456D01*
X155811518Y-97169093D01*
X155573113Y-97070342D01*
X155320024Y-97020000D01*
X155061976Y-97020000D01*
X154808887Y-97070342D01*
X154570482Y-97169093D01*
X154355923Y-97312456D01*
X154191000Y-97477379D01*
X154026077Y-97312456D01*
X153811518Y-97169093D01*
X153573113Y-97070342D01*
X153320024Y-97020000D01*
X153061976Y-97020000D01*
X152808887Y-97070342D01*
X152570482Y-97169093D01*
X152355923Y-97312456D01*
X152191000Y-97477379D01*
X152026077Y-97312456D01*
X151811518Y-97169093D01*
X151573113Y-97070342D01*
X151320024Y-97020000D01*
X151061976Y-97020000D01*
X150808887Y-97070342D01*
X150570482Y-97169093D01*
X150355923Y-97312456D01*
X150191000Y-97477379D01*
X150026077Y-97312456D01*
X149811518Y-97169093D01*
X149573113Y-97070342D01*
X149320024Y-97020000D01*
X149061976Y-97020000D01*
X148808887Y-97070342D01*
X148570482Y-97169093D01*
X148355923Y-97312456D01*
X148191000Y-97477379D01*
X148026077Y-97312456D01*
X147811518Y-97169093D01*
X147573113Y-97070342D01*
X147320024Y-97020000D01*
X147061976Y-97020000D01*
X146808887Y-97070342D01*
X146570482Y-97169093D01*
X146355923Y-97312456D01*
X146184319Y-97484060D01*
X146062227Y-97351697D01*
X145854629Y-97200527D01*
X145621528Y-97092762D01*
X145520400Y-97062090D01*
X145318000Y-97185776D01*
X145064000Y-97185776D01*
X144861600Y-97062090D01*
X144760472Y-97092762D01*
X144527371Y-97200527D01*
X144319773Y-97351697D01*
X144197681Y-97484060D01*
X144026077Y-97312456D01*
X143811518Y-97169093D01*
X143573113Y-97070342D01*
X143320024Y-97020000D01*
X143061976Y-97020000D01*
X142808887Y-97070342D01*
X142570482Y-97169093D01*
X142355923Y-97312456D01*
X142184319Y-97484060D01*
X142062227Y-97351697D01*
X141854629Y-97200527D01*
X141621528Y-97092762D01*
X141520400Y-97062090D01*
X141318000Y-97185776D01*
X141064000Y-97185776D01*
X140861600Y-97062090D01*
X140760472Y-97092762D01*
X140527371Y-97200527D01*
X140319773Y-97351697D01*
X140191000Y-97491304D01*
X140062227Y-97351697D01*
X139854629Y-97200527D01*
X139621528Y-97092762D01*
X139520400Y-97062090D01*
X139318000Y-97185776D01*
X139064000Y-97185776D01*
X138861600Y-97062090D01*
X138760472Y-97092762D01*
X138527371Y-97200527D01*
X138319773Y-97351697D01*
X138197681Y-97484060D01*
X138026077Y-97312456D01*
X137811518Y-97169093D01*
X137573113Y-97070342D01*
X137320024Y-97020000D01*
X137061976Y-97020000D01*
X136808887Y-97070342D01*
X136570482Y-97169093D01*
X136355923Y-97312456D01*
X136191000Y-97477379D01*
X136026077Y-97312456D01*
X135811518Y-97169093D01*
X135573113Y-97070342D01*
X135320024Y-97020000D01*
X135061976Y-97020000D01*
X134808887Y-97070342D01*
X134570482Y-97169093D01*
X134355923Y-97312456D01*
X134191000Y-97477379D01*
X134026077Y-97312456D01*
X133811518Y-97169093D01*
X133573113Y-97070342D01*
X133320024Y-97020000D01*
X133061976Y-97020000D01*
X132808887Y-97070342D01*
X132570482Y-97169093D01*
X132355923Y-97312456D01*
X132191000Y-97477379D01*
X132026077Y-97312456D01*
X131811518Y-97169093D01*
X131573113Y-97070342D01*
X131320024Y-97020000D01*
X131061976Y-97020000D01*
X130808887Y-97070342D01*
X130570482Y-97169093D01*
X130355923Y-97312456D01*
X130173456Y-97494923D01*
X130030093Y-97709482D01*
X129931342Y-97947887D01*
X129881000Y-98200976D01*
X129881000Y-98459024D01*
X129931342Y-98712113D01*
X130030093Y-98950518D01*
X130151697Y-99132513D01*
X130064815Y-99203815D01*
X129985463Y-99300506D01*
X129926498Y-99410820D01*
X129890188Y-99530518D01*
X129877928Y-99655000D01*
X40030000Y-99655000D01*
X40030000Y-95910000D01*
X158090000Y-95910000D01*
X158090001Y-139040000D01*
G37*
%TD.AperFunction*%
%TD*%
M02*
