M48
; DRILL file {KiCad (5.1.9)-1} date 01/17/21 12:11:37
; FORMAT={-:-/ absolute / metric / decimal}
; #@! TF.CreationDate,2021-01-17T12:11:37+11:00
; #@! TF.GenerationSoftware,Kicad,Pcbnew,(5.1.9)-1
; #@! TF.FileFunction,Plated,1,2,PTH
FMAT,2
METRIC
T1C0.635
T2C0.800
T3C1.000
T4C2.540
%
G90
G05
T1
X51.435Y-109.22
X52.705Y-111.76
X53.975Y-109.22
X55.245Y-111.76
X56.515Y-109.22
X57.785Y-111.76
X59.055Y-109.22
X60.325Y-111.76
X61.595Y-109.22
X62.865Y-111.76
X64.135Y-109.22
X65.405Y-111.76
X66.675Y-109.22
X67.945Y-111.76
X69.215Y-109.22
X70.485Y-111.76
X71.755Y-109.22
X73.025Y-111.76
X74.295Y-109.22
X75.565Y-111.76
X76.835Y-109.22
X78.105Y-111.76
X79.375Y-109.22
X80.645Y-111.76
X81.915Y-109.22
X83.185Y-111.76
X84.455Y-109.22
X85.725Y-111.76
X86.995Y-109.22
X88.265Y-111.76
X89.535Y-109.22
X90.805Y-111.76
X92.075Y-109.22
X93.345Y-111.76
X94.615Y-109.22
X95.885Y-111.76
X102.235Y-109.22
X103.505Y-111.76
X104.775Y-109.22
X106.045Y-111.76
X107.315Y-109.22
X108.585Y-111.76
X109.855Y-109.22
X111.125Y-111.76
X112.395Y-109.22
X113.665Y-111.76
X114.935Y-109.22
X116.205Y-111.76
X117.475Y-109.22
X118.745Y-111.76
X120.015Y-109.22
X121.285Y-111.76
X122.555Y-109.22
X123.825Y-111.76
X125.095Y-109.22
X126.365Y-111.76
X127.635Y-109.22
X128.905Y-111.76
X130.175Y-109.22
X131.445Y-111.76
X132.715Y-109.22
X133.985Y-111.76
X135.255Y-109.22
X136.525Y-111.76
X137.795Y-109.22
X139.065Y-111.76
X140.335Y-109.22
X141.605Y-111.76
X142.875Y-109.22
X144.145Y-111.76
X145.415Y-109.22
X146.685Y-111.76
T2
X131.191Y-98.33
X131.191Y-100.33
X131.191Y-134.842
X131.191Y-136.842
X133.191Y-98.33
X133.191Y-100.33
X133.191Y-134.842
X133.191Y-136.842
X135.191Y-98.33
X135.191Y-100.33
X135.191Y-134.842
X135.191Y-136.842
X137.191Y-98.33
X137.191Y-100.33
X137.191Y-134.842
X137.191Y-136.842
X139.191Y-98.33
X139.191Y-100.33
X139.191Y-134.842
X139.191Y-136.842
X141.191Y-98.33
X141.191Y-100.33
X141.191Y-134.842
X141.191Y-136.842
X143.191Y-98.33
X143.191Y-100.33
X143.191Y-134.842
X143.191Y-136.842
X145.191Y-98.33
X145.191Y-100.33
X145.191Y-134.842
X145.191Y-136.842
X147.191Y-98.33
X147.191Y-100.33
X147.191Y-134.842
X147.191Y-136.842
X149.191Y-98.33
X149.191Y-100.33
X149.191Y-134.842
X149.191Y-136.842
X151.191Y-98.33
X151.191Y-100.33
X151.191Y-134.842
X151.191Y-136.842
X153.191Y-98.33
X153.191Y-100.33
X153.191Y-134.842
X153.191Y-136.842
X155.191Y-98.33
X155.191Y-100.33
T3
X100.584Y-136.652
X100.711Y-132.842
X103.124Y-136.652
X103.251Y-132.842
X105.664Y-136.652
X105.791Y-132.842
T4
X43.18Y-110.49
X99.06Y-110.49
X154.94Y-110.49
T0
M30
