%TF.GenerationSoftware,KiCad,Pcbnew,(5.1.9)-1*%
%TF.CreationDate,2021-01-17T12:11:35+11:00*%
%TF.ProjectId,SIMMCON,53494d4d-434f-44e2-9e6b-696361645f70,rev?*%
%TF.SameCoordinates,Original*%
%TF.FileFunction,Paste,Top*%
%TF.FilePolarity,Positive*%
%FSLAX46Y46*%
G04 Gerber Fmt 4.6, Leading zero omitted, Abs format (unit mm)*
G04 Created by KiCad (PCBNEW (5.1.9)-1) date 2021-01-17 12:11:35*
%MOMM*%
%LPD*%
G01*
G04 APERTURE LIST*
%ADD10R,1.300000X0.700000*%
%ADD11R,1.250000X1.000000*%
%ADD12R,0.700000X1.925000*%
%ADD13R,1.925000X0.700000*%
%ADD14R,1.950000X0.600000*%
G04 APERTURE END LIST*
D10*
%TO.C,R1*%
X82931000Y-115890000D03*
X82931000Y-117790000D03*
%TD*%
D11*
%TO.C,C4*%
X67691000Y-117110000D03*
X67691000Y-119110000D03*
%TD*%
%TO.C,C3*%
X153162000Y-131556000D03*
X153162000Y-129556000D03*
%TD*%
%TO.C,C2*%
X51181000Y-116110000D03*
X51181000Y-118110000D03*
%TD*%
D12*
%TO.C,U0*%
X104140000Y-117867500D03*
X102870000Y-117867500D03*
X101600000Y-117867500D03*
X105410000Y-117867500D03*
X106680000Y-117867500D03*
D13*
X100087500Y-119380000D03*
X100087500Y-120650000D03*
X100087500Y-121920000D03*
X100087500Y-123190000D03*
X100087500Y-124460000D03*
D12*
X101600000Y-125972500D03*
X102870000Y-125972500D03*
X104140000Y-125972500D03*
X105410000Y-125972500D03*
X106680000Y-125972500D03*
D13*
X108192500Y-124460000D03*
X108192500Y-123190000D03*
X108192500Y-121920000D03*
X108192500Y-120650000D03*
X108192500Y-119380000D03*
%TD*%
D14*
%TO.C,U2*%
X75310000Y-121285000D03*
X75310000Y-122555000D03*
X75310000Y-123825000D03*
X75310000Y-125095000D03*
X75310000Y-126365000D03*
X75310000Y-127635000D03*
X75310000Y-128905000D03*
X75310000Y-130175000D03*
X75310000Y-131445000D03*
X75310000Y-132715000D03*
X84710000Y-132715000D03*
X84710000Y-131445000D03*
X84710000Y-130175000D03*
X84710000Y-128905000D03*
X84710000Y-127635000D03*
X84710000Y-126365000D03*
X84710000Y-125095000D03*
X84710000Y-123825000D03*
X84710000Y-122555000D03*
X84710000Y-121285000D03*
%TD*%
%TO.C,U1*%
X136780000Y-128905000D03*
X136780000Y-127635000D03*
X136780000Y-126365000D03*
X136780000Y-125095000D03*
X136780000Y-123825000D03*
X136780000Y-122555000D03*
X136780000Y-121285000D03*
X136780000Y-120015000D03*
X136780000Y-118745000D03*
X136780000Y-117475000D03*
X127380000Y-117475000D03*
X127380000Y-118745000D03*
X127380000Y-120015000D03*
X127380000Y-121285000D03*
X127380000Y-122555000D03*
X127380000Y-123825000D03*
X127380000Y-125095000D03*
X127380000Y-126365000D03*
X127380000Y-127635000D03*
X127380000Y-128905000D03*
%TD*%
M02*
