%TF.GenerationSoftware,KiCad,Pcbnew,(5.1.9)-1*%
%TF.CreationDate,2021-01-17T12:11:35+11:00*%
%TF.ProjectId,SIMMCON,53494d4d-434f-44e2-9e6b-696361645f70,rev?*%
%TF.SameCoordinates,Original*%
%TF.FileFunction,Soldermask,Bot*%
%TF.FilePolarity,Negative*%
%FSLAX46Y46*%
G04 Gerber Fmt 4.6, Leading zero omitted, Abs format (unit mm)*
G04 Created by KiCad (PCBNEW (5.1.9)-1) date 2021-01-17 12:11:35*
%MOMM*%
%LPD*%
G01*
G04 APERTURE LIST*
%ADD10R,1.700000X1.700000*%
%ADD11O,1.700000X1.700000*%
%ADD12C,3.048000*%
%ADD13R,1.143000X1.143000*%
%ADD14C,1.143000*%
%ADD15R,1.350000X1.350000*%
%ADD16O,1.350000X1.350000*%
G04 APERTURE END LIST*
D10*
%TO.C,JP2*%
X100711000Y-132842000D03*
D11*
X103251000Y-132842000D03*
X105791000Y-132842000D03*
%TD*%
D10*
%TO.C,JP1*%
X100584000Y-136652000D03*
D11*
X103124000Y-136652000D03*
X105664000Y-136652000D03*
%TD*%
D12*
%TO.C,SIMM72*%
X99060000Y-110490000D03*
X43180000Y-110490000D03*
X154940000Y-110490000D03*
D13*
X146685000Y-111760000D03*
D14*
X145415000Y-109220000D03*
X144145000Y-111760000D03*
X142875000Y-109220000D03*
X141605000Y-111760000D03*
X140335000Y-109220000D03*
X139065000Y-111760000D03*
X137795000Y-109220000D03*
X136525000Y-111760000D03*
X135255000Y-109220000D03*
X133985000Y-111760000D03*
X132715000Y-109220000D03*
X131445000Y-111760000D03*
X130175000Y-109220000D03*
X128905000Y-111760000D03*
X127635000Y-109220000D03*
X126365000Y-111760000D03*
X125095000Y-109220000D03*
X123825000Y-111760000D03*
X122555000Y-109220000D03*
X121285000Y-111760000D03*
X120015000Y-109220000D03*
X118745000Y-111760000D03*
X117475000Y-109220000D03*
X116205000Y-111760000D03*
X114935000Y-109220000D03*
X113665000Y-111760000D03*
X112395000Y-109220000D03*
X111125000Y-111760000D03*
X109855000Y-109220000D03*
X108585000Y-111760000D03*
X107315000Y-109220000D03*
X106045000Y-111760000D03*
X104775000Y-109220000D03*
X103505000Y-111760000D03*
X102235000Y-109220000D03*
X95885000Y-111760000D03*
X94615000Y-109220000D03*
X93345000Y-111760000D03*
X92075000Y-109220000D03*
X90805000Y-111760000D03*
X89535000Y-109220000D03*
X88265000Y-111760000D03*
X86995000Y-109220000D03*
X85725000Y-111760000D03*
X84455000Y-109220000D03*
X83185000Y-111760000D03*
X81915000Y-109220000D03*
X80645000Y-111760000D03*
X79375000Y-109220000D03*
X78105000Y-111760000D03*
X76835000Y-109220000D03*
X75565000Y-111760000D03*
X74295000Y-109220000D03*
X73025000Y-111760000D03*
X71755000Y-109220000D03*
X70485000Y-111760000D03*
X69215000Y-109220000D03*
X67945000Y-111760000D03*
X66675000Y-109220000D03*
X65405000Y-111760000D03*
X64135000Y-109220000D03*
X62865000Y-111760000D03*
X61595000Y-109220000D03*
X60325000Y-111760000D03*
X59055000Y-109220000D03*
X57785000Y-111760000D03*
X56515000Y-109220000D03*
X55245000Y-111760000D03*
X53975000Y-109220000D03*
X52705000Y-111760000D03*
X51435000Y-109220000D03*
%TD*%
D15*
%TO.C,J1*%
X131191000Y-100330000D03*
D16*
X131191000Y-98330000D03*
X133191000Y-100330000D03*
X133191000Y-98330000D03*
X135191000Y-100330000D03*
X135191000Y-98330000D03*
X137191000Y-100330000D03*
X137191000Y-98330000D03*
X139191000Y-100330000D03*
X139191000Y-98330000D03*
X141191000Y-100330000D03*
X141191000Y-98330000D03*
X143191000Y-100330000D03*
X143191000Y-98330000D03*
X145191000Y-100330000D03*
X145191000Y-98330000D03*
X147191000Y-100330000D03*
X147191000Y-98330000D03*
X149191000Y-100330000D03*
X149191000Y-98330000D03*
X151191000Y-100330000D03*
X151191000Y-98330000D03*
X153191000Y-100330000D03*
X153191000Y-98330000D03*
X155191000Y-100330000D03*
X155191000Y-98330000D03*
%TD*%
D15*
%TO.C,J2*%
X131191000Y-136842000D03*
D16*
X131191000Y-134842000D03*
X133191000Y-136842000D03*
X133191000Y-134842000D03*
X135191000Y-136842000D03*
X135191000Y-134842000D03*
X137191000Y-136842000D03*
X137191000Y-134842000D03*
X139191000Y-136842000D03*
X139191000Y-134842000D03*
X141191000Y-136842000D03*
X141191000Y-134842000D03*
X143191000Y-136842000D03*
X143191000Y-134842000D03*
X145191000Y-136842000D03*
X145191000Y-134842000D03*
X147191000Y-136842000D03*
X147191000Y-134842000D03*
X149191000Y-136842000D03*
X149191000Y-134842000D03*
X151191000Y-136842000D03*
X151191000Y-134842000D03*
X153191000Y-136842000D03*
X153191000Y-134842000D03*
%TD*%
M02*
