*%FSLAX21Y21*%
*%MOIN*%
G01*
D23*
X8088Y7996D02*
D03*
X8037Y7996D02*
D03*
X8238Y7996D02*
D03*
Y7651D02*
D03*
X8188Y7651D02*
D03*
X8138D02*
D03*
X8088Y7651D02*
D03*
X8037Y7651D02*
D03*
X8138Y7996D02*
D03*
X8188D02*
D03*
D26*
X9094Y7909D02*
D03*
X8644Y7618D02*
D03*
X9044Y7909D02*
D03*
X8644D02*
D03*
X8694D02*
D03*
X8744D02*
D03*
X8794D02*
D03*
X8844D02*
D03*
X8894D02*
D03*
X8944D02*
D03*
X8994D02*
D03*
X8744Y7618D02*
D03*
X8794D02*
D03*
X8844D02*
D03*
X8894D02*
D03*
X8944D02*
D03*
X8994D02*
D03*
X9044D02*
D03*
X8694D02*
D03*
D31*
X11806Y7325D02*
D03*
Y7246D02*
D03*
X11727Y7325D02*
D03*
Y7246D02*
D03*
X11648Y7325D02*
D03*
Y7246D02*
D03*
X11570Y7325D02*
D03*
Y7246D02*
D03*
X11491Y7325D02*
D03*
Y7246D02*
D03*
X11412Y7325D02*
D03*
Y7246D02*
D03*
X11333Y7325D02*
D03*
Y7246D02*
D03*
X11255Y7325D02*
D03*
Y7246D02*
D03*
X11176D02*
D03*
Y7325D02*
D03*
X11097D02*
D03*
Y7246D02*
D03*
X11019Y7325D02*
D03*
Y7246D02*
D03*
X10940Y7325D02*
D03*
Y7246D02*
D03*
X11885Y8762D02*
D03*
Y8683D02*
D03*
X11806D02*
D03*
X11727D02*
D03*
X11648D02*
D03*
X11570D02*
D03*
X11491D02*
D03*
X11412D02*
D03*
X11333D02*
D03*
X11255D02*
D03*
X11176D02*
D03*
X11097D02*
D03*
X11806Y8762D02*
D03*
X11727D02*
D03*
X11648D02*
D03*
X11570D02*
D03*
X11491D02*
D03*
X11412D02*
D03*
X11333D02*
D03*
X11255D02*
D03*
X11176D02*
D03*
X11097D02*
D03*
X11019Y8683D02*
D03*
Y8762D02*
D03*
X10940Y8683D02*
D03*
Y8762D02*
D03*
X8894Y7314D02*
D03*
X8952Y7395D02*
D03*
X9206Y7270D02*
D03*
X8994Y7272D02*
D03*
X9911Y8238D02*
D03*
X11540Y8614D02*
D03*
X11116Y7905D02*
D03*
X11071Y8180D02*
D03*
X9522Y7798D02*
D03*
X9040Y7134D02*
D03*
X12125Y8215D02*
D03*
X12205Y7626D02*
D03*
X8560Y7874D02*
D03*
Y7594D02*
D03*
D03*
D03*
X8076Y7774D02*
D03*
X10570Y8642D02*
D03*
X8170Y8124D02*
D03*
X8260D02*
D03*
D33*
X8321Y8385D02*
D03*
X8421D02*
D03*
X8521D02*
D03*
X8621D02*
D03*
X8721D02*
D03*
X8821D02*
D03*
X8921D02*
D03*
X9021D02*
D03*
X9121D02*
D03*
X9221D02*
D03*
X9321D02*
D03*
X9421D02*
D03*
X9521D02*
D03*
X9621D02*
D03*
X9721D02*
D03*
X9821D02*
D03*
X9921D02*
D03*
X10021D02*
D03*
X10321D02*
D03*
X10421D02*
D03*
X10521D02*
D03*
X10621D02*
D03*
X10721D02*
D03*
X10821D02*
D03*
X10921D02*
D03*
X11021D02*
D03*
X11121D02*
D03*
X11221D02*
D03*
X11321D02*
D03*
X11421D02*
D03*
X11521D02*
D03*
X11621D02*
D03*
X11721D02*
D03*
X11821D02*
D03*
X11921D02*
D03*
X8271Y8485D02*
D03*
X8471D02*
D03*
X8571D02*
D03*
X8671D02*
D03*
X8771D02*
D03*
X8871D02*
D03*
X8971D02*
D03*
X9071D02*
D03*
X9171D02*
D03*
X9271D02*
D03*
X9371D02*
D03*
X9471D02*
D03*
X9571D02*
D03*
X9671D02*
D03*
X9771D02*
D03*
X9871D02*
D03*
X9971D02*
D03*
X10271D02*
D03*
X10371D02*
D03*
X10471D02*
D03*
X10571D02*
D03*
X10671D02*
D03*
X10771D02*
D03*
X10871D02*
D03*
X10971D02*
D03*
X11071D02*
D03*
X11171D02*
D03*
X11271D02*
D03*
X11371D02*
D03*
X11471D02*
D03*
X11571D02*
D03*
X11671D02*
D03*
X11771D02*
D03*
X11871D02*
D03*
X11971D02*
D03*
X8371D02*
D03*
D35*
X8308Y8789D02*
D03*
Y8689D02*
D03*
X8208D02*
D03*
Y8789D02*
D03*
D37*
X8310Y7924D02*
D03*
Y7873D02*
D03*
X7965Y7773D02*
D03*
X8310Y7723D02*
D03*
X7965Y7723D02*
D03*
X8310Y7773D02*
D03*
X7965Y7873D02*
D03*
Y7924D02*
D03*
X8310Y7823D02*
D03*
D39*
X11830Y8076D02*
D03*
Y8026D02*
D03*
X12121Y7626D02*
D03*
X11830Y7976D02*
D03*
Y7926D02*
D03*
Y7876D02*
D03*
Y7826D02*
D03*
Y7776D02*
D03*
Y7726D02*
D03*
Y7676D02*
D03*
Y7626D02*
D03*
X12121Y8026D02*
D03*
Y7976D02*
D03*
Y7926D02*
D03*
Y7876D02*
D03*
Y7826D02*
D03*
Y7776D02*
D03*
Y7726D02*
D03*
Y7676D02*
D03*
D41*
X9094Y7618D02*
D03*
D43*
X9346Y7708D02*
D03*
Y7798D02*
D03*
X9231Y7798D02*
D03*
Y7708D02*
D03*
D46*
X11928Y8215D02*
D03*
X12018D02*
D03*
X8170Y8209D02*
D03*
X8260D02*
D03*
D47*
X12021Y8385D02*
D03*
D49*
X8108Y8789D02*
D03*
Y8689D02*
D03*
D51*
X12121Y8076D02*
D03*
D53*
X7965Y7823D02*
D03*
M02*
