*%FSLAX21Y21*%
*%MOIN*%
G01*
D11*
X11786Y7305D02*
Y7345D01*
X11826D01*
Y7305D01*
X11786D01*
Y7266D02*
Y7226D01*
Y7266D02*
X11826D01*
Y7226D01*
X11786D01*
X11707Y7305D02*
Y7345D01*
X11747D01*
Y7305D01*
X11707D01*
Y7266D02*
Y7226D01*
Y7266D02*
X11747D01*
Y7226D01*
X11707D01*
X11628Y7305D02*
Y7345D01*
X11668D01*
Y7305D01*
X11628D01*
Y7266D02*
Y7226D01*
Y7266D02*
X11668D01*
Y7226D01*
X11628D01*
X11550Y7305D02*
Y7345D01*
X11590D01*
Y7305D01*
X11550D01*
Y7266D02*
Y7226D01*
Y7266D02*
X11590D01*
Y7226D01*
X11550D01*
X11471Y7305D02*
Y7345D01*
X11511D01*
Y7305D01*
X11471D01*
Y7266D02*
Y7226D01*
Y7266D02*
X11511D01*
Y7226D01*
X11471D01*
X11392Y7305D02*
Y7345D01*
X11432D01*
Y7305D01*
X11392D01*
Y7266D02*
Y7226D01*
Y7266D02*
X11432D01*
Y7226D01*
X11392D01*
X11313Y7305D02*
Y7345D01*
X11353D01*
Y7305D01*
X11313D01*
Y7266D02*
Y7226D01*
Y7266D02*
X11353D01*
Y7226D01*
X11313D01*
X11235Y7305D02*
Y7345D01*
X11275D01*
Y7305D01*
X11235D01*
Y7266D02*
Y7226D01*
Y7266D02*
X11275D01*
Y7226D01*
X11235D01*
X11156D02*
Y7266D01*
X11196D01*
Y7226D01*
X11156D01*
Y7305D02*
Y7345D01*
X11196D01*
Y7305D01*
X11156D01*
X11077D02*
Y7345D01*
X11117D01*
Y7305D01*
X11077D01*
Y7266D02*
Y7226D01*
Y7266D02*
X11117D01*
Y7226D01*
X11077D01*
X10999Y7305D02*
Y7345D01*
X11039D01*
Y7305D01*
X10999D01*
Y7266D02*
Y7226D01*
Y7266D02*
X11039D01*
Y7226D01*
X10999D01*
X10920Y7305D02*
Y7345D01*
X10960D01*
Y7305D01*
X10920D01*
Y7266D02*
Y7226D01*
Y7266D02*
X10960D01*
Y7226D01*
X10920D01*
X11865Y8742D02*
Y8782D01*
X11905D01*
Y8742D01*
X11865D01*
Y8703D02*
Y8663D01*
Y8703D02*
X11905D01*
Y8663D01*
X11865D01*
X11786D02*
Y8703D01*
X11826D01*
Y8663D01*
X11786D01*
X11707D02*
Y8703D01*
X11747D01*
Y8663D01*
X11707D01*
X11628D02*
Y8703D01*
X11668D01*
Y8663D01*
X11628D01*
X11550D02*
Y8703D01*
X11590D01*
Y8663D01*
X11550D01*
X11471D02*
Y8703D01*
X11511D01*
Y8663D01*
X11471D01*
X11392D02*
Y8703D01*
X11432D01*
Y8663D01*
X11392D01*
X11313D02*
Y8703D01*
X11353D01*
Y8663D01*
X11313D01*
X11235D02*
Y8703D01*
X11275D01*
Y8663D01*
X11235D01*
X11156D02*
Y8703D01*
X11196D01*
Y8663D01*
X11156D01*
X11077D02*
Y8703D01*
X11117D01*
Y8663D01*
X11077D01*
X11786Y8742D02*
Y8782D01*
X11826D01*
Y8742D01*
X11786D01*
X11707D02*
Y8782D01*
X11747D01*
Y8742D01*
X11707D01*
X11628D02*
Y8782D01*
X11668D01*
Y8742D01*
X11628D01*
X11550D02*
Y8782D01*
X11590D01*
Y8742D01*
X11550D01*
X11471D02*
Y8782D01*
X11511D01*
Y8742D01*
X11471D01*
X11392D02*
Y8782D01*
X11432D01*
Y8742D01*
X11392D01*
X11313D02*
Y8782D01*
X11353D01*
Y8742D01*
X11313D01*
X11235D02*
Y8782D01*
X11275D01*
Y8742D01*
X11235D01*
X11156D02*
Y8782D01*
X11196D01*
Y8742D01*
X11156D01*
X11077D02*
Y8782D01*
X11117D01*
Y8742D01*
X11077D01*
X10999Y8703D02*
Y8663D01*
Y8703D02*
X11039D01*
Y8663D01*
X10999D01*
Y8742D02*
Y8782D01*
X11039D01*
Y8742D01*
X10999D01*
X10920Y8703D02*
Y8663D01*
Y8703D02*
X10960D01*
Y8663D01*
X10920D01*
Y8742D02*
Y8782D01*
X10960D01*
Y8742D01*
X10920D01*
X8301Y8405D02*
Y8365D01*
Y8405D02*
X8341D01*
Y8365D01*
X8301D01*
X8401D02*
Y8405D01*
X8441D01*
Y8365D01*
X8401D01*
X8501D02*
Y8405D01*
X8541D01*
Y8365D01*
X8501D01*
X8601D02*
Y8405D01*
X8641D01*
Y8365D01*
X8601D01*
X8701D02*
Y8405D01*
X8741D01*
Y8365D01*
X8701D01*
X8801D02*
Y8405D01*
X8841D01*
Y8365D01*
X8801D01*
X8901D02*
Y8405D01*
X8941D01*
Y8365D01*
X8901D01*
X9001D02*
Y8405D01*
X9041D01*
Y8365D01*
X9001D01*
X9101D02*
Y8405D01*
X9141D01*
Y8365D01*
X9101D01*
X9201D02*
Y8405D01*
X9241D01*
Y8365D01*
X9201D01*
X9301D02*
Y8405D01*
X9341D01*
Y8365D01*
X9301D01*
X9401D02*
Y8405D01*
X9441D01*
Y8365D01*
X9401D01*
X9501D02*
Y8405D01*
X9541D01*
Y8365D01*
X9501D01*
X9601D02*
Y8405D01*
X9641D01*
Y8365D01*
X9601D01*
X9701D02*
Y8405D01*
X9741D01*
Y8365D01*
X9701D01*
X9801D02*
Y8405D01*
X9841D01*
Y8365D01*
X9801D01*
X9901D02*
Y8405D01*
X9941D01*
Y8365D01*
X9901D01*
X10001D02*
Y8405D01*
X10041D01*
Y8365D01*
X10001D01*
X10301D02*
Y8405D01*
X10341D01*
Y8365D01*
X10301D01*
X10401D02*
Y8405D01*
X10441D01*
Y8365D01*
X10401D01*
X10501D02*
Y8405D01*
X10541D01*
Y8365D01*
X10501D01*
X10601D02*
Y8405D01*
X10641D01*
Y8365D01*
X10601D01*
X10701D02*
Y8405D01*
X10741D01*
Y8365D01*
X10701D01*
X10801D02*
Y8405D01*
X10841D01*
Y8365D01*
X10801D01*
X10901D02*
Y8405D01*
X10941D01*
Y8365D01*
X10901D01*
X11001D02*
Y8405D01*
X11041D01*
Y8365D01*
X11001D01*
X11101D02*
Y8405D01*
X11141D01*
Y8365D01*
X11101D01*
X11201D02*
Y8405D01*
X11241D01*
Y8365D01*
X11201D01*
X11301D02*
Y8405D01*
X11341D01*
Y8365D01*
X11301D01*
X11401D02*
Y8405D01*
X11441D01*
Y8365D01*
X11401D01*
X11501D02*
Y8405D01*
X11541D01*
Y8365D01*
X11501D01*
X11601D02*
Y8405D01*
X11641D01*
Y8365D01*
X11601D01*
X11701D02*
Y8405D01*
X11741D01*
Y8365D01*
X11701D01*
X11801D02*
Y8405D01*
X11841D01*
Y8365D01*
X11801D01*
X11901D02*
Y8405D01*
X11941D01*
Y8365D01*
X11901D01*
X8251Y8465D02*
Y8505D01*
X8291D01*
Y8465D01*
X8251D01*
X8451D02*
Y8505D01*
X8491D01*
Y8465D01*
X8451D01*
X8551D02*
Y8505D01*
X8591D01*
Y8465D01*
X8551D01*
X8651D02*
Y8505D01*
X8691D01*
Y8465D01*
X8651D01*
X8751D02*
Y8505D01*
X8791D01*
Y8465D01*
X8751D01*
X8851D02*
Y8505D01*
X8891D01*
Y8465D01*
X8851D01*
X8951D02*
Y8505D01*
X8991D01*
Y8465D01*
X8951D01*
X9051D02*
Y8505D01*
X9091D01*
Y8465D01*
X9051D01*
X9151D02*
Y8505D01*
X9191D01*
Y8465D01*
X9151D01*
X9251D02*
Y8505D01*
X9291D01*
Y8465D01*
X9251D01*
X9351D02*
Y8505D01*
X9391D01*
Y8465D01*
X9351D01*
X9451D02*
Y8505D01*
X9491D01*
Y8465D01*
X9451D01*
X9551D02*
Y8505D01*
X9591D01*
Y8465D01*
X9551D01*
X9651D02*
Y8505D01*
X9691D01*
Y8465D01*
X9651D01*
X9751D02*
Y8505D01*
X9791D01*
Y8465D01*
X9751D01*
X9851D02*
Y8505D01*
X9891D01*
Y8465D01*
X9851D01*
X9951D02*
Y8505D01*
X9991D01*
Y8465D01*
X9951D01*
X10251D02*
Y8505D01*
X10291D01*
Y8465D01*
X10251D01*
X10351D02*
Y8505D01*
X10391D01*
Y8465D01*
X10351D01*
X10451D02*
Y8505D01*
X10491D01*
Y8465D01*
X10451D01*
X10551D02*
Y8505D01*
X10591D01*
Y8465D01*
X10551D01*
X10651D02*
Y8505D01*
X10691D01*
Y8465D01*
X10651D01*
X10751D02*
Y8505D01*
X10791D01*
Y8465D01*
X10751D01*
X10851D02*
Y8505D01*
X10891D01*
Y8465D01*
X10851D01*
X10951D02*
Y8505D01*
X10991D01*
Y8465D01*
X10951D01*
X11051D02*
Y8505D01*
X11091D01*
Y8465D01*
X11051D01*
X11151D02*
Y8505D01*
X11191D01*
Y8465D01*
X11151D01*
X11251D02*
Y8505D01*
X11291D01*
Y8465D01*
X11251D01*
X11351D02*
Y8505D01*
X11391D01*
Y8465D01*
X11351D01*
X11451D02*
Y8505D01*
X11491D01*
Y8465D01*
X11451D01*
X11551D02*
Y8505D01*
X11591D01*
Y8465D01*
X11551D01*
X11651D02*
Y8505D01*
X11691D01*
Y8465D01*
X11651D01*
X11751D02*
Y8505D01*
X11791D01*
Y8465D01*
X11751D01*
X11851D02*
Y8505D01*
X11891D01*
Y8465D01*
X11851D01*
X11951D02*
Y8505D01*
X11991D01*
Y8465D01*
X11951D01*
X12001Y8405D02*
Y8365D01*
Y8405D02*
X12041D01*
Y8365D01*
X12001D01*
X8351Y8465D02*
Y8505D01*
X8391D01*
Y8465D01*
X8351D01*
X8088Y8769D02*
Y8809D01*
X8128D01*
Y8769D01*
X8088D01*
Y8709D02*
Y8669D01*
Y8709D02*
X8128D01*
Y8669D01*
X8088D01*
X8288Y8769D02*
Y8809D01*
X8328D01*
Y8769D01*
X8288D01*
Y8709D02*
Y8669D01*
Y8709D02*
X8328D01*
Y8669D01*
X8288D01*
X8188D02*
Y8709D01*
X8228D01*
Y8669D01*
X8188D01*
Y8769D02*
Y8809D01*
X8228D01*
Y8769D01*
X8188D01*
X8914Y7314D02*
X8914Y7311D01*
X8913Y7308D01*
X8912Y7305D01*
X8910Y7302D01*
X8908Y7300D01*
X8905Y7298D01*
X8903Y7296D01*
X8900Y7295D01*
X8896Y7294D01*
X8893Y7294D01*
X8890Y7294D01*
X8887Y7295D01*
X8884Y7297D01*
X8881Y7299D01*
X8879Y7301D01*
X8877Y7303D01*
X8876Y7306D01*
X8875Y7309D01*
X8874Y7312D01*
Y7316D01*
X8875Y7319D01*
X8876Y7322D01*
X8877Y7325D01*
X8879Y7327D01*
X8881Y7329D01*
X8884Y7331D01*
X8887Y7333D01*
X8890Y7334D01*
X8893Y7334D01*
X8896Y7334D01*
X8900Y7333D01*
X8903Y7332D01*
X8905Y7330D01*
X8908Y7328D01*
X8910Y7326D01*
X8912Y7323D01*
X8913Y7320D01*
X8914Y7317D01*
X8914Y7314D01*
X8972Y7395D02*
X8972Y7392D01*
X8971Y7389D01*
X8970Y7386D01*
X8968Y7383D01*
X8966Y7381D01*
X8963Y7379D01*
X8961Y7377D01*
X8958Y7376D01*
X8954Y7375D01*
X8951Y7375D01*
X8948Y7375D01*
X8945Y7376D01*
X8942Y7378D01*
X8939Y7380D01*
X8937Y7382D01*
X8935Y7384D01*
X8934Y7387D01*
X8933Y7390D01*
X8932Y7393D01*
Y7397D01*
X8933Y7400D01*
X8934Y7403D01*
X8935Y7406D01*
X8937Y7408D01*
X8939Y7410D01*
X8942Y7412D01*
X8945Y7414D01*
X8948Y7415D01*
X8951Y7415D01*
X8954Y7415D01*
X8958Y7414D01*
X8961Y7413D01*
X8963Y7411D01*
X8966Y7409D01*
X8968Y7407D01*
X8970Y7404D01*
X8971Y7401D01*
X8972Y7398D01*
X8972Y7395D01*
X9226Y7270D02*
X9226Y7267D01*
X9225Y7264D01*
X9224Y7261D01*
X9222Y7258D01*
X9220Y7256D01*
X9217Y7254D01*
X9215Y7252D01*
X9212Y7251D01*
X9208Y7250D01*
X9205Y7250D01*
X9202Y7250D01*
X9199Y7251D01*
X9196Y7253D01*
X9193Y7255D01*
X9191Y7257D01*
X9189Y7259D01*
X9188Y7262D01*
X9187Y7265D01*
X9186Y7268D01*
Y7272D01*
X9187Y7275D01*
X9188Y7278D01*
X9189Y7281D01*
X9191Y7283D01*
X9193Y7285D01*
X9196Y7287D01*
X9199Y7289D01*
X9202Y7290D01*
X9205Y7290D01*
X9208Y7290D01*
X9212Y7289D01*
X9215Y7288D01*
X9217Y7286D01*
X9220Y7284D01*
X9222Y7282D01*
X9224Y7279D01*
X9225Y7276D01*
X9226Y7273D01*
X9226Y7270D01*
X9014Y7272D02*
X9014Y7269D01*
X9013Y7266D01*
X9012Y7263D01*
X9010Y7260D01*
X9008Y7257D01*
X9005Y7255D01*
X9003Y7254D01*
X9000Y7253D01*
X8997Y7252D01*
X8993Y7252D01*
X8990Y7252D01*
X8987Y7253D01*
X8984Y7255D01*
X8981Y7256D01*
X8979Y7259D01*
X8977Y7261D01*
X8976Y7264D01*
X8975Y7267D01*
X8974Y7270D01*
Y7274D01*
X8975Y7277D01*
X8976Y7280D01*
X8977Y7283D01*
X8979Y7285D01*
X8981Y7287D01*
X8984Y7289D01*
X8987Y7291D01*
X8990Y7291D01*
X8993Y7292D01*
X8997Y7292D01*
X9000Y7291D01*
X9003Y7290D01*
X9005Y7288D01*
X9008Y7286D01*
X9010Y7284D01*
X9012Y7281D01*
X9013Y7278D01*
X9014Y7275D01*
X9014Y7272D01*
X9931Y8238D02*
X9931Y8235D01*
X9930Y8232D01*
X9929Y8229D01*
X9927Y8226D01*
X9925Y8224D01*
X9922Y8222D01*
X9920Y8220D01*
X9917Y8219D01*
X9913Y8218D01*
X9910Y8218D01*
X9907Y8218D01*
X9904Y8219D01*
X9901Y8221D01*
X9898Y8223D01*
X9896Y8225D01*
X9894Y8227D01*
X9893Y8230D01*
X9892Y8233D01*
X9891Y8236D01*
Y8240D01*
X9892Y8243D01*
X9893Y8246D01*
X9894Y8249D01*
X9896Y8251D01*
X9898Y8253D01*
X9901Y8255D01*
X9904Y8257D01*
X9907Y8258D01*
X9910Y8258D01*
X9913Y8258D01*
X9917Y8257D01*
X9920Y8256D01*
X9922Y8254D01*
X9925Y8252D01*
X9927Y8250D01*
X9929Y8247D01*
X9930Y8244D01*
X9931Y8241D01*
X9931Y8238D01*
X11560Y8614D02*
X11560Y8611D01*
X11559Y8608D01*
X11558Y8605D01*
X11556Y8602D01*
X11554Y8600D01*
X11551Y8598D01*
X11549Y8596D01*
X11546Y8595D01*
X11542Y8594D01*
X11539Y8594D01*
X11536Y8594D01*
X11533Y8595D01*
X11530Y8597D01*
X11527Y8599D01*
X11525Y8601D01*
X11523Y8603D01*
X11522Y8606D01*
X11521Y8609D01*
X11520Y8612D01*
Y8616D01*
X11521Y8619D01*
X11522Y8622D01*
X11523Y8625D01*
X11525Y8627D01*
X11527Y8629D01*
X11530Y8631D01*
X11533Y8633D01*
X11536Y8634D01*
X11539Y8634D01*
X11542Y8634D01*
X11546Y8633D01*
X11549Y8632D01*
X11551Y8630D01*
X11554Y8628D01*
X11556Y8626D01*
X11558Y8623D01*
X11559Y8620D01*
X11560Y8617D01*
X11560Y8614D01*
X11136Y7905D02*
X11136Y7902D01*
X11135Y7899D01*
X11134Y7896D01*
X11132Y7893D01*
X11130Y7891D01*
X11127Y7889D01*
X11125Y7887D01*
X11122Y7886D01*
X11118Y7885D01*
X11115Y7885D01*
X11112Y7885D01*
X11109Y7886D01*
X11106Y7888D01*
X11103Y7890D01*
X11101Y7892D01*
X11099Y7894D01*
X11098Y7897D01*
X11097Y7900D01*
X11096Y7903D01*
Y7907D01*
X11097Y7910D01*
X11098Y7913D01*
X11099Y7916D01*
X11101Y7918D01*
X11103Y7920D01*
X11106Y7922D01*
X11109Y7924D01*
X11112Y7925D01*
X11115Y7925D01*
X11118Y7925D01*
X11122Y7924D01*
X11125Y7923D01*
X11127Y7921D01*
X11130Y7919D01*
X11132Y7917D01*
X11134Y7914D01*
X11135Y7911D01*
X11136Y7908D01*
X11136Y7905D01*
X11091Y8180D02*
X11091Y8177D01*
X11090Y8174D01*
X11089Y8171D01*
X11087Y8168D01*
X11085Y8166D01*
X11082Y8164D01*
X11080Y8162D01*
X11077Y8161D01*
X11073Y8160D01*
X11070Y8160D01*
X11067Y8160D01*
X11064Y8161D01*
X11061Y8163D01*
X11058Y8165D01*
X11056Y8167D01*
X11054Y8169D01*
X11053Y8172D01*
X11052Y8175D01*
X11051Y8178D01*
Y8182D01*
X11052Y8185D01*
X11053Y8188D01*
X11054Y8191D01*
X11056Y8193D01*
X11058Y8195D01*
X11061Y8197D01*
X11064Y8199D01*
X11067Y8200D01*
X11070Y8200D01*
X11073Y8200D01*
X11077Y8199D01*
X11080Y8198D01*
X11082Y8196D01*
X11085Y8194D01*
X11087Y8192D01*
X11089Y8189D01*
X11090Y8186D01*
X11091Y8183D01*
X11091Y8180D01*
X9542Y7798D02*
X9542Y7795D01*
X9541Y7792D01*
X9540Y7789D01*
X9538Y7786D01*
X9536Y7784D01*
X9534Y7782D01*
X9531Y7780D01*
X9528Y7779D01*
X9525Y7778D01*
X9522Y7778D01*
X9518Y7779D01*
X9515Y7780D01*
X9512Y7781D01*
X9510Y7783D01*
X9507Y7785D01*
X9505Y7788D01*
X9504Y7790D01*
X9503Y7794D01*
X9502Y7797D01*
Y7800D01*
X9503Y7803D01*
X9504Y7806D01*
X9505Y7809D01*
X9507Y7812D01*
X9510Y7814D01*
X9512Y7816D01*
X9515Y7817D01*
X9518Y7818D01*
X9522Y7818D01*
X9525Y7818D01*
X9528Y7818D01*
X9531Y7816D01*
X9534Y7815D01*
X9536Y7813D01*
X9538Y7810D01*
X9540Y7808D01*
X9541Y7805D01*
X9542Y7802D01*
X9542Y7798D01*
X9060Y7134D02*
X9060Y7131D01*
X9059Y7128D01*
X9058Y7125D01*
X9056Y7122D01*
X9054Y7120D01*
X9051Y7118D01*
X9049Y7116D01*
X9046Y7115D01*
X9042Y7114D01*
X9039Y7114D01*
X9036Y7114D01*
X9033Y7115D01*
X9030Y7117D01*
X9027Y7119D01*
X9025Y7121D01*
X9023Y7123D01*
X9022Y7126D01*
X9021Y7129D01*
X9020Y7132D01*
Y7136D01*
X9021Y7139D01*
X9022Y7142D01*
X9023Y7145D01*
X9025Y7147D01*
X9027Y7149D01*
X9030Y7151D01*
X9033Y7153D01*
X9036Y7154D01*
X9039Y7154D01*
X9042Y7154D01*
X9046Y7153D01*
X9049Y7152D01*
X9051Y7150D01*
X9054Y7148D01*
X9056Y7146D01*
X9058Y7143D01*
X9059Y7140D01*
X9060Y7137D01*
X9060Y7134D01*
X12145Y8215D02*
X12145Y8212D01*
X12144Y8208D01*
X12143Y8205D01*
X12141Y8203D01*
X12139Y8200D01*
X12136Y8198D01*
X12134Y8197D01*
X12131Y8196D01*
X12127Y8195D01*
X12124Y8195D01*
X12121Y8195D01*
X12118Y8196D01*
X12115Y8197D01*
X12112Y8199D01*
X12110Y8201D01*
X12108Y8204D01*
X12107Y8207D01*
X12106Y8210D01*
X12105Y8213D01*
Y8216D01*
X12106Y8220D01*
X12107Y8223D01*
X12108Y8225D01*
X12110Y8228D01*
X12112Y8230D01*
X12115Y8232D01*
X12118Y8233D01*
X12121Y8234D01*
X12124Y8235D01*
X12127Y8235D01*
X12131Y8234D01*
X12134Y8233D01*
X12136Y8231D01*
X12139Y8229D01*
X12141Y8227D01*
X12143Y8224D01*
X12144Y8221D01*
X12145Y8218D01*
X12145Y8215D01*
X12225Y7626D02*
X12225Y7623D01*
X12224Y7620D01*
X12223Y7617D01*
X12221Y7614D01*
X12219Y7612D01*
X12216Y7610D01*
X12214Y7608D01*
X12211Y7607D01*
X12207Y7606D01*
X12204Y7606D01*
X12201Y7606D01*
X12198Y7607D01*
X12195Y7609D01*
X12192Y7611D01*
X12190Y7613D01*
X12188Y7615D01*
X12187Y7618D01*
X12186Y7621D01*
X12185Y7624D01*
Y7628D01*
X12186Y7631D01*
X12187Y7634D01*
X12188Y7637D01*
X12190Y7639D01*
X12192Y7641D01*
X12195Y7643D01*
X12198Y7645D01*
X12201Y7646D01*
X12204Y7646D01*
X12207Y7646D01*
X12211Y7645D01*
X12214Y7644D01*
X12216Y7642D01*
X12219Y7640D01*
X12221Y7638D01*
X12223Y7635D01*
X12224Y7632D01*
X12225Y7629D01*
X12225Y7626D01*
X8580Y7874D02*
X8580Y7871D01*
X8579Y7868D01*
X8578Y7865D01*
X8576Y7862D01*
X8574Y7860D01*
X8571Y7858D01*
X8569Y7856D01*
X8566Y7855D01*
X8562Y7854D01*
X8559Y7854D01*
X8556Y7854D01*
X8553Y7855D01*
X8550Y7857D01*
X8547Y7859D01*
X8545Y7861D01*
X8543Y7863D01*
X8542Y7866D01*
X8541Y7869D01*
X8540Y7872D01*
Y7876D01*
X8541Y7879D01*
X8542Y7882D01*
X8543Y7885D01*
X8545Y7887D01*
X8547Y7889D01*
X8550Y7891D01*
X8553Y7893D01*
X8556Y7894D01*
X8559Y7894D01*
X8562Y7894D01*
X8566Y7893D01*
X8569Y7892D01*
X8571Y7890D01*
X8574Y7888D01*
X8576Y7886D01*
X8578Y7883D01*
X8579Y7880D01*
X8580Y7877D01*
X8580Y7874D01*
Y7594D02*
X8580Y7591D01*
X8579Y7588D01*
X8578Y7585D01*
X8576Y7582D01*
X8574Y7580D01*
X8571Y7578D01*
X8569Y7576D01*
X8566Y7575D01*
X8562Y7574D01*
X8559Y7574D01*
X8556Y7574D01*
X8553Y7575D01*
X8550Y7577D01*
X8547Y7579D01*
X8545Y7581D01*
X8543Y7583D01*
X8542Y7586D01*
X8541Y7589D01*
X8540Y7592D01*
Y7596D01*
X8541Y7599D01*
X8542Y7602D01*
X8543Y7605D01*
X8545Y7607D01*
X8547Y7609D01*
X8550Y7611D01*
X8553Y7613D01*
X8556Y7614D01*
X8559Y7614D01*
X8562Y7614D01*
X8566Y7613D01*
X8569Y7612D01*
X8571Y7610D01*
X8574Y7608D01*
X8576Y7606D01*
X8578Y7603D01*
X8579Y7600D01*
X8580Y7597D01*
X8580Y7594D01*
X8580Y7591D01*
X8579Y7588D01*
X8578Y7585D01*
X8576Y7582D01*
X8574Y7580D01*
X8571Y7578D01*
X8569Y7576D01*
X8566Y7575D01*
X8562Y7574D01*
X8559Y7574D01*
X8556Y7574D01*
X8553Y7575D01*
X8550Y7577D01*
X8547Y7579D01*
X8545Y7581D01*
X8543Y7583D01*
X8542Y7586D01*
X8541Y7589D01*
X8540Y7592D01*
Y7596D01*
X8541Y7599D01*
X8542Y7602D01*
X8543Y7605D01*
X8545Y7607D01*
X8547Y7609D01*
X8550Y7611D01*
X8553Y7613D01*
X8556Y7614D01*
X8559Y7614D01*
X8562Y7614D01*
X8566Y7613D01*
X8569Y7612D01*
X8571Y7610D01*
X8574Y7608D01*
X8576Y7606D01*
X8578Y7603D01*
X8579Y7600D01*
X8580Y7597D01*
X8580Y7594D01*
X8580Y7591D01*
X8579Y7588D01*
X8578Y7585D01*
X8576Y7582D01*
X8574Y7580D01*
X8571Y7578D01*
X8569Y7576D01*
X8566Y7575D01*
X8562Y7574D01*
X8559Y7574D01*
X8556Y7574D01*
X8553Y7575D01*
X8550Y7577D01*
X8547Y7579D01*
X8545Y7581D01*
X8543Y7583D01*
X8542Y7586D01*
X8541Y7589D01*
X8540Y7592D01*
Y7596D01*
X8541Y7599D01*
X8542Y7602D01*
X8543Y7605D01*
X8545Y7607D01*
X8547Y7609D01*
X8550Y7611D01*
X8553Y7613D01*
X8556Y7614D01*
X8559Y7614D01*
X8562Y7614D01*
X8566Y7613D01*
X8569Y7612D01*
X8571Y7610D01*
X8574Y7608D01*
X8576Y7606D01*
X8578Y7603D01*
X8579Y7600D01*
X8580Y7597D01*
X8580Y7594D01*
X8096Y7774D02*
X8096Y7771D01*
X8095Y7768D01*
X8094Y7765D01*
X8092Y7762D01*
X8090Y7760D01*
X8087Y7758D01*
X8085Y7756D01*
X8082Y7755D01*
X8078Y7754D01*
X8075Y7754D01*
X8072Y7754D01*
X8069Y7755D01*
X8066Y7757D01*
X8063Y7759D01*
X8061Y7761D01*
X8059Y7763D01*
X8058Y7766D01*
X8057Y7769D01*
X8056Y7772D01*
Y7776D01*
X8057Y7779D01*
X8058Y7782D01*
X8059Y7785D01*
X8061Y7787D01*
X8063Y7789D01*
X8066Y7791D01*
X8069Y7793D01*
X8072Y7794D01*
X8075Y7794D01*
X8078Y7794D01*
X8082Y7793D01*
X8085Y7792D01*
X8087Y7790D01*
X8090Y7788D01*
X8092Y7786D01*
X8094Y7783D01*
X8095Y7780D01*
X8096Y7777D01*
X8096Y7774D01*
X10590Y8642D02*
X10590Y8639D01*
X10589Y8636D01*
X10588Y8633D01*
X10586Y8630D01*
X10584Y8628D01*
X10581Y8626D01*
X10579Y8624D01*
X10576Y8623D01*
X10572Y8622D01*
X10569Y8622D01*
X10566Y8622D01*
X10563Y8623D01*
X10560Y8625D01*
X10557Y8627D01*
X10555Y8629D01*
X10553Y8631D01*
X10552Y8634D01*
X10551Y8637D01*
X10550Y8640D01*
Y8644D01*
X10551Y8647D01*
X10552Y8650D01*
X10553Y8653D01*
X10555Y8655D01*
X10557Y8657D01*
X10560Y8659D01*
X10563Y8661D01*
X10566Y8662D01*
X10569Y8662D01*
X10572Y8662D01*
X10576Y8661D01*
X10579Y8660D01*
X10581Y8658D01*
X10584Y8656D01*
X10586Y8654D01*
X10588Y8651D01*
X10589Y8648D01*
X10590Y8645D01*
X10590Y8642D01*
X8190Y8124D02*
X8190Y8121D01*
X8189Y8117D01*
X8188Y8115D01*
X8186Y8112D01*
X8184Y8109D01*
X8181Y8107D01*
X8178Y8106D01*
X8175Y8105D01*
X8172Y8104D01*
X8169Y8104D01*
X8166Y8104D01*
X8163Y8105D01*
X8160Y8106D01*
X8157Y8108D01*
X8155Y8111D01*
X8153Y8113D01*
X8151Y8116D01*
X8150Y8119D01*
X8150Y8122D01*
Y8125D01*
X8150Y8129D01*
X8151Y8132D01*
X8153Y8134D01*
X8155Y8137D01*
X8157Y8139D01*
X8160Y8141D01*
X8163Y8142D01*
X8166Y8143D01*
X8169Y8144D01*
X8172Y8144D01*
X8175Y8143D01*
X8178Y8142D01*
X8181Y8140D01*
X8184Y8138D01*
X8186Y8136D01*
X8188Y8133D01*
X8189Y8130D01*
X8190Y8127D01*
X8190Y8124D01*
X8280D02*
X8280Y8121D01*
X8279Y8117D01*
X8278Y8115D01*
X8276Y8112D01*
X8274Y8109D01*
X8271Y8107D01*
X8268Y8106D01*
X8265Y8105D01*
X8262Y8104D01*
X8259Y8104D01*
X8256Y8104D01*
X8253Y8105D01*
X8250Y8106D01*
X8247Y8108D01*
X8245Y8111D01*
X8243Y8113D01*
X8241Y8116D01*
X8240Y8119D01*
X8240Y8122D01*
Y8125D01*
X8240Y8129D01*
X8241Y8132D01*
X8243Y8134D01*
X8245Y8137D01*
X8247Y8139D01*
X8250Y8141D01*
X8253Y8142D01*
X8256Y8143D01*
X8259Y8144D01*
X8262Y8144D01*
X8265Y8143D01*
X8268Y8142D01*
X8271Y8140D01*
X8274Y8138D01*
X8276Y8136D01*
X8278Y8133D01*
X8279Y8130D01*
X8280Y8127D01*
X8280Y8124D01*
D02*
M02*
