*%FSLAX21Y21*%
*%MOIN*%
G01*
D13*
X8656Y7615D02*
Y8200D01*
Y7615D02*
X9496Y7616D01*
Y8205D01*
Y8225D01*
X8656D01*
Y8200D01*
Y8115D02*
X9496D01*
Y8005D02*
X8656D01*
Y7865D02*
X9496D01*
Y7725D02*
X8656D01*
X9496Y8225D02*
X10221D01*
Y7615D01*
X9496Y7616D01*
Y8115D02*
X10221D01*
Y8005D02*
X9496D01*
Y7865D02*
X10221D01*
Y7725D02*
X9496D01*
X9242Y7619D02*
Y8225D01*
Y7619D02*
X9246Y7615D01*
X8996Y7620D02*
Y8225D01*
X9586Y7932D02*
X9619D01*
X9586D02*
X9619Y7965D01*
Y7974D01*
X9611Y7982D01*
X9594D01*
X9586Y7974D01*
X9636Y7982D02*
Y7932D01*
Y7949D02*
X9661Y7965D01*
X9636Y7949D02*
X9661Y7932D01*
X9736D02*
Y7982D01*
X9761D01*
X9769Y7974D01*
Y7957D01*
X9761Y7949D01*
X9736D01*
X9753D02*
X9769Y7932D01*
X9794D02*
X9811D01*
X9794D02*
X9786Y7940D01*
Y7957D01*
X9794Y7965D01*
X9811D01*
X9819Y7957D01*
Y7949D01*
X9786D01*
X9844Y7932D02*
Y7974D01*
Y7957D01*
X9836D01*
X9853D01*
X9844D01*
Y7974D01*
X9853Y7982D01*
X9878Y7965D02*
Y7932D01*
Y7949D01*
X9886Y7957D01*
X9894Y7965D01*
X9903D01*
X9936Y7932D02*
X9953D01*
X9936D02*
X9928Y7940D01*
Y7957D01*
X9936Y7965D01*
X9953D01*
X9961Y7957D01*
Y7949D01*
X9928D01*
X9978Y7932D02*
X10003D01*
X10011Y7940D01*
X10003Y7949D01*
X9986D01*
X9978Y7957D01*
X9986Y7965D01*
X10011D01*
X10028Y7982D02*
Y7932D01*
Y7957D01*
X10036Y7965D01*
X10053D01*
X10061Y7957D01*
Y7932D01*
X9584Y8044D02*
Y8094D01*
Y8044D02*
X9609D01*
X9617Y8052D01*
Y8086D01*
X9609Y8094D01*
X9584D01*
X9642Y8044D02*
X9659D01*
X9667Y8052D01*
Y8069D01*
X9659Y8077D01*
X9642D01*
X9634Y8069D01*
Y8052D01*
X9642Y8044D01*
X9684Y8052D02*
Y8077D01*
Y8052D02*
X9692Y8044D01*
X9717D01*
Y8077D01*
X9734Y8094D02*
Y8044D01*
X9759D01*
X9767Y8052D01*
Y8061D01*
Y8069D01*
X9759Y8077D01*
X9734D01*
X9784Y8044D02*
X9801D01*
X9792D01*
Y8094D01*
X9784D01*
X9834Y8044D02*
X9851D01*
X9834D02*
X9826Y8052D01*
Y8069D01*
X9834Y8077D01*
X9851D01*
X9859Y8069D01*
Y8061D01*
X9826D01*
X9951Y8094D02*
X9959Y8086D01*
X9951Y8094D02*
X9934D01*
X9926Y8086D01*
Y8077D01*
X9934Y8069D01*
X9951D01*
X9959Y8061D01*
Y8052D01*
X9951Y8044D01*
X9934D01*
X9926Y8052D01*
X9976Y8044D02*
X9992D01*
X9984D01*
Y8077D01*
X9976D01*
X9984Y8094D02*
X9985D01*
X10051D02*
Y8044D01*
X10026D01*
X10017Y8052D01*
Y8069D01*
X10026Y8077D01*
X10051D01*
X10076Y8044D02*
X10092D01*
X10076D02*
X10067Y8052D01*
Y8069D01*
X10076Y8077D01*
X10092D01*
X10100Y8069D01*
Y8061D01*
X10067D01*
X10150Y8044D02*
Y8094D01*
Y8044D02*
X10125D01*
X10117Y8052D01*
Y8069D01*
X10125Y8077D01*
X10150D01*
X9335Y7261D02*
X9330Y7256D01*
X9324Y7247D01*
X9318Y7236D01*
X9315Y7221D01*
Y7210D01*
X9318Y7196D01*
X9324Y7184D01*
X9330Y7176D01*
X9335Y7170D01*
X9324Y7244D02*
X9330Y7256D01*
X9324Y7244D02*
X9321Y7236D01*
X9318Y7221D01*
Y7210D01*
X9321Y7196D01*
X9324Y7187D01*
X9330Y7176D01*
X9378Y7219D02*
X9381Y7221D01*
X9378Y7219D02*
X9381Y7216D01*
X9383Y7219D01*
Y7221D01*
X9378Y7227D01*
X9372Y7230D01*
X9363D01*
X9355Y7227D01*
X9349Y7221D01*
X9346Y7213D01*
Y7207D01*
X9349Y7199D01*
X9355Y7193D01*
X9363Y7190D01*
X9369D01*
X9378Y7193D01*
X9383Y7199D01*
X9363Y7230D02*
X9358Y7227D01*
X9352Y7221D01*
X9349Y7213D01*
Y7207D01*
X9352Y7199D01*
X9358Y7193D01*
X9363Y7190D01*
X9398Y7256D02*
X9393Y7261D01*
X9398Y7256D02*
X9404Y7247D01*
X9410Y7236D01*
X9413Y7221D01*
Y7210D01*
X9410Y7196D01*
X9404Y7184D01*
X9398Y7176D01*
X9393Y7170D01*
X9404Y7244D02*
X9398Y7256D01*
X9404Y7244D02*
X9407Y7236D01*
X9410Y7221D01*
Y7210D01*
X9407Y7196D01*
X9404Y7187D01*
X9398Y7176D01*
X9423Y7239D02*
X9429Y7241D01*
X9438Y7250D01*
Y7190D01*
X9435D02*
Y7247D01*
X9423Y7190D02*
X9449D01*
X9494Y7221D02*
X9497Y7230D01*
X9494Y7221D02*
X9488Y7216D01*
X9479Y7213D01*
X9477D01*
X9468Y7216D01*
X9462Y7221D01*
X9459Y7230D01*
Y7233D01*
X9462Y7241D01*
X9468Y7247D01*
X9477Y7250D01*
X9482D01*
X9491Y7247D01*
X9497Y7241D01*
X9499Y7233D01*
Y7216D01*
X9497Y7204D01*
X9494Y7199D01*
X9488Y7193D01*
X9479Y7190D01*
X9471D01*
X9465Y7193D01*
X9462Y7199D01*
Y7201D01*
X9465Y7204D01*
X9468Y7201D01*
X9465Y7199D01*
X9471Y7216D02*
X9477Y7213D01*
X9471Y7216D02*
X9465Y7221D01*
X9462Y7230D01*
Y7233D01*
X9465Y7241D01*
X9471Y7247D01*
X9477Y7250D01*
X9482D02*
X9488Y7247D01*
X9494Y7241D01*
X9497Y7233D01*
Y7216D01*
X9494Y7204D01*
X9491Y7199D01*
X9485Y7193D01*
X9479Y7190D01*
X9543Y7221D02*
X9545Y7230D01*
X9543Y7221D02*
X9537Y7216D01*
X9528Y7213D01*
X9525D01*
X9517Y7216D01*
X9511Y7221D01*
X9508Y7230D01*
Y7233D01*
X9511Y7241D01*
X9517Y7247D01*
X9525Y7250D01*
X9531D01*
X9540Y7247D01*
X9545Y7241D01*
X9548Y7233D01*
Y7216D01*
X9545Y7204D01*
X9543Y7199D01*
X9537Y7193D01*
X9528Y7190D01*
X9520D01*
X9514Y7193D01*
X9511Y7199D01*
Y7201D01*
X9514Y7204D01*
X9517Y7201D01*
X9514Y7199D01*
X9520Y7216D02*
X9525Y7213D01*
X9520Y7216D02*
X9514Y7221D01*
X9511Y7230D01*
Y7233D01*
X9514Y7241D01*
X9520Y7247D01*
X9525Y7250D01*
X9531D02*
X9537Y7247D01*
X9543Y7241D01*
X9545Y7233D01*
Y7216D01*
X9543Y7204D01*
X9540Y7199D01*
X9534Y7193D01*
X9528Y7190D01*
X9563Y7247D02*
X9571Y7250D01*
X9563Y7247D02*
X9560Y7241D01*
Y7233D01*
X9563Y7227D01*
X9571Y7224D01*
X9583D01*
X9591Y7227D01*
X9594Y7233D01*
Y7241D01*
X9591Y7247D01*
X9583Y7250D01*
X9571D01*
X9566Y7247D01*
X9563Y7241D01*
Y7233D01*
X9566Y7227D01*
X9571Y7224D01*
X9583D02*
X9589Y7227D01*
X9591Y7233D01*
Y7241D01*
X9589Y7247D01*
X9583Y7250D01*
X9571Y7224D02*
X9563Y7221D01*
X9560Y7219D01*
X9557Y7213D01*
Y7201D01*
X9560Y7196D01*
X9563Y7193D01*
X9571Y7190D01*
X9583D01*
X9591Y7193D01*
X9594Y7196D01*
X9597Y7201D01*
Y7213D01*
X9594Y7219D01*
X9591Y7221D01*
X9583Y7224D01*
X9571D02*
X9566Y7221D01*
X9563Y7219D01*
X9560Y7213D01*
Y7201D01*
X9563Y7196D01*
X9566Y7193D01*
X9571Y7190D01*
X9583D02*
X9589Y7193D01*
X9591Y7196D01*
X9594Y7201D01*
Y7213D01*
X9591Y7219D01*
X9589Y7221D01*
X9583Y7224D01*
X9669Y7250D02*
Y7190D01*
X9671D02*
Y7250D01*
X9680D02*
X9660D01*
Y7190D02*
X9703D01*
Y7207D01*
X9700Y7190D01*
X9720Y7199D02*
Y7230D01*
Y7199D02*
X9723Y7193D01*
X9731Y7190D01*
X9737D01*
X9746Y7193D01*
X9751Y7199D01*
X9723D02*
Y7230D01*
Y7199D02*
X9726Y7193D01*
X9731Y7190D01*
X9751D02*
Y7230D01*
X9754D02*
Y7190D01*
X9723Y7230D02*
X9711D01*
X9743D02*
X9754D01*
X9751Y7190D02*
X9763D01*
X9802Y7219D02*
X9805Y7221D01*
X9802Y7219D02*
X9805Y7216D01*
X9808Y7219D01*
Y7221D01*
X9802Y7227D01*
X9796Y7230D01*
X9788D01*
X9779Y7227D01*
X9773Y7221D01*
X9771Y7213D01*
Y7207D01*
X9773Y7199D01*
X9779Y7193D01*
X9788Y7190D01*
X9793D01*
X9802Y7193D01*
X9808Y7199D01*
X9788Y7230D02*
X9782Y7227D01*
X9776Y7221D01*
X9773Y7213D01*
Y7207D01*
X9776Y7199D01*
X9782Y7193D01*
X9788Y7190D01*
X9825D02*
Y7250D01*
X9828D02*
Y7190D01*
Y7201D02*
X9857Y7230D01*
X9842Y7213D02*
X9860Y7190D01*
X9857D02*
X9840Y7213D01*
X9828Y7250D02*
X9817D01*
X9848Y7230D02*
X9865D01*
X9837Y7190D02*
X9817D01*
X9848D02*
X9865D01*
X9964Y7241D02*
X9967Y7250D01*
Y7233D01*
X9964Y7241D01*
X9959Y7247D01*
X9950Y7250D01*
X9942D01*
X9933Y7247D01*
X9927Y7241D01*
Y7236D01*
X9930Y7230D01*
X9933Y7227D01*
X9939Y7224D01*
X9956Y7219D01*
X9962Y7216D01*
X9967Y7210D01*
X9933Y7230D02*
X9927Y7236D01*
X9933Y7230D02*
X9939Y7227D01*
X9956Y7221D01*
X9962Y7219D01*
X9964Y7216D01*
X9967Y7210D01*
Y7199D01*
X9962Y7193D01*
X9953Y7190D01*
X9944D01*
X9936Y7193D01*
X9930Y7199D01*
X9927Y7207D01*
Y7190D01*
X9930Y7199D01*
X9990Y7193D02*
X9993Y7190D01*
X9990Y7193D02*
X9988Y7201D01*
Y7250D01*
X9985D01*
Y7201D01*
X9988Y7193D01*
X9993Y7190D01*
X9999D01*
X10005Y7193D01*
X10008Y7199D01*
X9999Y7230D02*
X9976D01*
X10023Y7224D02*
Y7221D01*
X10020D01*
Y7224D01*
X10023Y7227D01*
X10029Y7230D01*
X10040D01*
X10046Y7227D01*
X10049Y7224D01*
X10052Y7219D01*
Y7199D01*
X10054Y7193D01*
X10057Y7190D01*
X10049Y7199D02*
Y7224D01*
Y7199D02*
X10052Y7193D01*
X10057Y7190D01*
X10060D01*
X10046Y7216D02*
X10049Y7219D01*
X10046Y7216D02*
X10029Y7213D01*
X10020Y7210D01*
X10017Y7204D01*
Y7199D01*
X10020Y7193D01*
X10029Y7190D01*
X10037D01*
X10043Y7193D01*
X10049Y7199D01*
X10029Y7213D02*
X10023Y7210D01*
X10020Y7204D01*
Y7199D01*
X10023Y7193D01*
X10029Y7190D01*
X10077D02*
Y7230D01*
X10080D02*
Y7190D01*
Y7213D02*
X10083Y7221D01*
X10089Y7227D01*
X10094Y7230D01*
X10103D01*
X10106Y7227D01*
Y7224D01*
X10103Y7221D01*
X10100Y7224D01*
X10103Y7227D01*
X10080Y7230D02*
X10069D01*
Y7190D02*
X10089D01*
X10212Y7233D02*
X10209Y7241D01*
X10212Y7250D02*
Y7233D01*
X10209Y7241D02*
X10212Y7250D01*
X10209Y7241D02*
X10203Y7247D01*
X10195Y7250D01*
X10189D01*
X10180Y7247D01*
X10175Y7241D01*
X10172Y7236D01*
X10169Y7227D01*
Y7213D01*
X10172Y7204D01*
X10175Y7199D01*
X10180Y7193D01*
X10189Y7190D01*
X10195D01*
X10203Y7193D01*
X10209Y7199D01*
X10212Y7204D01*
X10189Y7250D02*
X10183Y7247D01*
X10178Y7241D01*
X10175Y7236D01*
X10172Y7227D01*
Y7213D01*
X10175Y7204D01*
X10178Y7199D01*
X10183Y7193D01*
X10189Y7190D01*
X10229Y7227D02*
X10238Y7230D01*
X10229Y7227D02*
X10223Y7221D01*
X10220Y7213D01*
Y7207D01*
X10223Y7199D01*
X10229Y7193D01*
X10238Y7190D01*
X10243D01*
X10252Y7193D01*
X10258Y7199D01*
X10260Y7207D01*
Y7213D01*
X10258Y7221D01*
X10252Y7227D01*
X10243Y7230D01*
X10238D01*
X10232Y7227D01*
X10226Y7221D01*
X10223Y7213D01*
Y7207D01*
X10226Y7199D01*
X10232Y7193D01*
X10238Y7190D01*
X10243D02*
X10249Y7193D01*
X10255Y7199D01*
X10258Y7207D01*
Y7213D01*
X10255Y7221D01*
X10249Y7227D01*
X10243Y7230D01*
X10269Y7193D02*
X10272Y7190D01*
X10269Y7193D02*
X10272Y7196D01*
X10275Y7193D01*
Y7187D01*
X10272Y7181D01*
X10269Y7179D01*
X10350Y7190D02*
Y7250D01*
X10353D02*
Y7190D01*
X10361Y7250D02*
X10341D01*
Y7190D02*
X10384D01*
Y7207D01*
X10381Y7190D01*
X10413D02*
Y7250D01*
X10416D02*
Y7190D01*
X10393Y7233D02*
X10396Y7250D01*
X10393D02*
Y7233D01*
Y7250D02*
X10436D01*
Y7233D01*
X10433Y7250D01*
X10424Y7190D02*
X10404D01*
X10453D02*
Y7250D01*
X10455D02*
Y7190D01*
X10444Y7250D02*
X10473D01*
X10481Y7247D01*
X10487Y7241D01*
X10490Y7236D01*
X10493Y7227D01*
Y7213D01*
X10490Y7204D01*
X10487Y7199D01*
X10481Y7193D01*
X10473Y7190D01*
X10444D01*
X10473Y7250D02*
X10478Y7247D01*
X10484Y7241D01*
X10487Y7236D01*
X10490Y7227D01*
Y7213D01*
X10487Y7204D01*
X10484Y7199D01*
X10478Y7193D01*
X10473Y7190D01*
X10501Y7193D02*
X10503Y7196D01*
X10501Y7193D02*
X10503Y7190D01*
X10506Y7193D01*
X10503Y7196D01*
X8731Y7919D02*
X8711D01*
X8721D02*
X8731D01*
X8721D02*
Y7979D01*
X8722D01*
X8721D02*
X8711Y7969D01*
X8781D02*
X8801Y7979D01*
X8781Y7969D02*
X8761Y7949D01*
Y7929D01*
X8771Y7919D01*
X8791D01*
X8801Y7929D01*
Y7939D01*
X8791Y7949D01*
X8761D01*
X8821Y7919D02*
Y7979D01*
X8841Y7959D01*
X8861Y7979D01*
Y7919D01*
X8881D02*
Y7979D01*
Y7919D02*
X8910D01*
X8920Y7929D01*
Y7939D01*
X8910Y7949D01*
X8881D01*
X8882D01*
X8881D02*
X8882D01*
X8881D02*
X8882D01*
X8881D02*
X8910D01*
X8920Y7959D01*
Y7969D01*
X8910Y7979D01*
X8881D01*
X8771Y8192D02*
X8761Y8202D01*
X8741D01*
X8731Y8192D01*
Y8182D01*
X8741Y8172D01*
X8761D01*
X8771Y8162D01*
Y8152D01*
X8761Y8142D01*
X8741D01*
X8731Y8152D01*
X8791Y8202D02*
X8811D01*
X8801D01*
Y8142D01*
X8791D01*
X8811D01*
X8841D02*
Y8202D01*
X8861Y8182D01*
X8881Y8202D01*
Y8142D01*
X8901D02*
Y8202D01*
X8921Y8182D01*
X8941Y8202D01*
Y8142D01*
X9048Y8194D02*
X9068D01*
X9058D02*
X9048D01*
X9058D02*
Y8144D01*
X9048Y8134D01*
X9038D01*
X9028Y8144D01*
X9088Y8134D02*
Y8194D01*
X9118D01*
X9128Y8184D01*
Y8164D01*
X9118Y8154D01*
X9088D01*
X9148Y8134D02*
X9168D01*
X9158D01*
Y8194D01*
X9159D01*
X9158D02*
X9148Y8184D01*
X9292Y8193D02*
X9312D01*
X9302D02*
X9292D01*
X9302D02*
Y8143D01*
X9292Y8133D01*
X9282D01*
X9272Y8143D01*
X9332Y8133D02*
Y8193D01*
X9362D01*
X9372Y8183D01*
Y8163D01*
X9362Y8153D01*
X9332D01*
X9392Y8133D02*
X9432D01*
X9392D02*
X9432Y8173D01*
Y8183D01*
X9422Y8193D01*
X9402D01*
X9392Y8183D01*
X8731Y7762D02*
X8711D01*
X8721D02*
X8731D01*
X8721D02*
Y7822D01*
X8722D01*
X8721D02*
X8711Y7812D01*
X8781D02*
X8801Y7822D01*
X8781Y7812D02*
X8761Y7792D01*
Y7772D01*
X8771Y7762D01*
X8791D01*
X8801Y7772D01*
Y7782D01*
X8791Y7792D01*
X8761D01*
X8821Y7762D02*
Y7822D01*
X8841Y7802D01*
X8861Y7822D01*
Y7762D01*
X8881D02*
Y7822D01*
Y7762D02*
X8911D01*
X8921Y7772D01*
Y7782D01*
X8911Y7792D01*
X8881D01*
X8882D01*
X8881D02*
X8882D01*
X8881D02*
X8882D01*
X8881D02*
X8911D01*
X8921Y7802D01*
Y7812D01*
X8911Y7822D01*
X8881D01*
X9032Y7917D02*
X9052D01*
X9042D01*
Y7977D01*
X9043D01*
X9042D02*
X9032Y7967D01*
X9082Y7947D02*
X9122D01*
X9142Y7917D02*
X9182D01*
X9142D02*
X9182Y7957D01*
Y7967D01*
X9172Y7977D01*
X9152D01*
X9142Y7967D01*
X9278Y7764D02*
X9298D01*
X9288D01*
Y7824D01*
X9289D01*
X9288D02*
X9278Y7814D01*
X9328Y7794D02*
X9368D01*
X9388Y7764D02*
X9428D01*
X9388D02*
X9428Y7804D01*
Y7814D01*
X9418Y7824D01*
X9398D01*
X9388Y7814D01*
X9051Y7764D02*
X9031D01*
X9041D02*
X9051D01*
X9041D02*
Y7824D01*
X9042D01*
X9041D02*
X9031Y7814D01*
X9081Y7794D02*
X9121D01*
X9141Y7764D02*
X9181D01*
X9141D02*
X9181Y7804D01*
Y7814D01*
X9171Y7824D01*
X9151D01*
X9141Y7814D01*
X9324Y7505D02*
Y7455D01*
X9343D02*
X9324Y7505D01*
X9362D02*
X9343Y7455D01*
X9362D02*
Y7505D01*
X9405Y7488D02*
Y7455D01*
Y7481D02*
X9400Y7486D01*
X9395Y7488D01*
X9388D01*
X9384Y7486D01*
X9379Y7481D01*
X9376Y7474D01*
Y7469D01*
X9379Y7462D01*
X9384Y7457D01*
X9388Y7455D01*
X9395D01*
X9400Y7457D01*
X9405Y7462D01*
X9447Y7455D02*
Y7505D01*
X9442Y7486D02*
X9447Y7481D01*
X9442Y7486D02*
X9437Y7488D01*
X9430D01*
X9425Y7486D01*
X9421Y7481D01*
X9418Y7474D01*
Y7469D01*
X9421Y7462D01*
X9425Y7457D01*
X9430Y7455D01*
X9437D01*
X9442Y7457D01*
X9447Y7462D01*
X9460Y7474D02*
X9489D01*
Y7479D01*
X9486Y7484D01*
X9484Y7486D01*
X9479Y7488D01*
X9472D01*
X9467Y7486D01*
X9463Y7481D01*
X9460Y7474D01*
Y7469D01*
X9463Y7462D01*
X9467Y7457D01*
X9472Y7455D01*
X9479D01*
X9484Y7457D01*
X9489Y7462D01*
X9543Y7505D02*
X9546Y7503D01*
X9548Y7505D01*
X9546Y7507D01*
X9543Y7505D01*
X9546Y7488D02*
Y7455D01*
X9557D02*
Y7488D01*
X9564Y7486D02*
X9557Y7479D01*
X9564Y7486D02*
X9569Y7488D01*
X9576D01*
X9581Y7486D01*
X9583Y7479D01*
Y7455D01*
X9669Y7498D02*
X9671Y7493D01*
X9669Y7498D02*
X9664Y7503D01*
X9659Y7505D01*
X9650D01*
X9645Y7503D01*
X9640Y7498D01*
X9638Y7493D01*
X9636Y7486D01*
Y7474D01*
X9638Y7467D01*
X9640Y7462D01*
X9645Y7457D01*
X9650Y7455D01*
X9659D01*
X9664Y7457D01*
X9669Y7462D01*
X9671Y7467D01*
X9685Y7455D02*
Y7505D01*
X9692Y7486D02*
X9685Y7479D01*
X9692Y7486D02*
X9697Y7488D01*
X9704D01*
X9709Y7486D01*
X9712Y7479D01*
Y7455D01*
X9732Y7503D02*
X9729Y7505D01*
X9732Y7503D02*
X9734Y7505D01*
X9732Y7507D01*
X9729Y7505D01*
X9732Y7488D02*
Y7455D01*
X9743D02*
Y7488D01*
X9750Y7486D02*
X9743Y7479D01*
X9750Y7486D02*
X9755Y7488D01*
X9762D01*
X9767Y7486D01*
X9769Y7479D01*
Y7455D01*
X9811D02*
Y7488D01*
X9806Y7486D02*
X9811Y7481D01*
X9806Y7486D02*
X9801Y7488D01*
X9794D01*
X9789Y7486D01*
X9785Y7481D01*
X9782Y7474D01*
Y7469D01*
X9785Y7462D01*
X9789Y7457D01*
X9794Y7455D01*
X9801D01*
X9806Y7457D01*
X9811Y7462D01*
X9296Y8022D02*
X9276D01*
X9286D02*
X9296D01*
X9286D02*
Y8082D01*
X9287D01*
X9286D02*
X9276Y8072D01*
X9326Y8052D02*
X9366D01*
X9386Y8022D02*
X9426D01*
X9386D02*
X9426Y8062D01*
Y8072D01*
X9416Y8082D01*
X9396D01*
X9386Y8072D01*
X9062Y8022D02*
X9022D01*
X9062Y8062D01*
Y8072D01*
X9052Y8082D01*
X9032D01*
X9022Y8072D01*
X9082Y8052D02*
X9122D01*
X9142Y8072D02*
X9152Y8082D01*
X9172D01*
X9182Y8072D01*
Y8062D01*
X9183D01*
X9182D02*
X9183D01*
X9182D02*
X9183D01*
X9182D02*
X9172Y8052D01*
X9162D01*
X9172D01*
X9182Y8042D01*
Y8032D01*
X9172Y8022D01*
X9152D01*
X9142Y8032D01*
X8778Y8083D02*
X8768Y8073D01*
X8778Y8083D02*
X8798D01*
X8808Y8073D01*
Y8063D01*
X8798Y8053D01*
X8808Y8043D01*
Y8033D01*
X8798Y8023D01*
X8778D01*
X8768Y8033D01*
Y8043D01*
X8778Y8053D01*
X8768Y8063D01*
Y8073D01*
X8778Y8053D02*
X8798D01*
X8828Y8023D02*
Y8083D01*
X8848Y8063D01*
X8868Y8083D01*
Y8023D01*
X8888D02*
Y8083D01*
Y8023D02*
X8918D01*
X8928Y8033D01*
Y8043D01*
X8918Y8053D01*
X8888D01*
X8889D01*
X8888D02*
X8889D01*
X8888D02*
X8889D01*
X8888D02*
X8918D01*
X8928Y8063D01*
Y8073D01*
X8918Y8083D01*
X8888D01*
X9266Y7918D02*
X9306D01*
X9266D02*
X9306Y7958D01*
Y7968D01*
X9296Y7978D01*
X9276D01*
X9266Y7968D01*
X9326Y7948D02*
X9366D01*
X9386Y7968D02*
X9396Y7978D01*
X9416D01*
X9426Y7968D01*
Y7958D01*
X9427D01*
X9426D02*
X9427D01*
X9426D02*
X9427D01*
X9426D02*
X9416Y7948D01*
X9406D01*
X9416D01*
X9426Y7938D01*
Y7928D01*
X9416Y7918D01*
X9396D01*
X9386Y7928D01*
X9316Y7640D02*
X9276D01*
X9316Y7680D01*
Y7690D01*
X9306Y7700D01*
X9286D01*
X9276Y7690D01*
X9336Y7670D02*
X9376D01*
X9396Y7690D02*
X9406Y7700D01*
X9426D01*
X9436Y7690D01*
Y7680D01*
X9437D01*
X9436D02*
X9437D01*
X9436D02*
X9437D01*
X9436D02*
X9426Y7670D01*
X9416D01*
X9426D01*
X9436Y7660D01*
Y7650D01*
X9426Y7640D01*
X9406D01*
X9396Y7650D01*
X9066Y7640D02*
X9026D01*
X9066Y7680D01*
Y7690D01*
X9056Y7700D01*
X9036D01*
X9026Y7690D01*
X9086Y7670D02*
X9126D01*
X9146Y7690D02*
X9156Y7700D01*
X9176D01*
X9186Y7690D01*
Y7680D01*
X9187D01*
X9186D02*
X9187D01*
X9186D02*
X9187D01*
X9186D02*
X9176Y7670D01*
X9166D01*
X9176D01*
X9186Y7660D01*
Y7650D01*
X9176Y7640D01*
X9156D01*
X9146Y7650D01*
X8715Y7699D02*
X8705Y7689D01*
X8715Y7699D02*
X8735D01*
X8745Y7689D01*
Y7679D01*
X8746D01*
X8745D02*
X8746D01*
X8745D02*
X8746D01*
X8745D02*
X8735Y7669D01*
X8725D01*
X8735D01*
X8745Y7659D01*
Y7649D01*
X8735Y7639D01*
X8715D01*
X8705Y7649D01*
X8765Y7639D02*
X8805D01*
X8765D02*
X8805Y7679D01*
Y7689D01*
X8795Y7699D01*
X8775D01*
X8765Y7689D01*
X8825Y7699D02*
Y7639D01*
X8845Y7679D02*
X8825Y7699D01*
X8845Y7679D02*
X8865Y7699D01*
Y7639D01*
X8885D02*
Y7699D01*
Y7639D02*
X8915D01*
X8925Y7649D01*
Y7659D01*
X8915Y7669D01*
X8885D01*
X8886D01*
X8885D02*
X8886D01*
X8885D02*
X8886D01*
X8885D02*
X8915D01*
X8925Y7679D01*
Y7689D01*
X8915Y7699D01*
X8885D01*
X9611Y7755D02*
Y7805D01*
X9586Y7780D01*
X9619D01*
X9636Y7755D02*
Y7805D01*
X9661Y7788D02*
X9636Y7772D01*
X9661Y7755D01*
X9736D02*
Y7805D01*
X9761D01*
X9769Y7797D01*
Y7780D01*
X9761Y7772D01*
X9736D01*
X9753D02*
X9769Y7755D01*
X9794D02*
X9811D01*
X9794D02*
X9786Y7763D01*
Y7780D01*
X9794Y7788D01*
X9811D01*
X9819Y7780D01*
Y7772D01*
X9786D01*
X9844Y7755D02*
Y7797D01*
Y7780D01*
X9836D01*
X9853D01*
X9844D01*
Y7797D01*
X9853Y7805D01*
X9878Y7788D02*
Y7755D01*
Y7772D01*
X9886Y7780D01*
X9894Y7788D01*
X9903D01*
X9936Y7755D02*
X9953D01*
X9936D02*
X9928Y7763D01*
Y7780D01*
X9936Y7788D01*
X9953D01*
X9961Y7780D01*
Y7772D01*
X9928D01*
X9978Y7755D02*
X10003D01*
X10011Y7763D01*
X10003Y7772D01*
X9986D01*
X9978Y7780D01*
X9986Y7788D01*
X10011D01*
X10028Y7805D02*
Y7755D01*
Y7780D01*
X10036Y7788D01*
X10053D01*
X10061Y7780D01*
Y7755D01*
X9576Y8135D02*
Y8195D01*
X9616Y8135D01*
Y8195D01*
X9646Y8135D02*
X9666D01*
X9676Y8145D01*
Y8165D01*
X9666Y8175D01*
X9646D01*
X9636Y8165D01*
Y8145D01*
X9646Y8135D01*
X9706Y8175D02*
Y8185D01*
Y8175D02*
X9696D01*
X9716D01*
X9706D01*
Y8145D01*
X9716Y8135D01*
X9756D02*
X9776D01*
X9756D02*
X9746Y8145D01*
Y8165D01*
X9756Y8175D01*
X9776D01*
X9786Y8165D01*
Y8155D01*
X9746D01*
D14*
X7870Y8545D02*
X12066D01*
X12420Y8251D02*
X8238Y8250D01*
X12066Y8545D02*
X12101D01*
X12420D01*
Y8251D01*
X7870Y8250D02*
Y8545D01*
Y8250D02*
X8237D01*
X8358Y8739D02*
X8058D01*
X8358D02*
Y8839D01*
X8058D01*
Y8739D01*
X8158D02*
Y8839D01*
X8058Y8639D02*
X8358D01*
Y8739D01*
X8058D01*
Y8639D01*
X8158D02*
Y8739D01*
X7901Y8220D02*
X7911Y8210D01*
X7901Y8220D02*
X7881D01*
X7871Y8210D01*
Y8200D01*
X7881Y8190D01*
X7901D01*
X7911Y8180D01*
Y8170D01*
X7901Y8160D01*
X7881D01*
X7871Y8170D01*
X7931Y8220D02*
X7951D01*
X7941D01*
Y8160D01*
X7931D01*
X7951D01*
X7981D02*
Y8220D01*
X8001Y8200D01*
X8021Y8220D01*
Y8160D01*
X8041D02*
Y8220D01*
X8061Y8200D01*
X8081Y8220D01*
Y8160D01*
X8101D02*
X8121D01*
X8111D01*
Y8220D01*
X8112D01*
X8111D02*
X8101Y8210D01*
X8093Y8922D02*
X8099Y8924D01*
X8107Y8933D01*
Y8873D01*
X8187Y8919D02*
Y8922D01*
X8190Y8927D01*
X8193Y8930D01*
X8198Y8933D01*
X8210D01*
X8216Y8930D01*
X8218Y8927D01*
X8221Y8922D01*
Y8916D01*
X8218Y8910D01*
X8213Y8902D01*
X8184Y8873D01*
X8224D01*
X8290Y8933D02*
X8322D01*
X8305Y8910D01*
X8313D01*
X8319Y8907D01*
X8322Y8904D01*
X8325Y8896D01*
Y8890D01*
X8322Y8882D01*
X8316Y8876D01*
X8308Y8873D01*
X8299D01*
X8290Y8876D01*
X8288Y8879D01*
X8285Y8884D01*
X7887Y8827D02*
X7867D01*
X7877D01*
Y8777D01*
X7867Y8767D01*
X7857D01*
X7847Y8777D01*
X7907Y8767D02*
Y8827D01*
X7937D01*
X7947Y8817D01*
Y8797D01*
X7937Y8787D01*
X7907D01*
X7967Y8767D02*
X7987D01*
X7977D01*
Y8827D01*
X7978D01*
X7977D02*
X7967Y8817D01*
X7883Y8721D02*
X7863D01*
X7873D01*
Y8671D01*
X7863Y8661D01*
X7853D01*
X7843Y8671D01*
X7903Y8661D02*
Y8721D01*
X7933D01*
X7943Y8711D01*
Y8691D01*
X7933Y8681D01*
X7903D01*
X7963Y8661D02*
X8003D01*
X7963D02*
X8003Y8701D01*
Y8711D01*
X7993Y8721D01*
X7973D01*
X7963Y8711D01*
D16*
X7936Y7468D02*
X7946Y7459D01*
X7936Y7468D02*
X7922Y7473D01*
X7903D01*
X7889Y7468D01*
X7879Y7459D01*
Y7449D01*
X7884Y7440D01*
X7889Y7435D01*
X7898Y7430D01*
X7927Y7421D01*
X7936Y7416D01*
X7941Y7411D01*
X7946Y7402D01*
Y7387D01*
X7936Y7378D01*
X7922Y7373D01*
X7903D01*
X7889Y7378D01*
X7879Y7387D01*
X7968Y7373D02*
Y7473D01*
X7989D02*
Y7373D01*
X8027D02*
X7989Y7473D01*
X8065D02*
X8027Y7373D01*
X8065D02*
Y7473D01*
X8094D02*
Y7373D01*
X8132D02*
X8094Y7473D01*
X8170D02*
X8132Y7373D01*
X8170D02*
Y7473D01*
X8265Y7459D02*
X8270Y7449D01*
X8265Y7459D02*
X8256Y7468D01*
X8246Y7473D01*
X8227D01*
X8217Y7468D01*
X8208Y7459D01*
X8203Y7449D01*
X8198Y7435D01*
Y7411D01*
X8203Y7397D01*
X8208Y7387D01*
X8217Y7378D01*
X8227Y7373D01*
X8246D01*
X8256Y7378D01*
X8265Y7387D01*
X8270Y7397D01*
X8312Y7435D02*
X8322Y7440D01*
X8312Y7435D02*
X8303Y7425D01*
X8298Y7411D01*
Y7402D01*
X8303Y7387D01*
X8312Y7378D01*
X8322Y7373D01*
X8336D01*
X8346Y7378D01*
X8355Y7387D01*
X8360Y7402D01*
Y7411D01*
X8355Y7425D01*
X8346Y7435D01*
X8336Y7440D01*
X8322D01*
X8382D02*
Y7373D01*
Y7421D02*
X8396Y7435D01*
X8406Y7440D01*
X8420D01*
X8429Y7435D01*
X8434Y7421D01*
Y7373D01*
X8460D02*
Y7440D01*
X8475Y7435D02*
X8460Y7421D01*
X8475Y7435D02*
X8484Y7440D01*
X8498D01*
X8508Y7435D01*
X8513Y7421D01*
Y7373D01*
X8646Y7473D02*
X8656D01*
X8646D02*
X8636Y7468D01*
X8632Y7454D01*
Y7373D01*
X8617Y7440D02*
X8651D01*
X8684Y7435D02*
X8694Y7440D01*
X8684Y7435D02*
X8675Y7425D01*
X8670Y7411D01*
Y7402D01*
X8675Y7387D01*
X8684Y7378D01*
X8694Y7373D01*
X8708D01*
X8717Y7378D01*
X8727Y7387D01*
X8732Y7402D01*
Y7411D01*
X8727Y7425D01*
X8717Y7435D01*
X8708Y7440D01*
X8694D01*
X8754D02*
Y7373D01*
Y7411D02*
X8758Y7425D01*
X8768Y7435D01*
X8777Y7440D01*
X8792D01*
X7988Y7194D02*
X7950Y7294D01*
X7912Y7194D01*
X7927Y7227D02*
X7974D01*
X8036Y7194D02*
X8012Y7294D01*
X8059D02*
X8036Y7194D01*
X8083D02*
X8059Y7294D01*
X8107D02*
X8083Y7194D01*
X8127Y7294D02*
X8189D01*
X8127D02*
Y7194D01*
X8189D01*
X8165Y7246D02*
X8127D01*
X8258Y7289D02*
X8263Y7279D01*
X8258Y7289D02*
X8244Y7294D01*
X8234D01*
X8220Y7289D01*
X8210Y7275D01*
X8206Y7251D01*
Y7227D01*
X8210Y7208D01*
X8220Y7199D01*
X8234Y7194D01*
X8239D01*
X8253Y7199D01*
X8263Y7208D01*
X8267Y7222D01*
Y7227D01*
X8263Y7241D01*
X8253Y7251D01*
X8239Y7256D01*
X8234D01*
X8220Y7251D01*
X8210Y7241D01*
X8206Y7227D01*
X8289D02*
X8337Y7294D01*
X8361Y7227D02*
X8289D01*
X8337Y7194D02*
Y7294D01*
X8524Y7279D02*
X8528Y7270D01*
X8524Y7279D02*
X8514Y7289D01*
X8504Y7294D01*
X8485D01*
X8476Y7289D01*
X8466Y7279D01*
X8462Y7270D01*
X8457Y7256D01*
Y7232D01*
X8462Y7218D01*
X8466Y7208D01*
X8476Y7199D01*
X8485Y7194D01*
X8504D01*
X8514Y7199D01*
X8524Y7208D01*
X8528Y7218D01*
Y7232D01*
X8504D01*
X8565Y7256D02*
X8575Y7260D01*
X8565Y7256D02*
X8556Y7246D01*
X8551Y7232D01*
Y7222D01*
X8556Y7208D01*
X8565Y7199D01*
X8575Y7194D01*
X8589D01*
X8599Y7199D01*
X8608Y7208D01*
X8613Y7222D01*
Y7232D01*
X8608Y7246D01*
X8599Y7256D01*
X8589Y7260D01*
X8575D01*
X8635Y7294D02*
Y7194D01*
X8713D02*
Y7294D01*
X8703Y7256D02*
X8713Y7246D01*
X8703Y7256D02*
X8694Y7260D01*
X8680D01*
X8670Y7256D01*
X8661Y7246D01*
X8656Y7232D01*
Y7222D01*
X8661Y7208D01*
X8670Y7199D01*
X8680Y7194D01*
X8694D01*
X8703Y7199D01*
X8713Y7208D01*
D02*
M02*
