*%FSLAX21Y21*%
*%MOIN*%
G01*
D12*
X12000Y8137D02*
X12098D01*
Y8109D01*
Y7592D02*
Y7564D01*
X11853D01*
Y7592D01*
Y8109D02*
Y8137D01*
X11950D01*
X9156Y7739D02*
Y7641D01*
X9128D01*
X8611D02*
X8582D01*
Y7886D01*
X8611D01*
X9128D02*
X9156D01*
Y7789D01*
X11950Y8137D02*
X11951Y8134D01*
X11951Y8131D01*
X11952Y8128D01*
X11954Y8125D01*
X11956Y8122D01*
X11958Y8120D01*
X11960Y8118D01*
X11963Y8116D01*
X11966Y8114D01*
X11969Y8113D01*
X11972Y8113D01*
X11975Y8112D01*
X11979Y8113D01*
X11982Y8113D01*
X11985Y8114D01*
X11988Y8116D01*
X11991Y8118D01*
X11993Y8120D01*
X11995Y8122D01*
X11997Y8125D01*
X11999Y8128D01*
X12000Y8131D01*
X12000Y8134D01*
X12000Y8137D01*
X9156Y7789D02*
X9153Y7788D01*
X9149Y7788D01*
X9146Y7787D01*
X9143Y7785D01*
X9141Y7783D01*
X9138Y7781D01*
X9136Y7779D01*
X9134Y7776D01*
X9133Y7773D01*
X9132Y7770D01*
X9131Y7767D01*
X9131Y7764D01*
X9131Y7760D01*
X9132Y7757D01*
X9133Y7754D01*
X9134Y7751D01*
X9136Y7748D01*
X9138Y7746D01*
X9141Y7744D01*
X9143Y7742D01*
X9146Y7740D01*
X9149Y7739D01*
X9153Y7739D01*
X9156Y7739D01*
D13*
X10854Y8857D02*
X10864Y8867D01*
X10884D01*
X10894Y8857D01*
Y8817D01*
X10884Y8807D01*
X10864D01*
X10854Y8817D01*
X10834Y8807D02*
Y8867D01*
X10814Y8847D01*
X10794Y8867D01*
Y8807D01*
X10774D02*
Y8867D01*
X10754Y8847D01*
X10734Y8867D01*
Y8807D01*
X10714D02*
Y8847D01*
X10694Y8867D01*
X10674Y8847D01*
Y8807D01*
Y8837D01*
X10714D01*
X10827Y7435D02*
X10819Y7427D01*
X10827Y7435D02*
X10844D01*
X10852Y7427D01*
Y7393D01*
X10844Y7385D01*
X10827D01*
X10819Y7393D01*
X10802Y7385D02*
Y7435D01*
X10786Y7418D01*
X10769Y7435D01*
Y7385D01*
X10752D02*
Y7435D01*
X10736Y7418D01*
X10719Y7435D01*
Y7385D01*
X10702D02*
Y7435D01*
Y7385D02*
X10677D01*
X10669Y7393D01*
Y7402D01*
X10677Y7410D01*
X10702D01*
X10703D01*
X10702D02*
X10703D01*
X10702D02*
X10703D01*
X10702D02*
X10677D01*
X10669Y7418D01*
Y7427D01*
X10677Y7435D01*
X10702D01*
X10819Y7292D02*
X10852D01*
X10819Y7325D01*
Y7334D01*
X10827Y7342D01*
X10844D01*
X10852Y7334D01*
X10802D02*
X10769Y7300D01*
X10802D02*
X10769Y7334D01*
Y7317D02*
X10802D01*
X10785Y7300D02*
Y7334D01*
X10752Y7292D02*
X10735D01*
X10744D01*
Y7342D01*
X10745D01*
X10744D02*
X10752Y7334D01*
X10710Y7292D02*
X10677D01*
X10710D02*
X10677Y7325D01*
Y7334D01*
X10685Y7342D01*
X10702D01*
X10710Y7334D01*
X10801Y8726D02*
X10834D01*
X10801Y8759D01*
Y8768D01*
X10809Y8776D01*
X10826D01*
X10834Y8768D01*
X10784D02*
X10751Y8734D01*
X10784D02*
X10751Y8768D01*
Y8751D02*
X10784D01*
X10767Y8734D02*
Y8768D01*
X10734Y8726D02*
X10717D01*
X10726D01*
Y8776D01*
X10727D01*
X10726D02*
X10734Y8768D01*
X10692D02*
X10684Y8776D01*
X10667D01*
X10659Y8768D01*
Y8759D01*
X10660D01*
X10659D02*
X10660D01*
X10659D02*
X10660D01*
X10659D02*
X10667Y8751D01*
X10676D01*
X10667D01*
X10659Y8743D01*
Y8734D01*
X10667Y8726D01*
X10684D01*
X10692Y8734D01*
D14*
X10900Y7364D02*
X11845D01*
Y7207D02*
X10900D01*
X11845D02*
Y7364D01*
X10900D02*
Y7207D01*
X11929Y8637D02*
X11929Y8808D01*
X11929Y8809D02*
X10894Y8808D01*
X11845Y8719D02*
Y8639D01*
X11846Y8720D02*
X11929Y8720D01*
X11768Y7283D02*
Y7207D01*
Y7283D02*
X11844D01*
X10894Y8638D02*
Y8808D01*
X10895Y8636D02*
X11929Y8637D01*
X7945Y7996D02*
X7945Y7956D01*
X7965Y8016D02*
X8005D01*
X7965D02*
X7945Y7996D01*
X8330Y8016D02*
Y7956D01*
Y8016D02*
X8270D01*
X8330Y7691D02*
Y7631D01*
X8270D01*
X7945D02*
Y7691D01*
Y7631D02*
X8005D01*
X7991Y8095D02*
Y8145D01*
Y8095D02*
X7981Y8085D01*
X7961D01*
X7951Y8095D01*
Y8145D01*
X7931Y8135D02*
X7921Y8145D01*
X7902D01*
X7892Y8135D01*
Y8095D01*
X7902Y8085D01*
X7921D01*
X7931Y8095D01*
Y8135D01*
X9434Y7514D02*
X9444Y7504D01*
X9434Y7514D02*
X9414D01*
X9404Y7504D01*
Y7494D01*
X9405D01*
X9404D02*
X9405D01*
X9404D02*
X9405D01*
X9404D02*
X9414Y7484D01*
X9424D01*
X9414D01*
X9404Y7474D01*
Y7464D01*
X9414Y7454D01*
X9434D01*
X9444Y7464D01*
X9384Y7504D02*
X9374Y7514D01*
X9354D01*
X9344Y7504D01*
Y7494D01*
X9345D01*
X9344D02*
X9345D01*
X9344D02*
X9345D01*
X9344D02*
X9354Y7484D01*
X9364D01*
X9354D01*
X9344Y7474D01*
Y7464D01*
X9354Y7454D01*
X9374D01*
X9384Y7464D01*
X9388Y7561D02*
Y7621D01*
X9358D01*
X9348Y7611D01*
Y7591D01*
X9358Y7581D01*
X9388D01*
X9368D02*
X9348Y7561D01*
X9328D02*
X9308D01*
X9318D01*
Y7621D01*
X9319D01*
X9318D02*
X9328Y7611D01*
X8594Y8150D02*
X8584Y8160D01*
X8564D01*
X8554Y8150D01*
Y8110D01*
X8564Y8100D01*
X8584D01*
X8594Y8110D01*
Y8150D01*
X8534Y8110D02*
Y8100D01*
Y8110D02*
X8524D01*
Y8100D01*
X8534D01*
X8484D02*
X8464D01*
X8474D01*
Y8160D01*
X8475D01*
X8474D02*
X8484Y8150D01*
X8434Y8140D02*
Y8110D01*
X8424Y8100D01*
X8394D01*
Y8140D01*
X8374Y8160D02*
X8334D01*
X8374D02*
Y8130D01*
X8354D01*
X8374D01*
Y8100D01*
X8432Y8232D02*
X8442Y8242D01*
X8462D01*
X8472Y8232D01*
Y8192D01*
X8462Y8182D01*
X8442D01*
X8432Y8192D01*
X8412Y8232D02*
X8402Y8242D01*
X8382D01*
X8372Y8232D01*
Y8222D01*
X8373D01*
X8372D02*
X8373D01*
X8372D02*
X8373D01*
X8372D02*
X8382Y8212D01*
X8392D01*
X8382D01*
X8372Y8202D01*
Y8192D01*
X8382Y8182D01*
X8402D01*
X8412Y8192D01*
X9273Y7515D02*
X9283Y7505D01*
X9273Y7515D02*
X9253D01*
X9243Y7505D01*
Y7465D01*
X9253Y7455D01*
X9273D01*
X9283Y7465D01*
Y7505D01*
X9223Y7465D02*
Y7455D01*
Y7465D02*
X9213D01*
Y7455D01*
X9223D01*
X9173D02*
X9153D01*
X9163D01*
Y7515D01*
X9164D01*
X9163D02*
X9173Y7505D01*
X9123Y7495D02*
Y7465D01*
X9113Y7455D01*
X9083D01*
Y7495D01*
X9063Y7515D02*
X9023D01*
X9063D02*
Y7485D01*
X9043D01*
X9063D01*
Y7455D01*
X9237Y7607D02*
X9247Y7617D01*
X9267D01*
X9277Y7607D01*
Y7567D01*
X9267Y7557D01*
X9247D01*
X9237Y7567D01*
X9217Y7557D02*
X9177D01*
X9217D02*
X9177Y7597D01*
Y7607D01*
X9187Y7617D01*
X9207D01*
X9217Y7607D01*
X9006Y8067D02*
X8966D01*
Y8057D01*
X9006Y8017D01*
Y8007D01*
X8916D02*
Y8067D01*
X8946Y8037D01*
X8906D01*
X8886Y8047D02*
Y8007D01*
Y8047D02*
X8866Y8067D01*
X8846Y8047D01*
Y8007D01*
Y8037D01*
X8886D01*
X8796Y8067D02*
X8786Y8057D01*
X8796Y8067D02*
X8816D01*
X8826Y8057D01*
Y8017D01*
X8816Y8007D01*
X8796D01*
X8786Y8017D01*
X8766Y8027D02*
X8746Y8007D01*
X8766Y8027D02*
Y8047D01*
X8746Y8067D01*
X8716D02*
X8676D01*
X8696D01*
Y8007D01*
X8656D02*
X8636Y8027D01*
Y8047D01*
X8656Y8067D01*
X8606Y8007D02*
X8566D01*
X8606D02*
X8566Y8047D01*
Y8057D01*
X8576Y8067D01*
X8596D01*
X8606Y8057D01*
X8516Y8067D02*
Y8007D01*
X8546Y8037D02*
X8516Y8067D01*
X8506Y8037D02*
X8546D01*
X8486Y8067D02*
X8446D01*
X8486D02*
Y8037D01*
X8466Y8047D01*
X8456D01*
X8446Y8037D01*
Y8017D01*
X8456Y8007D01*
X8476D01*
X8486Y8017D01*
X9190Y8019D02*
Y8069D01*
Y8019D02*
X9180Y8009D01*
X9160D01*
X9150Y8019D01*
Y8069D01*
X9130Y8009D02*
X9090D01*
X9130D02*
X9090Y8049D01*
Y8059D01*
X9100Y8069D01*
X9120D01*
X9130Y8059D01*
X12094Y7514D02*
X12134D01*
X12094D02*
Y7504D01*
X12134Y7464D01*
Y7454D01*
X12044D02*
Y7514D01*
X12074Y7484D01*
X12034D01*
X12014Y7494D02*
Y7454D01*
Y7494D02*
X11994Y7514D01*
X11974Y7494D01*
Y7454D01*
Y7484D01*
X12014D01*
X11924Y7514D02*
X11914Y7504D01*
X11924Y7514D02*
X11944D01*
X11954Y7504D01*
Y7464D01*
X11944Y7454D01*
X11924D01*
X11914Y7464D01*
X11894Y7474D02*
X11874Y7454D01*
X11894Y7474D02*
Y7494D01*
X11874Y7514D01*
X11844D02*
X11805D01*
X11825D01*
Y7454D01*
X11785D02*
X11765Y7474D01*
Y7494D01*
X11785Y7514D01*
X11735Y7454D02*
X11695D01*
X11735D02*
X11695Y7494D01*
Y7504D01*
X11705Y7514D01*
X11725D01*
X11735Y7504D01*
X11645Y7514D02*
Y7454D01*
X11675Y7484D02*
X11645Y7514D01*
X11635Y7484D02*
X11675D01*
X11615Y7514D02*
X11575D01*
X11615D02*
Y7484D01*
X11595Y7494D01*
X11585D01*
X11575Y7484D01*
Y7464D01*
X11585Y7454D01*
X11605D01*
X11615Y7464D01*
X12282Y7469D02*
Y7519D01*
Y7469D02*
X12272Y7459D01*
X12252D01*
X12242Y7469D01*
Y7519D01*
X12222Y7459D02*
X12202D01*
X12212D01*
Y7519D01*
X12213D01*
X12212D02*
X12222Y7509D01*
X11817Y8237D02*
X11807Y8247D01*
X11788D01*
X11778Y8237D01*
Y8197D01*
X11788Y8187D01*
X11807D01*
X11817Y8197D01*
Y8237D01*
X11758Y8197D02*
Y8187D01*
Y8197D02*
X11748D01*
Y8187D01*
X11758D01*
X11708D02*
X11688D01*
X11698D01*
Y8247D01*
X11699D01*
X11698D02*
X11708Y8237D01*
X11658Y8227D02*
Y8197D01*
X11648Y8187D01*
X11618D01*
Y8227D01*
X11598Y8247D02*
X11558D01*
X11598D02*
Y8217D01*
X11578D01*
X11598D01*
Y8187D01*
X12200Y8235D02*
X12210Y8245D01*
X12229D01*
X12239Y8235D01*
Y8195D01*
X12229Y8185D01*
X12210D01*
X12200Y8195D01*
X12150Y8185D02*
Y8245D01*
X12180Y8215D01*
X12140D01*
D15*
X11953Y8170D02*
X11878D01*
Y8260D02*
X11953D01*
X11993D02*
X12068D01*
Y8170D02*
X11993D01*
X11878D02*
Y8260D01*
X12068D02*
Y8170D01*
X8195Y8164D02*
X8120D01*
Y8254D02*
X8195D01*
X8235D02*
X8310D01*
Y8164D02*
X8235D01*
X8120D02*
Y8254D01*
X8310D02*
Y8164D01*
X9391Y7733D02*
Y7658D01*
X9301D02*
Y7733D01*
Y7773D02*
Y7848D01*
X9391D02*
Y7773D01*
Y7658D02*
X9301D01*
Y7848D02*
X9391D01*
X9276Y7848D02*
X9186D01*
Y7658D02*
X9276D01*
Y7773D02*
Y7848D01*
X9186D02*
Y7773D01*
Y7733D02*
Y7658D01*
X9276D02*
Y7733D01*
D02*
M02*
