*%FSLAX21Y21*%
*%MOIN*%
G01*
D11*
X11791Y7325D02*
X11821D01*
X11806Y7310D02*
Y7340D01*
X11791Y7246D02*
X11821D01*
X11806Y7231D02*
Y7261D01*
X11742Y7325D02*
X11712D01*
X11727Y7310D02*
Y7340D01*
X11712Y7246D02*
X11742D01*
X11727Y7231D02*
Y7261D01*
X11663Y7325D02*
X11633D01*
X11648Y7310D02*
Y7340D01*
X11633Y7246D02*
X11663D01*
X11648Y7231D02*
Y7261D01*
X11585Y7325D02*
X11555D01*
X11570Y7310D02*
Y7340D01*
X11555Y7246D02*
X11585D01*
X11570Y7231D02*
Y7261D01*
X11506Y7325D02*
X11476D01*
X11491Y7310D02*
Y7340D01*
X11476Y7246D02*
X11506D01*
X11491Y7231D02*
Y7261D01*
X11427Y7325D02*
X11397D01*
X11412Y7310D02*
Y7340D01*
X11397Y7246D02*
X11427D01*
X11412Y7231D02*
Y7261D01*
X11348Y7325D02*
X11318D01*
X11333Y7310D02*
Y7340D01*
X11318Y7246D02*
X11348D01*
X11333Y7231D02*
Y7261D01*
X11270Y7325D02*
X11240D01*
X11255Y7310D02*
Y7340D01*
X11240Y7246D02*
X11270D01*
X11255Y7231D02*
Y7261D01*
X11191Y7246D02*
X11161D01*
X11176Y7231D02*
Y7261D01*
X11161Y7325D02*
X11191D01*
X11176Y7310D02*
Y7340D01*
X11112Y7325D02*
X11082D01*
X11097Y7310D02*
Y7340D01*
X11082Y7246D02*
X11112D01*
X11097Y7231D02*
Y7261D01*
X11034Y7325D02*
X11004D01*
X11019Y7310D02*
Y7340D01*
X11004Y7246D02*
X11034D01*
X11019Y7231D02*
Y7261D01*
X10955Y7325D02*
X10925D01*
X10940Y7310D02*
Y7340D01*
X10925Y7246D02*
X10955D01*
X10940Y7231D02*
Y7261D01*
X11870Y8762D02*
X11900D01*
X11885Y8747D02*
Y8777D01*
X11870Y8683D02*
X11900D01*
X11885Y8668D02*
Y8698D01*
X11821Y8683D02*
X11791D01*
X11806Y8668D02*
Y8698D01*
X11742Y8683D02*
X11712D01*
X11727Y8668D02*
Y8698D01*
X11663Y8683D02*
X11633D01*
X11648Y8668D02*
Y8698D01*
X11585Y8683D02*
X11555D01*
X11570Y8668D02*
Y8698D01*
X11506Y8683D02*
X11476D01*
X11491Y8668D02*
Y8698D01*
X11427Y8683D02*
X11397D01*
X11412Y8668D02*
Y8698D01*
X11348Y8683D02*
X11318D01*
X11333Y8668D02*
Y8698D01*
X11270Y8683D02*
X11240D01*
X11255Y8668D02*
Y8698D01*
X11191Y8683D02*
X11161D01*
X11176Y8668D02*
Y8698D01*
X11112Y8683D02*
X11082D01*
X11097Y8668D02*
Y8698D01*
X11791Y8762D02*
X11821D01*
X11806Y8747D02*
Y8777D01*
X11742Y8762D02*
X11712D01*
X11727Y8747D02*
Y8777D01*
X11663Y8762D02*
X11633D01*
X11648Y8747D02*
Y8777D01*
X11585Y8762D02*
X11555D01*
X11570Y8747D02*
Y8777D01*
X11506Y8762D02*
X11476D01*
X11491Y8747D02*
Y8777D01*
X11427Y8762D02*
X11397D01*
X11412Y8747D02*
Y8777D01*
X11348Y8762D02*
X11318D01*
X11333Y8747D02*
Y8777D01*
X11270Y8762D02*
X11240D01*
X11255Y8747D02*
Y8777D01*
X11191Y8762D02*
X11161D01*
X11176Y8747D02*
Y8777D01*
X11112Y8762D02*
X11082D01*
X11097Y8747D02*
Y8777D01*
X11034Y8683D02*
X11004D01*
X11019Y8668D02*
Y8698D01*
X11004Y8762D02*
X11034D01*
X11019Y8747D02*
Y8777D01*
X10955Y8683D02*
X10925D01*
X10940Y8668D02*
Y8698D01*
X10925Y8762D02*
X10955D01*
X10940Y8747D02*
Y8777D01*
X8336Y8385D02*
X8306D01*
X8321Y8370D02*
Y8400D01*
X8406Y8385D02*
X8436D01*
X8421Y8370D02*
Y8400D01*
X8506Y8385D02*
X8536D01*
X8521Y8370D02*
Y8400D01*
X8606Y8385D02*
X8636D01*
X8621Y8370D02*
Y8400D01*
X8706Y8385D02*
X8736D01*
X8721Y8370D02*
Y8400D01*
X8806Y8385D02*
X8836D01*
X8821Y8370D02*
Y8400D01*
X8906Y8385D02*
X8936D01*
X8921Y8370D02*
Y8400D01*
X9006Y8385D02*
X9036D01*
X9021Y8370D02*
Y8400D01*
X9106Y8385D02*
X9136D01*
X9121Y8370D02*
Y8400D01*
X9206Y8385D02*
X9236D01*
X9221Y8370D02*
Y8400D01*
X9306Y8385D02*
X9336D01*
X9321Y8370D02*
Y8400D01*
X9406Y8385D02*
X9436D01*
X9421Y8370D02*
Y8400D01*
X9506Y8385D02*
X9536D01*
X9521Y8370D02*
Y8400D01*
X9606Y8385D02*
X9636D01*
X9621Y8370D02*
Y8400D01*
X9706Y8385D02*
X9736D01*
X9721Y8370D02*
Y8400D01*
X9806Y8385D02*
X9836D01*
X9821Y8370D02*
Y8400D01*
X9906Y8385D02*
X9936D01*
X9921Y8370D02*
Y8400D01*
X10006Y8385D02*
X10036D01*
X10021Y8370D02*
Y8400D01*
X10306Y8385D02*
X10336D01*
X10321Y8370D02*
Y8400D01*
X10406Y8385D02*
X10436D01*
X10421Y8370D02*
Y8400D01*
X10506Y8385D02*
X10536D01*
X10521Y8370D02*
Y8400D01*
X10606Y8385D02*
X10636D01*
X10621Y8370D02*
Y8400D01*
X10706Y8385D02*
X10736D01*
X10721Y8370D02*
Y8400D01*
X10806Y8385D02*
X10836D01*
X10821Y8370D02*
Y8400D01*
X10906Y8385D02*
X10936D01*
X10921Y8370D02*
Y8400D01*
X11006Y8385D02*
X11036D01*
X11021Y8370D02*
Y8400D01*
X11106Y8385D02*
X11136D01*
X11121Y8370D02*
Y8400D01*
X11206Y8385D02*
X11236D01*
X11221Y8370D02*
Y8400D01*
X11306Y8385D02*
X11336D01*
X11321Y8370D02*
Y8400D01*
X11406Y8385D02*
X11436D01*
X11421Y8370D02*
Y8400D01*
X11506Y8385D02*
X11536D01*
X11521Y8370D02*
Y8400D01*
X11606Y8385D02*
X11636D01*
X11621Y8370D02*
Y8400D01*
X11706Y8385D02*
X11736D01*
X11721Y8370D02*
Y8400D01*
X11806Y8385D02*
X11836D01*
X11821Y8370D02*
Y8400D01*
X11906Y8385D02*
X11936D01*
X11921Y8370D02*
Y8400D01*
X8286Y8485D02*
X8256D01*
X8271Y8470D02*
Y8500D01*
X8456Y8485D02*
X8486D01*
X8471Y8470D02*
Y8500D01*
X8556Y8485D02*
X8586D01*
X8571Y8470D02*
Y8500D01*
X8656Y8485D02*
X8686D01*
X8671Y8470D02*
Y8500D01*
X8756Y8485D02*
X8786D01*
X8771Y8470D02*
Y8500D01*
X8856Y8485D02*
X8886D01*
X8871Y8470D02*
Y8500D01*
X8956Y8485D02*
X8986D01*
X8971Y8470D02*
Y8500D01*
X9056Y8485D02*
X9086D01*
X9071Y8470D02*
Y8500D01*
X9156Y8485D02*
X9186D01*
X9171Y8470D02*
Y8500D01*
X9256Y8485D02*
X9286D01*
X9271Y8470D02*
Y8500D01*
X9356Y8485D02*
X9386D01*
X9371Y8470D02*
Y8500D01*
X9456Y8485D02*
X9486D01*
X9471Y8470D02*
Y8500D01*
X9556Y8485D02*
X9586D01*
X9571Y8470D02*
Y8500D01*
X9656Y8485D02*
X9686D01*
X9671Y8470D02*
Y8500D01*
X9756Y8485D02*
X9786D01*
X9771Y8470D02*
Y8500D01*
X9856Y8485D02*
X9886D01*
X9871Y8470D02*
Y8500D01*
X9956Y8485D02*
X9986D01*
X9971Y8470D02*
Y8500D01*
X10256Y8485D02*
X10286D01*
X10271Y8470D02*
Y8500D01*
X10356Y8485D02*
X10386D01*
X10371Y8470D02*
Y8500D01*
X10456Y8485D02*
X10486D01*
X10471Y8470D02*
Y8500D01*
X10556Y8485D02*
X10586D01*
X10571Y8470D02*
Y8500D01*
X10656Y8485D02*
X10686D01*
X10671Y8470D02*
Y8500D01*
X10756Y8485D02*
X10786D01*
X10771Y8470D02*
Y8500D01*
X10856Y8485D02*
X10886D01*
X10871Y8470D02*
Y8500D01*
X10956Y8485D02*
X10986D01*
X10971Y8470D02*
Y8500D01*
X11056Y8485D02*
X11086D01*
X11071Y8470D02*
Y8500D01*
X11156Y8485D02*
X11186D01*
X11171Y8470D02*
Y8500D01*
X11256Y8485D02*
X11286D01*
X11271Y8470D02*
Y8500D01*
X11356Y8485D02*
X11386D01*
X11371Y8470D02*
Y8500D01*
X11456Y8485D02*
X11486D01*
X11471Y8470D02*
Y8500D01*
X11556Y8485D02*
X11586D01*
X11571Y8470D02*
Y8500D01*
X11656Y8485D02*
X11686D01*
X11671Y8470D02*
Y8500D01*
X11756Y8485D02*
X11786D01*
X11771Y8470D02*
Y8500D01*
X11856Y8485D02*
X11886D01*
X11871Y8470D02*
Y8500D01*
X11956Y8485D02*
X11986D01*
X11971Y8470D02*
Y8500D01*
X12006Y8385D02*
X12036D01*
X12021Y8370D02*
Y8400D01*
X8386Y8485D02*
X8356D01*
X8371Y8470D02*
Y8500D01*
X8123Y8789D02*
X8093D01*
X8108Y8774D02*
Y8804D01*
X8093Y8689D02*
X8123D01*
X8108Y8674D02*
Y8704D01*
X8293Y8789D02*
X8323D01*
X8308Y8774D02*
Y8804D01*
X8293Y8689D02*
X8323D01*
X8308Y8674D02*
Y8704D01*
X8223Y8689D02*
X8193D01*
X8208Y8674D02*
Y8704D01*
X8193Y8789D02*
X8223D01*
X8208Y8774D02*
Y8804D01*
X8884Y7314D02*
X8904D01*
X8894Y7304D02*
Y7324D01*
X8942Y7395D02*
X8962D01*
X8952Y7385D02*
Y7405D01*
X9196Y7270D02*
X9216D01*
X9206Y7260D02*
Y7280D01*
X9004Y7272D02*
X8984D01*
X8994Y7262D02*
Y7282D01*
X9901Y8238D02*
X9921D01*
X9911Y8228D02*
Y8248D01*
X11530Y8614D02*
X11550D01*
X11540Y8604D02*
Y8624D01*
X11126Y7905D02*
X11106D01*
X11116Y7895D02*
Y7915D01*
X11081Y8180D02*
X11061D01*
X11071Y8170D02*
Y8190D01*
X9532Y7798D02*
X9512D01*
X9522Y7788D02*
Y7808D01*
X9050Y7134D02*
X9030D01*
X9040Y7124D02*
Y7144D01*
X12115Y8215D02*
X12135D01*
X12125Y8205D02*
Y8225D01*
X12195Y7626D02*
X12215D01*
X12205Y7616D02*
Y7636D01*
X8570Y7874D02*
X8550D01*
X8560Y7864D02*
Y7884D01*
X8550Y7594D02*
X8570D01*
X8560Y7584D02*
Y7604D01*
X8550Y7594D02*
X8570D01*
X8560Y7584D02*
Y7604D01*
X8550Y7594D02*
X8570D01*
X8560Y7584D02*
Y7604D01*
X8086Y7774D02*
X8066D01*
X8076Y7764D02*
Y7784D01*
X10560Y8642D02*
X10580D01*
X10570Y8632D02*
Y8652D01*
X8180Y8124D02*
X8160D01*
X8170Y8114D02*
Y8134D01*
X8250Y8124D02*
X8270D01*
X8260Y8114D02*
Y8134D01*
D02*
M02*
