*%FSLAX21Y21*%
*%MOIN*%
G01*
D14*
X12380Y7045D02*
X12419D01*
X12432Y7048D01*
Y8968D01*
X7995Y8335D02*
X7994Y8332D01*
X7994Y8328D01*
X7994Y8325D01*
X7993Y8322D01*
X7992Y8319D01*
X7991Y8316D01*
X7989Y8313D01*
X7987Y8310D01*
X7986Y8307D01*
X7984Y8305D01*
X7981Y8302D01*
X7979Y8300D01*
X7977Y8298D01*
X7974Y8296D01*
X7971Y8294D01*
X7968Y8293D01*
X7965Y8291D01*
X7962Y8290D01*
X7959Y8289D01*
X7956Y8289D01*
X7952Y8288D01*
X7949Y8288D01*
X7946D01*
X7943Y8288D01*
X7939Y8289D01*
X7936Y8289D01*
X7933Y8290D01*
X7930Y8291D01*
X7927Y8293D01*
X7924Y8294D01*
X7921Y8296D01*
X7919Y8298D01*
X7916Y8300D01*
X7914Y8302D01*
X7912Y8305D01*
X7910Y8307D01*
X7908Y8310D01*
X7906Y8313D01*
X7905Y8316D01*
X7903Y8319D01*
X7902Y8322D01*
X7902Y8325D01*
X7901Y8328D01*
X7901Y8332D01*
X7901Y8335D01*
X7901Y8338D01*
X7901Y8342D01*
X7902Y8345D01*
X7902Y8348D01*
X7903Y8351D01*
X7905Y8354D01*
X7906Y8357D01*
X7908Y8360D01*
X7910Y8363D01*
X7912Y8365D01*
X7914Y8368D01*
X7916Y8370D01*
X7919Y8372D01*
X7921Y8374D01*
X7924Y8376D01*
X7927Y8377D01*
X7930Y8379D01*
X7933Y8380D01*
X7936Y8381D01*
X7939Y8381D01*
X7943Y8382D01*
X7946Y8382D01*
X7949D01*
X7952Y8382D01*
X7956Y8381D01*
X7959Y8381D01*
X7962Y8380D01*
X7965Y8379D01*
X7968Y8377D01*
X7971Y8376D01*
X7974Y8374D01*
X7977Y8372D01*
X7979Y8370D01*
X7981Y8368D01*
X7984Y8365D01*
X7986Y8363D01*
X7987Y8360D01*
X7989Y8357D01*
X7991Y8354D01*
X7992Y8351D01*
X7993Y8348D01*
X7994Y8345D01*
X7994Y8342D01*
X7994Y8338D01*
X7995Y8335D01*
X12384Y8325D02*
X12384Y8322D01*
X12384Y8318D01*
X12383Y8315D01*
X12382Y8312D01*
X12381Y8309D01*
X12379Y8306D01*
X12378Y8303D01*
X12376Y8300D01*
X12374Y8298D01*
X12371Y8295D01*
X12369Y8293D01*
X12366Y8291D01*
X12363Y8290D01*
X12360Y8288D01*
X12357Y8287D01*
X12354Y8286D01*
X12350Y8285D01*
X12347Y8285D01*
X12344Y8285D01*
X12340Y8285D01*
X12337Y8286D01*
X12334Y8286D01*
X12330Y8288D01*
X12327Y8289D01*
X12324Y8290D01*
X12322Y8292D01*
X12319Y8294D01*
X12316Y8296D01*
X12314Y8299D01*
X12312Y8301D01*
X12310Y8304D01*
X12309Y8307D01*
X12307Y8310D01*
X12306Y8313D01*
X12305Y8317D01*
X12305Y8320D01*
X12304Y8323D01*
Y8327D01*
X12305Y8330D01*
X12305Y8333D01*
X12306Y8337D01*
X12307Y8340D01*
X12309Y8343D01*
X12310Y8346D01*
X12312Y8349D01*
X12314Y8351D01*
X12316Y8354D01*
X12319Y8356D01*
X12322Y8358D01*
X12324Y8360D01*
X12327Y8361D01*
X12330Y8362D01*
X12334Y8364D01*
X12337Y8364D01*
X12340Y8365D01*
X12344Y8365D01*
X12347Y8365D01*
X12350Y8365D01*
X12354Y8364D01*
X12357Y8363D01*
X12360Y8362D01*
X12363Y8360D01*
X12366Y8359D01*
X12369Y8357D01*
X12371Y8355D01*
X12374Y8352D01*
X12376Y8350D01*
X12378Y8347D01*
X12379Y8344D01*
X12381Y8341D01*
X12382Y8338D01*
X12383Y8335D01*
X12384Y8332D01*
X12384Y8328D01*
X12384Y8325D01*
X10193Y8335D02*
X10193Y8332D01*
X10193Y8328D01*
X10192Y8325D01*
X10191Y8322D01*
X10190Y8319D01*
X10189Y8316D01*
X10187Y8313D01*
X10186Y8310D01*
X10184Y8307D01*
X10182Y8305D01*
X10180Y8302D01*
X10177Y8300D01*
X10175Y8298D01*
X10172Y8296D01*
X10170Y8294D01*
X10167Y8293D01*
X10164Y8291D01*
X10161Y8290D01*
X10157Y8289D01*
X10154Y8289D01*
X10151Y8288D01*
X10148Y8288D01*
X10144D01*
X10141Y8288D01*
X10138Y8289D01*
X10135Y8289D01*
X10131Y8290D01*
X10128Y8291D01*
X10125Y8293D01*
X10122Y8294D01*
X10120Y8296D01*
X10117Y8298D01*
X10115Y8300D01*
X10112Y8302D01*
X10110Y8305D01*
X10108Y8307D01*
X10106Y8310D01*
X10105Y8313D01*
X10103Y8316D01*
X10102Y8319D01*
X10101Y8322D01*
X10100Y8325D01*
X10099Y8328D01*
X10099Y8332D01*
X10099Y8335D01*
X10099Y8338D01*
X10099Y8342D01*
X10100Y8345D01*
X10101Y8348D01*
X10102Y8351D01*
X10103Y8354D01*
X10105Y8357D01*
X10106Y8360D01*
X10108Y8363D01*
X10110Y8365D01*
X10112Y8368D01*
X10115Y8370D01*
X10117Y8372D01*
X10120Y8374D01*
X10122Y8376D01*
X10125Y8377D01*
X10128Y8379D01*
X10131Y8380D01*
X10135Y8381D01*
X10138Y8381D01*
X10141Y8382D01*
X10144Y8382D01*
X10148D01*
X10151Y8382D01*
X10154Y8381D01*
X10157Y8381D01*
X10161Y8380D01*
X10164Y8379D01*
X10167Y8377D01*
X10170Y8376D01*
X10172Y8374D01*
X10175Y8372D01*
X10177Y8370D01*
X10180Y8368D01*
X10182Y8365D01*
X10184Y8363D01*
X10186Y8360D01*
X10187Y8357D01*
X10189Y8354D01*
X10190Y8351D01*
X10191Y8348D01*
X10192Y8345D01*
X10193Y8342D01*
X10193Y8338D01*
X10193Y8335D01*
X10181Y8435D02*
X10181Y8432D01*
X10181Y8428D01*
X10180Y8425D01*
X10179Y8422D01*
X10177Y8419D01*
X10176Y8416D01*
X10174Y8413D01*
X10172Y8411D01*
X10169Y8408D01*
X10167Y8406D01*
X10164Y8404D01*
X10161Y8403D01*
X10158Y8402D01*
X10154Y8401D01*
X10151Y8400D01*
X10148Y8400D01*
X10144D01*
X10141Y8400D01*
X10138Y8401D01*
X10134Y8402D01*
X10131Y8403D01*
X10128Y8404D01*
X10125Y8406D01*
X10123Y8408D01*
X10120Y8411D01*
X10118Y8413D01*
X10116Y8416D01*
X10115Y8419D01*
X10113Y8422D01*
X10112Y8425D01*
X10111Y8428D01*
X10111Y8432D01*
X10111Y8435D01*
X10111Y8438D01*
X10111Y8442D01*
X10112Y8445D01*
X10113Y8448D01*
X10115Y8451D01*
X10116Y8454D01*
X10118Y8457D01*
X10120Y8459D01*
X10123Y8462D01*
X10125Y8464D01*
X10128Y8466D01*
X10131Y8467D01*
X10134Y8468D01*
X10138Y8469D01*
X10141Y8470D01*
X10144Y8470D01*
X10148D01*
X10151Y8470D01*
X10154Y8469D01*
X10158Y8468D01*
X10161Y8467D01*
X10164Y8466D01*
X10167Y8464D01*
X10169Y8462D01*
X10172Y8459D01*
X10174Y8457D01*
X10176Y8454D01*
X10177Y8451D01*
X10179Y8448D01*
X10180Y8445D01*
X10181Y8442D01*
X10181Y8438D01*
X10181Y8435D01*
X12380D02*
X12380Y8432D01*
X12379Y8428D01*
X12378Y8425D01*
X12377Y8422D01*
X12376Y8419D01*
X12374Y8416D01*
X12372Y8413D01*
X12370Y8411D01*
X12368Y8408D01*
X12365Y8406D01*
X12362Y8404D01*
X12359Y8403D01*
X12356Y8402D01*
X12353Y8401D01*
X12349Y8400D01*
X12346Y8400D01*
X12343D01*
X12339Y8400D01*
X12336Y8401D01*
X12333Y8402D01*
X12330Y8403D01*
X12327Y8404D01*
X12324Y8406D01*
X12321Y8408D01*
X12319Y8411D01*
X12317Y8413D01*
X12315Y8416D01*
X12313Y8419D01*
X12312Y8422D01*
X12310Y8425D01*
X12310Y8428D01*
X12309Y8432D01*
X12309Y8435D01*
X12309Y8438D01*
X12310Y8442D01*
X12310Y8445D01*
X12312Y8448D01*
X12313Y8451D01*
X12315Y8454D01*
X12317Y8457D01*
X12319Y8459D01*
X12321Y8462D01*
X12324Y8464D01*
X12327Y8466D01*
X12330Y8467D01*
X12333Y8468D01*
X12336Y8469D01*
X12339Y8470D01*
X12343Y8470D01*
X12346D01*
X12349Y8470D01*
X12353Y8469D01*
X12356Y8468D01*
X12359Y8467D01*
X12362Y8466D01*
X12365Y8464D01*
X12368Y8462D01*
X12370Y8459D01*
X12372Y8457D01*
X12374Y8454D01*
X12376Y8451D01*
X12377Y8448D01*
X12378Y8445D01*
X12379Y8442D01*
X12380Y8438D01*
X12380Y8435D01*
X7997D02*
X7997Y8432D01*
X7996Y8428D01*
X7996Y8425D01*
X7995Y8422D01*
X7994Y8419D01*
X7993Y8416D01*
X7991Y8413D01*
X7990Y8410D01*
X7988Y8407D01*
X7986Y8404D01*
X7984Y8402D01*
X7981Y8399D01*
X7979Y8397D01*
X7976Y8395D01*
X7974Y8393D01*
X7971Y8392D01*
X7968Y8390D01*
X7965Y8389D01*
X7962Y8388D01*
X7958Y8387D01*
X7955Y8386D01*
X7952Y8386D01*
X7948Y8386D01*
X7945Y8386D01*
X7942Y8386D01*
X7938Y8387D01*
X7935Y8387D01*
X7932Y8388D01*
X7929Y8389D01*
X7926Y8391D01*
X7923Y8392D01*
X7920Y8394D01*
X7917Y8396D01*
X7915Y8398D01*
X7912Y8400D01*
X7910Y8403D01*
X7908Y8406D01*
X7906Y8408D01*
X7905Y8411D01*
X7903Y8414D01*
X7902Y8417D01*
X7901Y8420D01*
X7900Y8423D01*
X7899Y8427D01*
X7899Y8430D01*
X7898Y8433D01*
Y8437D01*
X7899Y8440D01*
X7899Y8443D01*
X7900Y8447D01*
X7901Y8450D01*
X7902Y8453D01*
X7903Y8456D01*
X7905Y8459D01*
X7906Y8462D01*
X7908Y8464D01*
X7910Y8467D01*
X7912Y8470D01*
X7915Y8472D01*
X7917Y8474D01*
X7920Y8476D01*
X7923Y8478D01*
X7926Y8479D01*
X7929Y8481D01*
X7932Y8482D01*
X7935Y8483D01*
X7938Y8483D01*
X7942Y8484D01*
X7945Y8484D01*
X7948Y8484D01*
X7952Y8484D01*
X7955Y8484D01*
X7958Y8483D01*
X7962Y8482D01*
X7965Y8481D01*
X7968Y8480D01*
X7971Y8478D01*
X7974Y8477D01*
X7976Y8475D01*
X7979Y8473D01*
X7981Y8471D01*
X7984Y8468D01*
X7986Y8466D01*
X7988Y8463D01*
X7990Y8460D01*
X7991Y8457D01*
X7993Y8454D01*
X7994Y8451D01*
X7995Y8448D01*
X7996Y8445D01*
X7996Y8442D01*
X7997Y8438D01*
X7997Y8435D01*
D15*
X9628Y8968D02*
X12432Y8968D01*
X12380Y7045D02*
X7739D01*
X7738Y8969D02*
X9639Y8968D01*
X7739Y8957D02*
Y7035D01*
D02*
M02*
