*%FSLAX21Y21*%
*%MOIN*%
G01*
D14*
X12384Y8471D02*
Y8949D01*
X12376Y8478D02*
X12414D01*
Y8470D02*
X12385D01*
X12376Y8478D02*
Y8949D01*
X12368Y8949D02*
Y8483D01*
X12394Y8454D02*
X12414D01*
Y8462D02*
X12391D01*
X12397Y8446D02*
X12414D01*
X12392Y8459D02*
Y8949D01*
X12398Y8438D02*
X12414D01*
Y8526D02*
X12019D01*
X12019Y8518D02*
X12414D01*
Y8510D02*
X12019D01*
X12019Y8502D02*
X12414D01*
Y8494D02*
X12019D01*
X12360Y8486D02*
X12414D01*
X12360Y8486D02*
Y8949D01*
X12398Y8430D02*
X12414D01*
Y8422D02*
X12396D01*
X12394Y8414D02*
X12414D01*
Y8406D02*
X12389D01*
X12384Y8399D02*
Y8367D01*
X12392Y8358D02*
X12414D01*
Y8366D02*
X12385D01*
X12397Y8350D02*
X12414D01*
X12392Y8358D02*
Y8411D01*
X12400Y8342D02*
X12414D01*
Y8398D02*
X12383D01*
X12373Y8390D02*
X12414D01*
Y8382D02*
X12355D01*
X12375Y8374D02*
X12414D01*
X12376Y8374D02*
Y8392D01*
X12368Y8387D02*
Y8378D01*
X12352Y8488D02*
Y8949D01*
X12344Y8949D02*
Y8488D01*
X12336Y8488D02*
Y8949D01*
X12328Y8949D02*
Y8486D01*
X12320Y8483D02*
Y8949D01*
X12312Y8949D02*
Y8477D01*
X12304Y8470D02*
Y8949D01*
X12296Y8949D02*
Y8458D01*
X12064Y8428D02*
Y8949D01*
X12056Y8949D02*
Y8428D01*
X12048D02*
Y8949D01*
X12040Y8949D02*
Y8428D01*
X12032D02*
Y8949D01*
X12024Y8949D02*
Y8428D01*
X12020D02*
X12019Y8529D01*
X12064Y8406D02*
X12300D01*
X12306Y8398D02*
X12064D01*
Y8422D02*
X12293D01*
X12295Y8414D02*
X12064D01*
X12312Y8393D02*
Y8373D01*
X12316Y8390D02*
X12064D01*
X12320Y8387D02*
Y8378D01*
X12296Y8357D02*
Y8412D01*
X12304Y8400D02*
Y8367D01*
X12334Y8382D02*
X12064D01*
Y8428D02*
X12020D01*
X12064Y8374D02*
X12313D01*
X12021Y8385D02*
Y8423D01*
Y8385D02*
X12059D01*
X12064Y8366D02*
X12303D01*
X12297Y8358D02*
X12064D01*
X12021Y8347D02*
Y8385D01*
X12064Y8350D02*
X12292D01*
X12402Y8334D02*
X12414D01*
Y8326D02*
X12402D01*
X12400Y8342D02*
Y8949D01*
X12414Y8949D02*
Y8282D01*
X12408D02*
Y8949D01*
X12289Y8342D02*
X12064D01*
X12288Y8338D02*
Y8949D01*
X12287Y8334D02*
X12021D01*
X12402Y8318D02*
X12414D01*
Y8310D02*
X12400D01*
X12398Y8302D02*
X12414D01*
Y8294D02*
X12393D01*
X12387Y8286D02*
X12414D01*
Y8282D02*
X12383D01*
X12400D02*
Y8308D01*
X12392Y8292D02*
Y8282D01*
X12288Y8310D02*
X12022D01*
X12022Y8302D02*
X12291D01*
X12295Y8294D02*
X12022D01*
X12022Y8326D02*
X12286D01*
X12287Y8318D02*
X12022D01*
X12022Y8286D02*
X12301D01*
X12306Y8282D02*
X12248D01*
X12288D02*
Y8312D01*
X12296Y8293D02*
Y8282D01*
X12280D02*
Y8949D01*
X12272Y8949D02*
Y8282D01*
X12264D02*
Y8949D01*
X12216Y8949D02*
Y8283D01*
X12208Y8283D02*
Y8949D01*
X12256Y8949D02*
Y8282D01*
X12248D02*
Y8949D01*
X12240Y8949D02*
Y8282D01*
X12232Y8282D02*
Y8949D01*
X12224Y8949D02*
Y8282D01*
X12200Y8283D02*
Y8949D01*
X12192Y8949D02*
Y8283D01*
X12184Y8283D02*
Y8949D01*
X12176Y8949D02*
Y8283D01*
X12168Y8283D02*
Y8949D01*
X12160Y8949D02*
Y8284D01*
X12152Y8284D02*
Y8949D01*
X12144Y8949D02*
Y8284D01*
X12136Y8284D02*
Y8949D01*
X12128Y8949D02*
Y8284D01*
X12120Y8284D02*
Y8949D01*
X12112Y8949D02*
Y8284D01*
X12104Y8285D02*
Y8949D01*
X12064Y8428D02*
Y8342D01*
Y8428D01*
X12096Y8285D02*
Y8949D01*
X12088Y8949D02*
Y8285D01*
X12080Y8285D02*
Y8949D01*
X12072Y8949D02*
Y8285D01*
X12064Y8285D02*
Y8342D01*
X12021D01*
X12064D01*
X12048D02*
Y8286D01*
X12040Y8286D02*
Y8342D01*
X12032D02*
Y8286D01*
X12056Y8285D02*
Y8342D01*
X12022Y8286D02*
X12248Y8282D01*
X12024Y8286D02*
Y8342D01*
X12021D02*
X12022Y8286D01*
X11968Y8803D02*
Y8949D01*
X11960Y8949D02*
Y8803D01*
X11952D02*
Y8949D01*
X11944Y8949D02*
Y8803D01*
X11936D02*
Y8949D01*
X11928Y8949D02*
Y8803D01*
X11920D02*
Y8949D01*
X11912Y8949D02*
Y8803D01*
X11904D02*
Y8949D01*
X11896Y8949D02*
Y8803D01*
X11888D02*
Y8949D01*
X12414Y8949D02*
X11297Y8949D01*
X11880Y8949D02*
Y8803D01*
X11872D02*
Y8949D01*
X11864Y8949D02*
Y8803D01*
X11856D02*
Y8949D01*
X11848Y8949D02*
Y8803D01*
X11840D02*
Y8949D01*
X11832Y8949D02*
Y8803D01*
X11824D02*
Y8949D01*
X11297Y8942D02*
X12414D01*
Y8934D02*
X11297D01*
Y8926D02*
X12414D01*
Y8918D02*
X11297D01*
Y8910D02*
X12414D01*
Y8822D02*
X11308D01*
X11302Y8830D02*
X12414D01*
Y8814D02*
X11313D01*
X11816Y8803D02*
Y8949D01*
X11319Y8806D02*
X12414D01*
Y8902D02*
X11297D01*
Y8894D02*
X12414D01*
Y8886D02*
X11297D01*
Y8878D02*
X12414D01*
Y8870D02*
X11297D01*
Y8862D02*
X12414D01*
Y8854D02*
X11297D01*
Y8846D02*
X12414D01*
Y8838D02*
X11297D01*
X11808Y8803D02*
Y8949D01*
X11800Y8949D02*
Y8803D01*
X11792D02*
Y8949D01*
X11784Y8949D02*
Y8803D01*
X11776D02*
Y8949D01*
X11768Y8949D02*
Y8803D01*
X11760D02*
Y8949D01*
X11752Y8949D02*
Y8803D01*
X11744D02*
Y8949D01*
X11736Y8949D02*
Y8803D01*
X11728D02*
Y8949D01*
X11720Y8949D02*
Y8803D01*
X11712D02*
Y8949D01*
X11704Y8949D02*
Y8803D01*
X11696D02*
Y8949D01*
X11688Y8949D02*
Y8803D01*
X11680D02*
Y8949D01*
X11672Y8949D02*
Y8803D01*
X11664D02*
Y8949D01*
X11656Y8949D02*
Y8803D01*
X11648D02*
Y8949D01*
X11640Y8949D02*
Y8803D01*
X11632D02*
Y8949D01*
X11624Y8949D02*
Y8803D01*
X11616D02*
Y8949D01*
X11608Y8949D02*
Y8803D01*
X11600D02*
Y8949D01*
X11592Y8949D02*
Y8803D01*
X11584D02*
Y8949D01*
X11576Y8949D02*
Y8803D01*
X11568D02*
Y8949D01*
X11320Y8949D02*
Y8804D01*
X11312Y8816D02*
Y8949D01*
X11304Y8949D02*
Y8827D01*
X11297Y8837D02*
Y8949D01*
X11560Y8949D02*
Y8803D01*
X11552D02*
Y8949D01*
X11544Y8949D02*
Y8803D01*
X11536D02*
Y8949D01*
X11970Y8798D02*
X12414D01*
Y8790D02*
X11970D01*
Y8782D02*
X12414D01*
Y8774D02*
X11970D01*
Y8766D02*
X12414D01*
Y8758D02*
X11970D01*
Y8750D02*
X12414D01*
Y8742D02*
X11970D01*
Y8734D02*
X12414D01*
Y8726D02*
X11970D01*
Y8718D02*
X12414D01*
Y8710D02*
X11970D01*
Y8702D02*
X12414D01*
Y8694D02*
X11970D01*
Y8686D02*
X12414D01*
Y8678D02*
X11970D01*
Y8670D02*
X12414D01*
Y8662D02*
X11970D01*
Y8654D02*
X12414D01*
Y8646D02*
X11970D01*
X12003Y8558D02*
X12414D01*
Y8566D02*
X11999D01*
X12008Y8550D02*
X12414D01*
Y8542D02*
X12012D01*
X12016Y8534D02*
X12414D01*
X12328Y8486D02*
X12020D01*
X12020Y8478D02*
X12313D01*
X12304Y8470D02*
X12020D01*
X12020Y8462D02*
X12298D01*
X12294Y8454D02*
X12020D01*
X11970Y8638D02*
X12414D01*
Y8630D02*
X11970D01*
Y8622D02*
X12414D01*
Y8614D02*
X11973D01*
X11977Y8606D02*
X12414D01*
Y8598D02*
X11981D01*
X11986Y8590D02*
X12414D01*
Y8582D02*
X11990D01*
X11994Y8574D02*
X12414D01*
X11976Y8608D02*
Y8949D01*
X11528Y8949D02*
Y8803D01*
X11520D02*
Y8949D01*
X11512Y8949D02*
Y8803D01*
X11504D02*
Y8949D01*
X12016Y8949D02*
Y8534D01*
X12008Y8549D02*
Y8949D01*
X12000Y8949D02*
Y8564D01*
X11992Y8578D02*
Y8949D01*
X11984Y8949D02*
Y8593D01*
X11496Y8803D02*
Y8949D01*
X11488Y8949D02*
Y8803D01*
X11480D02*
Y8949D01*
X11472Y8949D02*
Y8803D01*
X11464D02*
Y8949D01*
X11456Y8949D02*
Y8803D01*
X11448D02*
Y8949D01*
X11440Y8949D02*
Y8803D01*
X11432D02*
Y8949D01*
X11424Y8949D02*
Y8803D01*
X11416D02*
Y8949D01*
X11408Y8949D02*
Y8803D01*
X11400D02*
Y8949D01*
X11392Y8949D02*
Y8803D01*
X11384D02*
Y8949D01*
X12020Y8446D02*
X12292D01*
X12291Y8438D02*
X12020D01*
X12020Y8430D02*
X12291D01*
X11970Y8619D02*
Y8803D01*
Y8619D02*
X12019Y8529D01*
X11376Y8803D02*
Y8949D01*
X11368Y8949D02*
Y8803D01*
X11360D02*
Y8949D01*
X11352Y8949D02*
Y8803D01*
X11344D02*
Y8949D01*
X11336Y8949D02*
Y8803D01*
X11321D02*
X11970D01*
X11328D02*
Y8949D01*
X11297Y8837D02*
X11321Y8803D01*
X11806Y8762D02*
X11806D01*
X11806D02*
X11767Y8723D01*
Y8609D01*
X11692Y8534D01*
X10442D01*
X10420Y8512D01*
Y8445D01*
X10406D01*
X10370Y8408D01*
Y7408D01*
X10276Y7314D01*
X8894D01*
X11620Y8655D02*
X11648Y8683D01*
X11620Y8655D02*
Y8588D01*
X11606Y8574D01*
X10378D01*
X10320Y8516D01*
Y8445D01*
X10306D01*
X10266Y8405D02*
Y7475D01*
Y8405D02*
X10306Y8445D01*
X10266Y7475D02*
X10186Y7395D01*
X9267D01*
X9269D02*
X8952D01*
X11191Y8925D02*
X11255Y8861D01*
X11191Y8925D02*
X8771D01*
X8671Y8825D01*
X11255Y8861D02*
Y8762D01*
X8671Y8825D02*
Y8481D01*
X8621Y8431D01*
Y8381D01*
X11146Y8895D02*
X11176Y8865D01*
X11146Y8895D02*
X8941D01*
X8871Y8825D01*
X11176Y8865D02*
Y8762D01*
X8871Y8825D02*
Y8481D01*
X8821Y8431D01*
Y8381D01*
X11071Y8865D02*
X11097Y8839D01*
Y8762D01*
X11071Y8865D02*
X9111D01*
X9121Y8435D02*
Y8381D01*
X9071Y8825D02*
X9111Y8865D01*
X9071Y8825D02*
Y8485D01*
X9121Y8435D01*
X11001Y8835D02*
X11019Y8817D01*
Y8762D01*
X11001Y8835D02*
X9306Y8834D01*
X9321Y8436D02*
Y8385D01*
X9271Y8800D02*
X9306Y8834D01*
X9271Y8800D02*
Y8485D01*
X9321Y8436D01*
X10980Y7525D02*
Y7285D01*
X10721Y8435D02*
X10771Y8485D01*
X10980Y7285D02*
X11019Y7246D01*
X10721Y8385D02*
Y8435D01*
Y7784D02*
X10980Y7525D01*
X10721Y7784D02*
Y8385D01*
X10821Y7770D02*
X11020Y7571D01*
X10821Y7770D02*
Y7973D01*
X11020Y7571D02*
Y7362D01*
X11019Y7325D01*
X10821Y8435D02*
X10871Y8485D01*
X10821Y8435D02*
Y8385D01*
Y7973D01*
X11058Y7676D02*
Y7285D01*
X10921Y8435D02*
X10971Y8485D01*
X11058Y7285D02*
X11097Y7246D01*
X10921Y8385D02*
Y8435D01*
Y7813D02*
X11058Y7676D01*
X10921Y7813D02*
Y8385D01*
X11097Y7836D02*
Y7327D01*
X11020Y8433D02*
X11071Y8485D01*
X11097Y7327D02*
X11097Y7325D01*
X11020Y8384D02*
Y8433D01*
Y7914D02*
X11097Y7836D01*
X11020Y7914D02*
Y8384D01*
X11671Y8435D02*
Y8485D01*
Y8435D02*
X11621Y8385D01*
X11619Y8367D01*
Y7635D01*
X11573Y7589D01*
X11275D01*
X11176Y7490D01*
Y7325D01*
X11771Y8435D02*
Y8485D01*
Y8435D02*
X11721Y8385D01*
Y7585D01*
X11668Y7532D01*
X11295D01*
X11216Y7453D01*
Y7285D01*
X11177Y7246D01*
X11176D01*
X11871Y8435D02*
Y8485D01*
Y8435D02*
X11821Y8385D01*
Y7544D01*
X11762Y7486D01*
X11326Y7485D01*
X11255Y7414D01*
Y7325D01*
X11971Y8435D02*
Y8485D01*
Y8435D02*
X11921Y8385D01*
Y7519D01*
X11841Y7439D01*
X11347D01*
X11295Y7387D01*
Y7285D01*
X11256Y7246D01*
X11255D01*
Y7246D01*
X9206Y7270D02*
X9001D01*
X8994Y7272D01*
X9821Y8435D02*
X9771Y8485D01*
X9821Y8435D02*
Y8385D01*
X9621D02*
Y8325D01*
X9708Y8238D01*
X9911D01*
X11071Y8180D02*
X11116Y8140D01*
Y7905D01*
X9522Y8384D02*
X9521Y8385D01*
X9522Y8384D02*
Y7798D01*
X11835Y7374D02*
X11880Y7329D01*
X11835Y7374D02*
X11552D01*
X11532Y7354D01*
X11413Y7334D02*
X11412D01*
Y7325D01*
X11412Y7325D01*
X11880Y7329D02*
Y7196D01*
X11532Y7297D02*
Y7354D01*
X11838Y7154D02*
X11880Y7196D01*
X11532Y7297D02*
X11520Y7285D01*
X11462D02*
X11413Y7334D01*
X11462Y7285D02*
X11520D01*
X11320Y7154D02*
X11838D01*
X11320D02*
X11300Y7134D01*
X9040D01*
X10584Y7812D02*
Y7977D01*
X10590Y7806D02*
X10681D01*
X10681Y7814D02*
X10583D01*
X10583Y7822D02*
X10682D01*
X10682Y7830D02*
X10583D01*
X10630Y7766D02*
X10681D01*
X10681Y7774D02*
X10622D01*
X10614Y7782D02*
X10681D01*
X10681Y7790D02*
X10606D01*
X10598Y7798D02*
X10681D01*
X10608Y7788D02*
Y8305D01*
X10616D02*
Y7780D01*
X10583Y7813D02*
X10586Y8305D01*
X10592D02*
Y7804D01*
X10600Y7796D02*
Y8305D01*
X10648D02*
Y7748D01*
X10656Y7740D02*
Y8305D01*
X10664D02*
Y7732D01*
X10624Y7772D02*
Y8305D01*
X10632D02*
Y7764D01*
X10640Y7756D02*
Y8305D01*
X10682Y7838D02*
X10583D01*
X10583Y7813D02*
X10895Y7501D01*
X10682Y7846D02*
X10583D01*
X10583Y7854D02*
X10682D01*
X10682Y7862D02*
X10583D01*
X10646Y7750D02*
X10692D01*
X10708Y7734D02*
X10662D01*
X10654Y7742D02*
X10700D01*
X10682Y7870D02*
X10583D01*
X10638Y7758D02*
X10684D01*
X10682Y7878D02*
X10583D01*
X10583Y7886D02*
X10682D01*
X10682Y7894D02*
X10583D01*
X10584Y7902D02*
X10682D01*
X10682Y7910D02*
X10584D01*
X10584Y7918D02*
X10682D01*
X10683Y7926D02*
X10584D01*
X10584Y7934D02*
X10683D01*
X10683Y7942D02*
X10584D01*
X10584Y7950D02*
X10683D01*
X10683Y7958D02*
X10584D01*
X10584Y7966D02*
X10683D01*
X10683Y7974D02*
X10584D01*
X10584Y7982D02*
X10683D01*
X10683Y7990D02*
X10584D01*
X10584Y7998D02*
X10683D01*
X10683Y8006D02*
X10584D01*
X10584Y8014D02*
X10683D01*
X10683Y8022D02*
X10584D01*
X10584Y8030D02*
X10683D01*
X10684Y8038D02*
X10584D01*
X10584Y8046D02*
X10684D01*
X10684Y8054D02*
X10584D01*
X10585Y8062D02*
X10684D01*
X10684Y8070D02*
X10585D01*
X10585Y8078D02*
X10684D01*
X10684Y8086D02*
X10585D01*
X10585Y8094D02*
X10684D01*
X10684Y8102D02*
X10585D01*
X10585Y8110D02*
X10684D01*
X10684Y8118D02*
X10585D01*
X10585Y8126D02*
X10684D01*
X10684Y8134D02*
X10585D01*
X10585Y8142D02*
X10685D01*
X10685Y8150D02*
X10585D01*
X10585Y8158D02*
X10685D01*
X10685Y8166D02*
X10585D01*
X10585Y8174D02*
X10685D01*
X10685Y8182D02*
X10585D01*
X10585Y8190D02*
X10685D01*
X10685Y8198D02*
X10585D01*
X10585Y8206D02*
X10685D01*
X10685Y8214D02*
X10585D01*
X10585Y8222D02*
X10685D01*
X10685Y8230D02*
X10586D01*
X10586Y8238D02*
X10685D01*
X10685Y8246D02*
X10586D01*
X10586Y8254D02*
X10686D01*
X10686Y8262D02*
X10586D01*
X10586Y8270D02*
X10686D01*
X10686Y8278D02*
X10586D01*
X10586Y8286D02*
X10686D01*
X10686Y8294D02*
X10586D01*
X10586Y8302D02*
X10686D01*
X10686Y8305D02*
X10586D01*
X10895Y7360D02*
X10926D01*
X10932Y7510D02*
X10886D01*
X10908Y7534D02*
X10862D01*
X10878Y7518D02*
X10924D01*
X10916Y7526D02*
X10870D01*
X10895Y7501D02*
Y7360D01*
X10912D02*
Y7530D01*
X10920Y7522D02*
Y7360D01*
X10936Y7363D02*
Y7506D01*
X10928Y7514D02*
Y7361D01*
X10856Y7540D02*
Y7586D01*
X10854Y7542D02*
X10900D01*
X10840Y7556D02*
Y7602D01*
X10846Y7550D02*
X10892D01*
X10848Y7548D02*
Y7594D01*
X10888Y7554D02*
Y7508D01*
X10904Y7538D02*
Y7360D01*
X10896D02*
Y7546D01*
X10864Y7532D02*
Y7578D01*
X10880Y7562D02*
Y7516D01*
X10872Y7524D02*
Y7570D01*
X10895Y7366D02*
X10937D01*
Y7374D02*
X10895D01*
Y7382D02*
X10937D01*
Y7390D02*
X10895D01*
Y7398D02*
X10937D01*
X10940Y7358D02*
Y7325D01*
X10937Y7406D02*
X10895D01*
Y7414D02*
X10937D01*
Y7422D02*
X10895D01*
Y7430D02*
X10937D01*
Y7438D02*
X10895D01*
Y7446D02*
X10937D01*
Y7454D02*
X10895D01*
X10894Y7502D02*
X10937D01*
Y7505D02*
X10681Y7761D01*
X10937Y7505D02*
Y7363D01*
Y7462D02*
X10895D01*
Y7470D02*
X10937D01*
Y7478D02*
X10895D01*
Y7486D02*
X10937D01*
Y7494D02*
X10895D01*
X10756Y7686D02*
X10710D01*
X10718Y7678D02*
X10764D01*
X10732Y7710D02*
X10686D01*
X10702Y7694D02*
X10748D01*
X10740Y7702D02*
X10694D01*
X10752Y7690D02*
Y7644D01*
X10768Y7628D02*
Y7674D01*
X10760Y7682D02*
Y7636D01*
X10736Y7660D02*
Y7706D01*
X10726Y7670D02*
X10772D01*
X10744Y7652D02*
Y7698D01*
X10680Y7716D02*
Y8305D01*
X10678Y7718D02*
X10724D01*
X10672Y7724D02*
Y8305D01*
X10670Y7726D02*
X10716D01*
X10681Y7761D02*
X10686Y8305D01*
X10712Y7730D02*
Y7684D01*
X10728Y7668D02*
Y7714D01*
X10720Y7722D02*
Y7676D01*
X10688Y7708D02*
Y7754D01*
X10704Y7738D02*
Y7692D01*
X10696Y7700D02*
Y7746D01*
X10798Y7598D02*
X10844D01*
X10852Y7590D02*
X10806D01*
X10820Y7622D02*
X10774D01*
X10790Y7606D02*
X10836D01*
X10828Y7614D02*
X10782D01*
X10832Y7610D02*
Y7564D01*
X10838Y7558D02*
X10884D01*
X10876Y7566D02*
X10830D01*
X10824Y7572D02*
Y7618D01*
X10822Y7574D02*
X10868D01*
X10860Y7582D02*
X10814D01*
X10804Y7638D02*
X10758D01*
X10766Y7630D02*
X10812D01*
X10780Y7662D02*
X10734D01*
X10750Y7646D02*
X10796D01*
X10788Y7654D02*
X10742D01*
X10800Y7642D02*
Y7596D01*
X10816Y7580D02*
Y7626D01*
X10808Y7634D02*
Y7588D01*
X10776Y7620D02*
Y7666D01*
X10792Y7650D02*
Y7604D01*
X10784Y7612D02*
Y7658D01*
X9289Y8565D02*
Y8792D01*
X9296Y8799D02*
Y8565D01*
X9304D02*
Y8807D01*
X9312Y8815D02*
Y8565D01*
X9320D02*
Y8816D01*
X9328Y8816D02*
Y8565D01*
X9336D02*
Y8816D01*
X9344Y8816D02*
Y8565D01*
X9352D02*
Y8816D01*
X9360Y8816D02*
Y8565D01*
X9368D02*
Y8816D01*
X9376Y8816D02*
Y8565D01*
X9384D02*
Y8816D01*
X9392Y8816D02*
Y8565D01*
X9400D02*
Y8816D01*
X9408Y8816D02*
Y8565D01*
X9416D02*
Y8816D01*
X9424Y8816D02*
Y8565D01*
X9432D02*
Y8816D01*
X9440Y8816D02*
Y8565D01*
X9448D02*
Y8816D01*
X9456Y8816D02*
Y8565D01*
X9464D02*
Y8816D01*
X9472Y8816D02*
Y8565D01*
X9480D02*
Y8816D01*
X9488Y8816D02*
Y8565D01*
X9496D02*
Y8816D01*
X9504Y8816D02*
Y8565D01*
X9512D02*
Y8816D01*
X9520Y8816D02*
Y8565D01*
X9528D02*
Y8816D01*
X9536Y8816D02*
Y8565D01*
X9544D02*
Y8816D01*
X9552Y8816D02*
Y8565D01*
X9560D02*
Y8816D01*
X9568Y8816D02*
Y8565D01*
X9289D02*
X10344D01*
X10345Y8566D02*
X9289D01*
X9576Y8565D02*
Y8816D01*
X9584Y8816D02*
Y8565D01*
X9592D02*
Y8816D01*
X9600Y8816D02*
Y8565D01*
X9608D02*
Y8816D01*
X9616Y8816D02*
Y8565D01*
X9624D02*
Y8816D01*
X9632Y8816D02*
Y8565D01*
X9640D02*
Y8816D01*
X9648Y8816D02*
Y8565D01*
X9656D02*
Y8816D01*
X9664Y8816D02*
Y8565D01*
X9672D02*
Y8816D01*
X9680Y8816D02*
Y8565D01*
X9688D02*
Y8816D01*
X9696Y8816D02*
Y8565D01*
X9704D02*
Y8816D01*
X9712Y8816D02*
Y8565D01*
X9720D02*
Y8816D01*
X9728Y8816D02*
Y8565D01*
X9736D02*
Y8816D01*
X9744Y8816D02*
Y8565D01*
X9752D02*
Y8816D01*
X9760Y8816D02*
Y8565D01*
X9768D02*
Y8816D01*
X9776Y8816D02*
Y8565D01*
X9784D02*
Y8816D01*
X9792Y8816D02*
Y8565D01*
X9800D02*
Y8816D01*
X9808Y8816D02*
Y8565D01*
X9816D02*
Y8816D01*
X9824Y8816D02*
Y8565D01*
X9832D02*
Y8816D01*
X9840Y8816D02*
Y8565D01*
X9313Y8816D02*
X9289Y8792D01*
X9848Y8816D02*
Y8565D01*
X9856D02*
Y8816D01*
X9864Y8816D02*
Y8565D01*
X9872D02*
Y8816D01*
X9880Y8816D02*
Y8565D01*
X9888D02*
Y8816D01*
X9896Y8816D02*
Y8565D01*
X9904D02*
Y8816D01*
X9912Y8816D02*
Y8565D01*
X9920D02*
Y8816D01*
X9928Y8816D02*
Y8565D01*
X9936D02*
Y8816D01*
X9944Y8816D02*
Y8565D01*
X9952D02*
Y8816D01*
X9960Y8816D02*
Y8565D01*
X9968D02*
Y8816D01*
X9976Y8816D02*
Y8565D01*
X9984D02*
Y8816D01*
X9992Y8816D02*
Y8565D01*
X10000D02*
Y8816D01*
X10008Y8816D02*
Y8565D01*
X10016D02*
Y8816D01*
X10024Y8816D02*
Y8565D01*
X10032D02*
Y8816D01*
X10353Y8574D02*
X9289D01*
Y8582D02*
X10361D01*
X10370Y8590D02*
X9289D01*
Y8598D02*
X10956D01*
Y8606D02*
X9289D01*
Y8614D02*
X10956D01*
Y8622D02*
X9289D01*
Y8630D02*
X10956D01*
X10916Y8654D02*
X9289D01*
Y8662D02*
X10909D01*
X10956Y8638D02*
X9289D01*
Y8646D02*
X10932D01*
X10903Y8678D02*
X9289D01*
Y8686D02*
X10903D01*
X10905Y8670D02*
X9289D01*
Y8694D02*
X10904D01*
X10907Y8702D02*
X9289D01*
Y8710D02*
X10914D01*
X10915Y8734D02*
X9289D01*
Y8718D02*
X10926D01*
X10928Y8726D02*
X9289D01*
Y8758D02*
X10903D01*
X10903Y8766D02*
X9289D01*
Y8742D02*
X10908D01*
X10904Y8750D02*
X9289D01*
Y8774D02*
X10904D01*
X10040Y8816D02*
Y8565D01*
X10048D02*
Y8816D01*
X9289Y8782D02*
X10908D01*
X10056Y8816D02*
Y8565D01*
X9289Y8790D02*
X10915D01*
X10928Y8798D02*
X9295D01*
X9303Y8806D02*
X10956D01*
Y8814D02*
X9311D01*
X9313Y8816D02*
X10956Y8817D01*
X10064Y8816D02*
Y8565D01*
X10072D02*
Y8816D01*
X10080Y8816D02*
Y8565D01*
X10088D02*
Y8816D01*
X10096Y8816D02*
Y8565D01*
X10104D02*
Y8816D01*
X10112Y8816D02*
Y8565D01*
X10120D02*
Y8816D01*
X10128Y8816D02*
Y8565D01*
X10136D02*
Y8816D01*
X10144Y8816D02*
Y8565D01*
X10152D02*
Y8816D01*
X10160Y8817D02*
Y8565D01*
X10168D02*
Y8817D01*
X10176Y8817D02*
Y8565D01*
X10184D02*
Y8817D01*
X10192Y8817D02*
Y8565D01*
X10200D02*
Y8817D01*
X10208Y8817D02*
Y8565D01*
X10216D02*
Y8817D01*
X10224Y8817D02*
Y8565D01*
X10232D02*
Y8817D01*
X10240Y8817D02*
Y8565D01*
X10248D02*
Y8817D01*
X10256Y8817D02*
Y8565D01*
X10264D02*
Y8817D01*
X10272Y8817D02*
Y8565D01*
X10280D02*
Y8817D01*
X10288Y8817D02*
Y8565D01*
X10296D02*
Y8817D01*
X10304Y8817D02*
Y8565D01*
X10312D02*
Y8817D01*
X10320Y8817D02*
Y8565D01*
X10328D02*
Y8817D01*
X10336Y8817D02*
Y8565D01*
X10344Y8565D02*
Y8817D01*
X10365Y8587D02*
X10344Y8565D01*
X10352Y8573D02*
Y8817D01*
X10360Y8817D02*
Y8581D01*
X10368Y8589D02*
Y8817D01*
X10376Y8817D02*
Y8592D01*
X10384Y8592D02*
Y8817D01*
X10378Y8592D02*
X10956D01*
X10392D02*
Y8817D01*
X10400Y8817D02*
Y8592D01*
X10408D02*
Y8817D01*
X10416Y8817D02*
Y8592D01*
X10424D02*
Y8817D01*
X10432Y8817D02*
Y8592D01*
X10440D02*
Y8817D01*
X10448Y8817D02*
Y8592D01*
X10456D02*
Y8817D01*
X10464Y8817D02*
Y8592D01*
X10472D02*
Y8817D01*
X10480Y8817D02*
Y8592D01*
X10488D02*
Y8817D01*
X10496Y8817D02*
Y8592D01*
X10504D02*
Y8817D01*
X10512Y8817D02*
Y8592D01*
X10520D02*
Y8817D01*
X10528Y8817D02*
Y8592D01*
X10536D02*
Y8817D01*
X10544Y8817D02*
Y8592D01*
X10552D02*
Y8817D01*
X10560Y8817D02*
Y8592D01*
X10568D02*
Y8817D01*
X10576Y8817D02*
Y8592D01*
X10584D02*
Y8817D01*
X10592Y8817D02*
Y8592D01*
X10600D02*
Y8817D01*
X10608Y8817D02*
Y8592D01*
X10616D02*
Y8817D01*
X10624Y8817D02*
Y8592D01*
X10632D02*
Y8817D01*
X10640Y8817D02*
Y8592D01*
X10648D02*
Y8817D01*
X10656Y8817D02*
Y8592D01*
X10664D02*
Y8817D01*
X10672Y8817D02*
Y8592D01*
X10680D02*
Y8817D01*
X10688Y8817D02*
Y8592D01*
X10696D02*
Y8817D01*
X10704Y8817D02*
Y8592D01*
X10712D02*
Y8817D01*
X10720Y8817D02*
Y8592D01*
X10728D02*
Y8817D01*
X10736Y8817D02*
Y8592D01*
X10744D02*
Y8817D01*
X10752Y8817D02*
Y8592D01*
X10760D02*
Y8817D01*
X10768Y8817D02*
Y8592D01*
X10776D02*
Y8817D01*
X10784Y8817D02*
Y8592D01*
X10792D02*
Y8817D01*
X10800Y8817D02*
Y8592D01*
X10808D02*
Y8817D01*
X10816Y8817D02*
Y8592D01*
X10824D02*
Y8817D01*
X10832Y8817D02*
Y8592D01*
X10840D02*
Y8817D01*
X10912Y8658D02*
Y8592D01*
X10904D02*
Y8672D01*
X10920Y8651D02*
Y8592D01*
X10912Y8708D02*
Y8737D01*
X10904Y8751D02*
Y8694D01*
X10907Y8683D02*
X10940D01*
X10920Y8715D02*
Y8730D01*
X10928Y8647D02*
Y8592D01*
X10936D02*
Y8645D01*
X10944Y8645D02*
Y8592D01*
X10952D02*
Y8647D01*
X10940Y8650D02*
Y8683D01*
Y8716D01*
X10956Y8648D02*
Y8592D01*
X10940Y8729D02*
Y8762D01*
X10956Y8727D02*
Y8718D01*
X10848Y8817D02*
Y8592D01*
X10856D02*
Y8817D01*
X10864Y8817D02*
Y8592D01*
X10872D02*
Y8817D01*
X10880Y8817D02*
Y8592D01*
X10888D02*
Y8817D01*
X10896Y8817D02*
Y8592D01*
X10904Y8773D02*
Y8817D01*
X10912Y8817D02*
Y8787D01*
X10920Y8794D02*
Y8817D01*
X10907Y8762D02*
X10940D01*
Y8795D01*
X10928Y8798D02*
Y8817D01*
X10936Y8817D02*
Y8800D01*
X10944Y8800D02*
Y8817D01*
X10952Y8817D02*
Y8798D01*
X10956Y8797D02*
Y8817D01*
X11320Y7387D02*
Y7374D01*
X11328Y7374D02*
Y7395D01*
X11336Y7403D02*
Y7374D01*
X11344Y7374D02*
Y7411D01*
X11354Y7421D02*
X11313Y7380D01*
X11352Y7374D02*
Y7419D01*
X11360Y7421D02*
Y7374D01*
X11368Y7374D02*
Y7421D01*
X11376D02*
Y7374D01*
X11384Y7374D02*
Y7421D01*
X11392D02*
Y7374D01*
X11400Y7374D02*
Y7421D01*
X11408D02*
Y7374D01*
X11416Y7374D02*
Y7421D01*
X11424D02*
Y7374D01*
X11432Y7374D02*
Y7421D01*
X11440D02*
Y7374D01*
X11448Y7374D02*
Y7421D01*
X11456D02*
Y7374D01*
X11464Y7374D02*
Y7421D01*
X11472D02*
Y7374D01*
X11480Y7374D02*
Y7421D01*
X11488D02*
Y7374D01*
X11496Y7374D02*
Y7421D01*
X11504D02*
Y7374D01*
X11512Y7374D02*
Y7421D01*
X11520D02*
Y7374D01*
X11527Y7374D02*
X11313Y7374D01*
X11527Y7374D02*
X11539Y7387D01*
X11535Y7382D02*
X11315D01*
X11528Y7375D02*
Y7421D01*
X11544Y7390D02*
X11323D01*
X11536Y7383D02*
Y7421D01*
X11544D02*
Y7390D01*
X11552Y7392D02*
X11835D01*
X11552D02*
Y7421D01*
X11560D02*
Y7392D01*
X11568D02*
Y7421D01*
X11576D02*
Y7392D01*
X11584D02*
Y7421D01*
X11331Y7398D02*
X12414D01*
Y7406D02*
X11339D01*
X11592Y7392D02*
Y7421D01*
X11347Y7414D02*
X12414D01*
X11841Y7421D02*
X11354D01*
X11600D02*
Y7392D01*
X11608D02*
Y7421D01*
X11616D02*
Y7392D01*
X11624D02*
Y7421D01*
X11632D02*
Y7392D01*
X11640D02*
Y7421D01*
X11648D02*
Y7392D01*
X11656D02*
Y7421D01*
X11664D02*
Y7392D01*
X11672D02*
Y7421D01*
X11680D02*
Y7392D01*
X11688D02*
Y7421D01*
X11696D02*
Y7392D01*
X11704D02*
Y7421D01*
X11712D02*
Y7392D01*
X11720D02*
Y7421D01*
X11728D02*
Y7392D01*
X11736D02*
Y7421D01*
X11744D02*
Y7392D01*
X11752D02*
Y7421D01*
X11760D02*
Y7392D01*
X11768D02*
Y7421D01*
X11776D02*
Y7392D01*
X11784D02*
Y7421D01*
X11792D02*
Y7392D01*
X11800D02*
Y7421D01*
X11808D02*
Y7392D01*
X11816D02*
Y7421D01*
X11824D02*
Y7392D01*
X11848Y7387D02*
X11860Y7375D01*
X11856Y7378D02*
Y7429D01*
X11864Y7437D02*
Y7375D01*
X11872Y7375D02*
Y7445D01*
X11880Y7453D02*
Y7375D01*
X11888Y7375D02*
Y7461D01*
X11916Y7375D02*
X11860Y7375D01*
X11896Y7375D02*
Y7469D01*
X11916Y7375D02*
Y7064D01*
X11904Y7375D02*
Y7477D01*
X11920Y7493D02*
Y7064D01*
X11912Y7375D02*
Y7485D01*
X11928Y7501D02*
Y7064D01*
X11936D02*
Y7509D01*
X11832Y7421D02*
Y7392D01*
X11840Y7391D02*
Y7421D01*
X11848Y7422D02*
Y7386D01*
X11854Y7426D02*
X11934Y7506D01*
X11944Y7064D02*
Y8305D01*
X11952D02*
Y7064D01*
X11960D02*
Y8305D01*
X11968D02*
Y7064D01*
X11976D02*
Y8305D01*
X11984D02*
Y7064D01*
X11992D02*
Y8305D01*
X12000D02*
Y7064D01*
X12008D02*
Y8305D01*
X12016D02*
Y7064D01*
X12024D02*
Y8305D01*
X12032D02*
Y7064D01*
X12040D02*
Y8305D01*
X12048D02*
Y7064D01*
X12056D02*
Y8305D01*
X11939D02*
Y7519D01*
X11916Y7064D02*
X12380D01*
X12414Y7070D02*
X11916D01*
Y7078D02*
X12414D01*
Y7086D02*
X11916D01*
Y7094D02*
X12414D01*
Y7102D02*
X11916D01*
Y7110D02*
X12414D01*
Y7118D02*
X11916D01*
Y7126D02*
X12414D01*
Y7134D02*
X11916D01*
Y7142D02*
X12414D01*
Y7150D02*
X11916D01*
Y7158D02*
X12414D01*
Y7166D02*
X11916D01*
Y7174D02*
X12414D01*
Y7182D02*
X11916D01*
Y7190D02*
X12414D01*
Y7198D02*
X11916D01*
X11843Y7390D02*
X12414D01*
Y7422D02*
X11847D01*
X11916Y7206D02*
X12414D01*
Y7382D02*
X11852D01*
X11857Y7430D02*
X12414D01*
Y7438D02*
X11865D01*
X11873Y7446D02*
X12414D01*
Y7454D02*
X11881D01*
X11889Y7462D02*
X12414D01*
Y7470D02*
X11897D01*
X11905Y7478D02*
X12414D01*
Y7486D02*
X11913D01*
X11916Y7214D02*
X12414D01*
Y7063D02*
X12386D01*
X12414Y7222D02*
X11916D01*
Y7230D02*
X12414D01*
Y7238D02*
X11916D01*
Y7246D02*
X12414D01*
Y7254D02*
X11916D01*
Y7262D02*
X12414D01*
Y7270D02*
X11916D01*
Y7278D02*
X12414D01*
Y7286D02*
X11916D01*
Y7294D02*
X12414D01*
Y7302D02*
X11916D01*
Y7310D02*
X12414D01*
Y7318D02*
X11916D01*
Y7326D02*
X12414D01*
Y7334D02*
X11916D01*
Y7342D02*
X12414D01*
Y7350D02*
X11916D01*
Y7358D02*
X12414D01*
Y7366D02*
X11916D01*
Y7374D02*
X12414D01*
Y7494D02*
X11921D01*
X11929Y7502D02*
X12414D01*
Y7510D02*
X11937D01*
X11939Y7518D02*
X12414D01*
Y7526D02*
X11939D01*
Y7534D02*
X12414D01*
Y7542D02*
X11939D01*
Y7550D02*
X12414D01*
X12064Y7064D02*
Y8305D01*
X12072D02*
Y7064D01*
X12080D02*
Y8305D01*
X12088D02*
Y7064D01*
X12096D02*
Y8305D01*
X12104D02*
Y7064D01*
X12112D02*
Y8305D01*
X11939Y7558D02*
X12414D01*
Y7566D02*
X11939D01*
X12120Y7064D02*
Y8305D01*
X12128D02*
Y7064D01*
X12136D02*
Y8305D01*
X12144D02*
Y7064D01*
X12152D02*
Y8305D01*
X12160D02*
Y7064D01*
X11939Y7574D02*
X12414D01*
Y7582D02*
X11939D01*
Y7590D02*
X12414D01*
Y7598D02*
X11939D01*
Y7606D02*
X12414D01*
Y7614D02*
X11939D01*
Y7622D02*
X12414D01*
Y7630D02*
X11939D01*
Y7638D02*
X12414D01*
Y7646D02*
X11939D01*
Y7654D02*
X12414D01*
Y7662D02*
X11939D01*
Y7670D02*
X12414D01*
Y7678D02*
X11939D01*
Y7686D02*
X12414D01*
X12168Y8305D02*
Y7064D01*
X12176D02*
Y8305D01*
X12184D02*
Y7064D01*
X12192D02*
Y8305D01*
X12200D02*
Y7064D01*
X12208D02*
Y8305D01*
X12216D02*
Y7064D01*
X12224D02*
Y8305D01*
X12232D02*
Y7064D01*
X12240D02*
Y8305D01*
X12248D02*
Y7064D01*
X12256D02*
Y8305D01*
X12264D02*
Y7064D01*
X12272D02*
Y8305D01*
X12280D02*
Y7064D01*
X12320D02*
Y8272D01*
X12328Y8269D02*
Y7064D01*
X12336D02*
Y8268D01*
X12344Y8267D02*
Y7064D01*
X12288D02*
Y8305D01*
X12296Y8293D02*
Y7064D01*
X12304D02*
Y8283D01*
X12312Y8277D02*
Y7064D01*
X12352D02*
Y8267D01*
X12360Y8269D02*
Y7064D01*
X12368D02*
Y8272D01*
X12376Y8276D02*
Y7064D01*
X12392Y7063D02*
Y8292D01*
X12400Y8305D02*
Y7063D01*
X12408D02*
Y8305D01*
X12414D02*
Y7063D01*
Y7694D02*
X11939D01*
Y7702D02*
X12414D01*
Y7710D02*
X11939D01*
Y7718D02*
X12414D01*
Y7726D02*
X11939D01*
Y7734D02*
X12414D01*
Y7742D02*
X11939D01*
Y7750D02*
X12414D01*
Y7758D02*
X11939D01*
Y7766D02*
X12414D01*
Y7774D02*
X11939D01*
Y7782D02*
X12414D01*
Y7790D02*
X11939D01*
Y7798D02*
X12414D01*
Y7806D02*
X11939D01*
Y7814D02*
X12414D01*
Y7822D02*
X11939D01*
Y7830D02*
X12414D01*
Y7838D02*
X11939D01*
Y7846D02*
X12414D01*
Y7854D02*
X11939D01*
Y7862D02*
X12414D01*
Y7870D02*
X11939D01*
Y7878D02*
X12414D01*
Y7886D02*
X11939D01*
Y7894D02*
X12414D01*
Y7902D02*
X11939D01*
Y7910D02*
X12414D01*
Y7918D02*
X11939D01*
Y7926D02*
X12414D01*
Y7934D02*
X11939D01*
Y7942D02*
X12414D01*
Y7950D02*
X11939D01*
Y7958D02*
X12414D01*
Y7966D02*
X11939D01*
Y7974D02*
X12414D01*
Y7982D02*
X11939D01*
Y7990D02*
X12414D01*
Y7998D02*
X11939D01*
Y8006D02*
X12414D01*
Y8014D02*
X11939D01*
Y8022D02*
X12414D01*
Y8030D02*
X11939D01*
Y8038D02*
X12414D01*
Y8046D02*
X11939D01*
Y8054D02*
X12414D01*
Y8062D02*
X11939D01*
Y8070D02*
X12414D01*
Y8078D02*
X11939D01*
Y8086D02*
X12414D01*
Y8094D02*
X11939D01*
Y8102D02*
X12414D01*
Y8110D02*
X11939D01*
Y8118D02*
X12414D01*
Y8126D02*
X11939D01*
Y8134D02*
X12414D01*
Y8142D02*
X11939D01*
Y8150D02*
X12414D01*
Y8158D02*
X11939D01*
Y8166D02*
X12414D01*
Y8174D02*
X11939D01*
Y8182D02*
X12414D01*
Y8190D02*
X11939D01*
Y8198D02*
X12414D01*
Y8206D02*
X11939D01*
Y8214D02*
X12414D01*
Y8222D02*
X11939D01*
Y8230D02*
X12414D01*
Y8238D02*
X11939D01*
Y8246D02*
X12414D01*
Y8254D02*
X11939D01*
Y8270D02*
X12326D01*
X12310Y8278D02*
X11939D01*
Y8286D02*
X12301D01*
X12295Y8294D02*
X11939D01*
Y8302D02*
X12291D01*
X12290Y8305D02*
X11939D01*
Y8262D02*
X12414D01*
Y8270D02*
X12363D01*
X12378Y8278D02*
X12414D01*
Y8286D02*
X12387D01*
X12393Y8294D02*
X12414D01*
Y8302D02*
X12398D01*
X12399Y8305D02*
X12414D01*
X7892Y8302D02*
X7758D01*
Y8310D02*
X7888D01*
X7888Y8309D02*
Y8249D01*
X7948Y8270D02*
X7758D01*
Y8278D02*
X7916D01*
X7905Y8286D02*
X7758D01*
Y8294D02*
X7897D01*
X7883Y8326D02*
X7758D01*
Y8334D02*
X7883D01*
X7883Y8342D02*
X7758D01*
Y8318D02*
X7885D01*
X7884Y8350D02*
X7758D01*
Y8358D02*
X7887D01*
X7890Y8366D02*
X7758D01*
X7912Y8281D02*
Y8249D01*
X7896D02*
Y8295D01*
X7904Y8287D02*
Y8249D01*
X7936D02*
Y8271D01*
X7944Y8270D02*
Y8249D01*
X7920D02*
Y8276D01*
X7928Y8273D02*
Y8249D01*
X7952D02*
Y8270D01*
X7960Y8271D02*
Y8249D01*
X7758D02*
Y8949D01*
X7760Y8949D02*
Y8249D01*
X7768D02*
Y8949D01*
X7776Y8949D02*
Y8249D01*
X7784D02*
Y8949D01*
X7792Y8949D02*
Y8249D01*
X7800D02*
Y8949D01*
X7758Y8406D02*
X7887D01*
X7884Y8414D02*
X7758D01*
Y8422D02*
X7882D01*
X7808Y8249D02*
Y8949D01*
X7758Y8374D02*
X7896D01*
X7903Y8382D02*
X7758D01*
Y8390D02*
X7898D01*
X7891Y8398D02*
X7758D01*
X7816Y8249D02*
Y8949D01*
X7824Y8949D02*
Y8249D01*
X7832D02*
Y8949D01*
X7840Y8949D02*
Y8249D01*
X7848D02*
Y8949D01*
X7856Y8949D02*
Y8249D01*
X7864D02*
Y8949D01*
X7888Y8404D02*
Y8361D01*
X7896Y8375D02*
Y8392D01*
X7872Y8249D02*
Y8949D01*
X7880Y8949D02*
Y8249D01*
X7968D02*
Y8273D01*
X7976Y8277D02*
Y8249D01*
X7758D02*
X8258D01*
X8258Y8254D02*
X7758D01*
Y8262D02*
X8258D01*
X8258Y8270D02*
X7948D01*
X7984Y8281D02*
Y8249D01*
X7992D02*
Y8288D01*
X8000Y8297D02*
Y8249D01*
X7979Y8278D02*
X8258D01*
X8258Y8286D02*
X7990D01*
X7998Y8294D02*
X8258D01*
X8008Y8311D02*
Y8249D01*
X8004Y8302D02*
X8258D01*
X8258Y8310D02*
X8008D01*
X8010Y8318D02*
X8258D01*
X8258Y8326D02*
X8012D01*
X8013Y8334D02*
X8258D01*
X8259Y8342D02*
X8012D01*
X8011Y8350D02*
X8259D01*
X8000Y8373D02*
Y8393D01*
X7992Y8382D02*
X8259D01*
X8259Y8374D02*
X8000D01*
X7998Y8390D02*
X8259D01*
X8259Y8398D02*
X8004D01*
X8016Y8249D02*
Y8949D01*
X8024Y8949D02*
Y8249D01*
X8032D02*
Y8949D01*
X8040Y8949D02*
Y8249D01*
X8064D02*
Y8643D01*
X8048Y8949D02*
Y8249D01*
X8056D02*
Y8949D01*
X8008Y8406D02*
Y8359D01*
X8072Y8249D02*
Y8643D01*
X8080D02*
Y8249D01*
X8088D02*
Y8643D01*
X8005Y8366D02*
X8259D01*
X8259Y8358D02*
X8008D01*
X8008Y8406D02*
X8259D01*
X8259Y8414D02*
X8011D01*
X7881Y8430D02*
X7758D01*
Y8438D02*
X7880D01*
X7881Y8446D02*
X7758D01*
Y8454D02*
X7883D01*
X7886Y8462D02*
X7758D01*
Y8470D02*
X7890D01*
X7896Y8478D02*
X7758D01*
Y8486D02*
X7904D01*
X7915Y8494D02*
X7758D01*
Y8502D02*
X7942D01*
X8062Y8646D02*
X7758D01*
Y8654D02*
X8062D01*
Y8662D02*
X7758D01*
Y8670D02*
X8062D01*
Y8678D02*
X7758D01*
Y8686D02*
X8062D01*
Y8694D02*
X7758D01*
Y8702D02*
X8062D01*
Y8710D02*
X7758D01*
Y8718D02*
X8062D01*
Y8726D02*
X7758D01*
X7888Y8949D02*
Y8466D01*
X7896Y8478D02*
Y8949D01*
X7904Y8949D02*
Y8486D01*
X7758Y8734D02*
X8062D01*
Y8750D02*
X7758D01*
Y8758D02*
X8062D01*
X7912Y8949D02*
Y8492D01*
X8062Y8766D02*
X7758D01*
Y8774D02*
X8062D01*
Y8782D02*
X7758D01*
Y8790D02*
X8062D01*
Y8798D02*
X7758D01*
Y8806D02*
X8062D01*
Y8814D02*
X7758D01*
Y8822D02*
X8062D01*
X7920Y8949D02*
Y8496D01*
X7968Y8499D02*
Y8949D01*
X7976Y8949D02*
Y8496D01*
X7984Y8491D02*
Y8949D01*
X7992Y8949D02*
Y8485D01*
X8000Y8477D02*
Y8949D01*
X8008Y8949D02*
Y8464D01*
X7928Y8499D02*
Y8949D01*
X7936Y8949D02*
Y8501D01*
X7944Y8502D02*
Y8949D01*
X7952Y8949D02*
Y8502D01*
X8062Y8643D02*
Y8734D01*
X8064D02*
Y8743D01*
X7960Y8949D02*
Y8501D01*
X8062Y8743D02*
Y8834D01*
X8236Y8510D02*
X7758D01*
Y8518D02*
X8243D01*
X8258Y8526D02*
X7758D01*
Y8534D02*
X8317D01*
X8321Y8542D02*
X7758D01*
Y8550D02*
X8326D01*
X8330Y8558D02*
X7758D01*
Y8598D02*
X8331D01*
X8323Y8606D02*
X7758D01*
Y8614D02*
X8315D01*
X8307Y8622D02*
X7758D01*
Y8566D02*
X8334D01*
X8339Y8574D02*
X7758D01*
Y8582D02*
X8343D01*
X8347Y8590D02*
X7758D01*
X8012Y8454D02*
X8241D01*
X8231Y8470D02*
X8005D01*
X8009Y8462D02*
X8235D01*
X8259Y8422D02*
X8014D01*
X8015Y8430D02*
X8260D01*
X8264Y8438D02*
X8015D01*
X8014Y8446D02*
X8253D01*
X8228Y8486D02*
X7991D01*
X7999Y8478D02*
X8229D01*
X8154Y8643D02*
X8062D01*
X8068Y8689D02*
X8108D01*
X8232Y8502D02*
X7953D01*
X7980Y8494D02*
X8229D01*
X8299Y8630D02*
X7758D01*
Y8638D02*
X8291D01*
X8275Y8742D02*
X7758D01*
Y8830D02*
X8062D01*
X7758Y8838D02*
X8640D01*
Y8846D02*
X7758D01*
Y8854D02*
X8640D01*
Y8862D02*
X7758D01*
Y8870D02*
X8640D01*
Y8878D02*
X7758D01*
Y8886D02*
X8640D01*
Y8894D02*
X7758D01*
Y8902D02*
X8640D01*
Y8910D02*
X7758D01*
Y8918D02*
X8640D01*
Y8926D02*
X7758D01*
Y8934D02*
X8640D01*
X8072Y8743D02*
Y8734D01*
X8080D02*
Y8743D01*
X8088D02*
Y8734D01*
X8062D02*
X8154D01*
X8096D02*
Y8743D01*
X8062D02*
X8154D01*
X8108Y8789D02*
X8068D01*
X8064Y8834D02*
Y8949D01*
X8072Y8949D02*
Y8834D01*
X8080D02*
Y8949D01*
X8088Y8949D02*
Y8834D01*
X7758Y8942D02*
X8640D01*
X8154Y8834D02*
X8062D01*
X7758Y8949D02*
X8640Y8949D01*
X8096Y8949D02*
Y8834D01*
Y8643D02*
Y8249D01*
X8104D02*
Y8643D01*
X8112D02*
Y8249D01*
X8120D02*
Y8643D01*
X8128D02*
Y8249D01*
X8136D02*
Y8643D01*
X8144D02*
Y8249D01*
X8152D02*
Y8643D01*
X8200Y8644D02*
Y8249D01*
X8208D02*
Y8643D01*
X8232Y8467D02*
Y8249D01*
X8233Y8485D02*
X8271D01*
X8216Y8644D02*
Y8249D01*
X8256D02*
Y8445D01*
X8240Y8455D02*
Y8249D01*
X8248D02*
Y8449D01*
X8259Y8428D02*
X8258Y8249D01*
X8259Y8428D02*
X8267Y8442D01*
X8271Y8447D02*
Y8485D01*
Y8523D01*
X8284Y8526D02*
X8312D01*
X8308Y8518D02*
X8299D01*
X8296Y8520D02*
Y8633D01*
X8304Y8625D02*
Y8513D01*
X8320Y8540D02*
Y8609D01*
X8328Y8601D02*
Y8555D01*
X8332Y8598D02*
X8292Y8638D01*
X8312Y8617D02*
Y8525D01*
X8168Y8667D02*
Y8249D01*
X8154Y8643D02*
Y8734D01*
X8160Y8949D02*
Y8249D01*
X8192D02*
Y8646D01*
X8224D02*
Y8249D01*
X8176D02*
Y8657D01*
X8184Y8650D02*
Y8249D01*
X8171Y8662D02*
X8154D01*
Y8670D02*
X8167D01*
X8108Y8689D02*
Y8648D01*
X8154Y8678D02*
X8164D01*
X8154Y8646D02*
X8193D01*
X8223D02*
X8286D01*
X8179Y8654D02*
X8154D01*
X8232Y8650D02*
Y8503D01*
X8240Y8515D02*
Y8657D01*
X8248Y8667D02*
Y8521D01*
X8272Y8528D02*
Y8661D01*
X8288Y8643D02*
Y8524D01*
X8256Y8525D02*
Y8949D01*
X8264Y8677D02*
Y8527D01*
X8271Y8662D02*
X8245D01*
X8280Y8653D02*
Y8527D01*
X8267Y8670D02*
X8249D01*
X8252Y8678D02*
X8264D01*
X8279Y8654D02*
X8237D01*
X8348Y8591D02*
X8305Y8512D01*
X8336Y8569D02*
Y8594D01*
X8358Y8637D02*
X8480D01*
X8358D02*
X8339Y8656D01*
X8352Y8643D02*
Y8677D01*
X8349Y8646D02*
X8640D01*
X8344Y8651D02*
Y8661D01*
X8341Y8654D02*
X8640D01*
Y8662D02*
X8345D01*
X8349Y8670D02*
X8640D01*
Y8678D02*
X8352D01*
X8496Y8630D02*
X8527Y8600D01*
X8521Y8606D02*
X8640D01*
Y8598D02*
X8527Y8600D01*
X8505Y8622D02*
X8640D01*
Y8614D02*
X8513D01*
X8360Y8637D02*
Y8949D01*
X8368Y8949D02*
Y8637D01*
X8376D02*
Y8949D01*
X8384Y8949D02*
Y8637D01*
X8357Y8638D02*
X8640D01*
Y8630D02*
X8497D01*
X8392Y8637D02*
Y8949D01*
X8400Y8949D02*
Y8637D01*
X8408D02*
Y8949D01*
X8416Y8949D02*
Y8637D01*
X8488Y8636D02*
Y8949D01*
X8496Y8949D02*
Y8631D01*
X8504Y8623D02*
Y8949D01*
X8512Y8949D02*
Y8615D01*
X8520Y8607D02*
Y8949D01*
X8424Y8949D02*
Y8637D01*
X8432D02*
Y8949D01*
X8440Y8949D02*
Y8637D01*
X8448D02*
Y8949D01*
X8456Y8949D02*
Y8637D01*
X8464D02*
Y8949D01*
X8472Y8949D02*
Y8637D01*
X8480D02*
Y8949D01*
X8528Y8949D02*
Y8600D01*
X8536Y8599D02*
Y8949D01*
X8544Y8949D02*
Y8599D01*
X8552Y8599D02*
Y8949D01*
X8560Y8949D02*
Y8599D01*
X8568Y8599D02*
Y8949D01*
X8576Y8949D02*
Y8599D01*
X8584Y8599D02*
Y8949D01*
X8592Y8949D02*
Y8599D01*
X8600Y8599D02*
Y8949D01*
X8608Y8949D02*
Y8598D01*
X8616Y8598D02*
Y8949D01*
X8624Y8949D02*
Y8598D01*
X8632Y8598D02*
Y8949D01*
X8640Y8949D02*
Y8598D01*
X8163Y8686D02*
X8154D01*
X8148Y8689D02*
X8108D01*
Y8729D01*
X8154Y8694D02*
X8163D01*
X8164Y8702D02*
X8154D01*
Y8710D02*
X8168D01*
X8173Y8718D02*
X8154D01*
X8104Y8734D02*
Y8743D01*
X8112D02*
Y8734D01*
X8120D02*
Y8743D01*
X8128D02*
Y8734D01*
X8154Y8726D02*
X8182D01*
X8136Y8734D02*
Y8743D01*
X8144D02*
Y8734D01*
X8184Y8728D02*
Y8750D01*
X8168Y8767D02*
Y8711D01*
X8176Y8721D02*
Y8757D01*
X8154Y8734D02*
X8202D01*
X8192Y8732D02*
Y8746D01*
X8232Y8750D02*
Y8728D01*
X8240Y8721D02*
Y8757D01*
X8152Y8743D02*
Y8734D01*
X8154Y8750D02*
X8184D01*
X8175Y8758D02*
X8154D01*
Y8766D02*
X8169D01*
X8200Y8744D02*
Y8734D01*
X8208Y8734D02*
Y8743D01*
X8216Y8744D02*
Y8734D01*
X8224Y8732D02*
Y8746D01*
X8108Y8748D02*
Y8789D01*
X8148D01*
X8108D02*
Y8829D01*
X8154Y8774D02*
X8165D01*
X8163Y8782D02*
X8154D01*
Y8790D02*
X8163D01*
X8163Y8798D02*
X8154D01*
X8104Y8834D02*
Y8949D01*
X8112Y8949D02*
Y8834D01*
X8120D02*
Y8949D01*
X8128Y8949D02*
Y8834D01*
X8154Y8806D02*
X8166D01*
X8170Y8814D02*
X8154D01*
X8136Y8834D02*
Y8949D01*
X8144Y8949D02*
Y8834D01*
X8154Y8822D02*
X8177D01*
X8154Y8834D02*
Y8743D01*
X8168Y8811D02*
Y8949D01*
X8176Y8949D02*
Y8821D01*
X8248Y8767D02*
Y8711D01*
X8184Y8828D02*
Y8949D01*
X8240Y8949D02*
Y8821D01*
X8188Y8830D02*
X8154D01*
X8152Y8834D02*
Y8949D01*
X8192Y8949D02*
Y8832D01*
X8200Y8834D02*
Y8949D01*
X8208Y8949D02*
Y8834D01*
X8216Y8834D02*
Y8949D01*
X8224Y8949D02*
Y8832D01*
X8232Y8828D02*
Y8949D01*
X8253Y8686D02*
X8263D01*
X8264Y8702D02*
X8252D01*
X8253Y8694D02*
X8263D01*
X8273Y8718D02*
X8243D01*
X8248Y8710D02*
X8268D01*
X8264Y8701D02*
Y8777D01*
X8272Y8761D02*
Y8717D01*
X8275Y8726D02*
X8234D01*
X8275Y8720D02*
Y8758D01*
X8269Y8766D02*
X8247D01*
X8251Y8774D02*
X8265D01*
X8275Y8734D02*
X8214D01*
X8343Y8718D02*
X8640D01*
X8275Y8750D02*
X8232D01*
X8241Y8758D02*
X8275D01*
X8344Y8761D02*
Y8717D01*
X8352Y8701D02*
Y8777D01*
X8353Y8686D02*
X8640D01*
Y8694D02*
X8353D01*
X8348Y8710D02*
X8640D01*
Y8702D02*
X8352D01*
X8341Y8726D02*
X8640D01*
Y8734D02*
X8341D01*
Y8742D02*
X8640D01*
X8341Y8758D02*
Y8720D01*
Y8750D02*
X8640D01*
Y8758D02*
X8341D01*
X8347Y8766D02*
X8640D01*
Y8774D02*
X8351D01*
X8263Y8782D02*
X8253D01*
X8253Y8790D02*
X8263D01*
X8266Y8806D02*
X8250D01*
X8253Y8798D02*
X8263D01*
X8264Y8801D02*
Y8949D01*
X8277Y8822D02*
X8239D01*
X8246Y8814D02*
X8270D01*
X8248Y8811D02*
Y8949D01*
X8272Y8949D02*
Y8817D01*
X8288Y8830D02*
X8228D01*
X8280Y8825D02*
Y8949D01*
X8288Y8949D02*
Y8830D01*
X8296Y8833D02*
Y8949D01*
X8353Y8782D02*
X8640D01*
X8352Y8801D02*
Y8949D01*
X8353Y8790D02*
X8640D01*
Y8798D02*
X8353D01*
X8346Y8814D02*
X8640D01*
Y8806D02*
X8350D01*
X8304Y8834D02*
Y8949D01*
X8312Y8949D02*
Y8834D01*
X8320Y8833D02*
Y8949D01*
X8328Y8949D02*
Y8830D01*
X8328Y8830D02*
X8640D01*
Y8822D02*
X8339D01*
X8336Y8825D02*
Y8949D01*
X8344Y8949D02*
Y8817D01*
X7928Y8273D02*
Y7064D01*
X7936D02*
Y8271D01*
X7944Y8270D02*
Y7064D01*
X7952D02*
Y8270D01*
X7960Y8271D02*
Y7064D01*
X7968D02*
Y8273D01*
X7896Y8295D02*
Y7064D01*
X7904D02*
Y8287D01*
X7912Y8281D02*
Y7064D01*
X7920D02*
Y8276D01*
X7976Y8277D02*
Y7064D01*
X7984D02*
Y8281D01*
X7992Y8288D02*
Y7064D01*
X8056D02*
Y7742D01*
X8064Y7738D02*
Y7064D01*
X8072D02*
Y7736D01*
X8080D02*
Y7064D01*
X8088D02*
Y7738D01*
X8096Y7742D02*
Y7064D01*
X8040D02*
Y7762D01*
X8048Y7748D02*
Y7064D01*
X8104D02*
Y7748D01*
X8112Y7762D02*
Y7064D01*
X8120D02*
Y7778D01*
X8128Y7786D02*
Y7064D01*
X8136D02*
Y7794D01*
X7758Y7262D02*
X8957D01*
X8868Y7286D02*
X7758D01*
Y7278D02*
X8882D01*
X8862Y7294D02*
X7758D01*
Y7302D02*
X8858D01*
X8856Y7310D02*
X7758D01*
X8144Y7064D02*
Y7802D01*
X7758Y7318D02*
X8856D01*
X8858Y7326D02*
X7758D01*
X8152Y7064D02*
Y7810D01*
X8160Y7820D02*
Y7064D01*
X8168D02*
Y8082D01*
X8176Y8086D02*
Y7064D01*
X7758Y7102D02*
X9020D01*
X9006Y7118D02*
X7758D01*
Y7110D02*
X9011D01*
X9003Y7126D02*
X7758D01*
Y7134D02*
X9002D01*
X9003Y7142D02*
X7758D01*
Y7150D02*
X9006D01*
X9011Y7158D02*
X7758D01*
Y7166D02*
X9020D01*
X8966Y7246D02*
X7758D01*
Y7238D02*
X8977D01*
X8956Y7270D02*
X7758D01*
Y7254D02*
X8961D01*
X8872Y7283D02*
Y7064D01*
X8880D02*
Y7279D01*
X8888Y7276D02*
Y7064D01*
X8896D02*
Y7276D01*
X8904Y7277D02*
Y7064D01*
X8912D02*
Y7281D01*
X8184Y7064D02*
Y8089D01*
X8192Y8093D02*
Y7064D01*
X8200D02*
Y8101D01*
X8856Y7314D02*
Y7064D01*
X8864D02*
Y7291D01*
X8920Y7286D02*
Y7064D01*
X8928D02*
Y7296D01*
X8992Y7234D02*
Y7064D01*
X9000D02*
Y7234D01*
X9008Y7114D02*
Y7064D01*
X9016D02*
Y7105D01*
X9024Y7100D02*
Y7064D01*
X9032D02*
Y7097D01*
X8936Y7064D02*
Y7296D01*
X8944D02*
Y7064D01*
X8952D02*
Y7296D01*
X8960Y7255D02*
Y7064D01*
X8968D02*
Y7244D01*
X8976Y7238D02*
Y7064D01*
X8984D02*
Y7235D01*
X8957Y7278D02*
X8906D01*
X8920Y7286D02*
X8959D01*
X8963Y7294D02*
X8926D01*
X8944Y7332D02*
Y7358D01*
X8927Y7296D02*
X8965D01*
X8928Y7332D02*
Y7366D01*
X8936Y7361D02*
Y7332D01*
X8952D02*
Y7357D01*
X8960Y7358D02*
Y7332D01*
X8968D02*
Y7361D01*
X8976Y7366D02*
Y7332D01*
X8984D02*
Y7375D01*
X9008Y7237D02*
Y7154D01*
X9016Y7163D02*
Y7241D01*
X9024Y7248D02*
Y7168D01*
X9040Y7096D02*
Y7064D01*
X9032Y7171D02*
Y7252D01*
X9040D02*
Y7172D01*
X8992Y7332D02*
Y7377D01*
X9000D02*
Y7332D01*
X9008D02*
Y7377D01*
X9016D02*
Y7332D01*
X9024D02*
Y7377D01*
X9032D02*
Y7332D01*
X7758Y7064D02*
Y8305D01*
X7760D02*
Y7064D01*
X7768D02*
Y8305D01*
X7776D02*
Y7064D01*
X7784D02*
Y8305D01*
X7792D02*
Y7064D01*
X7800D02*
Y8305D01*
X7808D02*
Y7064D01*
X7816D02*
Y8305D01*
X7824D02*
Y7064D01*
X7832D02*
Y8305D01*
X7840D02*
Y7064D01*
X7848D02*
Y8305D01*
X7856D02*
Y7064D01*
X7864D02*
Y8305D01*
X7872D02*
Y7064D01*
X7880D02*
Y8305D01*
X7888D02*
Y7064D01*
X8000D02*
Y8297D01*
X8008Y8305D02*
Y7064D01*
X8016D02*
Y8305D01*
X8024D02*
Y7064D01*
X8032D02*
Y8305D01*
X8208D02*
Y7064D01*
X8216D02*
Y8305D01*
X8224D02*
Y7064D01*
X8232D02*
Y8305D01*
X8240D02*
Y7064D01*
X8248D02*
Y8305D01*
X8256D02*
Y7064D01*
X8264D02*
Y8305D01*
X8272D02*
Y7064D01*
X8280D02*
Y8305D01*
X8288D02*
Y7064D01*
X8296D02*
Y8305D01*
X8304D02*
Y7064D01*
X8312D02*
Y8305D01*
X8320D02*
Y7064D01*
X8328D02*
Y8305D01*
X8336D02*
Y7064D01*
X8344D02*
Y8305D01*
X8352D02*
Y7064D01*
X8360D02*
Y8305D01*
X8368D02*
Y7064D01*
X8376D02*
Y8305D01*
X8384D02*
Y7064D01*
X8392D02*
Y8305D01*
X8400D02*
Y7064D01*
X8408D02*
Y8305D01*
X8416D02*
Y7064D01*
X8424D02*
Y8305D01*
X8432D02*
Y7064D01*
X8440D02*
Y8305D01*
X8448D02*
Y7064D01*
X8456D02*
Y8305D01*
X8464D02*
Y7064D01*
X8472D02*
Y8305D01*
X8480D02*
Y7064D01*
X8488D02*
Y8305D01*
X8496D02*
Y7064D01*
X8504D02*
Y8305D01*
X8512D02*
Y7064D01*
X8520D02*
Y8305D01*
X8528D02*
Y7064D01*
X8536D02*
Y8305D01*
X8544D02*
Y7064D01*
X8552D02*
Y8305D01*
X8560D02*
Y7064D01*
X8568D02*
Y8305D01*
X8576D02*
Y7064D01*
X8584D02*
Y8305D01*
X8592D02*
Y7064D01*
X8600D02*
Y8305D01*
X8608D02*
Y7064D01*
X8616D02*
Y8305D01*
X8624D02*
Y7064D01*
X8632D02*
Y8305D01*
X8640D02*
Y7064D01*
X8648D02*
Y8305D01*
X8656D02*
Y7064D01*
X8664D02*
Y8305D01*
X8672D02*
Y7064D01*
X8680D02*
Y8305D01*
X8688D02*
Y7064D01*
X8696D02*
Y8305D01*
X8704D02*
Y7064D01*
X8712D02*
Y8305D01*
X8720D02*
Y7064D01*
X8728D02*
Y8305D01*
X8736D02*
Y7064D01*
X8744D02*
Y8305D01*
X8752D02*
Y7064D01*
X8760D02*
Y8305D01*
X8768D02*
Y7064D01*
X8776D02*
Y8305D01*
X8784D02*
Y7064D01*
X8792D02*
Y8305D01*
X8800D02*
Y7064D01*
X8808D02*
Y8305D01*
X8816D02*
Y7064D01*
X8824D02*
Y8305D01*
X8832D02*
Y7064D01*
X8840D02*
Y8305D01*
X8848D02*
Y7064D01*
X8856Y7314D02*
Y8305D01*
X9048Y7097D02*
Y7064D01*
X9056D02*
Y7100D01*
X9064Y7105D02*
Y7064D01*
X9072D02*
Y7114D01*
X9080Y7116D02*
Y7064D01*
X9088D02*
Y7116D01*
X9096D02*
Y7064D01*
X9104D02*
Y7116D01*
X9112D02*
Y7064D01*
X9120D02*
Y7116D01*
X9128D02*
Y7064D01*
X9136D02*
Y7116D01*
X7758Y7064D02*
X10881D01*
Y7070D02*
X7758D01*
Y7078D02*
X10881D01*
Y7086D02*
X7758D01*
Y7094D02*
X10881D01*
Y7102D02*
X9060D01*
X9144Y7116D02*
Y7064D01*
X9152D02*
Y7116D01*
X9160D02*
Y7064D01*
X9168D02*
Y7116D01*
X9176D02*
Y7064D01*
X9184D02*
Y7116D01*
X9192D02*
Y7064D01*
X9048Y7171D02*
Y7252D01*
X9022Y7246D02*
X9177D01*
X9186Y7238D02*
X9011D01*
X9176Y7247D02*
Y7152D01*
X9184D02*
Y7239D01*
X9192Y7235D02*
Y7152D01*
X9072Y7154D02*
Y7252D01*
X9056D02*
Y7168D01*
X9064Y7163D02*
Y7252D01*
X9080D02*
Y7152D01*
X9088D02*
Y7252D01*
X9096D02*
Y7152D01*
X9104D02*
Y7252D01*
X9069Y7110D02*
X10881D01*
X10848Y7166D02*
X9060D01*
X7758Y7174D02*
X10848D01*
Y7116D02*
X9073D01*
Y7152D02*
X10848D01*
Y7158D02*
X9069D01*
X7758Y7182D02*
X10848D01*
Y7190D02*
X7758D01*
Y7198D02*
X10848D01*
Y7206D02*
X7758D01*
Y7214D02*
X10848D01*
Y7222D02*
X7758D01*
Y7230D02*
X10848D01*
X9200Y7116D02*
Y7064D01*
X9208D02*
Y7116D01*
X9216D02*
Y7064D01*
X9224D02*
Y7116D01*
X9232D02*
Y7064D01*
X9240D02*
Y7116D01*
X9248D02*
Y7064D01*
X9256D02*
Y7116D01*
X9264D02*
Y7064D01*
X9272D02*
Y7116D01*
X9280D02*
Y7064D01*
X9288D02*
Y7116D01*
X9296D02*
Y7064D01*
X9304D02*
Y7116D01*
X9312D02*
Y7064D01*
X9320D02*
Y7116D01*
X9328D02*
Y7064D01*
X9336D02*
Y7116D01*
X9344D02*
Y7064D01*
X9352D02*
Y7116D01*
X9360D02*
Y7064D01*
X9368D02*
Y7116D01*
X9376D02*
Y7064D01*
X9384D02*
Y7116D01*
X9392D02*
Y7064D01*
X9400D02*
Y7116D01*
X9408D02*
Y7064D01*
X9416D02*
Y7116D01*
X9424D02*
Y7064D01*
X9432D02*
Y7116D01*
X9440D02*
Y7064D01*
X9448D02*
Y7116D01*
X9200Y7152D02*
Y7232D01*
X9208Y7232D02*
Y7152D01*
X9216D02*
Y7233D01*
X9456Y7116D02*
Y7064D01*
X9464D02*
Y7116D01*
X9224Y7152D02*
Y7237D01*
X9232Y7242D02*
Y7152D01*
X9472Y7116D02*
Y7064D01*
X9480D02*
Y7116D01*
X9488D02*
Y7064D01*
X9496D02*
Y7116D01*
X9504D02*
Y7064D01*
X9512D02*
Y7116D01*
X9520D02*
Y7064D01*
X9528D02*
Y7116D01*
X9226Y7238D02*
X10848D01*
Y7246D02*
X9235D01*
X9536Y7116D02*
Y7064D01*
X9544D02*
Y7116D01*
X9552D02*
Y7064D01*
X9560D02*
Y7116D01*
X9112Y7152D02*
Y7252D01*
X9120D02*
Y7152D01*
X9128D02*
Y7252D01*
X9136D02*
Y7152D01*
X9144D02*
Y7252D01*
X9152D02*
Y7152D01*
X9173Y7252D02*
X9026D01*
X9160D02*
Y7152D01*
X9168D02*
Y7252D01*
X9240Y7253D02*
Y7152D01*
X9240Y7254D02*
X10848D01*
Y7262D02*
X9243D01*
X9244Y7270D02*
X10848D01*
Y7278D02*
X9243D01*
X8927Y7332D02*
X10269D01*
X10276Y7296D02*
X9234D01*
X9240D02*
Y7287D01*
X9248Y7296D02*
Y7152D01*
X9240Y7286D02*
X10848D01*
Y7294D02*
X9235D01*
X9040Y7332D02*
Y7377D01*
X9048D02*
Y7332D01*
X9056D02*
Y7377D01*
X9064D02*
Y7332D01*
X9072D02*
Y7377D01*
X9080D02*
Y7332D01*
X9088D02*
Y7377D01*
X9096D02*
Y7332D01*
X9104D02*
Y7377D01*
X9112D02*
Y7332D01*
X9120D02*
Y7377D01*
X9128D02*
Y7332D01*
X9136D02*
Y7377D01*
X9144D02*
Y7332D01*
X9152D02*
Y7377D01*
X9160D02*
Y7332D01*
X9168D02*
Y7377D01*
X9176D02*
Y7332D01*
X9184D02*
Y7377D01*
X9192D02*
Y7332D01*
X9200D02*
Y7377D01*
X9208D02*
Y7332D01*
X9216D02*
Y7377D01*
X9224D02*
Y7332D01*
X9232D02*
Y7377D01*
X9240D02*
Y7332D01*
X9248D02*
Y7377D01*
X9256Y7296D02*
Y7152D01*
X9264D02*
Y7296D01*
X9272D02*
Y7152D01*
X9280D02*
Y7296D01*
X9288D02*
Y7152D01*
X9296D02*
Y7296D01*
X9304D02*
Y7152D01*
X9312D02*
Y7296D01*
X9320D02*
Y7152D01*
X9328D02*
Y7296D01*
X9336D02*
Y7152D01*
X9344D02*
Y7296D01*
X9352D02*
Y7152D01*
X9360D02*
Y7296D01*
X9368D02*
Y7152D01*
X9376D02*
Y7296D01*
X9384D02*
Y7152D01*
X9392D02*
Y7296D01*
X9400D02*
Y7152D01*
X9408D02*
Y7296D01*
X9416D02*
Y7152D01*
X9424D02*
Y7296D01*
X9432D02*
Y7152D01*
X9440D02*
Y7296D01*
X9448D02*
Y7152D01*
X9456D02*
Y7296D01*
X9256Y7332D02*
Y7377D01*
X9264D02*
Y7332D01*
X9272D02*
Y7377D01*
X9280D02*
Y7332D01*
X9288D02*
Y7377D01*
X9296D02*
Y7332D01*
X9304D02*
Y7377D01*
X9312D02*
Y7332D01*
X9320D02*
Y7377D01*
X9328D02*
Y7332D01*
X9336D02*
Y7377D01*
X9344D02*
Y7332D01*
X9352D02*
Y7377D01*
X9464Y7296D02*
Y7152D01*
X9472D02*
Y7296D01*
X9480D02*
Y7152D01*
X9488D02*
Y7296D01*
X9496D02*
Y7152D01*
X9504D02*
Y7296D01*
X9512D02*
Y7152D01*
X9520D02*
Y7296D01*
X9360Y7332D02*
Y7377D01*
X9528Y7296D02*
Y7152D01*
X9536D02*
Y7296D01*
X9544D02*
Y7152D01*
X9552D02*
Y7296D01*
X9560D02*
Y7152D01*
X8056Y7742D02*
X7758D01*
Y7758D02*
X8042D01*
X8047Y7750D02*
X7758D01*
Y7766D02*
X8039D01*
X8038Y7774D02*
X7758D01*
Y7782D02*
X8039D01*
X8042Y7790D02*
X7758D01*
Y7798D02*
X8047D01*
X8056Y7806D02*
X7758D01*
Y7814D02*
X8076D01*
X8084Y7822D02*
X7758D01*
Y7830D02*
X8092D01*
X8100Y7838D02*
X7758D01*
Y7334D02*
X8862D01*
X8868Y7342D02*
X7758D01*
Y7350D02*
X8882D01*
X8943Y7358D02*
X7758D01*
Y7374D02*
X8920D01*
X8927Y7366D02*
X7758D01*
Y7382D02*
X8916D01*
X8914Y7390D02*
X7758D01*
Y7398D02*
X8914D01*
X8916Y7406D02*
X7758D01*
Y7414D02*
X8919D01*
X8925Y7422D02*
X7758D01*
Y7430D02*
X8937D01*
X8108Y7846D02*
X7758D01*
Y7854D02*
X8108D01*
X8108Y7862D02*
X7758D01*
Y7870D02*
X8108D01*
X8108Y7878D02*
X7758D01*
Y7886D02*
X8108D01*
X8108Y7894D02*
X7758D01*
Y7902D02*
X8108D01*
X8108Y7910D02*
X7758D01*
Y7918D02*
X8108D01*
X8108Y7926D02*
X7758D01*
Y7934D02*
X8108D01*
X8108Y7942D02*
X7758D01*
Y7950D02*
X8108D01*
X8108Y7958D02*
X7758D01*
Y7966D02*
X8108D01*
X8108Y7974D02*
X7758D01*
Y7982D02*
X8108D01*
X8108Y7990D02*
X7758D01*
Y7998D02*
X8108D01*
X8108Y8006D02*
X7758D01*
Y8014D02*
X8108D01*
X8108Y8022D02*
X7758D01*
Y8030D02*
X8108D01*
X8108Y8038D02*
X7758D01*
Y8046D02*
X8108D01*
X9368Y7377D02*
Y7332D01*
X8920Y7342D02*
Y7375D01*
X8985Y7377D02*
X9267D01*
X9376D02*
Y7332D01*
X9384D02*
Y7377D01*
X9392D02*
Y7332D01*
X8156Y7814D02*
X8114Y7772D01*
X9400Y7377D02*
Y7332D01*
X9408D02*
Y7377D01*
X9267Y7413D02*
X8985D01*
X9416Y7377D02*
Y7332D01*
X9424D02*
Y7377D01*
X9432D02*
Y7332D01*
X9440D02*
Y7377D01*
X9448D02*
Y7332D01*
X9456D02*
Y7377D01*
X9464D02*
Y7332D01*
X9488Y7782D02*
X8124D01*
X8132Y7790D02*
X9485D01*
X9484Y7798D02*
X8140D01*
X9472Y7377D02*
Y7332D01*
X9480D02*
Y7377D01*
X9488D02*
Y7332D01*
Y7413D02*
Y7782D01*
X8108Y8054D02*
X7758D01*
Y8062D02*
X8108D01*
X8108Y8070D02*
X7758D01*
X8074Y7812D02*
X8108Y7846D01*
X8108Y8078D02*
X7758D01*
Y8086D02*
X8108D01*
X8108Y8094D02*
X7758D01*
Y8102D02*
X8111D01*
X8116Y8110D02*
X7758D01*
X8108Y8090D02*
X8108Y7846D01*
X7948Y8270D02*
X7758D01*
X8148Y7806D02*
X9485D01*
X8124Y8118D02*
X7758D01*
X8116Y8110D02*
X8132Y8125D01*
X8164Y8078D02*
X8164Y7834D01*
X8164Y8078D02*
X8171Y8086D01*
X8132Y8126D02*
X7758D01*
Y8134D02*
X8133D01*
X8136Y8142D02*
X7758D01*
Y8150D02*
X8142D01*
X8153Y8158D02*
X7758D01*
X8864Y8305D02*
Y7337D01*
X8040Y7786D02*
Y8305D01*
X8872D02*
Y7345D01*
X8880Y7349D02*
Y8305D01*
X8888D02*
Y7352D01*
X8896Y7352D02*
Y8305D01*
X8912D02*
Y7347D01*
X8904Y7351D02*
Y8305D01*
X8920D02*
Y7415D01*
X8928Y7424D02*
Y8305D01*
X8936D02*
Y7429D01*
X8944Y7432D02*
Y8305D01*
X8952D02*
Y7433D01*
X8976Y7424D02*
Y8305D01*
X8960D02*
Y7432D01*
X8968Y7429D02*
Y8305D01*
X8984D02*
Y7415D01*
X8992Y7413D02*
Y8305D01*
X9000D02*
Y7413D01*
X9008D02*
Y8305D01*
X9016D02*
Y7413D01*
X9024D02*
Y8305D01*
X9032D02*
Y7413D01*
X9040D02*
Y8305D01*
X9048D02*
Y7413D01*
X9056D02*
Y8305D01*
X7916Y8278D02*
X7758D01*
Y8294D02*
X7897D01*
X7905Y8286D02*
X7758D01*
Y8305D02*
X7890D01*
X7892Y8302D02*
X7758D01*
X8048Y8305D02*
Y7800D01*
X8056Y7806D02*
Y8305D01*
X8064D02*
Y7810D01*
X8072Y7812D02*
Y8305D01*
X8080D02*
Y7818D01*
X8088Y7826D02*
Y8305D01*
X8096D02*
Y7834D01*
X8104Y7842D02*
Y8305D01*
X8112D02*
Y8105D01*
X8120Y8114D02*
Y8305D01*
X8128D02*
Y8122D01*
X8136Y8141D02*
Y8305D01*
X8144D02*
Y8152D01*
X8152Y8157D02*
Y8305D01*
X8160D02*
Y8161D01*
X8168Y8162D02*
Y8305D01*
X8192D02*
Y8155D01*
X8200Y8147D02*
Y8305D01*
X8176D02*
Y8161D01*
X8184Y8159D02*
Y8305D01*
X9064D02*
Y7413D01*
X9072D02*
Y8305D01*
X9080D02*
Y7413D01*
X9088D02*
Y8305D01*
X9096D02*
Y7413D01*
X9104D02*
Y8305D01*
X9112D02*
Y7413D01*
X9120D02*
Y8305D01*
X9128D02*
Y7413D01*
X9136D02*
Y8305D01*
X9144D02*
Y7413D01*
X9152D02*
Y8305D01*
X9160D02*
Y7413D01*
X9168D02*
Y8305D01*
X9176D02*
Y7413D01*
X9184D02*
Y8305D01*
X9192D02*
Y7413D01*
X9200D02*
Y8305D01*
X9208D02*
Y7413D01*
X9216D02*
Y8305D01*
X9224D02*
Y7413D01*
X9232D02*
Y8305D01*
X9240D02*
Y7413D01*
X9248D02*
Y8305D01*
X9256D02*
Y7413D01*
X9264D02*
Y8305D01*
X9272D02*
Y7413D01*
X9280D02*
Y8305D01*
X9288D02*
Y7413D01*
X9296D02*
Y8305D01*
X9304D02*
Y7413D01*
X9312D02*
Y8305D01*
X9320D02*
Y7413D01*
X9328D02*
Y8305D01*
X9336D02*
Y7413D01*
X9344D02*
Y8305D01*
X9352D02*
Y7413D01*
X9360D02*
Y8305D01*
X9368D02*
Y7413D01*
X9376D02*
Y8305D01*
X9384D02*
Y7413D01*
X9392D02*
Y8305D01*
X9400D02*
Y7413D01*
X9408D02*
Y8305D01*
X9416D02*
Y7413D01*
X9424D02*
Y8305D01*
X9432D02*
Y7413D01*
X9440D02*
Y8305D01*
X9448D02*
Y7413D01*
X9456D02*
Y8305D01*
X9464D02*
Y7413D01*
X9472D02*
Y8305D01*
X9480D02*
Y7413D01*
X10204Y7438D02*
X7758D01*
Y7446D02*
X10212D01*
X10220Y7454D02*
X7758D01*
Y7462D02*
X10228D01*
X10236Y7470D02*
X7758D01*
Y7478D02*
X10244D01*
X10248Y7486D02*
X7758D01*
Y7494D02*
X10248D01*
Y7502D02*
X7758D01*
Y7510D02*
X10248D01*
Y7518D02*
X7758D01*
Y7526D02*
X10248D01*
Y7534D02*
X7758D01*
Y7542D02*
X10248D01*
Y7550D02*
X7758D01*
Y7558D02*
X10248D01*
Y7566D02*
X7758D01*
Y7574D02*
X10248D01*
Y7582D02*
X7758D01*
Y7590D02*
X10248D01*
Y7598D02*
X7758D01*
Y7606D02*
X10248D01*
Y7614D02*
X7758D01*
Y7622D02*
X10248D01*
Y7630D02*
X7758D01*
Y7638D02*
X10248D01*
Y7646D02*
X7758D01*
X8113Y7766D02*
X9502D01*
X10248Y7654D02*
X7758D01*
X8116Y7774D02*
X9493D01*
X9488Y7814D02*
X8156D01*
X8161Y7822D02*
X9493D01*
X9501Y7830D02*
X8164D01*
X8164Y7838D02*
X9504D01*
Y7846D02*
X8164D01*
X8164Y7854D02*
X9504D01*
Y7862D02*
X8164D01*
X8164Y7870D02*
X9504D01*
Y7878D02*
X8164D01*
X7758Y7662D02*
X10248D01*
Y7670D02*
X7758D01*
Y7678D02*
X10248D01*
Y7686D02*
X7758D01*
Y7694D02*
X10248D01*
Y7702D02*
X7758D01*
Y7710D02*
X10248D01*
Y7718D02*
X7758D01*
Y7726D02*
X10248D01*
Y7734D02*
X7758D01*
X8096Y7742D02*
X10248D01*
Y7750D02*
X8105D01*
X8110Y7758D02*
X10248D01*
X9496Y7377D02*
Y7332D01*
X9504D02*
Y7377D01*
X9512D02*
Y7332D01*
X9520D02*
Y7377D01*
X9528D02*
Y7332D01*
X9536D02*
Y7377D01*
X9496Y7413D02*
Y7771D01*
X9504Y7765D02*
Y7413D01*
X9512D02*
Y7762D01*
X9520Y7760D02*
Y7413D01*
X9544Y7377D02*
Y7332D01*
X9528Y7413D02*
Y7761D01*
X9536Y7763D02*
Y7413D01*
X8926Y7334D02*
X10271D01*
X10279Y7342D02*
X8920D01*
X8906Y7350D02*
X10287D01*
X10295Y7358D02*
X8961D01*
X8977Y7366D02*
X10303D01*
X10311Y7374D02*
X8984D01*
X9269Y7377D02*
X10186D01*
X10180Y7414D02*
X8985D01*
X9269Y7413D02*
X10179D01*
X9552Y7377D02*
Y7332D01*
X9560D02*
Y7377D01*
X9544Y7413D02*
Y7767D01*
X9552Y7775D02*
Y7413D01*
X8979Y7422D02*
X10188D01*
X10196Y7430D02*
X8967D01*
X9542Y7766D02*
X10248D01*
X9560Y7793D02*
Y7413D01*
X9552Y7774D02*
X10248D01*
Y7782D02*
X9557D01*
X9504Y7886D02*
X8164D01*
X8164Y7894D02*
X9504D01*
Y7902D02*
X8164D01*
X8164Y7910D02*
X9504D01*
Y7918D02*
X8164D01*
X9540Y7838D02*
X10248D01*
Y7846D02*
X9540D01*
Y7854D02*
X10248D01*
Y7814D02*
X9557D01*
X9552Y7822D02*
X10248D01*
Y7830D02*
X9543D01*
X9540Y7862D02*
X10248D01*
Y7870D02*
X9540D01*
Y7878D02*
X10248D01*
Y7886D02*
X9540D01*
Y7894D02*
X10248D01*
Y7902D02*
X9540D01*
Y7910D02*
X10248D01*
Y7918D02*
X9540D01*
X9504Y7926D02*
X8164D01*
X8164Y7934D02*
X9504D01*
Y7942D02*
X8164D01*
X8164Y7950D02*
X9504D01*
Y7958D02*
X8164D01*
X8164Y7966D02*
X9504D01*
Y7974D02*
X8164D01*
X8164Y7982D02*
X9504D01*
Y7990D02*
X8164D01*
X9488Y7815D02*
Y8305D01*
X9496D02*
Y7826D01*
X9504Y7832D02*
Y8305D01*
X9504D02*
Y7832D01*
Y7998D02*
X8164D01*
X8164Y8006D02*
X9504D01*
Y8014D02*
X8164D01*
X8164Y8022D02*
X9504D01*
Y8030D02*
X8164D01*
X8164Y8038D02*
X9504D01*
Y8046D02*
X8164D01*
X8164Y8054D02*
X9504D01*
Y8062D02*
X8164D01*
X8164Y8070D02*
X9504D01*
Y8078D02*
X8164D01*
X8174Y8086D02*
X9504D01*
Y8094D02*
X8193D01*
X8201Y8102D02*
X9504D01*
Y8110D02*
X8205D01*
X8203Y8142D02*
X9504D01*
Y8118D02*
X8207D01*
X8208Y8126D02*
X9504D01*
Y8134D02*
X8206D01*
X7758Y8166D02*
X9504D01*
Y8174D02*
X7758D01*
Y8182D02*
X9504D01*
Y8150D02*
X8197D01*
X8186Y8158D02*
X9504D01*
Y8190D02*
X7758D01*
Y8198D02*
X9504D01*
Y8206D02*
X7758D01*
Y8214D02*
X9504D01*
Y8222D02*
X7758D01*
Y8230D02*
X9504D01*
Y8238D02*
X7758D01*
Y8246D02*
X9504D01*
Y8254D02*
X7758D01*
Y8262D02*
X9504D01*
Y8270D02*
X7948D01*
X7979Y8278D02*
X9504D01*
Y8286D02*
X7990D01*
X7998Y8294D02*
X9504D01*
Y8302D02*
X8004D01*
X8005Y8305D02*
X9504D01*
X9540Y7926D02*
X10248D01*
Y7934D02*
X9540D01*
Y7942D02*
X10248D01*
Y7950D02*
X9540D01*
Y7958D02*
X10248D01*
Y7966D02*
X9540D01*
Y7974D02*
X10248D01*
Y7982D02*
X9540D01*
Y7990D02*
X10248D01*
X9552Y7822D02*
Y8305D01*
X9560D02*
Y7803D01*
X9540Y7832D02*
Y8305D01*
X9544D02*
Y7830D01*
X9540Y7998D02*
X10248D01*
Y8006D02*
X9540D01*
Y8014D02*
X10248D01*
Y8022D02*
X9540D01*
Y8030D02*
X10248D01*
Y8038D02*
X9540D01*
Y8046D02*
X10248D01*
Y8054D02*
X9540D01*
Y8062D02*
X10248D01*
Y8070D02*
X9540D01*
Y8078D02*
X10248D01*
Y8086D02*
X9540D01*
Y8094D02*
X10248D01*
X9882Y8214D02*
X9540D01*
Y8230D02*
X9691D01*
X9700Y8222D02*
X9540D01*
Y8238D02*
X9683D01*
X9667Y8254D02*
X9540D01*
Y8246D02*
X9675D01*
X9659Y8262D02*
X9540D01*
Y8278D02*
X9643D01*
X9651Y8270D02*
X9540D01*
Y8294D02*
X9627D01*
X9635Y8286D02*
X9540D01*
Y8305D02*
X9616D01*
X9619Y8302D02*
X9540D01*
Y8102D02*
X10248D01*
Y8110D02*
X9540D01*
Y8118D02*
X10248D01*
Y8126D02*
X9540D01*
Y8134D02*
X10248D01*
Y8142D02*
X9540D01*
Y8150D02*
X10248D01*
Y8158D02*
X9540D01*
Y8166D02*
X10248D01*
Y8174D02*
X9540D01*
Y8182D02*
X10248D01*
Y8190D02*
X9540D01*
Y8206D02*
X9891D01*
X9540Y8198D02*
X10248D01*
X9568Y7116D02*
Y7064D01*
X9576D02*
Y7116D01*
X9584D02*
Y7064D01*
X9592D02*
Y7116D01*
X9600D02*
Y7064D01*
X9608D02*
Y7116D01*
X9616D02*
Y7064D01*
X9624D02*
Y7116D01*
X9632D02*
Y7064D01*
X9640D02*
Y7116D01*
X9648D02*
Y7064D01*
X9656D02*
Y7116D01*
X9664D02*
Y7064D01*
X9672D02*
Y7116D01*
X9680D02*
Y7064D01*
X9688D02*
Y7116D01*
X9696D02*
Y7064D01*
X9704D02*
Y7116D01*
X9712D02*
Y7064D01*
X9720D02*
Y7116D01*
X9728D02*
Y7064D01*
X9736D02*
Y7116D01*
X9744D02*
Y7064D01*
X9752D02*
Y7116D01*
X9760D02*
Y7064D01*
X9768D02*
Y7116D01*
X9568Y7152D02*
Y7296D01*
X9576D02*
Y7152D01*
X9584D02*
Y7296D01*
X9592D02*
Y7152D01*
X9600D02*
Y7296D01*
X9608D02*
Y7152D01*
X9616D02*
Y7296D01*
X9624D02*
Y7152D01*
X9632D02*
Y7296D01*
X9640D02*
Y7152D01*
X9648D02*
Y7296D01*
X9656D02*
Y7152D01*
X9664D02*
Y7296D01*
X9672D02*
Y7152D01*
X9680D02*
Y7296D01*
X9688D02*
Y7152D01*
X9696D02*
Y7296D01*
X9704D02*
Y7152D01*
X9712D02*
Y7296D01*
X9720D02*
Y7152D01*
X9728D02*
Y7296D01*
X9736D02*
Y7152D01*
X9744D02*
Y7296D01*
X9752D02*
Y7152D01*
X9760D02*
Y7296D01*
X9768D02*
Y7152D01*
X9776Y7116D02*
Y7064D01*
X9784D02*
Y7116D01*
X9792D02*
Y7064D01*
X9800D02*
Y7116D01*
X9808D02*
Y7064D01*
X9816D02*
Y7116D01*
X9824D02*
Y7064D01*
X9832D02*
Y7116D01*
X9840D02*
Y7064D01*
X9848D02*
Y7116D01*
X9856D02*
Y7064D01*
X9864D02*
Y7116D01*
X9872D02*
Y7064D01*
X9880D02*
Y7116D01*
X9888D02*
Y7064D01*
X9896D02*
Y7116D01*
X9904D02*
Y7064D01*
X9912D02*
Y7116D01*
X9920D02*
Y7064D01*
X9928D02*
Y7116D01*
X9936D02*
Y7064D01*
X9944D02*
Y7116D01*
X9952D02*
Y7064D01*
X9960D02*
Y7116D01*
X9968D02*
Y7064D01*
X9976D02*
Y7116D01*
X9984D02*
Y7064D01*
X9776Y7152D02*
Y7296D01*
X9784D02*
Y7152D01*
X9992Y7116D02*
Y7064D01*
X10000D02*
Y7116D01*
X10008D02*
Y7064D01*
X9792Y7152D02*
Y7296D01*
X9800D02*
Y7152D01*
X9808D02*
Y7296D01*
X9816D02*
Y7152D01*
X9824D02*
Y7296D01*
X9832D02*
Y7152D01*
X9840D02*
Y7296D01*
X10016Y7116D02*
Y7064D01*
X10024D02*
Y7116D01*
X10032D02*
Y7064D01*
X10040D02*
Y7116D01*
X10048D02*
Y7064D01*
X10056D02*
Y7116D01*
X10064D02*
Y7064D01*
X10072D02*
Y7116D01*
X10080D02*
Y7064D01*
X10088D02*
Y7116D01*
X10096D02*
Y7064D01*
X10104D02*
Y7116D01*
X10112D02*
Y7064D01*
X10120D02*
Y7116D01*
X9568Y7332D02*
Y7377D01*
X9576D02*
Y7332D01*
X9584D02*
Y7377D01*
X9592D02*
Y7332D01*
X9600D02*
Y7377D01*
X9608D02*
Y7332D01*
X9616D02*
Y7377D01*
X9624D02*
Y7332D01*
X9632D02*
Y7377D01*
X9640D02*
Y7332D01*
X9648D02*
Y7377D01*
X9656D02*
Y7332D01*
X9664D02*
Y7377D01*
X9848Y7296D02*
Y7152D01*
X9856D02*
Y7296D01*
X9864D02*
Y7152D01*
X9872D02*
Y7296D01*
X9880D02*
Y7152D01*
X9888D02*
Y7296D01*
X9672Y7332D02*
Y7377D01*
X9680D02*
Y7332D01*
X9688D02*
Y7377D01*
X9896Y7296D02*
Y7152D01*
X9904D02*
Y7296D01*
X9696Y7332D02*
Y7377D01*
X9912Y7296D02*
Y7152D01*
X9704Y7332D02*
Y7377D01*
X9712D02*
Y7332D01*
X9720D02*
Y7377D01*
X9728D02*
Y7332D01*
X9736D02*
Y7377D01*
X9744D02*
Y7332D01*
X9752D02*
Y7377D01*
X9760D02*
Y7332D01*
X9768D02*
Y7377D01*
X9776D02*
Y7332D01*
X9784D02*
Y7377D01*
X9792D02*
Y7332D01*
X9800D02*
Y7377D01*
X9808D02*
Y7332D01*
X9816D02*
Y7377D01*
X9824D02*
Y7332D01*
X9832D02*
Y7377D01*
X9840D02*
Y7332D01*
X9848D02*
Y7377D01*
X9856D02*
Y7332D01*
X9864D02*
Y7377D01*
X9872D02*
Y7332D01*
X9880D02*
Y7377D01*
X9888D02*
Y7332D01*
X9896D02*
Y7377D01*
X9904D02*
Y7332D01*
X9920Y7296D02*
Y7152D01*
X9928D02*
Y7296D01*
X9936D02*
Y7152D01*
X9944D02*
Y7296D01*
X9952D02*
Y7152D01*
X9960D02*
Y7296D01*
X9968D02*
Y7152D01*
X9976D02*
Y7296D01*
X9984D02*
Y7152D01*
X9992D02*
Y7296D01*
X10000D02*
Y7152D01*
X10008D02*
Y7296D01*
X10016D02*
Y7152D01*
X10024D02*
Y7296D01*
X10032D02*
Y7152D01*
X10040D02*
Y7296D01*
X10048D02*
Y7152D01*
X10056D02*
Y7296D01*
X10064D02*
Y7152D01*
X10072D02*
Y7296D01*
X10080D02*
Y7152D01*
X10088D02*
Y7296D01*
X10096D02*
Y7152D01*
X10104D02*
Y7296D01*
X10112D02*
Y7152D01*
X10120D02*
Y7296D01*
X9912Y7332D02*
Y7377D01*
X9920D02*
Y7332D01*
X9928D02*
Y7377D01*
X9936D02*
Y7332D01*
X9944D02*
Y7377D01*
X9952D02*
Y7332D01*
X9960D02*
Y7377D01*
X9968D02*
Y7332D01*
X9976D02*
Y7377D01*
X9984D02*
Y7332D01*
X9992D02*
Y7377D01*
X10000D02*
Y7332D01*
X10008D02*
Y7377D01*
X10016D02*
Y7332D01*
X10024D02*
Y7377D01*
X10032D02*
Y7332D01*
X10040D02*
Y7377D01*
X10048D02*
Y7332D01*
X10056D02*
Y7377D01*
X10064D02*
Y7332D01*
X10072D02*
Y7377D01*
X10080D02*
Y7332D01*
X10088D02*
Y7377D01*
X10096D02*
Y7332D01*
X10104D02*
Y7377D01*
X10112D02*
Y7332D01*
X10120D02*
Y7377D01*
X10128Y7116D02*
Y7064D01*
X10136D02*
Y7116D01*
X10144D02*
Y7064D01*
X10152D02*
Y7116D01*
X10160D02*
Y7064D01*
X10168D02*
Y7116D01*
X10176D02*
Y7064D01*
X10184D02*
Y7116D01*
X10192D02*
Y7064D01*
X10200D02*
Y7116D01*
X10208D02*
Y7064D01*
X10216D02*
Y7116D01*
X10224D02*
Y7064D01*
X10232D02*
Y7116D01*
X10240D02*
Y7064D01*
X10248D02*
Y7116D01*
X10256D02*
Y7064D01*
X10264D02*
Y7116D01*
X10272D02*
Y7064D01*
X10280D02*
Y7116D01*
X10288D02*
Y7064D01*
X10296D02*
Y7116D01*
X10304D02*
Y7064D01*
X10312D02*
Y7116D01*
X10320D02*
Y7064D01*
X10328D02*
Y7116D01*
X10336D02*
Y7064D01*
X10128Y7152D02*
Y7296D01*
X10344Y7116D02*
Y7064D01*
X10352D02*
Y7116D01*
X10360D02*
Y7064D01*
X10368D02*
Y7116D01*
X10136Y7152D02*
Y7296D01*
X10144D02*
Y7152D01*
X10152D02*
Y7296D01*
X10160D02*
Y7152D01*
X10168D02*
Y7296D01*
X10176D02*
Y7152D01*
X10184D02*
Y7296D01*
X10376Y7116D02*
Y7064D01*
X10384D02*
Y7116D01*
X10392D02*
Y7064D01*
X10400D02*
Y7116D01*
X10408D02*
Y7064D01*
X10416D02*
Y7116D01*
X10424D02*
Y7064D01*
X10432D02*
Y7116D01*
X10440D02*
Y7064D01*
X10448D02*
Y7116D01*
X10456D02*
Y7064D01*
X10464D02*
Y7116D01*
X10472D02*
Y7064D01*
X10480D02*
Y7116D01*
X10488D02*
Y7064D01*
X10496D02*
Y7116D01*
X10504D02*
Y7064D01*
X10512D02*
Y7116D01*
X10520D02*
Y7064D01*
X10528D02*
Y7116D01*
X10536D02*
Y7064D01*
X10544D02*
Y7116D01*
X10552D02*
Y7064D01*
X10560D02*
Y7116D01*
X10568D02*
Y7064D01*
X10576D02*
Y7116D01*
X10584D02*
Y7064D01*
X10592D02*
Y7116D01*
X10600D02*
Y7064D01*
X10608D02*
Y7116D01*
X10616D02*
Y7064D01*
X10624D02*
Y7116D01*
X10632D02*
Y7064D01*
X10640D02*
Y7116D01*
X10648D02*
Y7064D01*
X10656D02*
Y7116D01*
X10664D02*
Y7064D01*
X10672D02*
Y7116D01*
X10680D02*
Y7064D01*
X10688D02*
Y7116D01*
X10696D02*
Y7064D01*
X10704D02*
Y7116D01*
X10712D02*
Y7064D01*
X10720D02*
Y7116D01*
X10728D02*
Y7064D01*
X10736D02*
Y7116D01*
X10744D02*
Y7064D01*
X10752D02*
Y7116D01*
X10760D02*
Y7064D01*
X10768D02*
Y7116D01*
X10776D02*
Y7064D01*
X10784D02*
Y7116D01*
X10792D02*
Y7064D01*
X10800D02*
Y7116D01*
X10856Y7116D02*
Y7064D01*
X10864D02*
Y7116D01*
X10872Y7115D02*
Y7064D01*
X10880D02*
Y7115D01*
X10881Y7115D02*
Y7064D01*
X10808D02*
Y7116D01*
X10816D02*
Y7064D01*
X10824D02*
Y7116D01*
X10832D02*
Y7064D01*
X10840D02*
Y7116D01*
X10848D02*
Y7064D01*
Y7116D02*
X10881Y7115D01*
X10192Y7152D02*
Y7296D01*
X10200D02*
Y7152D01*
X10208D02*
Y7296D01*
X10216D02*
Y7152D01*
X10224D02*
Y7296D01*
X10232D02*
Y7152D01*
X10240D02*
Y7296D01*
X10248D02*
Y7152D01*
X10256D02*
Y7296D01*
X10264D02*
Y7152D01*
X10272D02*
Y7296D01*
X10280Y7296D02*
Y7152D01*
X10288D02*
Y7301D01*
X10296Y7309D02*
Y7152D01*
X10304D02*
Y7317D01*
X10312Y7325D02*
Y7152D01*
X10320D02*
Y7333D01*
X10328Y7341D02*
Y7152D01*
X10336D02*
Y7349D01*
X10344Y7357D02*
Y7152D01*
X10352D02*
Y7365D01*
X10360Y7373D02*
Y7152D01*
X10368D02*
Y7381D01*
X10376Y7389D02*
Y7152D01*
X10384D02*
Y7397D01*
X10392Y7152D02*
Y8305D01*
X10128Y7377D02*
Y7332D01*
X10136D02*
Y7377D01*
X10144D02*
Y7332D01*
X10152D02*
Y7377D01*
X10160D02*
Y7332D01*
X10168D02*
Y7377D01*
X10176D02*
Y7332D01*
X10184D02*
Y7377D01*
X10192Y7378D02*
Y7332D01*
X10200D02*
Y7384D01*
X10208Y7392D02*
Y7332D01*
X10216D02*
Y7400D01*
X10224Y7408D02*
Y7332D01*
X10289Y7302D02*
X10848D01*
X10383Y7395D02*
X10289Y7301D01*
X10297Y7310D02*
X10848D01*
Y7318D02*
X10305D01*
X10313Y7326D02*
X10848D01*
X10232Y7332D02*
Y7416D01*
X10240Y7424D02*
Y7332D01*
X10248D02*
Y7432D01*
X10400Y7152D02*
Y8305D01*
X10408D02*
Y7152D01*
X10416D02*
Y8305D01*
X10424D02*
Y7152D01*
X10432D02*
Y8305D01*
X10440D02*
Y7152D01*
X10448D02*
Y8305D01*
X10456D02*
Y7152D01*
X10464D02*
Y8305D01*
X10528Y7788D02*
Y7152D01*
X10472D02*
Y8305D01*
X10480D02*
Y7152D01*
X10488D02*
Y8305D01*
X10496D02*
Y7152D01*
X10504D02*
Y8305D01*
X10512D02*
Y7152D01*
X10520D02*
Y8305D01*
X10592Y7723D02*
Y7152D01*
X10600D02*
Y7715D01*
X10608Y7707D02*
Y7152D01*
X10616D02*
Y7699D01*
X10624Y7691D02*
Y7152D01*
X10632D02*
Y7683D01*
X10536Y7780D02*
Y7152D01*
X10544D02*
Y7772D01*
X10552Y7764D02*
Y7152D01*
X10560D02*
Y7756D01*
X10568Y7748D02*
Y7152D01*
X10576D02*
Y7739D01*
X10584Y7731D02*
Y7152D01*
X10696D02*
Y7618D01*
X10704Y7610D02*
Y7152D01*
X10712D02*
Y7602D01*
X10720Y7594D02*
Y7152D01*
X10728D02*
Y7586D01*
X10736Y7578D02*
Y7152D01*
X10640D02*
Y7675D01*
X10648Y7667D02*
Y7152D01*
X10656D02*
Y7659D01*
X10664Y7651D02*
Y7152D01*
X10672D02*
Y7643D01*
X10680Y7635D02*
Y7152D01*
X10688D02*
Y7626D01*
X10800Y7513D02*
Y7152D01*
X10808D02*
Y7505D01*
X10816Y7497D02*
Y7152D01*
X10824D02*
Y7489D01*
X10832Y7481D02*
Y7152D01*
X10840D02*
Y7473D01*
X10848Y7465D02*
Y7152D01*
X10744D02*
Y7570D01*
X10752Y7562D02*
Y7152D01*
X10760D02*
Y7554D01*
X10768Y7546D02*
Y7152D01*
X10776D02*
Y7538D01*
X10784Y7530D02*
Y7152D01*
X10792D02*
Y7522D01*
X9704Y7413D02*
Y8220D01*
X9712Y8220D02*
Y7413D01*
X9720D02*
Y8220D01*
X9728D02*
Y7413D01*
X9736D02*
Y8220D01*
X9744D02*
Y7413D01*
X9656D02*
Y8265D01*
X9664Y8257D02*
Y7413D01*
X9672D02*
Y8249D01*
X9680Y8241D02*
Y7413D01*
X9688D02*
Y8233D01*
X9696Y8225D02*
Y7413D01*
X9752D02*
Y8220D01*
X9760D02*
Y7413D01*
X9768D02*
Y8220D01*
X9776D02*
Y7413D01*
X9784D02*
Y8220D01*
X9792D02*
Y7413D01*
X9800D02*
Y8220D01*
X9808D02*
Y7413D01*
X9816D02*
Y8220D01*
X9824D02*
Y7413D01*
X9832D02*
Y8220D01*
X9840D02*
Y7413D01*
X9848D02*
Y8220D01*
X9856D02*
Y7413D01*
X9864D02*
Y8220D01*
X9880Y8216D02*
Y7413D01*
X9888D02*
Y8208D01*
X9896Y8203D02*
Y7413D01*
X9904D02*
Y8201D01*
X9912Y8200D02*
Y7413D01*
X9891Y8270D02*
X9701D01*
X9872Y8220D02*
Y7413D01*
X9878Y8220D02*
X9708D01*
X9715Y8256D02*
X9878D01*
X9882Y8262D02*
X9709D01*
X9559Y7790D02*
X10248D01*
Y7798D02*
X9560D01*
X9560Y7806D02*
X10248D01*
X9920Y7413D02*
Y8201D01*
X9928Y8204D02*
Y7413D01*
X9931Y8206D02*
X10248D01*
X9936Y8209D02*
Y7413D01*
X9931Y8270D02*
X10146D01*
X9944Y8219D02*
Y7413D01*
X9940Y8214D02*
X10248D01*
Y8222D02*
X9945D01*
X9940Y8262D02*
X10248D01*
X10256Y7440D02*
Y7332D01*
X10264D02*
Y7448D01*
X10272Y7456D02*
Y7335D01*
X10280Y7343D02*
Y7464D01*
X10136Y7413D02*
Y8271D01*
X10144Y8270D02*
Y7413D01*
X10152D02*
Y8270D01*
X10160Y8272D02*
Y7413D01*
X10199Y7382D02*
X10279Y7462D01*
X10248Y7482D02*
X10179Y7413D01*
X10198Y7382D02*
X10319D01*
X10327Y7390D02*
X10206D01*
X10214Y7398D02*
X10335D01*
X10352Y7415D02*
X10269Y7332D01*
X10222Y7406D02*
X10343D01*
X10351Y7414D02*
X10230D01*
X10238Y7422D02*
X10352D01*
Y7430D02*
X10246D01*
X10254Y7438D02*
X10352D01*
Y7446D02*
X10262D01*
X10270Y7454D02*
X10352D01*
Y7462D02*
X10278D01*
X10283Y7470D02*
X10352D01*
Y7478D02*
X10284D01*
Y7486D02*
X10352D01*
Y7494D02*
X10284D01*
Y7502D02*
X10352D01*
Y7510D02*
X10284D01*
X10248Y8230D02*
X9948D01*
Y8246D02*
X10248D01*
Y8254D02*
X9945D01*
X10284Y7518D02*
X10352D01*
Y7526D02*
X10284D01*
X10248Y8238D02*
X9949D01*
X10284Y7534D02*
X10352D01*
Y7542D02*
X10284D01*
Y7550D02*
X10352D01*
Y7558D02*
X10284D01*
Y7566D02*
X10352D01*
Y7574D02*
X10284D01*
Y7582D02*
X10352D01*
Y7590D02*
X10284D01*
Y7598D02*
X10352D01*
Y7606D02*
X10284D01*
Y7614D02*
X10352D01*
Y7622D02*
X10284D01*
Y7630D02*
X10352D01*
Y7638D02*
X10284D01*
Y7646D02*
X10352D01*
X9568Y7413D02*
Y8305D01*
X9576D02*
Y7413D01*
X9624D02*
Y8297D01*
X9632Y8289D02*
Y7413D01*
X9640D02*
Y8281D01*
X9648Y8273D02*
Y7413D01*
X9584D02*
Y8305D01*
X9592D02*
Y7413D01*
X9600D02*
Y8305D01*
X9608D02*
Y7413D01*
X9616D02*
Y8305D01*
X9616Y8305D02*
X9695Y8225D01*
X9715Y8256D02*
X9666Y8305D01*
X9720D02*
Y8256D01*
X9728D02*
Y8305D01*
X9736D02*
Y8256D01*
X9744D02*
Y8305D01*
X9752D02*
Y8256D01*
X9760D02*
Y8305D01*
X9768D02*
Y8256D01*
X9776D02*
Y8305D01*
X9784D02*
Y8256D01*
X9792D02*
Y8305D01*
X9800D02*
Y8256D01*
X9808D02*
Y8305D01*
X9696D02*
Y8275D01*
X9680Y8291D02*
Y8305D01*
X9688D02*
Y8283D01*
X9816Y8305D02*
Y8256D01*
X9704Y8267D02*
Y8305D01*
X9712D02*
Y8259D01*
X9824Y8256D02*
Y8305D01*
X9832D02*
Y8256D01*
X9840D02*
Y8305D01*
X9848D02*
Y8256D01*
X9856D02*
Y8305D01*
X9864D02*
Y8256D01*
X9872D02*
Y8305D01*
X9685Y8286D02*
X10103D01*
X10090Y8302D02*
X9669D01*
X9677Y8294D02*
X10096D01*
X9880Y8305D02*
Y8260D01*
X9888Y8268D02*
Y8305D01*
X9896D02*
Y8273D01*
X9693Y8278D02*
X10115D01*
X9904Y8275D02*
Y8305D01*
X9912D02*
Y8276D01*
X10088Y8305D02*
X9666D01*
X9936D02*
Y8267D01*
X9944Y8257D02*
Y8305D01*
X9920D02*
Y8275D01*
X9928Y8272D02*
Y8305D01*
X9952D02*
Y7413D01*
X9960D02*
Y8305D01*
X9968D02*
Y7413D01*
X9976D02*
Y8305D01*
X9984D02*
Y7413D01*
X9992D02*
Y8305D01*
X10000D02*
Y7413D01*
X10008D02*
Y8305D01*
X10016D02*
Y7413D01*
X10024D02*
Y8305D01*
X10032D02*
Y7413D01*
X10040D02*
Y8305D01*
X10048D02*
Y7413D01*
X10056D02*
Y8305D01*
X10064D02*
Y7413D01*
X10072D02*
Y8305D01*
X10288D02*
Y7351D01*
X10080Y7413D02*
Y8305D01*
X10088D02*
Y7413D01*
X10296Y7359D02*
Y8305D01*
X10304D02*
Y7367D01*
X10312Y7375D02*
Y8305D01*
X10320D02*
Y7383D01*
X10328Y7391D02*
Y8305D01*
X10336D02*
Y7399D01*
X10344Y7407D02*
Y8305D01*
X10112Y8280D02*
Y7413D01*
X10120D02*
Y8275D01*
X10128Y8273D02*
Y7413D01*
X10168D02*
Y8274D01*
X10176Y8277D02*
Y7413D01*
X10184Y7418D02*
Y8282D01*
X10096Y8293D02*
Y7413D01*
X10104D02*
Y8285D01*
X10192Y8289D02*
Y7426D01*
X10200Y7434D02*
Y8299D01*
X10208Y8305D02*
Y7442D01*
X10216Y7450D02*
Y8305D01*
X10248Y8270D02*
X10146D01*
X10177Y8278D02*
X10248D01*
Y8286D02*
X10189D01*
X10224Y8305D02*
Y7458D01*
X10232Y7466D02*
Y8305D01*
X10248Y8294D02*
X10196D01*
X10202Y8302D02*
X10248D01*
X10240Y8305D02*
Y7474D01*
X10248Y7482D02*
Y8305D01*
X10204D01*
X10352D02*
Y7415D01*
Y8305D01*
X10248D02*
Y7482D01*
X10284Y7475D02*
Y8305D01*
X10321Y7334D02*
X10848D01*
Y7342D02*
X10329D01*
X10337Y7350D02*
X10848D01*
Y7358D02*
X10345D01*
X10352Y7654D02*
X10284D01*
Y7662D02*
X10352D01*
Y7670D02*
X10284D01*
X10388Y7478D02*
X10835D01*
X10843Y7470D02*
X10388D01*
X10352Y7678D02*
X10284D01*
Y7686D02*
X10352D01*
X10353Y7366D02*
X10848D01*
Y7374D02*
X10361D01*
X10369Y7382D02*
X10848D01*
Y7390D02*
X10377D01*
X10385Y7398D02*
X10848D01*
Y7406D02*
X10388D01*
X10388Y7414D02*
X10848D01*
Y7422D02*
X10388D01*
Y7430D02*
X10848D01*
Y7438D02*
X10388D01*
Y7446D02*
X10848D01*
Y7454D02*
X10388D01*
Y7462D02*
X10848D01*
X10352Y7694D02*
X10284D01*
Y7702D02*
X10352D01*
Y7710D02*
X10284D01*
Y7718D02*
X10352D01*
Y7726D02*
X10284D01*
Y7734D02*
X10352D01*
Y7742D02*
X10284D01*
Y7750D02*
X10352D01*
Y7758D02*
X10284D01*
Y7766D02*
X10352D01*
Y7774D02*
X10284D01*
Y7782D02*
X10352D01*
Y7790D02*
X10284D01*
Y7798D02*
X10352D01*
Y7806D02*
X10284D01*
Y7814D02*
X10352D01*
Y7822D02*
X10284D01*
Y7830D02*
X10352D01*
Y7838D02*
X10284D01*
Y7846D02*
X10352D01*
Y7854D02*
X10284D01*
Y7862D02*
X10352D01*
Y7870D02*
X10284D01*
Y7878D02*
X10352D01*
Y7886D02*
X10284D01*
Y7894D02*
X10352D01*
X10388Y7582D02*
X10732D01*
X10716Y7598D02*
X10388D01*
Y7590D02*
X10724D01*
X10708Y7606D02*
X10388D01*
Y7622D02*
X10692D01*
X10700Y7614D02*
X10388D01*
Y7630D02*
X10684D01*
X10669Y7646D02*
X10388D01*
Y7638D02*
X10677D01*
X10653Y7662D02*
X10388D01*
Y7654D02*
X10661D01*
X10637Y7678D02*
X10388D01*
Y7670D02*
X10645D01*
X10827Y7486D02*
X10388D01*
Y7502D02*
X10811D01*
X10819Y7494D02*
X10388D01*
Y7510D02*
X10803D01*
X10788Y7526D02*
X10388D01*
Y7518D02*
X10795D01*
X10780Y7534D02*
X10388D01*
Y7550D02*
X10764D01*
X10772Y7542D02*
X10388D01*
Y7558D02*
X10756D01*
X10848Y7465D02*
X10521Y7795D01*
X10388Y7574D02*
X10740D01*
X10748Y7566D02*
X10388D01*
Y7798D02*
X10521D01*
Y7806D02*
X10388D01*
Y7814D02*
X10521D01*
Y7822D02*
X10388D01*
Y7830D02*
X10521D01*
Y7838D02*
X10388D01*
Y7846D02*
X10521D01*
Y7854D02*
X10388D01*
Y7862D02*
X10521D01*
Y7870D02*
X10388D01*
Y7878D02*
X10521D01*
Y7886D02*
X10388D01*
Y7894D02*
X10521D01*
X10629Y7686D02*
X10388D01*
Y7702D02*
X10613D01*
X10621Y7694D02*
X10388D01*
Y7718D02*
X10597D01*
X10605Y7710D02*
X10388D01*
Y7734D02*
X10581D01*
X10589Y7726D02*
X10388D01*
Y7742D02*
X10574D01*
X10558Y7758D02*
X10388D01*
Y7750D02*
X10566D01*
X10542Y7774D02*
X10388D01*
Y7766D02*
X10550D01*
X10526Y7790D02*
X10388D01*
Y7782D02*
X10534D01*
X10352Y7902D02*
X10284D01*
Y7910D02*
X10352D01*
Y7918D02*
X10284D01*
Y7926D02*
X10352D01*
Y7934D02*
X10284D01*
Y7942D02*
X10352D01*
Y7950D02*
X10284D01*
Y7958D02*
X10352D01*
Y7966D02*
X10284D01*
Y7974D02*
X10352D01*
Y7982D02*
X10284D01*
Y7990D02*
X10352D01*
Y7998D02*
X10284D01*
Y8006D02*
X10352D01*
Y8014D02*
X10284D01*
Y8022D02*
X10352D01*
X10388Y7902D02*
X10521D01*
X10352Y8030D02*
X10284D01*
Y8038D02*
X10352D01*
Y8046D02*
X10284D01*
Y8054D02*
X10352D01*
Y8062D02*
X10284D01*
Y8070D02*
X10352D01*
Y8078D02*
X10284D01*
Y8086D02*
X10352D01*
Y8094D02*
X10284D01*
Y8102D02*
X10352D01*
Y8110D02*
X10284D01*
Y8118D02*
X10352D01*
Y8126D02*
X10284D01*
Y8134D02*
X10352D01*
Y8142D02*
X10284D01*
Y8150D02*
X10352D01*
Y8158D02*
X10284D01*
Y8166D02*
X10352D01*
Y8174D02*
X10284D01*
Y8182D02*
X10352D01*
Y8190D02*
X10284D01*
Y8198D02*
X10352D01*
Y8206D02*
X10284D01*
Y8214D02*
X10352D01*
Y8222D02*
X10284D01*
Y8230D02*
X10352D01*
Y8238D02*
X10284D01*
Y8246D02*
X10352D01*
Y8254D02*
X10284D01*
Y8262D02*
X10352D01*
Y8270D02*
X10284D01*
Y8278D02*
X10352D01*
Y8286D02*
X10284D01*
Y8294D02*
X10352D01*
Y8302D02*
X10284D01*
Y8305D02*
X10352D01*
X10388Y7910D02*
X10521D01*
Y7918D02*
X10388D01*
Y7926D02*
X10521D01*
Y7934D02*
X10388D01*
Y7942D02*
X10521D01*
Y7950D02*
X10388D01*
Y7958D02*
X10521D01*
Y7966D02*
X10388D01*
Y7974D02*
X10521D01*
X10388Y8305D02*
Y7408D01*
X10521Y7795D02*
Y8305D01*
Y7982D02*
X10388D01*
Y7990D02*
X10521D01*
Y7998D02*
X10388D01*
Y8006D02*
X10521D01*
Y8014D02*
X10388D01*
Y8022D02*
X10521D01*
Y8030D02*
X10388D01*
Y8038D02*
X10521D01*
Y8046D02*
X10388D01*
Y8054D02*
X10521D01*
Y8062D02*
X10388D01*
Y8070D02*
X10521D01*
Y8078D02*
X10388D01*
Y8086D02*
X10521D01*
Y8094D02*
X10388D01*
Y8102D02*
X10521D01*
Y8110D02*
X10388D01*
Y8118D02*
X10521D01*
Y8126D02*
X10388D01*
Y8134D02*
X10521D01*
Y8142D02*
X10388D01*
Y8150D02*
X10521D01*
Y8158D02*
X10388D01*
Y8166D02*
X10521D01*
Y8174D02*
X10388D01*
Y8182D02*
X10521D01*
Y8190D02*
X10388D01*
Y8198D02*
X10521D01*
Y8206D02*
X10388D01*
Y8214D02*
X10521D01*
Y8222D02*
X10388D01*
Y8230D02*
X10521D01*
Y8238D02*
X10388D01*
Y8246D02*
X10521D01*
Y8254D02*
X10388D01*
Y8262D02*
X10521D01*
Y8270D02*
X10388D01*
Y8278D02*
X10521D01*
Y8286D02*
X10388D01*
Y8294D02*
X10521D01*
Y8302D02*
X10388D01*
Y8305D02*
X10521D01*
X11115Y7836D02*
Y7595D01*
X11256D01*
X11259Y7598D02*
X11115D01*
Y7606D02*
X11269D01*
X11262Y7602D02*
X11256Y7595D01*
X11089Y7878D02*
X11081D01*
X11096Y7873D02*
Y7863D01*
X11088Y7871D02*
Y7879D01*
X11080Y7879D02*
Y7893D01*
X11104Y7869D02*
Y7855D01*
X11112Y7846D02*
Y7867D01*
X11110Y7849D02*
X11038Y7921D01*
X11089Y7870D02*
X11101D01*
X11120Y7867D02*
Y7595D01*
X11128D02*
Y7869D01*
X11136Y7873D02*
Y7595D01*
X11144D02*
Y7879D01*
X11152Y7893D02*
Y7595D01*
X11160D02*
Y8305D01*
X11168D02*
Y7595D01*
X11176D02*
Y8305D01*
X11184D02*
Y7595D01*
X11192D02*
Y8305D01*
X11200D02*
Y7595D01*
X11208D02*
Y8305D01*
X11216D02*
Y7595D01*
X11224D02*
Y8305D01*
X11232D02*
Y7595D01*
X11240D02*
Y8305D01*
X11248D02*
Y7595D01*
X11256Y7595D02*
Y8305D01*
X11264D02*
Y7603D01*
X11272Y7607D02*
Y8305D01*
X11115Y7614D02*
X11573D01*
X11581Y7622D02*
X11115D01*
Y7630D02*
X11589D01*
X11593Y7638D02*
X11115D01*
Y7646D02*
X11593D01*
Y7654D02*
X11115D01*
Y7662D02*
X11593D01*
Y7670D02*
X11115D01*
Y7678D02*
X11593D01*
Y7686D02*
X11115D01*
Y7694D02*
X11593D01*
Y7702D02*
X11115D01*
Y7710D02*
X11593D01*
Y7718D02*
X11115D01*
Y7726D02*
X11593D01*
Y7734D02*
X11115D01*
X11097Y7862D02*
X11593D01*
Y7846D02*
X11112D01*
X11105Y7854D02*
X11593D01*
X11566Y7607D02*
X11275D01*
X11280D02*
Y8305D01*
X11288D02*
Y7607D01*
X11566D02*
X11593Y7634D01*
Y7742D02*
X11115D01*
Y7750D02*
X11593D01*
Y7758D02*
X11115D01*
Y7766D02*
X11593D01*
Y7774D02*
X11115D01*
Y7782D02*
X11593D01*
Y7790D02*
X11115D01*
Y7798D02*
X11593D01*
Y7806D02*
X11115D01*
Y7814D02*
X11593D01*
Y7822D02*
X11115D01*
Y7830D02*
X11593D01*
Y7838D02*
X11115D01*
X11131Y7870D02*
X11593D01*
Y7878D02*
X11143D01*
X11296Y7607D02*
Y8305D01*
X11304D02*
Y7607D01*
X11312D02*
Y8305D01*
X11320D02*
Y7607D01*
X11328D02*
Y8305D01*
X11336D02*
Y7607D01*
X11344D02*
Y8305D01*
X11352D02*
Y7607D01*
X11360D02*
Y8305D01*
X11368D02*
Y7607D01*
X11376D02*
Y8305D01*
X11384D02*
Y7607D01*
X11392D02*
Y8305D01*
X11400D02*
Y7607D01*
X11408D02*
Y8305D01*
X11416D02*
Y7607D01*
X11424D02*
Y8305D01*
X11432D02*
Y7607D01*
X11440D02*
Y8305D01*
X11448D02*
Y7607D01*
X11456D02*
Y8305D01*
X11464D02*
Y7607D01*
X11472D02*
Y8305D01*
X11480D02*
Y7607D01*
X11488D02*
Y8305D01*
X11496D02*
Y7607D01*
X11504D02*
Y8305D01*
X11512D02*
Y7607D01*
X11520D02*
Y8305D01*
X11528D02*
Y7607D01*
X11536D02*
Y8305D01*
X11544D02*
Y7607D01*
X11552D02*
Y8305D01*
X11560Y8367D02*
Y7607D01*
X11592Y7633D02*
Y8353D01*
X11593Y8352D02*
Y7634D01*
X11568Y7609D02*
Y8442D01*
X11576Y8442D02*
Y7617D01*
X11584Y7625D02*
Y8363D01*
X11084Y7926D02*
X11038D01*
Y7934D02*
X11091D01*
X11098Y7942D02*
X11038D01*
Y7950D02*
X11098D01*
Y7958D02*
X11038D01*
Y7966D02*
X11098D01*
Y7974D02*
X11038D01*
Y7982D02*
X11098D01*
Y7990D02*
X11038D01*
Y7998D02*
X11098D01*
Y8006D02*
X11038D01*
Y8014D02*
X11098D01*
Y8022D02*
X11038D01*
Y8030D02*
X11098D01*
Y8038D02*
X11038D01*
Y8046D02*
X11098D01*
Y8054D02*
X11038D01*
X11065Y7894D02*
X11080D01*
X11083Y7886D02*
X11073D01*
X11080Y7918D02*
X11041D01*
X11057Y7902D02*
X11078D01*
X11078Y7910D02*
X11049D01*
X11098Y7938D02*
Y8132D01*
X11088Y8141D02*
Y7931D01*
X11096Y7937D02*
Y8134D01*
X11134Y8140D02*
Y7938D01*
X11098Y8062D02*
X11038D01*
Y8070D02*
X11098D01*
Y8078D02*
X11038D01*
Y8086D02*
X11098D01*
Y8094D02*
X11038D01*
Y8102D02*
X11098D01*
Y8110D02*
X11038D01*
Y8118D02*
X11098D01*
Y8126D02*
X11038D01*
Y8134D02*
X11096D01*
X11040Y8158D02*
Y7919D01*
X11048Y7911D02*
Y8150D01*
X11038Y8161D02*
Y7921D01*
X11064Y7895D02*
Y8143D01*
X11072Y8142D02*
Y7887D01*
X11071Y8142D02*
X11038D01*
X11056Y8145D02*
Y7903D01*
X11048Y8150D02*
X11038D01*
Y8214D02*
X11054D01*
X11038Y8199D02*
Y8305D01*
X11040D02*
Y8202D01*
X11048Y8210D02*
Y8305D01*
X11071Y8142D02*
X11087D01*
X11038Y8305D02*
X11556D01*
X11056D02*
Y8215D01*
X11064Y8217D02*
Y8305D01*
X11080Y8143D02*
Y7917D01*
X11098Y8132D02*
X11084Y8144D01*
X11108Y8171D02*
X11128Y8153D01*
X11128Y8153D02*
Y8305D01*
X11120D02*
Y8161D01*
X11136Y8305D02*
Y7937D01*
X11152Y7917D02*
Y8305D01*
X11144D02*
Y7931D01*
X11072Y8218D02*
Y8305D01*
X11080D02*
Y8217D01*
X11088Y8214D02*
Y8305D01*
X11104D02*
Y8199D01*
X11096Y8209D02*
Y8305D01*
X11112D02*
Y8168D01*
X11556Y8305D02*
Y8360D01*
X11560Y8403D02*
Y8443D01*
X11556Y8445D02*
Y8410D01*
X11593Y7942D02*
X11134D01*
Y7950D02*
X11593D01*
Y7958D02*
X11134D01*
Y7966D02*
X11593D01*
Y7974D02*
X11134D01*
Y7982D02*
X11593D01*
Y7990D02*
X11134D01*
Y7998D02*
X11593D01*
Y8006D02*
X11134D01*
Y8014D02*
X11593D01*
Y8022D02*
X11134D01*
X11131Y8150D02*
X11593D01*
Y8030D02*
X11134D01*
Y8038D02*
X11593D01*
Y8166D02*
X11114D01*
X11123Y8158D02*
X11593D01*
Y8190D02*
X11108D01*
X11109Y8174D02*
X11593D01*
Y8182D02*
X11109D01*
X11149Y7886D02*
X11593D01*
Y7894D02*
X11152D01*
X11154Y7902D02*
X11593D01*
Y7910D02*
X11154D01*
X11152Y7918D02*
X11593D01*
Y7934D02*
X11141D01*
X11148Y7926D02*
X11593D01*
Y8046D02*
X11134D01*
Y8054D02*
X11593D01*
Y8062D02*
X11134D01*
Y8070D02*
X11593D01*
Y8078D02*
X11134D01*
Y8086D02*
X11593D01*
Y8094D02*
X11134D01*
Y8102D02*
X11593D01*
Y8110D02*
X11134D01*
Y8118D02*
X11593D01*
Y8126D02*
X11134D01*
Y8134D02*
X11593D01*
Y8142D02*
X11134D01*
X11099Y8206D02*
X11593D01*
Y8198D02*
X11104D01*
X11038Y8222D02*
X11593D01*
Y8214D02*
X11088D01*
X11038Y8230D02*
X11593D01*
Y8238D02*
X11038D01*
Y8246D02*
X11593D01*
Y8254D02*
X11038D01*
Y8262D02*
X11593D01*
Y8270D02*
X11038D01*
Y8278D02*
X11593D01*
Y8286D02*
X11038D01*
Y8294D02*
X11593D01*
Y8302D02*
X11038D01*
X11556Y8310D02*
X11593D01*
Y8318D02*
X11556D01*
Y8326D02*
X11593D01*
Y8334D02*
X11556D01*
Y8342D02*
X11593D01*
X11579Y8374D02*
X11563D01*
X11564Y8382D02*
X11578D01*
X11578Y8390D02*
X11564D01*
X11556Y8350D02*
X11593D01*
X11588Y8358D02*
X11556D01*
X11560Y8366D02*
X11582D01*
X11580Y8398D02*
X11562D01*
X11556Y8414D02*
X11589D01*
X11583Y8406D02*
X11559D01*
X11571Y8447D02*
Y8485D01*
X11584Y8444D02*
Y8407D01*
X11592Y8417D02*
Y8447D01*
X11593Y8422D02*
X11556D01*
Y8430D02*
X11593D01*
Y8438D02*
X11556D01*
X11593Y8448D02*
Y8418D01*
X12336Y8382D02*
X12332Y8383D01*
X12329Y8384D01*
X12326Y8385D01*
X12323Y8386D01*
X12320Y8388D01*
X12317Y8389D01*
X12314Y8391D01*
X12311Y8393D01*
X12309Y8395D01*
X12306Y8398D01*
X12304Y8400D01*
X12302Y8403D01*
X12300Y8406D01*
X12298Y8408D01*
X12296Y8411D01*
X12295Y8415D01*
X12294Y8418D01*
X12293Y8421D01*
X12292Y8424D01*
X12292Y8427D01*
X12291Y8431D01*
X12291Y8434D01*
X12291Y8438D01*
X12291Y8441D01*
X12292Y8444D01*
X12292Y8448D01*
X12293Y8451D01*
X12294Y8454D01*
X12296Y8457D01*
X12297Y8460D01*
X12299Y8463D01*
X12301Y8466D01*
X12303Y8469D01*
X12305Y8471D01*
X12307Y8474D01*
X12310Y8476D01*
X12313Y8478D01*
X12315Y8480D01*
X12318Y8482D01*
X12321Y8483D01*
X12324Y8484D01*
X12327Y8486D01*
X12331Y8487D01*
X12334Y8487D01*
X12337Y8488D01*
X12341Y8488D01*
X12344Y8488D01*
X12347Y8488D01*
X12351Y8488D01*
X12354Y8488D01*
X12357Y8487D01*
X12361Y8486D01*
X12364Y8485D01*
X12367Y8483D01*
X12370Y8482D01*
X12373Y8480D01*
X12376Y8478D01*
X12378Y8476D01*
X12381Y8474D01*
X12383Y8472D01*
X12385Y8469D01*
X12388Y8467D01*
X12389Y8464D01*
X12391Y8461D01*
X12393Y8458D01*
X12394Y8455D01*
X12395Y8452D01*
X12396Y8448D01*
X12397Y8445D01*
X12397Y8442D01*
X12398Y8438D01*
X12398Y8435D01*
X12398Y8431D01*
X12397Y8428D01*
X12397Y8424D01*
X12396Y8421D01*
X12395Y8417D01*
X12394Y8414D01*
X12392Y8411D01*
X12390Y8408D01*
X12388Y8405D01*
X12386Y8402D01*
X12384Y8399D01*
X12382Y8397D01*
X12379Y8394D01*
X12376Y8392D01*
X12373Y8390D01*
X12370Y8388D01*
X12367Y8387D01*
X12364Y8385D01*
X12360Y8384D01*
X12357Y8383D01*
X12353Y8382D01*
X12357Y8382D01*
X12360Y8381D01*
X12363Y8380D01*
X12366Y8379D01*
X12370Y8377D01*
X12373Y8376D01*
X12376Y8374D01*
X12378Y8372D01*
X12381Y8370D01*
X12384Y8368D01*
X12386Y8365D01*
X12388Y8363D01*
X12391Y8360D01*
X12393Y8357D01*
X12394Y8354D01*
X12396Y8351D01*
X12398Y8348D01*
X12399Y8345D01*
X12400Y8342D01*
X12401Y8339D01*
X12402Y8335D01*
X12402Y8332D01*
X12402Y8328D01*
X12402Y8325D01*
X12402Y8322D01*
X12402Y8319D01*
X12402Y8315D01*
X12401Y8312D01*
X12400Y8309D01*
X12399Y8306D01*
X12398Y8303D01*
X12397Y8300D01*
X12395Y8297D01*
X12394Y8294D01*
X12392Y8292D01*
X12390Y8289D01*
X12388Y8287D01*
X12386Y8284D01*
X12383Y8282D01*
X12306D02*
X12303Y8284D01*
X12301Y8287D01*
X12299Y8289D01*
X12297Y8292D01*
X12295Y8295D01*
X12293Y8298D01*
X12292Y8301D01*
X12290Y8304D01*
X12289Y8307D01*
X12288Y8310D01*
X12288Y8313D01*
X12287Y8317D01*
X12287Y8320D01*
X12286Y8323D01*
X12286Y8327D01*
X12287Y8330D01*
X12287Y8333D01*
X12288Y8337D01*
X12288Y8340D01*
X12289Y8343D01*
X12291Y8346D01*
X12292Y8349D01*
X12293Y8352D01*
X12295Y8355D01*
X12297Y8358D01*
X12299Y8361D01*
X12301Y8363D01*
X12303Y8366D01*
X12306Y8368D01*
X12308Y8370D01*
X12311Y8372D01*
X12314Y8374D01*
X12317Y8376D01*
X12320Y8377D01*
X12323Y8379D01*
X12326Y8380D01*
X12329Y8381D01*
X12332Y8382D01*
X12336Y8382D01*
X10937Y7363D02*
X10933Y7362D01*
X10929Y7361D01*
X10926Y7360D01*
X10378Y8592D02*
X10373Y8591D01*
X10369Y8590D01*
X10365Y8587D01*
X10365Y8587D02*
X10369Y8590D01*
X10373Y8591D01*
X10378Y8592D01*
X10956Y8648D02*
X10953Y8647D01*
X10950Y8646D01*
X10946Y8645D01*
X10943Y8645D01*
X10940Y8645D01*
X10936Y8645D01*
X10933Y8646D01*
X10930Y8647D01*
X10926Y8648D01*
X10923Y8649D01*
X10920Y8651D01*
X10918Y8653D01*
X10915Y8655D01*
X10913Y8657D01*
X10910Y8660D01*
X10909Y8662D01*
X10907Y8665D01*
X10905Y8668D01*
X10904Y8671D01*
X10903Y8675D01*
X10903Y8678D01*
X10902Y8681D01*
Y8685D01*
X10903Y8688D01*
X10903Y8691D01*
X10904Y8695D01*
X10905Y8698D01*
X10907Y8701D01*
X10909Y8704D01*
X10910Y8706D01*
X10913Y8709D01*
X10915Y8711D01*
X10918Y8713D01*
X10920Y8715D01*
X10923Y8717D01*
X10926Y8718D01*
X10930Y8719D01*
X10933Y8720D01*
X10936Y8721D01*
X10940Y8721D01*
X10943Y8721D01*
X10946Y8721D01*
X10950Y8720D01*
X10953Y8719D01*
X10956Y8718D01*
Y8727D02*
X10953Y8726D01*
X10950Y8725D01*
X10946Y8724D01*
X10943Y8724D01*
X10940Y8724D01*
X10936Y8724D01*
X10933Y8725D01*
X10930Y8726D01*
X10926Y8727D01*
X10923Y8728D01*
X10920Y8730D01*
X10918Y8732D01*
X10915Y8734D01*
X10913Y8736D01*
X10910Y8739D01*
X10909Y8741D01*
X10907Y8744D01*
X10905Y8747D01*
X10904Y8750D01*
X10903Y8754D01*
X10903Y8757D01*
X10902Y8760D01*
Y8764D01*
X10903Y8767D01*
X10903Y8770D01*
X10904Y8774D01*
X10905Y8777D01*
X10907Y8780D01*
X10909Y8783D01*
X10910Y8785D01*
X10913Y8788D01*
X10915Y8790D01*
X10918Y8792D01*
X10920Y8794D01*
X10923Y8796D01*
X10926Y8797D01*
X10930Y8798D01*
X10933Y8799D01*
X10936Y8800D01*
X10940Y8800D01*
X10943Y8800D01*
X10946Y8800D01*
X10950Y8799D01*
X10953Y8798D01*
X10956Y8797D01*
X11539Y7387D02*
X11543Y7390D01*
X11547Y7391D01*
X11552Y7392D01*
X11547Y7391D01*
X11543Y7390D01*
X11539Y7387D01*
X11835Y7392D02*
X11840Y7391D01*
X11844Y7390D01*
X11848Y7387D01*
X11848Y7387D02*
X11844Y7390D01*
X11840Y7391D01*
X11835Y7392D01*
X11841Y7421D02*
X11846Y7422D01*
X11850Y7423D01*
X11854Y7426D01*
X11854Y7426D02*
X11850Y7423D01*
X11846Y7422D01*
X11841Y7421D01*
X11934Y7506D02*
X11937Y7510D01*
X11938Y7514D01*
X11939Y7519D01*
X11938Y7514D01*
X11937Y7510D01*
X11934Y7506D01*
X12290Y8305D02*
X12291Y8302D01*
X12293Y8299D01*
X12294Y8296D01*
X12296Y8293D01*
X12298Y8290D01*
X12300Y8288D01*
X12302Y8285D01*
X12305Y8283D01*
X12307Y8281D01*
X12310Y8278D01*
X12313Y8276D01*
X12315Y8275D01*
X12318Y8273D01*
X12322Y8272D01*
X12325Y8270D01*
X12328Y8269D01*
X12331Y8269D01*
X12334Y8268D01*
X12338Y8267D01*
X12341Y8267D01*
X12344Y8267D01*
X12348Y8267D01*
X12351Y8267D01*
X12354Y8268D01*
X12358Y8269D01*
X12361Y8269D01*
X12364Y8270D01*
X12367Y8272D01*
X12370Y8273D01*
X12373Y8275D01*
X12376Y8276D01*
X12379Y8278D01*
X12382Y8281D01*
X12384Y8283D01*
X12387Y8285D01*
X12389Y8288D01*
X12391Y8290D01*
X12393Y8293D01*
X12395Y8296D01*
X12396Y8299D01*
X12398Y8302D01*
X12399Y8305D01*
X8013Y8335D02*
X8012Y8332D01*
X8012Y8328D01*
X8012Y8325D01*
X8011Y8322D01*
X8010Y8319D01*
X8010Y8315D01*
X8008Y8312D01*
X8007Y8309D01*
X8006Y8306D01*
X8004Y8303D01*
X8003Y8300D01*
X8001Y8298D01*
X7999Y8295D01*
X7997Y8292D01*
X7994Y8290D01*
X7992Y8288D01*
X7990Y8285D01*
X7987Y8283D01*
X7984Y8281D01*
X7981Y8280D01*
X7979Y8278D01*
X7976Y8276D01*
X7973Y8275D01*
X7970Y8274D01*
X7966Y8273D01*
X7963Y8272D01*
X7960Y8271D01*
X7957Y8271D01*
X7953Y8270D01*
X7950Y8270D01*
X7947Y8270D01*
X7943Y8270D01*
X7940Y8270D01*
X7937Y8271D01*
X7934Y8272D01*
X7930Y8272D01*
X7927Y8273D01*
X7924Y8274D01*
X7921Y8276D01*
X7918Y8277D01*
X7915Y8279D01*
X7912Y8280D01*
X7909Y8282D01*
X7907Y8284D01*
X7904Y8286D01*
X7902Y8289D01*
X7900Y8291D01*
X7897Y8294D01*
X7895Y8296D01*
X7893Y8299D01*
X7892Y8302D01*
X7890Y8305D01*
X7889Y8308D01*
X7887Y8311D01*
X7886Y8314D01*
X7885Y8317D01*
X7884Y8320D01*
X7884Y8323D01*
X7883Y8327D01*
X7883Y8330D01*
X7883Y8333D01*
X7883Y8337D01*
X7883Y8340D01*
X7883Y8343D01*
X7884Y8347D01*
X7884Y8350D01*
X7885Y8353D01*
X7886Y8356D01*
X7887Y8359D01*
X7889Y8362D01*
X7890Y8365D01*
X7892Y8368D01*
X7893Y8371D01*
X7895Y8374D01*
X7897Y8376D01*
X7900Y8379D01*
X7902Y8381D01*
X7904Y8384D01*
X7902Y8386D01*
X7899Y8388D01*
X7897Y8391D01*
X7895Y8393D01*
X7893Y8396D01*
X7891Y8398D01*
X7889Y8401D01*
X7888Y8404D01*
X7886Y8407D01*
X7885Y8410D01*
X7884Y8413D01*
X7883Y8417D01*
X7882Y8420D01*
X7881Y8423D01*
X7881Y8426D01*
X7881Y8430D01*
X7880Y8433D01*
X7880Y8436D01*
X7881Y8440D01*
X7881Y8443D01*
X7881Y8446D01*
X7882Y8450D01*
X7883Y8453D01*
X7884Y8456D01*
X7885Y8459D01*
X7886Y8462D01*
X7888Y8465D01*
X7889Y8468D01*
X7891Y8471D01*
X7893Y8474D01*
X7895Y8476D01*
X7897Y8479D01*
X7899Y8481D01*
X7901Y8484D01*
X7904Y8486D01*
X7906Y8488D01*
X7909Y8490D01*
X7912Y8492D01*
X7915Y8494D01*
X7918Y8495D01*
X7921Y8497D01*
X7924Y8498D01*
X7927Y8499D01*
X7930Y8500D01*
X7933Y8501D01*
X7937Y8501D01*
X7940Y8502D01*
X7943Y8502D01*
X7947Y8502D01*
X7950Y8502D01*
X7953Y8502D01*
X7957Y8502D01*
X7960Y8501D01*
X7963Y8500D01*
X7966Y8500D01*
X7969Y8499D01*
X7973Y8497D01*
X7976Y8496D01*
X7979Y8495D01*
X7982Y8493D01*
X7984Y8491D01*
X7987Y8489D01*
X7990Y8487D01*
X7992Y8485D01*
X7995Y8483D01*
X7997Y8480D01*
X7999Y8478D01*
X8001Y8475D01*
X8003Y8473D01*
X8005Y8470D01*
X8007Y8467D01*
X8008Y8464D01*
X8010Y8461D01*
X8011Y8458D01*
X8012Y8455D01*
X8013Y8451D01*
X8013Y8448D01*
X8014Y8445D01*
X8014Y8442D01*
X8015Y8438D01*
X8015Y8435D01*
X7991Y8384D02*
X7993Y8381D01*
X7996Y8378D01*
X7998Y8376D01*
X8001Y8373D01*
X8003Y8370D01*
X8004Y8366D01*
X8006Y8363D01*
X8008Y8360D01*
X8009Y8357D01*
X8010Y8353D01*
X8011Y8349D01*
X8012Y8346D01*
X8012Y8342D01*
X8012Y8339D01*
X8013Y8335D01*
X7991Y8384D02*
X7993Y8386D01*
X7996Y8388D01*
X7998Y8390D01*
X8000Y8393D01*
X8002Y8395D01*
X8004Y8398D01*
X8005Y8401D01*
X8007Y8404D01*
X8008Y8407D01*
X8010Y8410D01*
X8011Y8413D01*
X8012Y8416D01*
X8013Y8419D01*
X8014Y8422D01*
X8014Y8425D01*
X8014Y8428D01*
X8015Y8432D01*
X8015Y8435D01*
X8267Y8442D02*
X8263Y8443D01*
X8260Y8443D01*
X8257Y8444D01*
X8254Y8446D01*
X8251Y8447D01*
X8248Y8449D01*
X8245Y8451D01*
X8243Y8453D01*
X8240Y8455D01*
X8238Y8457D01*
X8236Y8460D01*
X8234Y8463D01*
X8233Y8466D01*
X8231Y8469D01*
X8230Y8472D01*
X8229Y8475D01*
X8229Y8478D01*
X8228Y8482D01*
X8228Y8485D01*
X8228Y8488D01*
X8229Y8492D01*
X8229Y8495D01*
X8230Y8498D01*
X8231Y8501D01*
X8233Y8504D01*
X8234Y8507D01*
X8236Y8510D01*
X8238Y8512D01*
X8240Y8515D01*
X8243Y8517D01*
X8245Y8519D01*
X8248Y8521D01*
X8251Y8523D01*
X8254Y8524D01*
X8257Y8526D01*
X8260Y8527D01*
X8263Y8527D01*
X8266Y8528D01*
X8270Y8528D01*
X8273Y8528D01*
X8276Y8528D01*
X8280Y8527D01*
X8283Y8526D01*
X8286Y8525D01*
X8289Y8524D01*
X8292Y8522D01*
X8295Y8521D01*
X8298Y8519D01*
X8300Y8517D01*
X8302Y8514D01*
X8305Y8512D01*
X8254Y8689D02*
X8253Y8686D01*
X8253Y8682D01*
X8252Y8679D01*
X8252Y8676D01*
X8251Y8673D01*
X8249Y8670D01*
X8248Y8667D01*
X8246Y8664D01*
X8244Y8661D01*
X8242Y8659D01*
X8240Y8656D01*
X8237Y8654D01*
X8235Y8652D01*
X8232Y8650D01*
X8229Y8649D01*
X8226Y8647D01*
X8223Y8646D01*
X8220Y8645D01*
X8217Y8644D01*
X8214Y8644D01*
X8210Y8644D01*
X8207Y8643D01*
X8204Y8644D01*
X8201Y8644D01*
X8197Y8645D01*
X8194Y8646D01*
X8191Y8647D01*
X8188Y8648D01*
X8185Y8650D01*
X8182Y8651D01*
X8180Y8653D01*
X8177Y8655D01*
X8175Y8658D01*
X8173Y8660D01*
X8171Y8663D01*
X8169Y8666D01*
X8167Y8668D01*
X8166Y8671D01*
X8165Y8674D01*
X8164Y8678D01*
X8163Y8681D01*
X8163Y8684D01*
X8163Y8687D01*
Y8691D01*
X8163Y8694D01*
X8163Y8697D01*
X8164Y8700D01*
X8165Y8703D01*
X8166Y8707D01*
X8167Y8710D01*
X8169Y8712D01*
X8171Y8715D01*
X8173Y8718D01*
X8175Y8720D01*
X8177Y8723D01*
X8180Y8725D01*
X8182Y8727D01*
X8185Y8728D01*
X8188Y8730D01*
X8191Y8731D01*
X8194Y8732D01*
X8197Y8733D01*
X8201Y8734D01*
X8204Y8734D01*
X8207Y8734D01*
X8210Y8734D01*
X8214Y8734D01*
X8217Y8734D01*
X8220Y8733D01*
X8223Y8732D01*
X8226Y8731D01*
X8229Y8729D01*
X8232Y8728D01*
X8235Y8726D01*
X8237Y8724D01*
X8240Y8721D01*
X8242Y8719D01*
X8244Y8716D01*
X8246Y8714D01*
X8248Y8711D01*
X8249Y8708D01*
X8251Y8705D01*
X8252Y8702D01*
X8252Y8699D01*
X8253Y8696D01*
X8253Y8692D01*
X8254Y8689D01*
X8285Y8649D02*
X8287Y8645D01*
X8289Y8641D01*
X8292Y8638D01*
X8289Y8641D01*
X8287Y8645D01*
X8285Y8649D01*
X8283Y8651D01*
X8280Y8653D01*
X8277Y8656D01*
X8275Y8658D01*
X8272Y8661D01*
X8270Y8663D01*
X8269Y8666D01*
X8267Y8669D01*
X8266Y8672D01*
X8264Y8676D01*
X8264Y8679D01*
X8263Y8682D01*
X8263Y8686D01*
X8262Y8689D01*
X8263Y8693D01*
X8263Y8696D01*
X8264Y8699D01*
X8265Y8703D01*
X8266Y8706D01*
X8267Y8709D01*
X8269Y8712D01*
X8271Y8715D01*
X8273Y8718D01*
X8275Y8720D01*
X8332Y8598D02*
X8334Y8596D01*
X8336Y8594D01*
X8339Y8593D01*
X8342Y8592D01*
X8345Y8591D01*
X8348Y8591D01*
X8345Y8591D01*
X8342Y8592D01*
X8339Y8593D01*
X8336Y8594D01*
X8334Y8596D01*
X8332Y8598D01*
X8339Y8656D02*
X8341Y8658D01*
X8343Y8660D01*
X8345Y8663D01*
X8347Y8665D01*
X8348Y8668D01*
X8350Y8671D01*
X8351Y8674D01*
X8352Y8677D01*
X8353Y8680D01*
X8353Y8683D01*
X8353Y8686D01*
X8354Y8689D01*
X8480Y8637D02*
X8483Y8637D01*
X8486Y8636D01*
X8489Y8635D01*
X8492Y8634D01*
X8494Y8632D01*
X8496Y8630D01*
X8494Y8632D01*
X8492Y8634D01*
X8489Y8635D01*
X8486Y8636D01*
X8483Y8637D01*
X8480Y8637D01*
X8354Y8689D02*
X8353Y8693D01*
X8353Y8697D01*
X8352Y8700D01*
X8351Y8704D01*
X8350Y8708D01*
X8348Y8711D01*
X8346Y8714D01*
X8344Y8717D01*
X8341Y8720D01*
X8254Y8789D02*
X8253Y8786D01*
X8253Y8782D01*
X8252Y8779D01*
X8252Y8776D01*
X8251Y8773D01*
X8249Y8770D01*
X8248Y8767D01*
X8246Y8764D01*
X8244Y8761D01*
X8242Y8759D01*
X8240Y8756D01*
X8237Y8754D01*
X8235Y8752D01*
X8232Y8750D01*
X8229Y8749D01*
X8226Y8747D01*
X8223Y8746D01*
X8220Y8745D01*
X8217Y8744D01*
X8214Y8744D01*
X8210Y8744D01*
X8207Y8743D01*
X8204Y8744D01*
X8201Y8744D01*
X8197Y8745D01*
X8194Y8746D01*
X8191Y8747D01*
X8188Y8748D01*
X8185Y8750D01*
X8182Y8751D01*
X8180Y8753D01*
X8177Y8755D01*
X8175Y8758D01*
X8173Y8760D01*
X8171Y8763D01*
X8169Y8766D01*
X8167Y8768D01*
X8166Y8771D01*
X8165Y8774D01*
X8164Y8778D01*
X8163Y8781D01*
X8163Y8784D01*
X8163Y8787D01*
Y8791D01*
X8163Y8794D01*
X8163Y8797D01*
X8164Y8800D01*
X8165Y8803D01*
X8166Y8807D01*
X8167Y8810D01*
X8169Y8812D01*
X8171Y8815D01*
X8173Y8818D01*
X8175Y8820D01*
X8177Y8823D01*
X8180Y8825D01*
X8182Y8827D01*
X8185Y8828D01*
X8188Y8830D01*
X8191Y8831D01*
X8194Y8832D01*
X8197Y8833D01*
X8201Y8834D01*
X8204Y8834D01*
X8207Y8834D01*
X8210Y8834D01*
X8214Y8834D01*
X8217Y8834D01*
X8220Y8833D01*
X8223Y8832D01*
X8226Y8831D01*
X8229Y8829D01*
X8232Y8828D01*
X8235Y8826D01*
X8237Y8824D01*
X8240Y8821D01*
X8242Y8819D01*
X8244Y8816D01*
X8246Y8814D01*
X8248Y8811D01*
X8249Y8808D01*
X8251Y8805D01*
X8252Y8802D01*
X8252Y8799D01*
X8253Y8796D01*
X8253Y8792D01*
X8254Y8789D01*
X8275Y8758D02*
X8273Y8760D01*
X8271Y8763D01*
X8269Y8765D01*
X8267Y8768D01*
X8266Y8771D01*
X8265Y8774D01*
X8264Y8778D01*
X8263Y8781D01*
X8263Y8784D01*
X8263Y8787D01*
X8263Y8791D01*
X8263Y8794D01*
X8263Y8797D01*
X8264Y8800D01*
X8265Y8803D01*
X8266Y8807D01*
X8267Y8810D01*
X8269Y8812D01*
X8271Y8815D01*
X8273Y8818D01*
X8275Y8820D01*
X8277Y8823D01*
X8280Y8825D01*
X8282Y8827D01*
X8285Y8828D01*
X8288Y8830D01*
X8291Y8831D01*
X8294Y8832D01*
X8297Y8833D01*
X8301Y8834D01*
X8304Y8834D01*
X8307Y8834D01*
X8310Y8834D01*
X8314Y8834D01*
X8317Y8834D01*
X8320Y8833D01*
X8323Y8832D01*
X8326Y8831D01*
X8329Y8829D01*
X8332Y8828D01*
X8335Y8826D01*
X8337Y8824D01*
X8340Y8821D01*
X8342Y8819D01*
X8344Y8817D01*
X8346Y8814D01*
X8348Y8811D01*
X8349Y8808D01*
X8351Y8805D01*
X8352Y8802D01*
X8352Y8799D01*
X8353Y8796D01*
X8353Y8792D01*
X8354Y8789D01*
X8353Y8785D01*
X8353Y8781D01*
X8352Y8778D01*
X8351Y8774D01*
X8350Y8770D01*
X8348Y8767D01*
X8346Y8764D01*
X8344Y8761D01*
X8341Y8758D01*
X8927Y7332D02*
X8926Y7335D01*
X8924Y7338D01*
X8922Y7340D01*
X8919Y7342D01*
X8917Y7345D01*
X8914Y7346D01*
X8911Y7348D01*
X8908Y7349D01*
X8905Y7350D01*
X8901Y7351D01*
X8898Y7352D01*
X8895Y7352D01*
X8891Y7352D01*
X8888Y7352D01*
X8885Y7351D01*
X8882Y7350D01*
X8878Y7349D01*
X8875Y7347D01*
X8873Y7345D01*
X8870Y7343D01*
X8867Y7341D01*
X8865Y7339D01*
X8863Y7336D01*
X8861Y7333D01*
X8860Y7330D01*
X8858Y7327D01*
X8857Y7324D01*
X8857Y7321D01*
X8856Y7317D01*
X8856Y7314D01*
X8856Y7311D01*
X8857Y7307D01*
X8857Y7304D01*
X8858Y7301D01*
X8860Y7298D01*
X8861Y7295D01*
X8863Y7292D01*
X8865Y7289D01*
X8867Y7287D01*
X8870Y7285D01*
X8873Y7283D01*
X8875Y7281D01*
X8878Y7279D01*
X8882Y7278D01*
X8885Y7277D01*
X8888Y7276D01*
X8891Y7276D01*
X8895Y7276D01*
X8898Y7276D01*
X8901Y7277D01*
X8905Y7278D01*
X8908Y7279D01*
X8911Y7280D01*
X8914Y7282D01*
X8917Y7283D01*
X8919Y7286D01*
X8922Y7288D01*
X8924Y7290D01*
X8926Y7293D01*
X8927Y7296D01*
X8965D02*
X8963Y7293D01*
X8961Y7290D01*
X8959Y7287D01*
X8958Y7284D01*
X8957Y7281D01*
X8956Y7277D01*
X8956Y7274D01*
X8956Y7270D01*
X8956Y7267D01*
X8957Y7263D01*
X8958Y7260D01*
X8959Y7257D01*
X8961Y7254D01*
X8962Y7251D01*
X8965Y7248D01*
X8967Y7245D01*
X8969Y7243D01*
X8972Y7241D01*
X8975Y7239D01*
X8978Y7237D01*
X8981Y7236D01*
X8985Y7235D01*
X8988Y7234D01*
X8991Y7234D01*
X8995Y7234D01*
X8998Y7234D01*
X9002Y7235D01*
X9005Y7235D01*
X9008Y7237D01*
X9011Y7238D01*
X9014Y7240D01*
X9017Y7242D01*
X9020Y7244D01*
X9022Y7246D01*
X9025Y7249D01*
X9026Y7252D01*
X9073Y7152D02*
X9072Y7155D01*
X9070Y7158D01*
X9068Y7160D01*
X9065Y7162D01*
X9063Y7165D01*
X9060Y7166D01*
X9057Y7168D01*
X9054Y7169D01*
X9051Y7170D01*
X9047Y7171D01*
X9044Y7172D01*
X9041Y7172D01*
X9037Y7172D01*
X9034Y7172D01*
X9031Y7171D01*
X9028Y7170D01*
X9024Y7169D01*
X9021Y7167D01*
X9019Y7165D01*
X9016Y7163D01*
X9013Y7161D01*
X9011Y7159D01*
X9009Y7156D01*
X9007Y7153D01*
X9006Y7150D01*
X9004Y7147D01*
X9003Y7144D01*
X9003Y7141D01*
X9002Y7137D01*
X9002Y7134D01*
X9002Y7131D01*
X9003Y7127D01*
X9003Y7124D01*
X9004Y7121D01*
X9006Y7118D01*
X9007Y7115D01*
X9009Y7112D01*
X9011Y7109D01*
X9013Y7107D01*
X9016Y7105D01*
X9019Y7103D01*
X9021Y7101D01*
X9024Y7099D01*
X9028Y7098D01*
X9031Y7097D01*
X9034Y7096D01*
X9037Y7096D01*
X9041Y7096D01*
X9044Y7096D01*
X9047Y7097D01*
X9051Y7098D01*
X9054Y7099D01*
X9057Y7100D01*
X9060Y7102D01*
X9063Y7103D01*
X9065Y7106D01*
X9068Y7108D01*
X9070Y7110D01*
X9072Y7113D01*
X9073Y7116D01*
X9173Y7252D02*
X9174Y7249D01*
X9176Y7246D01*
X9178Y7244D01*
X9181Y7242D01*
X9183Y7239D01*
X9186Y7238D01*
X9189Y7236D01*
X9192Y7235D01*
X9195Y7234D01*
X9199Y7233D01*
X9202Y7232D01*
X9205Y7232D01*
X9209Y7232D01*
X9212Y7232D01*
X9215Y7233D01*
X9218Y7234D01*
X9222Y7235D01*
X9225Y7237D01*
X9227Y7239D01*
X9230Y7241D01*
X9233Y7243D01*
X9235Y7245D01*
X9237Y7248D01*
X9239Y7251D01*
X9240Y7254D01*
X9242Y7257D01*
X9243Y7260D01*
X9243Y7263D01*
X9244Y7267D01*
X9244Y7270D01*
X9244Y7273D01*
X9243Y7276D01*
X9243Y7279D01*
X9242Y7282D01*
X9241Y7285D01*
X9239Y7288D01*
X9238Y7291D01*
X9236Y7294D01*
X9234Y7296D01*
X8985Y7377D02*
X8984Y7374D01*
X8982Y7371D01*
X8980Y7369D01*
X8977Y7367D01*
X8975Y7364D01*
X8972Y7363D01*
X8969Y7361D01*
X8966Y7360D01*
X8963Y7359D01*
X8959Y7358D01*
X8956Y7357D01*
X8953Y7357D01*
X8949Y7357D01*
X8946Y7357D01*
X8943Y7358D01*
X8940Y7359D01*
X8936Y7360D01*
X8933Y7362D01*
X8931Y7364D01*
X8928Y7366D01*
X8925Y7368D01*
X8923Y7370D01*
X8921Y7373D01*
X8919Y7376D01*
X8918Y7379D01*
X8916Y7382D01*
X8915Y7385D01*
X8915Y7388D01*
X8914Y7392D01*
X8914Y7395D01*
X8914Y7398D01*
X8915Y7402D01*
X8915Y7405D01*
X8916Y7408D01*
X8918Y7411D01*
X8919Y7414D01*
X8921Y7417D01*
X8923Y7420D01*
X8925Y7422D01*
X8928Y7424D01*
X8931Y7426D01*
X8933Y7428D01*
X8936Y7430D01*
X8940Y7431D01*
X8943Y7432D01*
X8946Y7433D01*
X8949Y7433D01*
X8953Y7433D01*
X8956Y7433D01*
X8959Y7432D01*
X8963Y7431D01*
X8966Y7430D01*
X8969Y7429D01*
X8972Y7427D01*
X8975Y7426D01*
X8977Y7423D01*
X8980Y7421D01*
X8982Y7419D01*
X8984Y7416D01*
X8985Y7413D01*
X8114Y7772D02*
X8114Y7769D01*
X8113Y7766D01*
X8112Y7763D01*
X8111Y7760D01*
X8110Y7757D01*
X8108Y7754D01*
X8106Y7751D01*
X8104Y7749D01*
X8102Y7746D01*
X8100Y7744D01*
X8097Y7742D01*
X8094Y7741D01*
X8091Y7739D01*
X8088Y7738D01*
X8085Y7737D01*
X8082Y7736D01*
X8079Y7736D01*
X8075Y7736D01*
X8072Y7736D01*
X8069Y7737D01*
X8066Y7737D01*
X8063Y7738D01*
X8060Y7740D01*
X8057Y7741D01*
X8054Y7743D01*
X8052Y7745D01*
X8049Y7747D01*
X8047Y7750D01*
X8045Y7752D01*
X8043Y7755D01*
X8042Y7758D01*
X8040Y7761D01*
X8039Y7764D01*
X8039Y7767D01*
X8038Y7770D01*
X8038Y7773D01*
X8038Y7777D01*
X8038Y7780D01*
X8039Y7783D01*
X8040Y7786D01*
X8041Y7789D01*
X8043Y7792D01*
X8044Y7795D01*
X8046Y7798D01*
X8048Y7800D01*
X8051Y7802D01*
X8053Y7804D01*
X8056Y7806D01*
X8059Y7808D01*
X8062Y7809D01*
X8065Y7810D01*
X8068Y7811D01*
X8071Y7812D01*
X8074Y7812D01*
X8108Y8090D02*
X8108Y8094D01*
X8109Y8097D01*
X8110Y8101D01*
X8112Y8104D01*
X8114Y8107D01*
X8116Y8110D01*
X8114Y8107D01*
X8112Y8104D01*
X8110Y8101D01*
X8109Y8097D01*
X8108Y8094D01*
X8108Y8090D01*
X8164Y7834D02*
X8164Y7830D01*
X8163Y7827D01*
X8162Y7823D01*
X8160Y7820D01*
X8158Y7817D01*
X8156Y7814D01*
X8158Y7817D01*
X8160Y7820D01*
X8162Y7823D01*
X8163Y7827D01*
X8164Y7830D01*
X8164Y7834D01*
X8171Y8086D02*
X8175Y8086D01*
X8178Y8087D01*
X8181Y8087D01*
X8184Y8089D01*
X8187Y8090D01*
X8190Y8091D01*
X8192Y8093D01*
X8195Y8095D01*
X8197Y8098D01*
X8199Y8100D01*
X8201Y8103D01*
X8203Y8105D01*
X8204Y8108D01*
X8206Y8111D01*
X8207Y8114D01*
X8207Y8117D01*
X8208Y8121D01*
X8208Y8124D01*
X8208Y8127D01*
X8207Y8130D01*
X8207Y8133D01*
X8206Y8137D01*
X8204Y8140D01*
X8203Y8143D01*
X8201Y8145D01*
X8199Y8148D01*
X8197Y8150D01*
X8195Y8153D01*
X8192Y8155D01*
X8189Y8156D01*
X8186Y8158D01*
X8183Y8159D01*
X8180Y8160D01*
X8177Y8161D01*
X8174Y8162D01*
X8171Y8162D01*
X8167Y8162D01*
X8164Y8161D01*
X8161Y8161D01*
X8158Y8160D01*
X8155Y8159D01*
X8152Y8157D01*
X8149Y8156D01*
X8146Y8154D01*
X8144Y8152D01*
X8142Y8149D01*
X8139Y8147D01*
X8138Y8144D01*
X8136Y8141D01*
X8135Y8138D01*
X8134Y8135D01*
X8133Y8132D01*
X8132Y8129D01*
X8132Y8125D01*
X8005Y8305D02*
X8004Y8302D01*
X8002Y8299D01*
X8000Y8296D01*
X7998Y8294D01*
X7996Y8291D01*
X7993Y8289D01*
X7991Y8286D01*
X7988Y8284D01*
X7986Y8282D01*
X7983Y8280D01*
X7980Y8279D01*
X7977Y8277D01*
X7974Y8276D01*
X7971Y8274D01*
X7968Y8273D01*
X7964Y8272D01*
X7961Y8271D01*
X7958Y8271D01*
X7954Y8270D01*
X7951Y8270D01*
X7948Y8270D01*
X7944Y8270D01*
X7941Y8270D01*
X7937Y8271D01*
X7934Y8271D01*
X7931Y8272D01*
X7928Y8273D01*
X7924Y8274D01*
X7921Y8276D01*
X7918Y8277D01*
X7915Y8279D01*
X7912Y8280D01*
X7910Y8282D01*
X7907Y8284D01*
X7904Y8286D01*
X7902Y8289D01*
X7900Y8291D01*
X7897Y8294D01*
X7895Y8296D01*
X7893Y8299D01*
X7892Y8302D01*
X7890Y8305D01*
X9504Y7832D02*
X9501Y7830D01*
X9499Y7828D01*
X9496Y7826D01*
X9494Y7824D01*
X9492Y7821D01*
X9490Y7818D01*
X9488Y7815D01*
X9487Y7812D01*
X9486Y7809D01*
X9485Y7806D01*
X9485Y7803D01*
X9484Y7799D01*
X9484Y7796D01*
X9485Y7793D01*
X9485Y7789D01*
X9486Y7786D01*
X9488Y7783D01*
X9489Y7780D01*
X9491Y7777D01*
X9493Y7774D01*
X9495Y7772D01*
X9497Y7770D01*
X9500Y7768D01*
X9503Y7766D01*
X9506Y7764D01*
X9509Y7763D01*
X9512Y7762D01*
X9515Y7761D01*
X9519Y7761D01*
X9522Y7760D01*
X9525Y7760D01*
X9529Y7761D01*
X9532Y7762D01*
X9535Y7763D01*
X9538Y7764D01*
X9541Y7765D01*
X9544Y7767D01*
X9547Y7769D01*
X9549Y7771D01*
X9551Y7774D01*
X9553Y7776D01*
X9555Y7779D01*
X9557Y7782D01*
X9558Y7785D01*
X9559Y7788D01*
X9560Y7792D01*
X9560Y7795D01*
X9560Y7798D01*
X9560Y7802D01*
X9560Y7805D01*
X9559Y7808D01*
X9558Y7812D01*
X9557Y7815D01*
X9555Y7818D01*
X9553Y7821D01*
X9551Y7823D01*
X9549Y7826D01*
X9546Y7828D01*
X9543Y7830D01*
X9540Y7832D01*
X10276Y7296D02*
X10281Y7297D01*
X10285Y7298D01*
X10289Y7301D01*
X10289Y7301D02*
X10285Y7298D01*
X10281Y7297D01*
X10276Y7296D01*
X9708Y8220D02*
X9703Y8221D01*
X9699Y8222D01*
X9695Y8225D01*
X9695Y8225D02*
X9699Y8222D01*
X9703Y8221D01*
X9708Y8220D01*
X9878D02*
X9879Y8217D01*
X9881Y8214D01*
X9883Y8212D01*
X9886Y8210D01*
X9888Y8207D01*
X9891Y8206D01*
X9894Y8204D01*
X9897Y8203D01*
X9900Y8202D01*
X9904Y8201D01*
X9907Y8200D01*
X9910Y8200D01*
X9914Y8200D01*
X9917Y8200D01*
X9920Y8201D01*
X9923Y8202D01*
X9927Y8203D01*
X9930Y8205D01*
X9932Y8207D01*
X9935Y8209D01*
X9938Y8211D01*
X9940Y8213D01*
X9942Y8216D01*
X9944Y8219D01*
X9945Y8222D01*
X9947Y8225D01*
X9948Y8228D01*
X9948Y8231D01*
X9949Y8235D01*
X9949Y8238D01*
X10199Y7382D02*
X10195Y7379D01*
X10191Y7378D01*
X10186Y7377D01*
X10191Y7378D01*
X10195Y7379D01*
X10199Y7382D01*
X10279Y7462D02*
X10282Y7466D01*
X10283Y7470D01*
X10284Y7475D01*
X10283Y7470D01*
X10282Y7466D01*
X10279Y7462D01*
X9949Y8238D02*
X9949Y8241D01*
X9948Y8245D01*
X9948Y8248D01*
X9947Y8251D01*
X9945Y8254D01*
X9944Y8257D01*
X9942Y8260D01*
X9940Y8263D01*
X9938Y8265D01*
X9935Y8267D01*
X9932Y8269D01*
X9930Y8271D01*
X9927Y8273D01*
X9923Y8274D01*
X9920Y8275D01*
X9917Y8276D01*
X9914Y8276D01*
X9910Y8276D01*
X9907Y8276D01*
X9904Y8275D01*
X9900Y8274D01*
X9897Y8273D01*
X9894Y8272D01*
X9891Y8270D01*
X9888Y8269D01*
X9886Y8266D01*
X9883Y8264D01*
X9881Y8262D01*
X9879Y8259D01*
X9878Y8256D01*
X10088Y8305D02*
X10090Y8302D01*
X10092Y8299D01*
X10094Y8296D01*
X10096Y8294D01*
X10098Y8291D01*
X10100Y8289D01*
X10103Y8286D01*
X10105Y8284D01*
X10108Y8282D01*
X10111Y8280D01*
X10114Y8279D01*
X10117Y8277D01*
X10120Y8276D01*
X10123Y8274D01*
X10126Y8273D01*
X10129Y8272D01*
X10133Y8271D01*
X10136Y8271D01*
X10139Y8270D01*
X10143Y8270D01*
X10146Y8270D01*
X10149Y8270D01*
X10153Y8270D01*
X10156Y8271D01*
X10159Y8271D01*
X10163Y8272D01*
X10166Y8273D01*
X10169Y8274D01*
X10172Y8276D01*
X10175Y8277D01*
X10178Y8279D01*
X10181Y8280D01*
X10184Y8282D01*
X10187Y8284D01*
X10189Y8286D01*
X10192Y8289D01*
X10194Y8291D01*
X10196Y8294D01*
X10198Y8296D01*
X10200Y8299D01*
X10202Y8302D01*
X10204Y8305D01*
X10388Y7408D02*
X10387Y7403D01*
X10386Y7399D01*
X10383Y7395D01*
X10383Y7395D02*
X10386Y7399D01*
X10387Y7403D01*
X10388Y7408D01*
X11262Y7602D02*
X11266Y7605D01*
X11270Y7606D01*
X11275Y7607D01*
X11115Y7836D02*
X11114Y7841D01*
X11113Y7845D01*
X11110Y7849D01*
X11110Y7849D02*
X11113Y7845D01*
X11114Y7841D01*
X11115Y7836D01*
X11154Y7905D02*
X11154Y7902D01*
X11153Y7898D01*
X11153Y7895D01*
X11152Y7892D01*
X11150Y7889D01*
X11149Y7886D01*
X11147Y7883D01*
X11145Y7880D01*
X11143Y7878D01*
X11140Y7876D01*
X11138Y7874D01*
X11135Y7872D01*
X11132Y7870D01*
X11129Y7869D01*
X11125Y7868D01*
X11122Y7868D01*
X11119Y7867D01*
X11116Y7867D01*
X11112Y7867D01*
X11109Y7868D01*
X11106Y7868D01*
X11103Y7869D01*
X11099Y7871D01*
X11097Y7872D01*
X11094Y7874D01*
X11091Y7876D01*
X11089Y7879D01*
X11086Y7881D01*
X11084Y7884D01*
X11083Y7887D01*
X11081Y7890D01*
X11080Y7893D01*
X11079Y7896D01*
X11078Y7899D01*
X11078Y7903D01*
X11078Y7906D01*
X11078Y7909D01*
X11079Y7912D01*
X11080Y7916D01*
X11081Y7919D01*
X11082Y7922D01*
X11084Y7925D01*
X11085Y7928D01*
X11088Y7930D01*
X11090Y7933D01*
X11092Y7935D01*
X11095Y7937D01*
X11098Y7938D01*
X11262Y7602D02*
X11266Y7605D01*
X11270Y7606D01*
X11275Y7607D01*
X11154Y7905D02*
X11154Y7908D01*
X11153Y7912D01*
X11153Y7915D01*
X11152Y7918D01*
X11150Y7921D01*
X11149Y7924D01*
X11147Y7927D01*
X11145Y7930D01*
X11142Y7932D01*
X11140Y7935D01*
X11137Y7937D01*
X11134Y7938D01*
X11084Y8144D02*
X11081Y8143D01*
X11077Y8143D01*
X11074Y8142D01*
X11070Y8142D01*
X11067Y8142D01*
X11063Y8143D01*
X11060Y8144D01*
X11056Y8145D01*
X11053Y8146D01*
X11050Y8148D01*
X11047Y8150D01*
X11045Y8153D01*
X11042Y8155D01*
X11040Y8158D01*
X11038Y8161D01*
Y8199D02*
X11040Y8202D01*
X11042Y8204D01*
X11044Y8207D01*
X11046Y8209D01*
X11049Y8211D01*
X11052Y8213D01*
X11055Y8214D01*
X11058Y8216D01*
X11061Y8217D01*
X11064Y8217D01*
X11068Y8218D01*
X11071Y8218D01*
X11074Y8218D01*
X11078Y8217D01*
X11081Y8217D01*
X11084Y8216D01*
X11087Y8214D01*
X11090Y8213D01*
X11093Y8211D01*
X11095Y8209D01*
X11098Y8207D01*
X11100Y8204D01*
X11102Y8202D01*
X11104Y8199D01*
X11105Y8196D01*
X11107Y8193D01*
X11108Y8190D01*
X11108Y8187D01*
X11109Y8183D01*
X11109Y8180D01*
X11128Y8153D02*
X11130Y8152D01*
X11131Y8150D01*
X11132Y8147D01*
X11133Y8145D01*
X11134Y8143D01*
X11134Y8140D01*
X11134Y8143D01*
X11133Y8145D01*
X11132Y8147D01*
X11131Y8150D01*
X11130Y8152D01*
X11128Y8153D01*
X11108Y8171D02*
X11109Y8174D01*
X11109Y8177D01*
X11109Y8180D01*
X11556Y8360D02*
X11558Y8362D01*
X11559Y8365D01*
X11560Y8368D01*
X11561Y8370D01*
X11562Y8373D01*
X11563Y8376D01*
X11564Y8379D01*
X11564Y8382D01*
X11564Y8385D01*
X11564Y8388D01*
X11564Y8391D01*
X11563Y8394D01*
X11562Y8397D01*
X11561Y8400D01*
X11560Y8402D01*
X11559Y8405D01*
X11558Y8408D01*
X11556Y8410D01*
X11593Y8418D02*
X11590Y8415D01*
X11588Y8413D01*
X11586Y8410D01*
X11584Y8407D01*
X11582Y8404D01*
X11581Y8401D01*
X11580Y8397D01*
X11579Y8394D01*
X11578Y8390D01*
X11578Y8387D01*
Y8383D01*
X11578Y8380D01*
X11579Y8376D01*
X11580Y8373D01*
X11581Y8369D01*
X11582Y8366D01*
X11584Y8363D01*
X11586Y8360D01*
X11588Y8357D01*
X11590Y8355D01*
X11593Y8352D01*
Y8448D02*
X11590Y8447D01*
X11587Y8445D01*
X11584Y8444D01*
X11581Y8443D01*
X11578Y8443D01*
X11575Y8442D01*
X11572Y8442D01*
X11568Y8442D01*
X11565Y8442D01*
X11562Y8443D01*
X11559Y8444D01*
X11556Y8445D01*
D17*
X11491Y8762D02*
X11491Y8762D01*
X11480Y8762D02*
Y8774D01*
Y8762D02*
X11491D01*
X11333Y7334D02*
X11337Y7333D01*
X11333Y7334D02*
Y7325D01*
X11333Y7325D01*
Y8762D02*
X11320D01*
X8271Y8485D02*
X8108Y8648D01*
Y8689D01*
X10940Y8683D02*
X10940D01*
X10571Y8485D02*
Y8295D01*
X11835Y7314D02*
X11855Y7294D01*
Y7209D01*
X11840Y7194D01*
X11835Y7314D02*
X11800D01*
X11840Y7194D02*
X10992D01*
X11800Y7325D02*
X11806D01*
X11800D02*
Y7314D01*
X10992Y7194D02*
X10980Y7206D01*
Y7206D01*
X10940Y7246D01*
X9660Y8574D02*
X9700Y8614D01*
X9660Y8574D02*
X9460D01*
X9420Y8534D01*
Y8465D01*
X9372Y8414D01*
Y8354D01*
X8573Y8414D02*
X8553Y8434D01*
X9349Y8334D02*
X9372Y8354D01*
X9349Y8334D02*
X8972D01*
X8921Y8385D01*
X8870Y8334D01*
X8573Y8354D02*
Y8414D01*
X8593Y8334D02*
X8870D01*
X8593D02*
X8573Y8354D01*
X8308Y8654D02*
Y8689D01*
X8480Y8614D02*
X8520Y8574D01*
X8348Y8614D02*
X8308Y8654D01*
X8520Y8574D02*
Y8454D01*
X8480Y8614D02*
X8348D01*
X8540Y8434D02*
X8553D01*
X8540D02*
X8520Y8454D01*
X12125Y8206D02*
X12133Y8218D01*
X12126Y7707D02*
X12206Y7627D01*
X12126Y7707D02*
X12125Y8206D01*
X12126Y7707D02*
X11960Y7534D01*
Y7454D01*
X11920Y7354D02*
Y7194D01*
X11860Y7414D02*
X11517D01*
X11840Y7114D02*
X11920Y7194D01*
X11840Y7114D02*
X11480D01*
X11443Y7374D02*
X11377Y7373D01*
X11480Y7114D02*
X11440Y7074D01*
X9400Y8294D02*
X8529D01*
X8271Y8434D02*
Y8485D01*
X8700Y7074D02*
X11440D01*
X8700D02*
X8560Y7214D01*
X11890Y7384D02*
X11960Y7454D01*
X11860Y7414D02*
X11920Y7354D01*
D18*
X11921Y7174D02*
X11914D01*
X11921Y7180D02*
Y7069D01*
X11920D02*
Y7179D01*
X11921Y7180D02*
X11843Y7117D01*
X11900Y7163D02*
Y7069D01*
X11889Y7154D02*
X11921D01*
X11880Y7147D02*
Y7069D01*
X11864Y7134D02*
X11921D01*
X11860Y7131D02*
Y7069D01*
X11840D02*
Y7117D01*
X11820Y7117D02*
Y7069D01*
X11800D02*
Y7117D01*
X11780Y7117D02*
Y7069D01*
X11760D02*
Y7117D01*
X11740Y7117D02*
Y7069D01*
X11720D02*
Y7117D01*
X11700Y7117D02*
Y7069D01*
X11680D02*
Y7117D01*
X11660Y7116D02*
Y7069D01*
X11640D02*
Y7116D01*
X11620Y7116D02*
Y7069D01*
X11600D02*
Y7116D01*
X11580Y7116D02*
Y7069D01*
X11560D02*
Y7116D01*
X11540Y7116D02*
Y7069D01*
X11520D02*
Y7116D01*
X11500Y7116D02*
Y7069D01*
X11480D02*
Y7116D01*
X11460Y7116D02*
Y7069D01*
X11440D02*
Y7116D01*
X11420Y7116D02*
Y7069D01*
X11400D02*
Y7116D01*
X11380Y7116D02*
Y7069D01*
X11360D02*
Y7116D01*
X11340Y7116D02*
Y7069D01*
X11320D02*
Y7116D01*
X11315Y7116D02*
X11843Y7117D01*
X11921Y7114D02*
X11311D01*
X10884Y7094D02*
X11921D01*
Y7074D02*
X10884D01*
X11300Y7069D02*
Y7111D01*
X11280D02*
Y7069D01*
X11300Y7111D02*
X10884D01*
X11260D02*
Y7069D01*
X11240D02*
Y7111D01*
X11220D02*
Y7069D01*
X11200D02*
Y7111D01*
X11180D02*
Y7069D01*
X11160D02*
Y7111D01*
X11140D02*
Y7069D01*
X11120D02*
Y7111D01*
X11100D02*
Y7069D01*
X11080D02*
Y7111D01*
X11060D02*
Y7069D01*
X11040D02*
Y7111D01*
X10884Y7069D02*
X11921D01*
X11020D02*
Y7111D01*
X11000D02*
Y7069D01*
X10980D02*
Y7111D01*
X10960D02*
Y7069D01*
X10940D02*
Y7111D01*
X10920D02*
Y7069D01*
X10900D02*
Y7111D01*
X10884D02*
X10884Y7069D01*
X11300Y7111D02*
X11303Y7111D01*
X11305Y7112D01*
X11308Y7112D01*
X11310Y7113D01*
X11313Y7115D01*
X11315Y7116D01*
X11313Y7115D01*
X11310Y7113D01*
X11308Y7112D01*
X11305Y7112D01*
X11303Y7111D01*
X11300Y7111D01*
D24*
X10941Y8613D02*
X10940Y8683D01*
X10936Y8618D02*
X10941Y8613D01*
X10442Y8614D02*
X9700D01*
X10578Y8618D02*
X10936D01*
X8271Y8434D02*
X8254Y8417D01*
Y8307D01*
X8170Y8124D02*
X8136Y8090D01*
X8136Y7834D01*
X8076Y7774D01*
X8482Y8124D02*
X8560Y8046D01*
X8482Y8124D02*
X8260D01*
X8560Y8046D02*
Y7214D01*
D27*
X11491Y8762D02*
Y8830D01*
X11456Y8865D02*
X11366D01*
X11334Y8833D01*
X11456Y8865D02*
X11491Y8830D01*
X11334Y8833D02*
Y8763D01*
X11333Y8762D01*
Y8683D01*
X11885Y8683D02*
Y8762D01*
X11540Y8613D02*
X10941D01*
X10891Y7485D02*
Y7374D01*
X10571Y7805D02*
Y8295D01*
X10891Y7374D02*
X10940Y7325D01*
X10891Y7485D02*
X10571Y7805D01*
X10940Y7325D02*
Y7246D01*
X8308Y8689D02*
Y8789D01*
X9921Y8385D02*
Y8307D01*
X11491Y7383D02*
Y7325D01*
X11333D02*
Y7379D01*
D29*
X12086Y8450D02*
Y8765D01*
Y8450D02*
X12021Y8385D01*
X11996Y8855D02*
X11616D01*
X11570Y8809D01*
X11996Y8855D02*
X12086Y8765D01*
X11570Y8762D02*
Y8809D01*
X8894Y7314D02*
D03*
X8952Y7395D02*
D03*
X9206Y7270D02*
D03*
X8994Y7272D02*
D03*
X9911Y8238D02*
D03*
X11540Y8614D02*
D03*
X11116Y7905D02*
D03*
X11071Y8180D02*
D03*
X9522Y7798D02*
D03*
X9040Y7134D02*
D03*
X12125Y8215D02*
D03*
X12205Y7626D02*
D03*
X8560Y7874D02*
D03*
Y7594D02*
D03*
D03*
D03*
X8076Y7774D02*
D03*
X10570Y8642D02*
D03*
X8170Y8124D02*
D03*
X8260D02*
D03*
X11806Y7325D02*
D03*
Y7246D02*
D03*
X11727Y7325D02*
D03*
Y7246D02*
D03*
X11648Y7325D02*
D03*
Y7246D02*
D03*
X11570Y7325D02*
D03*
Y7246D02*
D03*
X11491Y7325D02*
D03*
Y7246D02*
D03*
X11412Y7325D02*
D03*
Y7246D02*
D03*
X11333Y7325D02*
D03*
Y7246D02*
D03*
X11255Y7325D02*
D03*
Y7246D02*
D03*
X11176D02*
D03*
Y7325D02*
D03*
X11097D02*
D03*
Y7246D02*
D03*
X11019Y7325D02*
D03*
Y7246D02*
D03*
X10940Y7325D02*
D03*
Y7246D02*
D03*
X11885Y8762D02*
D03*
Y8683D02*
D03*
X11806D02*
D03*
X11727D02*
D03*
X11648D02*
D03*
X11570D02*
D03*
X11491D02*
D03*
X11412D02*
D03*
X11333D02*
D03*
X11255D02*
D03*
X11176D02*
D03*
X11097D02*
D03*
X11806Y8762D02*
D03*
X11727D02*
D03*
X11648D02*
D03*
X11570D02*
D03*
X11491D02*
D03*
X11412D02*
D03*
X11333D02*
D03*
X11255D02*
D03*
X11176D02*
D03*
X11097D02*
D03*
X11019Y8683D02*
D03*
Y8762D02*
D03*
X10940Y8683D02*
D03*
Y8762D02*
D03*
D32*
X8321Y8385D02*
D03*
X8421D02*
D03*
X8521D02*
D03*
X8621D02*
D03*
X8721D02*
D03*
X8821D02*
D03*
X8921D02*
D03*
X9021D02*
D03*
X9121D02*
D03*
X9221D02*
D03*
X9321D02*
D03*
X9421D02*
D03*
X9521D02*
D03*
X9621D02*
D03*
X9721D02*
D03*
X9821D02*
D03*
X9921D02*
D03*
X10021D02*
D03*
X10321D02*
D03*
X10421D02*
D03*
X10521D02*
D03*
X10621D02*
D03*
X10721D02*
D03*
X10821D02*
D03*
X10921D02*
D03*
X11021D02*
D03*
X11121D02*
D03*
X11221D02*
D03*
X11321D02*
D03*
X11421D02*
D03*
X11521D02*
D03*
X11621D02*
D03*
X11721D02*
D03*
X11821D02*
D03*
X11921D02*
D03*
X8271Y8485D02*
D03*
X8471D02*
D03*
X8571D02*
D03*
X8671D02*
D03*
X8771D02*
D03*
X8871D02*
D03*
X8971D02*
D03*
X9071D02*
D03*
X9171D02*
D03*
X9271D02*
D03*
X9371D02*
D03*
X9471D02*
D03*
X9571D02*
D03*
X9671D02*
D03*
X9771D02*
D03*
X9871D02*
D03*
X9971D02*
D03*
X10271D02*
D03*
X10371D02*
D03*
X10471D02*
D03*
X10571D02*
D03*
X10671D02*
D03*
X10771D02*
D03*
X10871D02*
D03*
X10971D02*
D03*
X11071D02*
D03*
X11171D02*
D03*
X11271D02*
D03*
X11371D02*
D03*
X11471D02*
D03*
X11571D02*
D03*
X11671D02*
D03*
X11771D02*
D03*
X11871D02*
D03*
X11971D02*
D03*
X8371D02*
D03*
D34*
X8308Y8789D02*
D03*
Y8689D02*
D03*
X8208D02*
D03*
Y8789D02*
D03*
D45*
X12021Y8385D02*
D03*
D48*
X8108Y8789D02*
D03*
Y8689D02*
D03*
M02*
